<?xml version="1.0" standalone="no"?>
<!DOCTYPE svg PUBLIC "-//W3C//DTD SVG 1.1//EN" "http://www.w3.org/Graphics/SVG/1.1/DTD/svg11.dtd" >
<svg xmlns="http://www.w3.org/2000/svg" xmlns:xlink="http://www.w3.org/1999/xlink" version="1.1">
<metadata>
Created by FontForge 20161013 at Wed May 29 12:20:48 2013
 By ,,,
Copyright (c) 2013 by Hannes von Doehren. All rights reserved.
</metadata>
<defs>
<font id="NiveauGroteskExtraLight" horiz-adv-x="520" >
  <font-face 
    font-family="Niveau Grotesk ExtraLight"
    font-weight="250"
    font-stretch="normal"
    units-per-em="1000"
    panose-1="2 0 0 0 0 0 0 0 0 0"
    ascent="750"
    descent="-250"
    x-height="475"
    cap-height="680"
    bbox="-106 -215 1068 897"
    underline-thickness="50"
    underline-position="-200"
    unicode-range="U+0020-FB02"
  />
<missing-glyph horiz-adv-x="833" 
d="M69 49l301 301l-301 301l20 20l301 -301l301 301l20 -20l-301 -301l301 -301l-20 -20l-301 301l-301 -301z" />
    <glyph glyph-name="fi" unicode="fi" horiz-adv-x="543" 
d="M284 475v-27h-146v-448h-30v448h-82v27h82v98q0 58 32.5 92.5t89.5 34.5q36 0 64 -10v-34q-28 14 -64 14q-92 0 -92 -97v-98h146zM462 475v-475h-30v475h30zM418 637q0 13 8.5 21.5t20.5 8.5q13 0 21.5 -8.5t8.5 -21.5q0 -12 -8.5 -20.5t-21.5 -8.5q-12 0 -20.5 8.5
t-8.5 20.5z" />
    <glyph glyph-name="fl" unicode="fl" horiz-adv-x="540" 
d="M284 475v-27h-146v-448h-30v448h-82v27h82v98q0 58 32.5 92.5t89.5 34.5q36 0 64 -10v-34q-28 14 -64 14q-92 0 -92 -97v-98h146zM457 690v-690h-30v690h30z" />
    <glyph glyph-name=".notdef" horiz-adv-x="833" 
d="M69 49l301 301l-301 301l20 20l301 -301l301 301l20 -20l-301 -301l301 -301l-20 -20l-301 301l-301 -301z" />
    <glyph glyph-name=".null" horiz-adv-x="0" 
 />
    <glyph glyph-name="nonmarkingreturn" horiz-adv-x="333" 
 />
    <glyph glyph-name="space" unicode=" " horiz-adv-x="252" 
 />
    <glyph glyph-name="exclam" unicode="!" horiz-adv-x="227" 
d="M128 194h-30v486h30v-486zM79 24q0 15 10 25t24 10q15 0 25 -10t10 -25q0 -14 -10 -24t-25 -10q-14 0 -24 10t-10 24z" />
    <glyph glyph-name="quotedbl" unicode="&#x22;" horiz-adv-x="302" 
d="M100 486h-30v194h30v-194zM232 486h-30v194h30v-194z" />
    <glyph glyph-name="numbersign" unicode="#" horiz-adv-x="647" 
d="M319 0l61 207h-201l-62 -207h-29l61 207h-104v27h112l64 214h-146v27h154l61 205h30l-61 -205h201l61 205h30l-61 -205h112v-27h-120l-64 -214h154v-27h-162l-62 -207h-29zM251 448l-64 -214h201l64 214h-201z" />
    <glyph glyph-name="dollar" unicode="$" horiz-adv-x="458" 
d="M392 646v-44q-62 55 -141 58v-304l57 -37q60 -39 84 -75.5t24 -86.5q0 -62 -44 -108.5t-121 -55.5v-110h-30v107h-5q-87 0 -163 48v44q72 -62 163 -62h5v317l-71 47q-94 60 -94 147q0 60 42 105.5t123 52.5v89h30v-88q81 -1 141 -44zM292 291l-41 27v-296q63 9 98 47.5
t35 87.5q0 75 -92 134zM88 531q0 -68 75 -117l58 -38v283q-60 -5 -96.5 -40t-36.5 -88z" />
    <glyph glyph-name="percent" unicode="%" horiz-adv-x="778" 
d="M223 0l302 680h30l-303 -680h-29zM179 661q-46 0 -73.5 -27.5t-27.5 -68.5v-141q0 -41 27.5 -68.5t73.5 -27.5t74 27.5t28 68.5v141q0 41 -28 68.5t-74 27.5zM179 690q57 0 94.5 -35.5t37.5 -88.5v-143q0 -53 -37.5 -89t-94.5 -36q-56 0 -93.5 36t-37.5 89v143
q0 53 37.5 88.5t93.5 35.5zM598 353q-46 0 -73.5 -27.5t-27.5 -68.5v-141q0 -41 27.5 -68.5t73.5 -27.5t74 27.5t28 68.5v141q0 41 -28 68.5t-74 27.5zM598 382q57 0 94.5 -35.5t37.5 -88.5v-143q0 -53 -37.5 -89t-94.5 -36q-56 0 -93.5 36t-37.5 89v143q0 53 37.5 88.5
t93.5 35.5z" />
    <glyph glyph-name="ampersand" unicode="&#x26;" horiz-adv-x="663" 
d="M41 177q0 47 16 85t48 66t59.5 44.5t72.5 38.5l-3 5q-69 88 -69 142t40 93t100 39q62 0 96 -41t34 -90q0 -55 -37.5 -88t-110.5 -68l184 -226l5 7l145 175v-46l-125 -153l-6 -7l125 -153h-39l-106 128q-120 -138 -233 -138q-95 0 -145.5 59t-50.5 128zM236 20
q101 0 214 132l-194 236q-42 -20 -68 -35.5t-56 -40.5t-44.5 -58.5t-14.5 -76.5q0 -58 44.5 -107.5t118.5 -49.5zM262 434l6 -8q45 22 69.5 36.5t45 40t20.5 56.5q0 38 -26 69.5t-71 31.5q-49 0 -79 -29t-30 -73q0 -45 65 -124z" />
    <glyph glyph-name="quotesingle" unicode="'" horiz-adv-x="170" 
d="M100 486h-30v174h30v-174z" />
    <glyph glyph-name="parenleft" unicode="(" horiz-adv-x="242" 
d="M81 242q0 -122 36.5 -234t101.5 -196l-20 -18q-67 84 -108.5 203t-41.5 245q0 127 41.5 246t108.5 203l20 -18q-65 -84 -101.5 -196t-36.5 -235z" />
    <glyph glyph-name="parenright" unicode=")" horiz-adv-x="242" 
d="M161 243q0 122 -36.5 234t-101.5 196l20 18q67 -84 108.5 -203t41.5 -245q0 -127 -41.5 -246t-108.5 -203l-20 18q65 84 101.5 196t36.5 235z" />
    <glyph glyph-name="asterisk" unicode="*" horiz-adv-x="372" 
d="M80 634l96 -55v111h27v-112l95 56l14 -24l-95 -55l95 -54l-14 -24l-95 55v-109h-27v108l-96 -55l-13 23l96 56l-96 56z" />
    <glyph glyph-name="plus" unicode="+" 
d="M41 273v27h203v207h29v-207h205v-27h-205v-207h-29v207h-203z" />
    <glyph glyph-name="comma" unicode="," horiz-adv-x="233" 
d="M103 -145h-27l35 203h37z" />
    <glyph glyph-name="hyphen" unicode="-" horiz-adv-x="379" 
d="M308 272h-237v27h237v-27z" />
    <glyph glyph-name="period" unicode="." horiz-adv-x="209" 
d="M70 24q0 15 10 25t24 10q15 0 25 -10t10 -25q0 -14 -10 -24t-25 -10q-14 0 -24 10t-10 24z" />
    <glyph glyph-name="slash" unicode="/" horiz-adv-x="396" 
d="M32 0l302 680h30l-303 -680h-29z" />
    <glyph glyph-name="zero" unicode="0" horiz-adv-x="580" 
d="M290 660q-82 0 -132.5 -53.5t-50.5 -133.5v-266q0 -80 50.5 -133.5t132.5 -53.5t132.5 53.5t50.5 133.5v266q0 80 -50.5 133.5t-132.5 53.5zM290 690q92 0 152.5 -61.5t60.5 -154.5v-268q0 -93 -60.5 -154.5t-152.5 -61.5t-152.5 61.5t-60.5 154.5v268q0 93 60.5 154.5
t152.5 61.5z" />
    <glyph glyph-name="one" unicode="1" horiz-adv-x="438" 
d="M43 0v27h187v626h-177v27h207v-653h157v-27h-374z" />
    <glyph glyph-name="two" unicode="2" horiz-adv-x="453" 
d="M45 0v30l232 296q30 38 44.5 59.5t28.5 57.5t14 73q0 66 -41.5 105t-108.5 39q-89 0 -155 -76v40q66 66 155 66q79 0 129.5 -47t50.5 -127q0 -44 -16.5 -86t-29.5 -60t-47 -62l-223 -281h319v-27h-352z" />
    <glyph glyph-name="three" unicode="3" horiz-adv-x="465" 
d="M111 346v28h104q60 0 100 41.5t40 102.5q0 64 -41.5 103t-110.5 39q-85 0 -135 -42v36q57 36 135 36q81 0 132.5 -48.5t51.5 -123.5q0 -57 -28.5 -99.5t-72.5 -58.5q53 -15 87 -63.5t34 -114.5q0 -87 -58 -139.5t-146 -52.5q-87 0 -142 39v38q62 -47 142 -47q74 0 123 45
t49 117q0 69 -46 116.5t-114 47.5h-104z" />
    <glyph glyph-name="four" unicode="4" horiz-adv-x="526" 
d="M493 163h-103v-163h-30v163h-332v28l332 489h30v-490h103v-27zM64 190h296v436z" />
    <glyph glyph-name="five" unicode="5" horiz-adv-x="490" 
d="M429 653h-256l-33 -249h57q107 0 171.5 -54.5t64.5 -147.5q0 -97 -63.5 -154.5t-153.5 -57.5q-91 0 -174 64v44q82 -78 174 -78q77 0 131 49.5t54 132.5q0 81 -56.5 128t-146.5 47h-91l40 303h282v-27z" />
    <glyph glyph-name="six" unicode="6" horiz-adv-x="548" 
d="M347 680l-181 -263q57 33 113 33q97 0 163.5 -66t66.5 -164t-66.5 -164t-163.5 -66t-163.5 66t-66.5 164q0 77 47 145l216 315h35zM477 220q0 84 -57 142t-141 58t-141 -58t-57 -142t57 -142t141 -58t141 58t57 142z" />
    <glyph glyph-name="seven" unicode="7" horiz-adv-x="388" 
d="M370 653l-262 -653h-35l268 653h-306v27h335v-27z" />
    <glyph glyph-name="eight" unicode="8" horiz-adv-x="529" 
d="M79 518q0 72 54 122t131 50q78 0 132 -50t54 -122q0 -52 -30 -94.5t-79 -62.5q59 -21 95 -69.5t36 -109.5q0 -81 -60 -136.5t-148 -55.5q-87 0 -147 55.5t-60 136.5q0 61 35.5 109.5t94.5 69.5q-49 20 -78.5 62t-29.5 95zM89 182q0 -68 50.5 -115t124.5 -47t125 47
t51 115q0 67 -50 115.5t-126 48.5q-73 0 -124 -48t-51 -116zM110 518q0 -60 43.5 -102t110.5 -42q66 0 110.5 41.5t44.5 102.5t-44.5 101.5t-110.5 40.5q-65 0 -109.5 -40.5t-44.5 -101.5z" />
    <glyph glyph-name="nine" unicode="9" horiz-adv-x="547" 
d="M200 0l172 252q-45 -22 -104 -22q-98 0 -164 66t-66 164t66 164t164 66t164 -66t66 -164q0 -77 -47 -145l-216 -315h-35zM70 460q0 -84 57 -142t141 -58t141 58t57 142t-57 142t-141 58t-141 -58t-57 -142z" />
    <glyph glyph-name="colon" unicode=":" horiz-adv-x="211" 
d="M71 24q0 15 10 25t24 10q15 0 25 -10t10 -25q0 -14 -10 -24t-25 -10q-14 0 -24 10t-10 24zM71 449q0 15 10 25t24 10q15 0 25 -10t10 -25q0 -14 -10 -24t-25 -10q-14 0 -24 10t-10 24z" />
    <glyph glyph-name="semicolon" unicode=";" horiz-adv-x="239" 
d="M93 -145h-27l35 203h37zM96 449q0 15 10 25t24 10q15 0 25 -10t10 -25q0 -14 -10 -24t-25 -10q-14 0 -24 10t-10 24z" />
    <glyph glyph-name="less" unicode="&#x3c;" 
d="M28 272v26l437 177v-31l-404 -159l404 -158v-32z" />
    <glyph glyph-name="equal" unicode="=" 
d="M41 418h437v-27h-437v27zM41 180h437v-27h-437v27z" />
    <glyph glyph-name="greater" unicode="&#x3e;" 
d="M491 298v-26l-437 -177v32l404 158l-404 159v31z" />
    <glyph glyph-name="question" unicode="?" horiz-adv-x="418" 
d="M190 194h-32q0 48 16 76.5t52 63.5l64 61q32 30 44 59.5t12 71.5q0 57 -40 95.5t-122 38.5q-79 0 -142 -61v47q61 44 142 44q98 0 146 -48t48 -116q0 -90 -67 -154l-60 -57q-61 -57 -61 -121zM139 24q0 15 10 25t24 10q15 0 25 -10t10 -25q0 -14 -10 -24t-25 -10
q-14 0 -24 10t-10 24z" />
    <glyph glyph-name="at" unicode="@" horiz-adv-x="826" 
d="M420 -95q-158 0 -261.5 103.5t-103.5 261.5t103.5 261.5t261.5 103.5q156 0 260.5 -98t104.5 -234q0 -99 -39.5 -149.5t-97.5 -50.5q-78 0 -98 79q-46 -79 -140 -79q-70 0 -116.5 48.5t-46.5 119.5q0 72 46.5 120t116.5 48q87 0 135 -71v59h28v-199q0 -96 75 -96
q45 0 76 41.5t31 128.5q0 123 -97 214t-238 91q-144 0 -239.5 -96.5t-95.5 -240.5t95.5 -240.5t239.5 -96.5q129 0 221 79l18 -21q-99 -86 -239 -86zM275 271q0 -59 38.5 -99t96.5 -40t96 40t38 99t-38 98.5t-96 39.5t-96.5 -39.5t-38.5 -98.5z" />
    <glyph glyph-name="A" unicode="A" horiz-adv-x="606" 
d="M546 0l-90 235h-307l-89 -235h-34l260 680h34l260 -680h-34zM303 640l-144 -377h287z" />
    <glyph glyph-name="B" unicode="B" horiz-adv-x="541" 
d="M102 0v680h166q83 0 139 -46.5t56 -125.5q0 -57 -30 -97t-82 -59q62 -17 99 -61.5t37 -109.5q0 -87 -58.5 -134t-147.5 -47h-179zM455 180q0 77 -50 117t-124 40h-149v-310h149q75 0 124.5 38.5t49.5 114.5zM432 508q0 72 -47 108.5t-117 36.5h-136v-289h136q70 0 117 36
t47 108z" />
    <glyph glyph-name="C" unicode="C" horiz-adv-x="654" 
d="M604 89v-38q-90 -61 -202 -61q-149 0 -249.5 100.5t-100.5 249.5t100.5 249.5t249.5 100.5q112 0 202 -61v-38q-86 70 -202 70q-135 0 -226.5 -92.5t-91.5 -228.5t91 -228.5t227 -92.5q116 0 202 70z" />
    <glyph glyph-name="D" unicode="D" horiz-adv-x="712" 
d="M102 0v680h226q148 0 239 -95t91 -245t-91 -245t-239 -95h-226zM328 653h-196v-626h196q134 0 216 88t82 225t-82 225t-216 88z" />
    <glyph glyph-name="E" unicode="E" 
d="M446 0h-344v680h344v-27h-314v-298h294v-27h-294v-301h314v-27z" />
    <glyph glyph-name="F" unicode="F" horiz-adv-x="492" 
d="M426 303h-294v-303h-30v680h344v-27h-314v-323h294v-27z" />
    <glyph glyph-name="G" unicode="G" horiz-adv-x="762" 
d="M600 641v-36q-87 56 -187 56q-143 0 -236 -92t-93 -229q0 -132 87.5 -226.5t219.5 -94.5q134 0 217.5 85t83.5 216q0 34 -3 51h-307v27h336q6 -30 6 -79q0 -142 -92.5 -235.5t-240.5 -93.5q-146 0 -242.5 101t-96.5 249q0 150 102 250t259 100q105 0 187 -49z" />
    <glyph glyph-name="H" unicode="H" horiz-adv-x="730" 
d="M598 0v328h-466v-328h-30v680h30v-325h466v325h30v-680h-30z" />
    <glyph glyph-name="I" unicode="I" horiz-adv-x="234" 
d="M102 0v680h30v-680h-30z" />
    <glyph glyph-name="J" unicode="J" horiz-adv-x="434" 
d="M309 680h30v-499q0 -93 -48 -142t-136 -49q-79 0 -134 48v41q65 -61 136 -61q68 0 110 41.5t42 121.5v499z" />
    <glyph glyph-name="K" unicode="K" horiz-adv-x="530" 
d="M102 0v680h30v-391l332 391h40l-236 -278l246 -402h-38l-226 380l-118 -140v-240h-30z" />
    <glyph glyph-name="L" unicode="L" horiz-adv-x="463" 
d="M446 0h-344v680h30v-653h314v-27z" />
    <glyph glyph-name="M" unicode="M" horiz-adv-x="855" 
d="M443 0h-30l-281 611v-611h-30v680h30l296 -643l296 643h29v-680h-30v610z" />
    <glyph glyph-name="N" unicode="N" horiz-adv-x="713" 
d="M581 0l-446 582v-582h-30v611l-46 64v5h40l482 -631v631h30v-680h-30z" />
    <glyph glyph-name="O" unicode="O" horiz-adv-x="804" 
d="M52 340q0 149 100.5 249.5t249.5 100.5t249.5 -100.5t100.5 -249.5t-100.5 -249.5t-249.5 -100.5t-249.5 100.5t-100.5 249.5zM84 340q0 -136 91.5 -228.5t226.5 -92.5t226.5 92.5t91.5 228.5t-91.5 228.5t-226.5 92.5t-226.5 -92.5t-91.5 -228.5z" />
    <glyph glyph-name="P" unicode="P" 
d="M102 0v680h168q92 0 147.5 -51.5t55.5 -141.5t-55.5 -141t-147.5 -51h-138v-295h-30zM441 486q0 82 -47.5 124.5t-123.5 42.5h-138v-331h138q77 0 124 41t47 123z" />
    <glyph glyph-name="Q" unicode="Q" horiz-adv-x="820" 
d="M52 340q0 149 100.5 249.5t249.5 100.5t249.5 -100.5t100.5 -249.5q0 -144 -95 -244l83 -82l-21 -22l-84 83q-98 -85 -233 -85q-149 0 -249.5 100.5t-100.5 249.5zM84 340q0 -136 91.5 -228.5t226.5 -92.5q123 0 211 78l-185 186l21 22l186 -187q85 91 85 222
q0 136 -91.5 228.5t-226.5 92.5t-226.5 -92.5t-91.5 -228.5z" />
    <glyph glyph-name="R" unicode="R" horiz-adv-x="554" 
d="M102 0v680h166q91 0 147 -50t56 -133q0 -72 -43 -117t-114 -60q63 -26 119.5 -110.5t79.5 -209.5h-30q-28 138 -100 226.5t-145 88.5h-106v-315h-30zM439 496q0 73 -48 115t-123 42h-136v-311h136q75 0 123 41t48 113z" />
    <glyph glyph-name="S" unicode="S" horiz-adv-x="468" 
d="M395 646v-44q-65 58 -150 58q-68 0 -111 -35t-43 -94q0 -68 75 -117l145 -95q60 -39 84 -75.5t24 -86.5q0 -69 -53.5 -118t-146.5 -49q-87 0 -163 48v44q72 -62 163 -62q79 0 123.5 40.5t44.5 96.5q0 75 -92 134l-142 93q-94 60 -94 147q0 65 48.5 112t140.5 47
q86 0 147 -44z" />
    <glyph glyph-name="T" unicode="T" horiz-adv-x="456" 
d="M214 0v653h-198v27h424v-27h-196v-653h-30z" />
    <glyph glyph-name="U" unicode="U" horiz-adv-x="655" 
d="M531 680h30v-450q0 -108 -63 -174t-170 -66t-170.5 66t-63.5 174v450h30v-450q0 -94 56.5 -152t148.5 -58q91 0 146.5 58t55.5 152v450z" />
    <glyph glyph-name="V" unicode="V" horiz-adv-x="606" 
d="M286 0l-260 680h34l243 -641l243 641h34l-260 -680h-34z" />
    <glyph glyph-name="W" unicode="W" horiz-adv-x="979" 
d="M242 0l-212 680h34l195 -636l227 574l-23 62h34l223 -636l195 636h34l-211 -680h-34l-203 579l-225 -579h-34z" />
    <glyph glyph-name="X" unicode="X" horiz-adv-x="554" 
d="M277 321l-221 -321h-40l239 348l-229 332h40l211 -304l211 304h40l-229 -332l239 -348h-40z" />
    <glyph glyph-name="Y" unicode="Y" horiz-adv-x="554" 
d="M262 0v308l-233 372h37l211 -340l211 340h37l-233 -372v-308h-30z" />
    <glyph glyph-name="Z" unicode="Z" horiz-adv-x="458" 
d="M420 653l-352 -626h352v-27h-387v27l352 626h-342v27h377v-27z" />
    <glyph glyph-name="bracketleft" unicode="[" horiz-adv-x="261" 
d="M87 690h148v-30h-118v-835h118v-30h-148v895z" />
    <glyph glyph-name="backslash" unicode="\" horiz-adv-x="396" 
d="M62 680l302 -680h-29l-303 680h30z" />
    <glyph glyph-name="bracketright" unicode="]" horiz-adv-x="261" 
d="M174 -205h-148v30h118v835h-118v30h148v-895z" />
    <glyph glyph-name="asciicircum" unicode="^" horiz-adv-x="460" 
d="M230 698l170 -170l-18 -19l-152 151l-152 -151l-18 19z" />
    <glyph glyph-name="underscore" unicode="_" horiz-adv-x="540" 
d="M470 -57h-400v27h400v-27z" />
    <glyph glyph-name="grave" unicode="`" horiz-adv-x="600" 
d="M236 696h35l79 -147h-31z" />
    <glyph glyph-name="a" unicode="a" horiz-adv-x="464" 
d="M89 411v36q65 38 134 38q71 0 118 -40.5t47 -124.5v-320h-30v69q-21 -35 -59.5 -57t-85.5 -22q-77 0 -126.5 46.5t-49.5 115.5t50.5 115t125.5 46q46 0 86.5 -23t58.5 -55v84q0 67 -40.5 101.5t-94.5 34.5q-69 0 -134 -44zM69 152q0 -55 43 -93.5t101 -38.5
q59 0 102 38.5t43 93.5q0 53 -43.5 92t-101.5 39q-59 0 -101.5 -38.5t-42.5 -92.5z" />
    <glyph glyph-name="b" unicode="b" horiz-adv-x="620" 
d="M111 130v-130h-30v690h30v-345q28 64 85 102t131 38q104 0 175 -71.5t71 -175.5q0 -105 -71 -176.5t-175 -71.5q-74 0 -131 38t-85 102zM111 238q0 -92 62 -155t153 -63t153 63t62 155q0 91 -62 154t-153 63t-153 -63t-62 -154z" />
    <glyph glyph-name="c" unicode="c" horiz-adv-x="481" 
d="M435 71v-37q-64 -44 -141 -44q-104 0 -175.5 71.5t-71.5 176.5q0 104 71.5 175.5t175.5 71.5q78 0 141 -42v-39q-59 51 -141 51q-91 0 -153 -63t-62 -154q0 -92 62 -155t153 -63q84 0 141 51z" />
    <glyph glyph-name="d" unicode="d" horiz-adv-x="620" 
d="M509 0v130q-27 -64 -84 -102t-131 -38q-105 0 -176 71.5t-71 176.5q0 104 71 175.5t176 71.5q73 0 130 -38t85 -102v345h30v-690h-30zM509 238q0 91 -62 154t-153 63t-153 -63t-62 -154q0 -92 62 -155t153 -63t153 63t62 155z" />
    <glyph glyph-name="e" unicode="e" horiz-adv-x="558" 
d="M520 219h-441q7 -86 65 -142.5t142 -56.5q51 0 100.5 22.5t80.5 52.5v-42q-83 -63 -181 -63q-101 0 -170 71.5t-69 176.5q0 104 68.5 175.5t169.5 71.5t169 -68.5t68 -171.5q0 -14 -2 -26zM285 455q-86 0 -144 -59t-62 -147h411q0 91 -59.5 148.5t-145.5 57.5z" />
    <glyph glyph-name="f" unicode="f" horiz-adv-x="298" 
d="M284 475v-27h-146v-448h-30v448h-82v27h82v98q0 58 32.5 92.5t89.5 34.5q36 0 64 -10v-34q-28 14 -64 14q-92 0 -92 -97v-98h146z" />
    <glyph glyph-name="g" unicode="g" horiz-adv-x="609" 
d="M496 475h30v-462q0 -99 -65.5 -163.5t-163.5 -64.5q-96 0 -175 47v39q29 -23 77 -39.5t99 -16.5q85 0 141.5 56.5t56.5 141.5v123q-28 -61 -83 -96.5t-126 -35.5q-101 0 -170.5 69t-69.5 171q0 101 69.5 171t170.5 70q71 0 126 -36.5t83 -98.5v125zM496 244
q0 89 -59.5 149t-149.5 60q-89 0 -148.5 -60t-59.5 -149q0 -90 59.5 -150.5t148.5 -60.5q90 0 149.5 60.5t59.5 150.5z" />
    <glyph glyph-name="h" unicode="h" horiz-adv-x="537" 
d="M111 690v-306q44 101 161 101q87 0 138.5 -55.5t51.5 -143.5v-286h-30v286q0 75 -43.5 122t-117.5 47q-73 0 -115.5 -45t-44.5 -118v-292h-30v690h30z" />
    <glyph glyph-name="i" unicode="i" horiz-adv-x="192" 
d="M111 475v-475h-30v475h30zM67 637q0 13 8.5 21.5t20.5 8.5q13 0 21.5 -8.5t8.5 -21.5q0 -12 -8.5 -20.5t-21.5 -8.5q-12 0 -20.5 8.5t-8.5 20.5z" />
    <glyph glyph-name="j" unicode="j" horiz-adv-x="192" 
d="M81 -109v584h30v-584q0 -54 -24 -80t-64 -26q-32 0 -52 14v33q25 -17 52 -17q58 0 58 76zM67 637q0 13 8.5 21.5t20.5 8.5q13 0 21.5 -8.5t8.5 -21.5q0 -12 -8.5 -20.5t-21.5 -8.5q-12 0 -20.5 8.5t-8.5 20.5z" />
    <glyph glyph-name="k" unicode="k" horiz-adv-x="431" 
d="M81 0v690h30v-490l256 275h39l-174 -188l183 -287h-38l-166 267l-100 -109v-158h-30z" />
    <glyph glyph-name="l" unicode="l" horiz-adv-x="196" 
d="M113 690v-690h-30v690h30z" />
    <glyph glyph-name="m" unicode="m" horiz-adv-x="812" 
d="M111 475v-74q40 84 142 84q58 0 101 -29t60 -82q16 54 55.5 82.5t96.5 28.5q76 0 123.5 -47.5t47.5 -132.5v-305h-30v304q0 72 -39 111.5t-102 39.5t-102.5 -39.5t-39.5 -111.5v-304h-30v304q0 72 -39 111.5t-102 39.5q-62 0 -101 -37.5t-41 -106.5v-311h-30v475h30z" />
    <glyph glyph-name="n" unicode="n" horiz-adv-x="537" 
d="M111 475v-91q44 101 161 101q87 0 138.5 -55.5t51.5 -143.5v-286h-30v286q0 75 -43.5 122t-117.5 47q-73 0 -115.5 -45t-44.5 -118v-292h-30v475h30z" />
    <glyph glyph-name="o" unicode="o" horiz-adv-x="588" 
d="M47 238q0 104 71.5 175.5t175.5 71.5q105 0 176 -71.5t71 -175.5q0 -105 -71 -176.5t-176 -71.5q-104 0 -175.5 71.5t-71.5 176.5zM79 238q0 -92 62 -155t153 -63t153 63t62 155q0 91 -62 154t-153 63t-153 -63t-62 -154z" />
    <glyph glyph-name="p" unicode="p" horiz-adv-x="620" 
d="M111 475v-130q28 64 85 102t131 38q104 0 175 -71.5t71 -175.5q0 -105 -71 -176.5t-175 -71.5q-74 0 -131 38t-85 102v-335h-30v680h30zM111 238q0 -92 62 -155t153 -63t153 63t62 155q0 91 -62 154t-153 63t-153 -63t-62 -154z" />
    <glyph glyph-name="q" unicode="q" horiz-adv-x="622" 
d="M509 345v130h30v-680h-30v335q-27 -64 -84 -102t-131 -38q-105 0 -176 71.5t-71 176.5q0 104 71 175.5t176 71.5q73 0 130 -38t85 -102zM509 238q0 91 -62 154t-153 63t-153 -63t-62 -154q0 -92 62 -155t153 -63t153 63t62 155z" />
    <glyph glyph-name="r" unicode="r" horiz-adv-x="306" 
d="M111 475v-78q37 88 133 88q21 0 44 -5v-34q-20 9 -45 9q-66 0 -98 -44t-34 -119v-292h-30v475h30z" />
    <glyph glyph-name="s" unicode="s" horiz-adv-x="373" 
d="M309 454v-42q-51 43 -114 43q-51 0 -80 -24t-29 -63q0 -26 13.5 -43t44.5 -36l100 -61q83 -50 83 -117q0 -58 -42.5 -89.5t-109.5 -31.5q-66 0 -123 35v43q56 -48 125 -48q55 0 86.5 24.5t31.5 64.5q0 49 -67 89l-103 63q-71 43 -71 106q0 51 37.5 84.5t106.5 33.5
q63 0 111 -31z" />
    <glyph glyph-name="t" unicode="t" horiz-adv-x="271" 
d="M150 0h-30v448h-106v27h106v131l30 12v-143h107v-27h-107v-448z" />
    <glyph glyph-name="u" unicode="u" horiz-adv-x="540" 
d="M427 0v90q-43 -100 -161 -100q-86 0 -137.5 55.5t-51.5 143.5v286h30v-286q0 -75 43 -122t117 -47q72 0 115 44.5t45 117.5v293h30v-475h-30z" />
    <glyph glyph-name="v" unicode="v" horiz-adv-x="486" 
d="M26 475h33l184 -440l184 440h33l-200 -475h-34z" />
    <glyph glyph-name="w" unicode="w" horiz-adv-x="753" 
d="M31 475h33l137 -434l146 381l-23 53h34l192 -434l139 434h33l-153 -475h-33l-171 386l-148 -386h-34z" />
    <glyph glyph-name="x" unicode="x" horiz-adv-x="417" 
d="M208 212l-149 -212h-38l168 238l-168 237h38l149 -212l150 212h38l-168 -237l168 -238h-38z" />
    <glyph glyph-name="y" unicode="y" horiz-adv-x="472" 
d="M114 -205l105 242l-192 438h35l174 -401l175 401h36l-298 -680h-35z" />
    <glyph glyph-name="z" unicode="z" horiz-adv-x="373" 
d="M333 445l-262 -418h262v-27h-297v30l262 418h-252v27h287v-30z" />
    <glyph glyph-name="braceleft" unicode="{" horiz-adv-x="287" 
d="M12 229v27h30q81 0 81 101v193q0 140 112 140h27v-27h-27q-39 0 -60.5 -24.5t-21.5 -89.5v-192q0 -97 -66 -115q66 -18 66 -115v-191q0 -65 21.5 -89.5t60.5 -24.5h27v-27h-27q-112 0 -112 140v192q0 102 -81 102h-30z" />
    <glyph glyph-name="bar" unicode="|" horiz-adv-x="204" 
d="M117 690v-895h-30v895h30z" />
    <glyph glyph-name="braceright" unicode="}" horiz-adv-x="287" 
d="M275 256v-27h-30q-81 0 -81 -101v-193q0 -140 -112 -140h-27v27h27q39 0 60.5 24.5t21.5 89.5v192q0 97 66 115q-66 18 -66 115v191q0 65 -21.5 89.5t-60.5 24.5h-27v27h27q112 0 112 -140v-192q0 -102 81 -102h30z" />
    <glyph glyph-name="asciitilde" unicode="~" 
d="M478 310v-35q-35 -37 -102 -37q-37 0 -120.5 33.5t-114.5 33.5q-28 0 -56 -12.5t-43 -32.5v35q37 37 99 37q38 0 120.5 -33.5t114.5 -33.5q69 0 102 45z" />
    <glyph glyph-name="uni00A0" unicode="&#xa0;" horiz-adv-x="252" 
 />
    <glyph glyph-name="exclamdown" unicode="&#xa1;" horiz-adv-x="202" 
d="M86 281h30v-486h-30v486zM135 451q0 -15 -10 -25t-24 -10q-15 0 -25 10t-10 25q0 14 10 24t25 10q14 0 24 -10t10 -24z" />
    <glyph glyph-name="cent" unicode="&#xa2;" 
d="M321 690v-97q70 -3 129 -42v-39q-56 47 -129 51v-435q75 3 129 51v-37q-59 -41 -129 -44v-98h-30v98q-98 7 -163.5 77.5t-65.5 170.5q0 99 65.5 169t163.5 77v98h30zM94 346q0 -87 56.5 -149t140.5 -69v434q-84 -7 -140.5 -68.5t-56.5 -147.5z" />
    <glyph glyph-name="sterling" unicode="&#xa3;" 
d="M44 332h106q-33 124 -33 181q0 79 50 128t131 49q97 0 150 -41v-44q-61 55 -150 55q-67 0 -108 -40.5t-41 -106.5q0 -53 33 -181h216v-27h-209q23 -85 23 -143q0 -86 -63 -135h299v-27h-344v26q34 21 55 57t21 79q0 58 -23 143h-113v27z" />
    <glyph glyph-name="currency" unicode="&#xa4;" horiz-adv-x="455" 
d="M87 285q0 48 26 85l-45 46l20 21l44 -45q40 40 98 40q52 0 92 -34l39 39l22 -20l-40 -41q31 -41 31 -91q0 -53 -32 -93l42 -42l-21 -21l-44 40q-37 -31 -89 -31q-56 0 -95 36l-44 -44l-21 22l45 45q-28 37 -28 88zM118 285q0 -51 32 -84.5t80 -33.5q49 0 81 33.5t32 84.5
t-32 84.5t-81 33.5q-48 0 -80 -33.5t-32 -84.5z" />
    <glyph glyph-name="yen" unicode="&#xa5;" 
d="M71 188h174v117h-174v27h159l-208 348h37l201 -340l201 340h37l-209 -348h161v-27h-175v-117h175v-27h-175v-161h-30v161h-174v27z" />
    <glyph glyph-name="brokenbar" unicode="&#xa6;" horiz-adv-x="212" 
d="M121 394h-30v296h30v-296zM91 108h30v-313h-30v313z" />
    <glyph glyph-name="section" unicode="&#xa7;" horiz-adv-x="485" 
d="M403 602q-72 59 -150 59q-69 0 -111.5 -28t-42.5 -77q0 -56 75 -96l145 -79q60 -32 84 -64t24 -75q0 -69 -71 -111q71 -46 71 -117q0 -59 -53.5 -100t-146.5 -41q-87 0 -163 50v43q76 -63 163 -63q79 0 123.5 32.5t44.5 78.5q0 61 -87 108l-147 81q-94 52 -94 125
q0 75 76 113q-76 46 -76 115q0 55 48.5 95t140.5 40q82 0 147 -47v-42zM175 423q-76 -29 -76 -95q0 -57 75 -97l152 -83q69 34 69 94q0 62 -92 112z" />
    <glyph glyph-name="dieresis" unicode="&#xa8;" horiz-adv-x="580" 
d="M176 627q0 13 8.5 21.5t20.5 8.5q13 0 21.5 -8.5t8.5 -21.5q0 -12 -8.5 -20.5t-21.5 -8.5q-12 0 -20.5 8.5t-8.5 20.5zM345 627q0 13 8.5 21.5t20.5 8.5q13 0 21.5 -8.5t8.5 -21.5q0 -12 -8.5 -20.5t-21.5 -8.5q-12 0 -20.5 8.5t-8.5 20.5z" />
    <glyph glyph-name="copyright" unicode="&#xa9;" horiz-adv-x="806" 
d="M55 345q0 154 102 252t247 98q144 0 245.5 -98t101.5 -252t-101.5 -253.5t-245.5 -99.5t-246.5 99.5t-102.5 253.5zM86 345q0 -143 92.5 -233t225.5 -90q132 0 224 90t92 233t-91.5 231.5t-224.5 88.5t-225.5 -88.5t-92.5 -231.5zM528 216v-36q-51 -31 -112 -31
q-86 0 -144.5 55.5t-58.5 137.5t58.5 137.5t144.5 55.5q61 0 112 -31v-36q-48 37 -112 37q-73 0 -122.5 -47t-49.5 -116t49.5 -116t122.5 -47q65 0 112 37z" />
    <glyph glyph-name="ordfeminine" unicode="&#xaa;" horiz-adv-x="325" 
d="M73 556v34q46 25 93 25q44 0 74 -26t30 -81v-191h-31v38q-10 -20 -34 -32t-54 -12q-46 0 -75.5 28.5t-29.5 70.5q0 41 31 69t75 28q28 0 53 -13.5t34 -31.5v47q0 40 -22 58.5t-54 18.5q-46 0 -90 -30zM78 410q0 -30 24 -51t56 -21q33 0 56.5 21t23.5 51t-24 51t-57 21
q-32 0 -55.5 -21t-23.5 -51zM63 249h205v-27h-205v27z" />
    <glyph glyph-name="guillemotleft" unicode="&#xab;" horiz-adv-x="442" 
d="M47 285l160 200l19 -18l-141 -182l141 -182l-19 -18zM211 285l160 200l19 -18l-141 -182l141 -182l-19 -18z" />
    <glyph glyph-name="logicalnot" unicode="&#xac;" 
d="M43 341v27h437v-229h-30v202h-407z" />
    <glyph glyph-name="uni00AD" unicode="&#xad;" horiz-adv-x="379" 
d="M308 272h-237v27h237v-27z" />
    <glyph glyph-name="registered" unicode="&#xae;" horiz-adv-x="591" 
d="M50 518q0 109 72 178t174 69t173.5 -69t71.5 -178q0 -108 -71.5 -178t-173.5 -70t-174 70t-72 178zM76 518q0 -99 64 -161t156 -62t155.5 62t63.5 161t-63.5 160.5t-155.5 61.5t-156 -61.5t-64 -160.5zM221 387v264h76q39 0 62.5 -19.5t23.5 -52.5q0 -28 -16.5 -45.5
t-44.5 -23.5q26 -11 47.5 -43.5t29.5 -79.5h-27q-10 51 -36 82.5t-55 31.5h-34v-114h-26zM356 576q0 23 -16.5 36.5t-42.5 13.5h-50v-100h50q26 0 42.5 13.5t16.5 36.5z" />
    <glyph glyph-name="macron" unicode="&#xaf;" horiz-adv-x="580" 
d="M159 640h262v-27h-262v27z" />
    <glyph glyph-name="degree" unicode="&#xb0;" horiz-adv-x="386" 
d="M50 539q0 62 41.5 104.5t101.5 42.5t102 -42.5t42 -104.5q0 -61 -42 -104t-102 -43q-59 0 -101 43t-42 104zM81 539q0 -51 32 -84.5t80 -33.5q49 0 81 33.5t32 84.5t-32 84.5t-81 33.5q-48 0 -80 -33.5t-32 -84.5z" />
    <glyph glyph-name="plusminus" unicode="&#xb1;" 
d="M41 402v27h203v207h29v-207h205v-27h-205v-207h-29v207h-203zM41 53v27h437v-27h-437z" />
    <glyph glyph-name="twosuperior" unicode="&#xb2;" horiz-adv-x="282" 
d="M31 430v28l134 158q49 58 49 97q0 33 -23 53t-60 20q-52 0 -92 -40v36q41 34 93 34q51 0 81.5 -27.5t30.5 -72.5q0 -24 -9 -46.5t-18 -34.5t-27 -33l-122 -143h177v-29h-214z" />
    <glyph glyph-name="threesuperior" unicode="&#xb3;" horiz-adv-x="285" 
d="M68 616v29h61q33 0 55 20.5t22 50.5q0 32 -22.5 51t-60.5 19q-52 0 -81 -23v35q32 18 81 18t82 -28t33 -70q0 -31 -15.5 -54t-39.5 -33q29 -9 47.5 -36t18.5 -62q0 -49 -35.5 -79t-89.5 -30q-49 0 -86 21v36q39 -27 85 -27q41 0 68 22.5t27 58.5q0 35 -25.5 58t-62.5 23
h-62z" />
    <glyph glyph-name="acute" unicode="&#xb4;" horiz-adv-x="580" 
d="M312 696h35l-83 -147h-31z" />
    <glyph glyph-name="mu" unicode="&#xb5;" horiz-adv-x="553" 
d="M434 0v90q-43 -100 -161 -100q-109 0 -159 83v-278h-30v680h30v-286q0 -75 43 -122t117 -47q72 0 115 44.5t45 117.5v293h30v-475h-30z" />
    <glyph glyph-name="paragraph" unicode="&#xb6;" horiz-adv-x="429" 
d="M159 475h77v-680h-30v442h-47q-65 0 -97 32.5t-32 87.5q0 54 32 86t97 32zM343 -205h-30v680h30v-680z" />
    <glyph glyph-name="periodcentered" unicode="&#xb7;" horiz-adv-x="211" 
d="M71 273q0 15 10 25t24 10q15 0 25 -10t10 -25q0 -14 -10 -24t-25 -10q-14 0 -24 10t-10 24z" />
    <glyph glyph-name="cedilla" unicode="&#xb8;" horiz-adv-x="580" 
d="M280 -152h-30l50 152h30z" />
    <glyph glyph-name="onesuperior" unicode="&#xb9;" horiz-adv-x="275" 
d="M29 430v28h109v325h-101v28h131v-353h91v-28h-230z" />
    <glyph glyph-name="ordmasculine" unicode="&#xba;" horiz-adv-x="360" 
d="M28 463q0 64 43.5 108t107.5 44q65 0 108.5 -43.5t43.5 -108.5t-43.5 -108.5t-108.5 -43.5q-64 0 -107.5 44t-43.5 108zM59 463q0 -52 34.5 -87t85.5 -35t86 35t35 87t-35 87t-86 35t-85.5 -35t-34.5 -87zM78 249h205v-27h-205v27z" />
    <glyph glyph-name="guillemotright" unicode="&#xbb;" horiz-adv-x="444" 
d="M397 285l-160 -200l-19 18l141 182l-141 182l19 18zM231 285l-160 -200l-19 18l141 182l-141 182l19 18z" />
    <glyph glyph-name="onequarter" unicode="&#xbc;" horiz-adv-x="735" 
d="M221 0l302 680h30l-303 -680h-29zM48 299v28h109v325h-101v28h131v-353h91v-28h-230zM702 88h-59v-88h-30v88h-195v26l195 267h30v-265h59v-28zM451 116h162v218z" />
    <glyph glyph-name="onehalf" unicode="&#xbd;" horiz-adv-x="732" 
d="M221 0l302 680h30l-303 -680h-29zM48 299v28h109v325h-101v28h131v-353h91v-28h-230zM471 0v28l134 158q49 58 49 97q0 33 -23 53t-60 20q-52 0 -92 -40v36q41 34 93 34q51 0 81.5 -27.5t30.5 -72.5q0 -24 -9 -46.5t-18 -34.5t-27 -33l-122 -143h177v-29h-214z" />
    <glyph glyph-name="threequarters" unicode="&#xbe;" horiz-adv-x="723" 
d="M209 0l302 680h30l-303 -680h-29zM690 88h-59v-88h-30v88h-195v26l195 267h30v-265h59v-28zM439 116h162v218zM83 485v29h61q33 0 55 20.5t22 50.5q0 32 -22.5 51t-60.5 19q-52 0 -81 -23v35q32 18 81 18t82 -28t33 -70q0 -31 -15.5 -54t-39.5 -33q29 -9 47.5 -36
t18.5 -62q0 -49 -35.5 -79t-89.5 -30q-49 0 -86 21v36q39 -27 85 -27q41 0 68 22.5t27 58.5q0 35 -25.5 58t-62.5 23h-62z" />
    <glyph glyph-name="questiondown" unicode="&#xbf;" horiz-adv-x="405" 
d="M222 281h32q0 -48 -16 -76.5t-52 -63.5l-64 -61q-32 -30 -44 -59.5t-12 -71.5q0 -57 40 -95.5t122 -38.5q79 0 142 61v-47q-61 -44 -142 -44q-98 0 -146 48.5t-48 115.5q0 90 67 154l60 57q61 57 61 121zM273 451q0 -15 -10 -25t-24 -10q-15 0 -25 10t-10 25q0 14 10 24
t25 10q14 0 24 -10t10 -24z" />
    <glyph glyph-name="Agrave" unicode="&#xc0;" horiz-adv-x="606" 
d="M546 0l-90 235h-307l-89 -235h-34l260 680h34l260 -680h-34zM303 640l-144 -377h287zM206 876h35l79 -147h-31z" />
    <glyph glyph-name="Aacute" unicode="&#xc1;" horiz-adv-x="606" 
d="M546 0l-90 235h-307l-89 -235h-34l260 680h34l260 -680h-34zM303 640l-144 -377h287zM374 876h35l-83 -147h-31z" />
    <glyph glyph-name="Acircumflex" unicode="&#xc2;" horiz-adv-x="606" 
d="M546 0l-90 235h-307l-89 -235h-34l260 680h34l260 -680h-34zM303 640l-144 -377h287zM290 876h29l109 -147h-34l-89 121l-90 -121h-34z" />
    <glyph glyph-name="Atilde" unicode="&#xc3;" horiz-adv-x="606" 
d="M546 0l-90 235h-307l-89 -235h-34l260 680h34l260 -680h-34zM303 640l-144 -377h287zM433 800v-36q-11 12 -30 20t-34 8q-20 0 -61 -17t-70 -17q-42 0 -64 22v34q24 -26 64 -26q24 0 63.5 17t67.5 17q37 0 64 -22z" />
    <glyph glyph-name="Adieresis" unicode="&#xc4;" horiz-adv-x="606" 
d="M546 0l-90 235h-307l-89 -235h-34l260 680h34l260 -680h-34zM303 640l-144 -377h287zM189 807q0 13 8.5 21.5t20.5 8.5q13 0 21.5 -8.5t8.5 -21.5q0 -12 -8.5 -20.5t-21.5 -8.5q-12 0 -20.5 8.5t-8.5 20.5zM358 807q0 13 8.5 21.5t20.5 8.5q13 0 21.5 -8.5t8.5 -21.5
q0 -12 -8.5 -20.5t-21.5 -8.5q-12 0 -20.5 8.5t-8.5 20.5z" />
    <glyph glyph-name="Aring" unicode="&#xc5;" horiz-adv-x="606" 
d="M546 0l-90 235h-307l-89 -235h-34l260 680h34l260 -680h-34zM303 640l-144 -377h287zM208 805q0 40 27 66t68 26t68.5 -26t27.5 -66t-27.5 -66.5t-68.5 -26.5t-68 26.5t-27 66.5zM238 805q0 -29 18 -47t47 -18t47.5 18t18.5 47t-18.5 46.5t-47.5 17.5t-47 -17.5
t-18 -46.5z" />
    <glyph glyph-name="AE" unicode="&#xc6;" horiz-adv-x="849" 
d="M774 0h-344v235h-269l-161 -235h-37l466 680h345v-27h-314v-298h294v-27h-294v-301h314v-27zM180 263h250v367z" />
    <glyph glyph-name="Ccedilla" unicode="&#xc7;" horiz-adv-x="654" 
d="M358 -152h-30l47 143q-140 10 -231.5 108.5t-91.5 240.5q0 149 100.5 249.5t249.5 100.5q112 0 202 -61v-38q-86 70 -202 70q-135 0 -226.5 -92.5t-91.5 -228.5t91 -228.5t227 -92.5q116 0 202 70v-38q-88 -60 -200 -61z" />
    <glyph glyph-name="Egrave" unicode="&#xc8;" 
d="M446 0h-344v680h344v-27h-314v-298h294v-27h-294v-301h314v-27zM187 876h35l79 -147h-31z" />
    <glyph glyph-name="Eacute" unicode="&#xc9;" 
d="M446 0h-344v680h344v-27h-314v-298h294v-27h-294v-301h314v-27zM336 876h35l-83 -147h-31z" />
    <glyph glyph-name="Ecircumflex" unicode="&#xca;" 
d="M446 0h-344v680h344v-27h-314v-298h294v-27h-294v-301h314v-27zM260 876h29l109 -147h-34l-89 121l-90 -121h-34z" />
    <glyph glyph-name="Edieresis" unicode="&#xcb;" 
d="M446 0h-344v680h344v-27h-314v-298h294v-27h-294v-301h314v-27zM160 807q0 13 8.5 21.5t20.5 8.5q13 0 21.5 -8.5t8.5 -21.5q0 -12 -8.5 -20.5t-21.5 -8.5q-12 0 -20.5 8.5t-8.5 20.5zM329 807q0 13 8.5 21.5t20.5 8.5q13 0 21.5 -8.5t8.5 -21.5q0 -12 -8.5 -20.5
t-21.5 -8.5q-12 0 -20.5 8.5t-8.5 20.5z" />
    <glyph glyph-name="Igrave" unicode="&#xcc;" horiz-adv-x="234" 
d="M102 0v680h30v-680h-30zM19 876h35l79 -147h-31z" />
    <glyph glyph-name="Iacute" unicode="&#xcd;" horiz-adv-x="234" 
d="M102 0v680h30v-680h-30zM183 876h35l-83 -147h-31z" />
    <glyph glyph-name="Icircumflex" unicode="&#xce;" horiz-adv-x="234" 
d="M102 0v680h30v-680h-30zM103 876h29l109 -147h-34l-89 121l-90 -121h-34z" />
    <glyph glyph-name="Idieresis" unicode="&#xcf;" horiz-adv-x="234" 
d="M102 0v680h30v-680h-30zM3 807q0 13 8.5 21.5t20.5 8.5q13 0 21.5 -8.5t8.5 -21.5q0 -12 -8.5 -20.5t-21.5 -8.5q-12 0 -20.5 8.5t-8.5 20.5zM172 807q0 13 8.5 21.5t20.5 8.5q13 0 21.5 -8.5t8.5 -21.5q0 -12 -8.5 -20.5t-21.5 -8.5q-12 0 -20.5 8.5t-8.5 20.5z" />
    <glyph glyph-name="Eth" unicode="&#xd0;" horiz-adv-x="720" 
d="M32 355h78v325h226q148 0 239 -95t91 -245t-91 -245t-239 -95h-226v328h-78v27zM336 653h-196v-298h154v-27h-154v-301h196q134 0 216 88t82 225t-82 225t-216 88z" />
    <glyph glyph-name="Ntilde" unicode="&#xd1;" horiz-adv-x="715" 
d="M583 0l-446 582v-582h-30v611l-46 64v5h40l482 -631v631h30v-680h-30zM493 800v-36q-11 12 -30 20t-34 8q-20 0 -61 -17t-70 -17q-42 0 -64 22v34q24 -26 64 -26q24 0 63.5 17t67.5 17q37 0 64 -22z" />
    <glyph glyph-name="Ograve" unicode="&#xd2;" horiz-adv-x="804" 
d="M52 340q0 149 100.5 249.5t249.5 100.5t249.5 -100.5t100.5 -249.5t-100.5 -249.5t-249.5 -100.5t-249.5 100.5t-100.5 249.5zM84 340q0 -136 91.5 -228.5t226.5 -92.5t226.5 92.5t91.5 228.5t-91.5 228.5t-226.5 92.5t-226.5 -92.5t-91.5 -228.5zM297 876h35l79 -147
h-31z" />
    <glyph glyph-name="Oacute" unicode="&#xd3;" horiz-adv-x="804" 
d="M52 340q0 149 100.5 249.5t249.5 100.5t249.5 -100.5t100.5 -249.5t-100.5 -249.5t-249.5 -100.5t-249.5 100.5t-100.5 249.5zM84 340q0 -136 91.5 -228.5t226.5 -92.5t226.5 92.5t91.5 228.5t-91.5 228.5t-226.5 92.5t-226.5 -92.5t-91.5 -228.5zM460 876h35l-83 -147
h-31z" />
    <glyph glyph-name="Ocircumflex" unicode="&#xd4;" horiz-adv-x="804" 
d="M52 340q0 149 100.5 249.5t249.5 100.5t249.5 -100.5t100.5 -249.5t-100.5 -249.5t-249.5 -100.5t-249.5 100.5t-100.5 249.5zM84 340q0 -136 91.5 -228.5t226.5 -92.5t226.5 92.5t91.5 228.5t-91.5 228.5t-226.5 92.5t-226.5 -92.5t-91.5 -228.5zM387 876h29l109 -147
h-34l-89 121l-90 -121h-34z" />
    <glyph glyph-name="Otilde" unicode="&#xd5;" horiz-adv-x="804" 
d="M52 340q0 149 100.5 249.5t249.5 100.5t249.5 -100.5t100.5 -249.5t-100.5 -249.5t-249.5 -100.5t-249.5 100.5t-100.5 249.5zM84 340q0 -136 91.5 -228.5t226.5 -92.5t226.5 92.5t91.5 228.5t-91.5 228.5t-226.5 92.5t-226.5 -92.5t-91.5 -228.5zM531 800v-36
q-11 12 -30 20t-34 8q-20 0 -61 -17t-70 -17q-42 0 -64 22v34q24 -26 64 -26q24 0 63.5 17t67.5 17q37 0 64 -22z" />
    <glyph glyph-name="Odieresis" unicode="&#xd6;" horiz-adv-x="804" 
d="M52 340q0 149 100.5 249.5t249.5 100.5t249.5 -100.5t100.5 -249.5t-100.5 -249.5t-249.5 -100.5t-249.5 100.5t-100.5 249.5zM84 340q0 -136 91.5 -228.5t226.5 -92.5t226.5 92.5t91.5 228.5t-91.5 228.5t-226.5 92.5t-226.5 -92.5t-91.5 -228.5zM288 807q0 13 8.5 21.5
t20.5 8.5q13 0 21.5 -8.5t8.5 -21.5q0 -12 -8.5 -20.5t-21.5 -8.5q-12 0 -20.5 8.5t-8.5 20.5zM457 807q0 13 8.5 21.5t20.5 8.5q13 0 21.5 -8.5t8.5 -21.5q0 -12 -8.5 -20.5t-21.5 -8.5q-12 0 -20.5 8.5t-8.5 20.5z" />
    <glyph glyph-name="multiply" unicode="&#xd7;" 
d="M94 101l-19 19l165 165l-168 168l21 20l167 -167l167 166l19 -19l-166 -167l167 -167l-20 -21l-168 168z" />
    <glyph glyph-name="Oslash" unicode="&#xd8;" horiz-adv-x="804" 
d="M52 340q0 149 100.5 249.5t249.5 100.5q107 0 197 -58l43 59l25 -17l-44 -59q61 -48 95 -119.5t34 -155.5q0 -149 -100.5 -249.5t-249.5 -100.5q-109 0 -196 57l-40 -55l-23 18l39 53q-61 48 -95.5 120t-34.5 157zM84 340q0 -77 31 -142.5t86 -109.5l380 519
q-81 54 -179 54q-135 0 -226.5 -92.5t-91.5 -228.5zM720 340q0 75 -30.5 140.5t-84.5 109.5l-381 -519q79 -52 178 -52q135 0 226.5 92.5t91.5 228.5z" />
    <glyph glyph-name="Ugrave" unicode="&#xd9;" horiz-adv-x="655" 
d="M531 680h30v-450q0 -108 -63 -174t-170 -66t-170.5 66t-63.5 174v450h30v-450q0 -94 56.5 -152t148.5 -58q91 0 146.5 58t55.5 152v450zM237 876h35l79 -147h-31z" />
    <glyph glyph-name="Uacute" unicode="&#xda;" horiz-adv-x="655" 
d="M531 680h30v-450q0 -108 -63 -174t-170 -66t-170.5 66t-63.5 174v450h30v-450q0 -94 56.5 -152t148.5 -58q91 0 146.5 58t55.5 152v450zM385 876h35l-83 -147h-31z" />
    <glyph glyph-name="Ucircumflex" unicode="&#xdb;" horiz-adv-x="655" 
d="M531 680h30v-450q0 -108 -63 -174t-170 -66t-170.5 66t-63.5 174v450h30v-450q0 -94 56.5 -152t148.5 -58q91 0 146.5 58t55.5 152v450zM313 876h29l109 -147h-34l-89 121l-90 -121h-34z" />
    <glyph glyph-name="Udieresis" unicode="&#xdc;" horiz-adv-x="655" 
d="M531 680h30v-450q0 -108 -63 -174t-170 -66t-170.5 66t-63.5 174v450h30v-450q0 -94 56.5 -152t148.5 -58q91 0 146.5 58t55.5 152v450zM213 807q0 13 8.5 21.5t20.5 8.5q13 0 21.5 -8.5t8.5 -21.5q0 -12 -8.5 -20.5t-21.5 -8.5q-12 0 -20.5 8.5t-8.5 20.5zM382 807
q0 13 8.5 21.5t20.5 8.5q13 0 21.5 -8.5t8.5 -21.5q0 -12 -8.5 -20.5t-21.5 -8.5q-12 0 -20.5 8.5t-8.5 20.5z" />
    <glyph glyph-name="Yacute" unicode="&#xdd;" horiz-adv-x="554" 
d="M262 0v308l-233 372h37l211 -340l211 340h37l-233 -372v-308h-30zM342 876h35l-83 -147h-31z" />
    <glyph glyph-name="Thorn" unicode="&#xde;" horiz-adv-x="505" 
d="M102 0v680h30v-132h138q92 0 147.5 -51.5t55.5 -141.5t-55.5 -141t-147.5 -51h-138v-163h-30zM441 354q0 82 -47.5 124.5t-123.5 42.5h-138v-331h138q77 0 124 41t47 123z" />
    <glyph glyph-name="germandbls" unicode="&#xdf;" horiz-adv-x="514" 
d="M225 373h39q58 0 102.5 39.5t44.5 110.5q0 72 -42.5 111t-103.5 39q-77 0 -115.5 -46.5t-38.5 -125.5v-501h-30v501q0 90 45.5 144.5t138.5 54.5q76 0 126.5 -47t50.5 -130q0 -58 -31.5 -100.5t-82.5 -61.5q61 -17 99.5 -63.5t38.5 -111.5q0 -93 -57 -144.5t-145 -51.5
q-34 0 -75 9v31q35 -13 75 -13q74 0 122 42.5t48 125.5q0 77 -49.5 119t-120.5 42h-39v27z" />
    <glyph glyph-name="agrave" unicode="&#xe0;" horiz-adv-x="464" 
d="M89 411v36q65 38 134 38q71 0 118 -40.5t47 -124.5v-320h-30v69q-21 -35 -59.5 -57t-85.5 -22q-77 0 -126.5 46.5t-49.5 115.5t50.5 115t125.5 46q46 0 86.5 -23t58.5 -55v84q0 67 -40.5 101.5t-94.5 34.5q-69 0 -134 -44zM69 152q0 -55 43 -93.5t101 -38.5
q59 0 102 38.5t43 93.5q0 53 -43.5 92t-101.5 39q-59 0 -101.5 -38.5t-42.5 -92.5zM132 696h35l79 -147h-31z" />
    <glyph glyph-name="aacute" unicode="&#xe1;" horiz-adv-x="464" 
d="M89 411v36q65 38 134 38q71 0 118 -40.5t47 -124.5v-320h-30v69q-21 -35 -59.5 -57t-85.5 -22q-77 0 -126.5 46.5t-49.5 115.5t50.5 115t125.5 46q46 0 86.5 -23t58.5 -55v84q0 67 -40.5 101.5t-94.5 34.5q-69 0 -134 -44zM69 152q0 -55 43 -93.5t101 -38.5
q59 0 102 38.5t43 93.5q0 53 -43.5 92t-101.5 39q-59 0 -101.5 -38.5t-42.5 -92.5zM296 696h35l-83 -147h-31z" />
    <glyph glyph-name="acircumflex" unicode="&#xe2;" horiz-adv-x="463" 
d="M89 411v36q65 38 134 38q71 0 118 -40.5t47 -124.5v-320h-30v69q-21 -35 -59.5 -57t-85.5 -22q-77 0 -126.5 46.5t-49.5 115.5t50.5 115t125.5 46q46 0 86.5 -23t58.5 -55v84q0 67 -40.5 101.5t-94.5 34.5q-69 0 -134 -44zM69 152q0 -55 43 -93.5t101 -38.5
q59 0 102 38.5t43 93.5q0 53 -43.5 92t-101.5 39q-59 0 -101.5 -38.5t-42.5 -92.5zM206 696h29l109 -147h-34l-89 121l-90 -121h-34z" />
    <glyph glyph-name="atilde" unicode="&#xe3;" horiz-adv-x="464" 
d="M89 411v36q65 38 134 38q71 0 118 -40.5t47 -124.5v-320h-30v69q-21 -35 -59.5 -57t-85.5 -22q-77 0 -126.5 46.5t-49.5 115.5t50.5 115t125.5 46q46 0 86.5 -23t58.5 -55v84q0 67 -40.5 101.5t-94.5 34.5q-69 0 -134 -44zM69 152q0 -55 43 -93.5t101 -38.5
q59 0 102 38.5t43 93.5q0 53 -43.5 92t-101.5 39q-59 0 -101.5 -38.5t-42.5 -92.5zM350 620v-36q-11 12 -30 20t-34 8q-20 0 -61 -17t-70 -17q-42 0 -64 22v34q24 -26 64 -26q24 0 63.5 17t67.5 17q36 0 64 -22z" />
    <glyph glyph-name="adieresis" unicode="&#xe4;" horiz-adv-x="464" 
d="M89 411v36q65 38 134 38q71 0 118 -40.5t47 -124.5v-320h-30v69q-21 -35 -59.5 -57t-85.5 -22q-77 0 -126.5 46.5t-49.5 115.5t50.5 115t125.5 46q46 0 86.5 -23t58.5 -55v84q0 67 -40.5 101.5t-94.5 34.5q-69 0 -134 -44zM69 152q0 -55 43 -93.5t101 -38.5
q59 0 102 38.5t43 93.5q0 53 -43.5 92t-101.5 39q-59 0 -101.5 -38.5t-42.5 -92.5zM108 627q0 13 8.5 21.5t20.5 8.5q13 0 21.5 -8.5t8.5 -21.5q0 -12 -8.5 -20.5t-21.5 -8.5q-12 0 -20.5 8.5t-8.5 20.5zM277 627q0 13 8.5 21.5t20.5 8.5q13 0 21.5 -8.5t8.5 -21.5
q0 -12 -8.5 -20.5t-21.5 -8.5q-12 0 -20.5 8.5t-8.5 20.5z" />
    <glyph glyph-name="aring" unicode="&#xe5;" horiz-adv-x="464" 
d="M89 411v36q65 38 134 38q71 0 118 -40.5t47 -124.5v-320h-30v69q-21 -35 -59.5 -57t-85.5 -22q-77 0 -126.5 46.5t-49.5 115.5t50.5 115t125.5 46q46 0 86.5 -23t58.5 -55v84q0 67 -40.5 101.5t-94.5 34.5q-69 0 -134 -44zM69 152q0 -55 43 -93.5t101 -38.5
q59 0 102 38.5t43 93.5q0 53 -43.5 92t-101.5 39q-59 0 -101.5 -38.5t-42.5 -92.5zM129 625q0 40 27 66t68 26t68.5 -26t27.5 -66t-27.5 -66.5t-68.5 -26.5t-68 26.5t-27 66.5zM159 625q0 -29 18 -47t47 -18t47.5 18t18.5 47t-18.5 46.5t-47.5 17.5t-47 -17.5t-18 -46.5z
" />
    <glyph glyph-name="ae" unicode="&#xe6;" horiz-adv-x="870" 
d="M832 221h-441q7 -91 64.5 -146t142.5 -55q51 0 100.5 22.5t80.5 52.5v-42q-83 -63 -181 -63q-78 0 -132.5 35t-80.5 93q-16 -56 -61.5 -92t-110.5 -36q-77 0 -126.5 46.5t-49.5 115.5t50.5 115t125.5 46q46 0 86.5 -23t58.5 -55v84q0 67 -40.5 101.5t-94.5 34.5
q-69 0 -134 -44v36q65 38 134 38q63 0 108 -32.5t54 -99.5q30 60 86.5 96t125.5 36q101 0 169 -68.5t68 -171.5q0 -12 -2 -24zM69 152q0 -55 43 -93.5t101 -38.5q59 0 102 38.5t43 93.5q0 53 -43.5 92t-101.5 39q-59 0 -101.5 -38.5t-42.5 -92.5zM597 455
q-85 0 -143.5 -59.5t-62.5 -147.5h411q0 91 -59.5 149t-145.5 58z" />
    <glyph glyph-name="ccedilla" unicode="&#xe7;" horiz-adv-x="481" 
d="M250 -152h-30l47 144q-95 9 -157.5 78.5t-62.5 167.5q0 104 71.5 175.5t175.5 71.5q78 0 141 -42v-39q-59 51 -141 51q-91 0 -153 -63t-62 -154q0 -92 62 -155t153 -63q84 0 141 51v-37q-61 -43 -139 -44z" />
    <glyph glyph-name="egrave" unicode="&#xe8;" horiz-adv-x="558" 
d="M520 219h-441q7 -86 65 -142.5t142 -56.5q51 0 100.5 22.5t80.5 52.5v-42q-83 -63 -181 -63q-101 0 -170 71.5t-69 176.5q0 104 68.5 175.5t169.5 71.5t169 -68.5t68 -171.5q0 -14 -2 -26zM285 455q-86 0 -144 -59t-62 -147h411q0 91 -59.5 148.5t-145.5 57.5zM200 696
h35l79 -147h-31z" />
    <glyph glyph-name="eacute" unicode="&#xe9;" horiz-adv-x="558" 
d="M520 219h-441q7 -86 65 -142.5t142 -56.5q51 0 100.5 22.5t80.5 52.5v-42q-83 -63 -181 -63q-101 0 -170 71.5t-69 176.5q0 104 68.5 175.5t169.5 71.5t169 -68.5t68 -171.5q0 -14 -2 -26zM285 455q-86 0 -144 -59t-62 -147h411q0 91 -59.5 148.5t-145.5 57.5zM349 696
h35l-83 -147h-31z" />
    <glyph glyph-name="ecircumflex" unicode="&#xea;" horiz-adv-x="558" 
d="M520 219h-441q7 -86 65 -142.5t142 -56.5q51 0 100.5 22.5t80.5 52.5v-42q-83 -63 -181 -63q-101 0 -170 71.5t-69 176.5q0 104 68.5 175.5t169.5 71.5t169 -68.5t68 -171.5q0 -14 -2 -26zM285 455q-86 0 -144 -59t-62 -147h411q0 91 -59.5 148.5t-145.5 57.5zM283 696
h29l109 -147h-34l-89 121l-90 -121h-34z" />
    <glyph glyph-name="edieresis" unicode="&#xeb;" horiz-adv-x="558" 
d="M520 219h-441q7 -86 65 -142.5t142 -56.5q51 0 100.5 22.5t80.5 52.5v-42q-83 -63 -181 -63q-101 0 -170 71.5t-69 176.5q0 104 68.5 175.5t169.5 71.5t169 -68.5t68 -171.5q0 -14 -2 -26zM285 455q-86 0 -144 -59t-62 -147h411q0 91 -59.5 148.5t-145.5 57.5zM176 627
q0 13 8.5 21.5t20.5 8.5q13 0 21.5 -8.5t8.5 -21.5q0 -12 -8.5 -20.5t-21.5 -8.5q-12 0 -20.5 8.5t-8.5 20.5zM345 627q0 13 8.5 21.5t20.5 8.5q13 0 21.5 -8.5t8.5 -21.5q0 -12 -8.5 -20.5t-21.5 -8.5q-12 0 -20.5 8.5t-8.5 20.5z" />
    <glyph glyph-name="igrave" unicode="&#xec;" horiz-adv-x="192" 
d="M111 475v-475h-30v475h30zM-2 696h35l79 -147h-31z" />
    <glyph glyph-name="iacute" unicode="&#xed;" horiz-adv-x="192" 
d="M111 475v-475h-30v475h30zM161 696h35l-83 -147h-31z" />
    <glyph glyph-name="icircumflex" unicode="&#xee;" horiz-adv-x="192" 
d="M111 475v-475h-30v475h30zM82 696h29l109 -147h-34l-89 121l-90 -121h-34z" />
    <glyph glyph-name="idieresis" unicode="&#xef;" horiz-adv-x="192" 
d="M111 475v-475h-30v475h30zM-17 627q0 13 8.5 21.5t20.5 8.5q13 0 21.5 -8.5t8.5 -21.5q0 -12 -8.5 -20.5t-21.5 -8.5q-12 0 -20.5 8.5t-8.5 20.5zM152 627q0 13 8.5 21.5t20.5 8.5q13 0 21.5 -8.5t8.5 -21.5q0 -12 -8.5 -20.5t-21.5 -8.5q-12 0 -20.5 8.5t-8.5 20.5z" />
    <glyph glyph-name="eth" unicode="&#xf0;" horiz-adv-x="556" 
d="M391 646l-83 -57l154 -224q47 -68 47 -145q0 -98 -66.5 -164t-163.5 -66t-163.5 66t-66.5 164t66.5 164t163.5 66q55 0 104 -22l-99 144l-88 -60l-15 22l88 60l-58 86h35l47 -69l83 57zM81 220q0 -84 57 -142t141 -58t141 58t57 142t-57 142t-141 58t-141 -58t-57 -142z
" />
    <glyph glyph-name="ntilde" unicode="&#xf1;" horiz-adv-x="537" 
d="M111 475v-91q44 101 161 101q87 0 138.5 -55.5t51.5 -143.5v-286h-30v286q0 75 -43.5 122t-117.5 47q-73 0 -115.5 -45t-44.5 -118v-292h-30v475h30zM397 620v-36q-11 12 -30 20t-34 8q-20 0 -61 -17t-70 -17q-42 0 -64 22v34q24 -26 64 -26q24 0 63.5 17t67.5 17
q37 0 64 -22z" />
    <glyph glyph-name="ograve" unicode="&#xf2;" horiz-adv-x="588" 
d="M47 238q0 104 71.5 175.5t175.5 71.5q105 0 176 -71.5t71 -175.5q0 -105 -71 -176.5t-176 -71.5q-104 0 -175.5 71.5t-71.5 176.5zM79 238q0 -92 62 -155t153 -63t153 63t62 155q0 91 -62 154t-153 63t-153 -63t-62 -154zM207 696h35l79 -147h-31z" />
    <glyph glyph-name="oacute" unicode="&#xf3;" horiz-adv-x="588" 
d="M47 238q0 104 71.5 175.5t175.5 71.5q105 0 176 -71.5t71 -175.5q0 -105 -71 -176.5t-176 -71.5q-104 0 -175.5 71.5t-71.5 176.5zM79 238q0 -92 62 -155t153 -63t153 63t62 155q0 91 -62 154t-153 63t-153 -63t-62 -154zM361 696h35l-83 -147h-31z" />
    <glyph glyph-name="ocircumflex" unicode="&#xf4;" horiz-adv-x="588" 
d="M47 238q0 104 71.5 175.5t175.5 71.5q105 0 176 -71.5t71 -175.5q0 -105 -71 -176.5t-176 -71.5q-104 0 -175.5 71.5t-71.5 176.5zM79 238q0 -92 62 -155t153 -63t153 63t62 155q0 91 -62 154t-153 63t-153 -63t-62 -154zM280 696h29l109 -147h-34l-89 121l-90 -121h-34z
" />
    <glyph glyph-name="otilde" unicode="&#xf5;" horiz-adv-x="588" 
d="M47 238q0 104 71.5 175.5t175.5 71.5q105 0 176 -71.5t71 -175.5q0 -105 -71 -176.5t-176 -71.5q-104 0 -175.5 71.5t-71.5 176.5zM79 238q0 -92 62 -155t153 -63t153 63t62 155q0 91 -62 154t-153 63t-153 -63t-62 -154zM424 620v-36q-11 12 -30 20t-34 8q-20 0 -61 -17
t-70 -17q-42 0 -64 22v34q24 -26 64 -26q24 0 63.5 17t67.5 17q37 0 64 -22z" />
    <glyph glyph-name="odieresis" unicode="&#xf6;" horiz-adv-x="588" 
d="M47 238q0 104 71.5 175.5t175.5 71.5q105 0 176 -71.5t71 -175.5q0 -105 -71 -176.5t-176 -71.5q-104 0 -175.5 71.5t-71.5 176.5zM79 238q0 -92 62 -155t153 -63t153 63t62 155q0 91 -62 154t-153 63t-153 -63t-62 -154zM180 627q0 13 8.5 21.5t20.5 8.5q13 0 21.5 -8.5
t8.5 -21.5q0 -12 -8.5 -20.5t-21.5 -8.5q-12 0 -20.5 8.5t-8.5 20.5zM349 627q0 13 8.5 21.5t20.5 8.5q13 0 21.5 -8.5t8.5 -21.5q0 -12 -8.5 -20.5t-21.5 -8.5q-12 0 -20.5 8.5t-8.5 20.5z" />
    <glyph glyph-name="divide" unicode="&#xf7;" 
d="M263 67q-18 0 -30 12t-12 30t12 30t30 12q19 0 31 -12t12 -30t-12 -30t-31 -12zM263 419q-18 0 -30 12t-12 30q0 19 12 31t30 12q19 0 31 -12t12 -31q0 -18 -12 -30t-31 -12zM42 272v27h437v-27h-437z" />
    <glyph glyph-name="oslash" unicode="&#xf8;" horiz-adv-x="588" 
d="M47 238q0 104 71.5 175.5t175.5 71.5q74 0 136 -40l29 40l25 -17l-30 -40q87 -72 87 -190q0 -105 -71 -176.5t-176 -71.5q-74 0 -133 37l-25 -35l-23 18l24 34q-90 74 -90 194zM79 238q0 -105 77 -169l256 351q-54 35 -118 35q-91 0 -153 -63t-62 -154zM509 238
q0 101 -73 164l-256 -350q49 -32 114 -32q91 0 153 63t62 155z" />
    <glyph glyph-name="ugrave" unicode="&#xf9;" horiz-adv-x="540" 
d="M427 0v90q-43 -100 -161 -100q-86 0 -137.5 55.5t-51.5 143.5v286h30v-286q0 -75 43 -122t117 -47q72 0 115 44.5t45 117.5v293h30v-475h-30zM174 696h35l79 -147h-31z" />
    <glyph glyph-name="uacute" unicode="&#xfa;" horiz-adv-x="540" 
d="M427 0v90q-43 -100 -161 -100q-86 0 -137.5 55.5t-51.5 143.5v286h30v-286q0 -75 43 -122t117 -47q72 0 115 44.5t45 117.5v293h30v-475h-30zM334 696h35l-83 -147h-31z" />
    <glyph glyph-name="ucircumflex" unicode="&#xfb;" horiz-adv-x="540" 
d="M427 0v90q-43 -100 -161 -100q-86 0 -137.5 55.5t-51.5 143.5v286h30v-286q0 -75 43 -122t117 -47q72 0 115 44.5t45 117.5v293h30v-475h-30zM257 696h29l109 -147h-34l-89 121l-90 -121h-34z" />
    <glyph glyph-name="udieresis" unicode="&#xfc;" horiz-adv-x="540" 
d="M427 0v90q-43 -100 -161 -100q-86 0 -137.5 55.5t-51.5 143.5v286h30v-286q0 -75 43 -122t117 -47q72 0 115 44.5t45 117.5v293h30v-475h-30zM158 627q0 13 8.5 21.5t20.5 8.5q13 0 21.5 -8.5t8.5 -21.5q0 -12 -8.5 -20.5t-21.5 -8.5q-12 0 -20.5 8.5t-8.5 20.5zM327 627
q0 13 8.5 21.5t20.5 8.5q13 0 21.5 -8.5t8.5 -21.5q0 -12 -8.5 -20.5t-21.5 -8.5q-12 0 -20.5 8.5t-8.5 20.5z" />
    <glyph glyph-name="yacute" unicode="&#xfd;" horiz-adv-x="472" 
d="M114 -205l105 242l-192 438h35l174 -401l175 401h36l-298 -680h-35zM305 696h35l-83 -147h-31z" />
    <glyph glyph-name="thorn" unicode="&#xfe;" horiz-adv-x="620" 
d="M111 690v-345q28 64 85 102t131 38q104 0 175 -71.5t71 -175.5q0 -105 -71 -176.5t-175 -71.5q-74 0 -131 38t-85 102v-335h-30v895h30zM111 238q0 -92 62 -155t153 -63t153 63t62 155q0 91 -62 154t-153 63t-153 -63t-62 -154z" />
    <glyph glyph-name="ydieresis" unicode="&#xff;" horiz-adv-x="472" 
d="M114 -205l105 242l-192 438h35l174 -401l175 401h36l-298 -680h-35zM123 627q0 13 8.5 21.5t20.5 8.5q13 0 21.5 -8.5t8.5 -21.5q0 -12 -8.5 -20.5t-21.5 -8.5q-12 0 -20.5 8.5t-8.5 20.5zM292 627q0 13 8.5 21.5t20.5 8.5q13 0 21.5 -8.5t8.5 -21.5q0 -12 -8.5 -20.5
t-21.5 -8.5q-12 0 -20.5 8.5t-8.5 20.5z" />
    <glyph glyph-name="Amacron" unicode="&#x100;" horiz-adv-x="606" 
d="M546 0l-90 235h-307l-89 -235h-34l260 680h34l260 -680h-34zM303 640l-144 -377h287zM172 820h262v-27h-262v27z" />
    <glyph glyph-name="amacron" unicode="&#x101;" horiz-adv-x="464" 
d="M89 411v36q65 38 134 38q71 0 118 -40.5t47 -124.5v-320h-30v69q-21 -35 -59.5 -57t-85.5 -22q-77 0 -126.5 46.5t-49.5 115.5t50.5 115t125.5 46q46 0 86.5 -23t58.5 -55v84q0 67 -40.5 101.5t-94.5 34.5q-69 0 -134 -44zM69 152q0 -55 43 -93.5t101 -38.5
q59 0 102 38.5t43 93.5q0 53 -43.5 92t-101.5 39q-59 0 -101.5 -38.5t-42.5 -92.5zM94 640h262v-27h-262v27z" />
    <glyph glyph-name="Abreve" unicode="&#x102;" horiz-adv-x="606" 
d="M546 0l-90 235h-307l-89 -235h-34l260 680h34l260 -680h-34zM303 640l-144 -377h287zM395 859h30q0 -55 -34 -90t-88 -35q-53 0 -87 35t-34 90h30q0 -43 23 -69.5t68 -26.5q46 0 69 26.5t23 69.5z" />
    <glyph glyph-name="abreve" unicode="&#x103;" horiz-adv-x="464" 
d="M89 411v36q65 38 134 38q71 0 118 -40.5t47 -124.5v-320h-30v69q-21 -35 -59.5 -57t-85.5 -22q-77 0 -126.5 46.5t-49.5 115.5t50.5 115t125.5 46q46 0 86.5 -23t58.5 -55v84q0 67 -40.5 101.5t-94.5 34.5q-69 0 -134 -44zM69 152q0 -55 43 -93.5t101 -38.5
q59 0 102 38.5t43 93.5q0 53 -43.5 92t-101.5 39q-59 0 -101.5 -38.5t-42.5 -92.5zM316 679h30q0 -55 -34 -90t-88 -35q-53 0 -87 35t-34 90h30q0 -43 23 -69.5t68 -26.5q46 0 69 26.5t23 69.5z" />
    <glyph glyph-name="Aogonek" unicode="&#x104;" horiz-adv-x="606" 
d="M320 680l260 -680l-69 -56q-39 -31 -39 -65q0 -44 44 -44q32 0 72 32v-39q-1 -1 -8 -4.5t-12.5 -6t-14 -6t-18 -5t-19.5 -1.5q-33 0 -54.5 19.5t-21.5 53.5q0 44 49 85l54 43l-87 229h-307l-89 -235h-34l260 680h34zM303 640l-144 -377h287z" />
    <glyph glyph-name="aogonek" unicode="&#x105;" horiz-adv-x="463" 
d="M89 411v36q65 38 134 38q71 0 118 -40.5t47 -124.5v-320l-69 -56q-39 -31 -39 -65q0 -44 44 -44q32 0 72 32v-39q-1 -1 -8 -4.5t-12.5 -6t-14 -6t-18 -5t-19.5 -1.5q-33 0 -54.5 19.5t-21.5 53.5q0 44 49 85l61 49v57q-21 -35 -59.5 -57t-85.5 -22q-77 0 -126.5 46.5
t-49.5 115.5t50.5 115t125.5 46q46 0 86.5 -23t58.5 -55v84q0 67 -40.5 101.5t-94.5 34.5q-69 0 -134 -44zM69 152q0 -55 43 -93.5t101 -38.5q59 0 102 38.5t43 93.5q0 53 -43.5 92t-101.5 39q-59 0 -101.5 -38.5t-42.5 -92.5z" />
    <glyph glyph-name="Cacute" unicode="&#x106;" horiz-adv-x="654" 
d="M604 89v-38q-90 -61 -202 -61q-149 0 -249.5 100.5t-100.5 249.5t100.5 249.5t249.5 100.5q112 0 202 -61v-38q-86 70 -202 70q-135 0 -226.5 -92.5t-91.5 -228.5t91 -228.5t227 -92.5q116 0 202 70zM465 876h35l-83 -147h-31z" />
    <glyph glyph-name="cacute" unicode="&#x107;" horiz-adv-x="481" 
d="M435 71v-37q-64 -44 -141 -44q-104 0 -175.5 71.5t-71.5 176.5q0 104 71.5 175.5t175.5 71.5q78 0 141 -42v-39q-59 51 -141 51q-91 0 -153 -63t-62 -154q0 -92 62 -155t153 -63q84 0 141 51zM346 696h35l-83 -147h-31z" />
    <glyph glyph-name="Ccircumflex" unicode="&#x108;" horiz-adv-x="654" 
d="M604 89v-38q-90 -61 -202 -61q-149 0 -249.5 100.5t-100.5 249.5t100.5 249.5t249.5 100.5q112 0 202 -61v-38q-86 70 -202 70q-135 0 -226.5 -92.5t-91.5 -228.5t91 -228.5t227 -92.5q116 0 202 70zM384 876h29l109 -147h-34l-89 121l-90 -121h-34z" />
    <glyph glyph-name="ccircumflex" unicode="&#x109;" horiz-adv-x="481" 
d="M435 71v-37q-64 -44 -141 -44q-104 0 -175.5 71.5t-71.5 176.5q0 104 71.5 175.5t175.5 71.5q78 0 141 -42v-39q-59 51 -141 51q-91 0 -153 -63t-62 -154q0 -92 62 -155t153 -63q84 0 141 51zM278 696h29l109 -147h-34l-89 121l-90 -121h-34z" />
    <glyph glyph-name="Cdotaccent" unicode="&#x10a;" horiz-adv-x="654" 
d="M604 89v-38q-90 -61 -202 -61q-149 0 -249.5 100.5t-100.5 249.5t100.5 249.5t249.5 100.5q112 0 202 -61v-38q-86 70 -202 70q-135 0 -226.5 -92.5t-91.5 -228.5t91 -228.5t227 -92.5q116 0 202 70zM369 807q0 13 8.5 21.5t20.5 8.5q13 0 21.5 -8.5t8.5 -21.5
q0 -12 -8.5 -20.5t-21.5 -8.5q-12 0 -20.5 8.5t-8.5 20.5z" />
    <glyph glyph-name="cdotaccent" unicode="&#x10b;" horiz-adv-x="481" 
d="M435 71v-37q-64 -44 -141 -44q-104 0 -175.5 71.5t-71.5 176.5q0 104 71.5 175.5t175.5 71.5q78 0 141 -42v-39q-59 51 -141 51q-91 0 -153 -63t-62 -154q0 -92 62 -155t153 -63q84 0 141 51zM263 627q0 13 8.5 21.5t20.5 8.5q13 0 21.5 -8.5t8.5 -21.5q0 -12 -8.5 -20.5
t-21.5 -8.5q-12 0 -20.5 8.5t-8.5 20.5z" />
    <glyph glyph-name="Ccaron" unicode="&#x10c;" horiz-adv-x="654" 
d="M604 89v-38q-90 -61 -202 -61q-149 0 -249.5 100.5t-100.5 249.5t100.5 249.5t249.5 100.5q112 0 202 -61v-38q-86 70 -202 70q-135 0 -226.5 -92.5t-91.5 -228.5t91 -228.5t227 -92.5q116 0 202 70zM412 729h-29l-109 147h33l91 -123l90 123h33z" />
    <glyph glyph-name="ccaron" unicode="&#x10d;" horiz-adv-x="481" 
d="M435 71v-37q-64 -44 -141 -44q-104 0 -175.5 71.5t-71.5 176.5q0 104 71.5 175.5t175.5 71.5q78 0 141 -42v-39q-59 51 -141 51q-91 0 -153 -63t-62 -154q0 -92 62 -155t153 -63q84 0 141 51zM307 549h-29l-109 147h33l91 -123l90 123h33z" />
    <glyph glyph-name="Dcaron" unicode="&#x10e;" horiz-adv-x="712" 
d="M102 0v680h226q148 0 239 -95t91 -245t-91 -245t-239 -95h-226zM328 653h-196v-626h196q134 0 216 88t82 225t-82 225t-216 88zM327 729h-29l-109 147h33l91 -123l90 123h33z" />
    <glyph glyph-name="dcaron" unicode="&#x10f;" horiz-adv-x="620" 
d="M509 0v130q-27 -64 -84 -102t-131 -38q-105 0 -176 71.5t-71 176.5q0 104 71 175.5t176 71.5q73 0 130 -38t85 -102v345h30v-690h-30zM509 238q0 91 -62 154t-153 63t-153 -63t-62 -154q0 -92 62 -155t153 -63t153 63t62 155zM622 538h-27l27 143h37z" />
    <glyph glyph-name="Dcroat" unicode="&#x110;" horiz-adv-x="720" 
d="M32 355h78v325h226q148 0 239 -95t91 -245t-91 -245t-239 -95h-226v328h-78v27zM336 653h-196v-298h154v-27h-154v-301h196q134 0 216 88t82 225t-82 225t-216 88z" />
    <glyph glyph-name="dcroat" unicode="&#x111;" horiz-adv-x="620" 
d="M509 0v130q-27 -64 -84 -102t-131 -38q-105 0 -176 71.5t-71 176.5q0 104 71 175.5t176 71.5q73 0 130 -38t85 -102v218h-162v27h162v100h30v-100h75v-27h-75v-563h-30zM509 238q0 91 -62 154t-153 63t-153 -63t-62 -154q0 -92 62 -155t153 -63t153 63t62 155z" />
    <glyph glyph-name="Emacron" unicode="&#x112;" 
d="M446 0h-344v680h344v-27h-314v-298h294v-27h-294v-301h314v-27zM147 820h262v-27h-262v27z" />
    <glyph glyph-name="emacron" unicode="&#x113;" horiz-adv-x="558" 
d="M520 219h-441q7 -86 65 -142.5t142 -56.5q51 0 100.5 22.5t80.5 52.5v-42q-83 -63 -181 -63q-101 0 -170 71.5t-69 176.5q0 104 68.5 175.5t169.5 71.5t169 -68.5t68 -171.5q0 -14 -2 -26zM285 455q-86 0 -144 -59t-62 -147h411q0 91 -59.5 148.5t-145.5 57.5zM162 640
h262v-27h-262v27z" />
    <glyph glyph-name="Ebreve" unicode="&#x114;" 
d="M446 0h-344v680h344v-27h-314v-298h294v-27h-294v-301h314v-27zM366 859h30q0 -55 -34 -90t-88 -35q-53 0 -87 35t-34 90h30q0 -43 23 -69.5t68 -26.5q46 0 69 26.5t23 69.5z" />
    <glyph glyph-name="ebreve" unicode="&#x115;" horiz-adv-x="558" 
d="M520 219h-441q7 -86 65 -142.5t142 -56.5q51 0 100.5 22.5t80.5 52.5v-42q-83 -63 -181 -63q-101 0 -170 71.5t-69 176.5q0 104 68.5 175.5t169.5 71.5t169 -68.5t68 -171.5q0 -14 -2 -26zM285 455q-86 0 -144 -59t-62 -147h411q0 91 -59.5 148.5t-145.5 57.5zM380 679
h30q0 -55 -34 -90t-88 -35q-53 0 -87 35t-34 90h30q0 -43 23 -69.5t68 -26.5q46 0 69 26.5t23 69.5z" />
    <glyph glyph-name="Edotaccent" unicode="&#x116;" 
d="M446 0h-344v680h344v-27h-314v-298h294v-27h-294v-301h314v-27zM245 807q0 13 8.5 21.5t20.5 8.5q13 0 21.5 -8.5t8.5 -21.5q0 -12 -8.5 -20.5t-21.5 -8.5q-12 0 -20.5 8.5t-8.5 20.5z" />
    <glyph glyph-name="edotaccent" unicode="&#x117;" horiz-adv-x="558" 
d="M520 219h-441q7 -86 65 -142.5t142 -56.5q51 0 100.5 22.5t80.5 52.5v-42q-83 -63 -181 -63q-101 0 -170 71.5t-69 176.5q0 104 68.5 175.5t169.5 71.5t169 -68.5t68 -171.5q0 -14 -2 -26zM285 455q-86 0 -144 -59t-62 -147h411q0 91 -59.5 148.5t-145.5 57.5zM264 627
q0 13 8.5 21.5t20.5 8.5q13 0 21.5 -8.5t8.5 -21.5q0 -12 -8.5 -20.5t-21.5 -8.5q-12 0 -20.5 8.5t-8.5 20.5z" />
    <glyph glyph-name="Eogonek" unicode="&#x118;" 
d="M446 0l-69 -56q-39 -31 -39 -65q0 -44 44 -44q32 0 72 32v-39q-1 -1 -8 -4.5t-12.5 -6t-14 -6t-18 -5t-19.5 -1.5q-33 0 -54.5 19.5t-21.5 53.5q0 44 49 85l46 37h-299v680h344v-27h-314v-298h294v-27h-294v-301h314v-27z" />
    <glyph glyph-name="eogonek" unicode="&#x119;" horiz-adv-x="558" 
d="M520 219h-441q7 -86 65 -142.5t142 -56.5q51 0 100.5 22.5t80.5 52.5v-42q-47 -36 -107 -53h1l-69 -56q-39 -31 -39 -65q0 -44 44 -44q32 0 72 32v-39q-1 -1 -8 -4.5t-12.5 -6t-14 -6t-18 -5t-19.5 -1.5q-33 0 -54.5 19.5t-21.5 53.5q0 44 49 85l34 28q-6 -1 -18 -1
q-101 0 -170 71.5t-69 176.5q0 104 68.5 175.5t169.5 71.5t169 -68.5t68 -171.5q0 -14 -2 -26zM285 455q-86 0 -144 -59t-62 -147h411q0 91 -59.5 148.5t-145.5 57.5z" />
    <glyph glyph-name="Ecaron" unicode="&#x11a;" 
d="M446 0h-344v680h344v-27h-314v-298h294v-27h-294v-301h314v-27zM289 729h-29l-109 147h33l91 -123l90 123h33z" />
    <glyph glyph-name="ecaron" unicode="&#x11b;" horiz-adv-x="558" 
d="M520 219h-441q7 -86 65 -142.5t142 -56.5q51 0 100.5 22.5t80.5 52.5v-42q-83 -63 -181 -63q-101 0 -170 71.5t-69 176.5q0 104 68.5 175.5t169.5 71.5t169 -68.5t68 -171.5q0 -14 -2 -26zM285 455q-86 0 -144 -59t-62 -147h411q0 91 -59.5 148.5t-145.5 57.5zM301 549
h-29l-109 147h33l91 -123l90 123h33z" />
    <glyph glyph-name="Gcircumflex" unicode="&#x11c;" horiz-adv-x="762" 
d="M600 641v-36q-87 56 -187 56q-143 0 -236 -92t-93 -229q0 -132 87.5 -226.5t219.5 -94.5q134 0 217.5 85t83.5 216q0 34 -3 51h-307v27h336q6 -30 6 -79q0 -142 -92.5 -235.5t-240.5 -93.5q-146 0 -242.5 101t-96.5 249q0 150 102 250t259 100q105 0 187 -49zM383 876h29
l109 -147h-34l-89 121l-90 -121h-34z" />
    <glyph glyph-name="gcircumflex" unicode="&#x11d;" horiz-adv-x="609" 
d="M496 475h30v-462q0 -99 -65.5 -163.5t-163.5 -64.5q-96 0 -175 47v39q29 -23 77 -39.5t99 -16.5q85 0 141.5 56.5t56.5 141.5v123q-28 -61 -83 -96.5t-126 -35.5q-101 0 -170.5 69t-69.5 171q0 101 69.5 171t170.5 70q71 0 126 -36.5t83 -98.5v125zM496 244
q0 89 -59.5 149t-149.5 60q-89 0 -148.5 -60t-59.5 -149q0 -90 59.5 -150.5t148.5 -60.5q90 0 149.5 60.5t59.5 150.5zM291 696h29l109 -147h-34l-89 121l-90 -121h-34z" />
    <glyph glyph-name="Gbreve" unicode="&#x11e;" horiz-adv-x="762" 
d="M600 641v-36q-87 56 -187 56q-143 0 -236 -92t-93 -229q0 -132 87.5 -226.5t219.5 -94.5q134 0 217.5 85t83.5 216q0 34 -3 51h-307v27h336q6 -30 6 -79q0 -142 -92.5 -235.5t-240.5 -93.5q-146 0 -242.5 101t-96.5 249q0 150 102 250t259 100q105 0 187 -49zM492 859h30
q0 -55 -34 -90t-88 -35q-53 0 -87 35t-34 90h30q0 -43 23 -69.5t68 -26.5q46 0 69 26.5t23 69.5z" />
    <glyph glyph-name="gbreve" unicode="&#x11f;" horiz-adv-x="609" 
d="M496 475h30v-462q0 -99 -65.5 -163.5t-163.5 -64.5q-96 0 -175 47v39q29 -23 77 -39.5t99 -16.5q85 0 141.5 56.5t56.5 141.5v123q-28 -61 -83 -96.5t-126 -35.5q-101 0 -170.5 69t-69.5 171q0 101 69.5 171t170.5 70q71 0 126 -36.5t83 -98.5v125zM496 244
q0 89 -59.5 149t-149.5 60q-89 0 -148.5 -60t-59.5 -149q0 -90 59.5 -150.5t148.5 -60.5q90 0 149.5 60.5t59.5 150.5zM397 679h30q0 -55 -34 -90t-88 -35q-53 0 -87 35t-34 90h30q0 -43 23 -69.5t68 -26.5q46 0 69 26.5t23 69.5z" />
    <glyph glyph-name="Gdotaccent" unicode="&#x120;" horiz-adv-x="762" 
d="M600 641v-36q-87 56 -187 56q-143 0 -236 -92t-93 -229q0 -132 87.5 -226.5t219.5 -94.5q134 0 217.5 85t83.5 216q0 34 -3 51h-307v27h336q6 -30 6 -79q0 -142 -92.5 -235.5t-240.5 -93.5q-146 0 -242.5 101t-96.5 249q0 150 102 250t259 100q105 0 187 -49zM367 807
q0 13 8.5 21.5t20.5 8.5q13 0 21.5 -8.5t8.5 -21.5q0 -12 -8.5 -20.5t-21.5 -8.5q-12 0 -20.5 8.5t-8.5 20.5z" />
    <glyph glyph-name="gdotaccent" unicode="&#x121;" horiz-adv-x="609" 
d="M496 475h30v-462q0 -99 -65.5 -163.5t-163.5 -64.5q-96 0 -175 47v39q29 -23 77 -39.5t99 -16.5q85 0 141.5 56.5t56.5 141.5v123q-28 -61 -83 -96.5t-126 -35.5q-101 0 -170.5 69t-69.5 171q0 101 69.5 171t170.5 70q71 0 126 -36.5t83 -98.5v125zM496 244
q0 89 -59.5 149t-149.5 60q-89 0 -148.5 -60t-59.5 -149q0 -90 59.5 -150.5t148.5 -60.5q90 0 149.5 60.5t59.5 150.5zM276 627q0 13 8.5 21.5t20.5 8.5q13 0 21.5 -8.5t8.5 -21.5q0 -12 -8.5 -20.5t-21.5 -8.5q-12 0 -20.5 8.5t-8.5 20.5z" />
    <glyph glyph-name="Gcommaaccent" unicode="&#x122;" horiz-adv-x="762" 
d="M600 641v-36q-87 56 -187 56q-143 0 -236 -92t-93 -229q0 -132 87.5 -226.5t219.5 -94.5q134 0 217.5 85t83.5 216q0 34 -3 51h-307v27h336q6 -30 6 -79q0 -142 -92.5 -235.5t-240.5 -93.5q-146 0 -242.5 101t-96.5 249q0 150 102 250t259 100q105 0 187 -49zM377 -215
h-27l27 143h37z" />
    <glyph glyph-name="gcommaaccent" unicode="&#x123;" horiz-adv-x="609" 
d="M496 475h30v-462q0 -99 -65.5 -163.5t-163.5 -64.5q-96 0 -175 47v39q29 -23 77 -39.5t99 -16.5q85 0 141.5 56.5t56.5 141.5v123q-28 -61 -83 -96.5t-126 -35.5q-101 0 -170.5 69t-69.5 171q0 101 69.5 171t170.5 70q71 0 126 -36.5t83 -98.5v125zM496 244
q0 89 -59.5 149t-149.5 60q-89 0 -148.5 -60t-59.5 -149q0 -90 59.5 -150.5t148.5 -60.5q90 0 149.5 60.5t59.5 150.5zM316 694h27l-27 -143h-37z" />
    <glyph glyph-name="Hcircumflex" unicode="&#x124;" horiz-adv-x="730" 
d="M598 0v328h-466v-328h-30v680h30v-325h466v325h30v-680h-30zM350 876h29l109 -147h-34l-89 121l-90 -121h-34z" />
    <glyph glyph-name="hcircumflex" unicode="&#x125;" horiz-adv-x="537" 
d="M111 690v-306q44 101 161 101q87 0 138.5 -55.5t51.5 -143.5v-286h-30v286q0 75 -43.5 122t-117.5 47q-73 0 -115.5 -45t-44.5 -118v-292h-30v690h30zM253 870h29l109 -147h-34l-89 121l-90 -121h-34z" />
    <glyph glyph-name="Hbar" unicode="&#x126;" horiz-adv-x="730" 
d="M598 0v328h-466v-328h-30v680h30v-140h466v140h30v-680h-30zM132 355h466v158h-466v-158z" />
    <glyph glyph-name="hbar" unicode="&#x127;" horiz-adv-x="537" 
d="M111 690v-100h162v-27h-162v-179q44 101 161 101q87 0 138.5 -55.5t51.5 -143.5v-286h-30v286q0 75 -43.5 122t-117.5 47q-73 0 -115.5 -45t-44.5 -118v-292h-30v563h-75v27h75v100h30z" />
    <glyph glyph-name="Itilde" unicode="&#x128;" horiz-adv-x="234" 
d="M102 0v680h30v-680h-30zM247 800v-36q-11 12 -30 20t-34 8q-20 0 -61 -17t-70 -17q-42 0 -64 22v34q24 -26 64 -26q24 0 63.5 17t67.5 17q37 0 64 -22z" />
    <glyph glyph-name="itilde" unicode="&#x129;" horiz-adv-x="192" 
d="M111 475v-475h-30v475h30zM226 620v-36q-11 12 -30 20t-34 8q-20 0 -61 -17t-70 -17q-42 0 -64 22v34q24 -26 64 -26q24 0 63.5 17t67.5 17q36 0 64 -22z" />
    <glyph glyph-name="Imacron" unicode="&#x12a;" horiz-adv-x="234" 
d="M102 0v680h30v-680h-30zM-14 820h262v-27h-262v27z" />
    <glyph glyph-name="imacron" unicode="&#x12b;" horiz-adv-x="192" 
d="M111 475v-475h-30v475h30zM-34 640h262v-27h-262v27z" />
    <glyph glyph-name="Ibreve" unicode="&#x12c;" horiz-adv-x="234" 
d="M102 0v680h30v-680h-30zM209 859h30q0 -55 -34 -90t-88 -35q-53 0 -87 35t-34 90h30q0 -43 23 -69.5t68 -26.5q46 0 69 26.5t23 69.5z" />
    <glyph glyph-name="ibreve" unicode="&#x12d;" horiz-adv-x="192" 
d="M111 475v-475h-30v475h30zM188 679h30q0 -55 -34 -90t-88 -35q-53 0 -87 35t-34 90h30q0 -43 23 -69.5t68 -26.5q46 0 69 26.5t23 69.5z" />
    <glyph glyph-name="Iogonek" unicode="&#x12e;" horiz-adv-x="234" 
d="M-8 -122q0 48 49 85l61 46v671h30v-680l-69 -56q-39 -31 -39 -65q0 -44 44 -44q32 0 72 32v-39q-1 -1 -8 -4.5t-12.5 -6t-14 -6t-18 -5t-19.5 -1.5q-33 0 -54.5 19.5t-21.5 53.5z" />
    <glyph glyph-name="iogonek" unicode="&#x12f;" horiz-adv-x="193" 
d="M112 475v-475l-69 -56q-39 -31 -39 -65q0 -44 44 -44q32 0 72 32v-39q-1 -1 -8 -4.5t-12.5 -6t-14 -6t-18 -5t-19.5 -1.5q-33 0 -54.5 19.5t-21.5 53.5q0 44 49 85l61 49v463h30zM68 637q0 13 8.5 21.5t20.5 8.5q13 0 21.5 -8.5t8.5 -21.5q0 -12 -8.5 -20.5t-21.5 -8.5
q-12 0 -20.5 8.5t-8.5 20.5z" />
    <glyph glyph-name="Idotaccent" unicode="&#x130;" horiz-adv-x="234" 
d="M102 0v680h30v-680h-30zM88 807q0 13 8.5 21.5t20.5 8.5q13 0 21.5 -8.5t8.5 -21.5q0 -12 -8.5 -20.5t-21.5 -8.5q-12 0 -20.5 8.5t-8.5 20.5z" />
    <glyph glyph-name="dotlessi" unicode="&#x131;" horiz-adv-x="192" 
d="M111 475v-475h-30v475h30z" />
    <glyph glyph-name="IJ" unicode="&#x132;" horiz-adv-x="668" 
d="M102 0v680h30v-680h-30zM543 680h30v-499q0 -93 -48 -142t-136 -49q-79 0 -134 48v41q65 -61 136 -61q68 0 110 41.5t42 121.5v499z" />
    <glyph glyph-name="ij" unicode="&#x133;" horiz-adv-x="384" 
d="M111 475v-475h-30v475h30zM67 637q0 13 8.5 21.5t20.5 8.5q13 0 21.5 -8.5t8.5 -21.5q0 -12 -8.5 -20.5t-21.5 -8.5q-12 0 -20.5 8.5t-8.5 20.5zM273 -109v584h30v-584q0 -54 -24 -80t-64 -26q-32 0 -52 14v33q25 -17 52 -17q58 0 58 76zM259 637q0 13 8.5 21.5t20.5 8.5
q13 0 21.5 -8.5t8.5 -21.5q0 -12 -8.5 -20.5t-21.5 -8.5q-12 0 -20.5 8.5t-8.5 20.5z" />
    <glyph glyph-name="Jcircumflex" unicode="&#x134;" horiz-adv-x="433" 
d="M309 680h30v-499q0 -93 -48 -142t-136 -49q-79 0 -134 48v41q65 -61 136 -61q68 0 110 41.5t42 121.5v499zM310 876h29l109 -147h-34l-89 121l-90 -121h-34z" />
    <glyph glyph-name="jcircumflex" unicode="&#x135;" horiz-adv-x="192" 
d="M81 -109v584h30v-584q0 -54 -24 -80t-64 -26q-32 0 -52 14v33q25 -17 52 -17q58 0 58 76zM82 696h29l109 -147h-34l-89 121l-90 -121h-34z" />
    <glyph glyph-name="Kcommaaccent" unicode="&#x136;" horiz-adv-x="530" 
d="M102 0v680h30v-391l332 391h40l-236 -278l246 -402h-38l-226 380l-118 -140v-240h-30zM266 -215h-27l27 143h37z" />
    <glyph glyph-name="kcommaaccent" unicode="&#x137;" horiz-adv-x="431" 
d="M81 0v690h30v-490l256 275h39l-174 -188l183 -287h-38l-166 267l-100 -109v-158h-30zM208 -215h-27l27 143h37z" />
    <glyph glyph-name="kgreenlandic" unicode="&#x138;" horiz-adv-x="431" 
d="M81 0v475h30v-275l256 275h39l-174 -188l183 -287h-38l-166 267l-100 -109v-158h-30z" />
    <glyph glyph-name="Lacute" unicode="&#x139;" horiz-adv-x="463" 
d="M446 0h-344v680h30v-653h314v-27zM185 876h35l-83 -147h-31z" />
    <glyph glyph-name="lacute" unicode="&#x13a;" horiz-adv-x="196" 
d="M113 690v-690h-30v690h30zM163 871h35l-83 -147h-31z" />
    <glyph glyph-name="Lcommaaccent" unicode="&#x13b;" horiz-adv-x="463" 
d="M446 0h-344v680h30v-653h314v-27zM252 -215h-27l27 143h37z" />
    <glyph glyph-name="lcommaaccent" unicode="&#x13c;" horiz-adv-x="196" 
d="M113 690v-690h-30v690h30zM78 -215h-27l27 143h37z" />
    <glyph glyph-name="Lcaron" unicode="&#x13d;" horiz-adv-x="468" 
d="M446 0h-344v680h30v-653h314v-27zM401 537h-27l27 143h37z" />
    <glyph glyph-name="lcaron" unicode="&#x13e;" horiz-adv-x="196" 
d="M113 690v-690h-30v690h30zM197 538h-27l27 143h37z" />
    <glyph glyph-name="Ldot" unicode="&#x13f;" horiz-adv-x="468" 
d="M446 0h-344v680h30v-653h314v-27zM356 362q0 15 10 25t24 10q15 0 25 -10t10 -25q0 -14 -10 -24t-25 -10q-14 0 -24 10t-10 24z" />
    <glyph glyph-name="ldot" unicode="&#x140;" horiz-adv-x="297" 
d="M113 690v-690h-30v690h30zM212 362q0 15 10 25t24 10q15 0 25 -10t10 -25q0 -14 -10 -24t-25 -10q-14 0 -24 10t-10 24z" />
    <glyph glyph-name="Lslash" unicode="&#x141;" horiz-adv-x="471" 
d="M454 0h-344v309l-72 -39v34l72 39v337h30v-321l185 101v-34l-185 -101v-298h314v-27z" />
    <glyph glyph-name="lslash" unicode="&#x142;" horiz-adv-x="233" 
d="M126 690v-330l98 54v-34l-98 -54v-326h-30v309l-72 -39v34l72 39v347h30z" />
    <glyph glyph-name="Nacute" unicode="&#x143;" horiz-adv-x="713" 
d="M581 0l-446 582v-582h-30v611l-46 64v5h40l482 -631v631h30v-680h-30zM422 876h35l-83 -147h-31z" />
    <glyph glyph-name="nacute" unicode="&#x144;" horiz-adv-x="537" 
d="M111 475v-91q44 101 161 101q87 0 138.5 -55.5t51.5 -143.5v-286h-30v286q0 75 -43.5 122t-117.5 47q-73 0 -115.5 -45t-44.5 -118v-292h-30v475h30zM339 696h35l-83 -147h-31z" />
    <glyph glyph-name="Ncommaaccent" unicode="&#x145;" horiz-adv-x="713" 
d="M581 0l-446 582v-582h-30v611l-46 64v5h40l482 -631v631h30v-680h-30zM333 -215h-27l27 143h37z" />
    <glyph glyph-name="ncommaaccent" unicode="&#x146;" horiz-adv-x="537" 
d="M111 475v-91q44 101 161 101q87 0 138.5 -55.5t51.5 -143.5v-286h-30v286q0 75 -43.5 122t-117.5 47q-73 0 -115.5 -45t-44.5 -118v-292h-30v475h30zM252 -215h-27l27 143h37z" />
    <glyph glyph-name="Ncaron" unicode="&#x147;" horiz-adv-x="713" 
d="M581 0l-446 582v-582h-30v611l-46 64v5h40l482 -631v631h30v-680h-30zM373 729h-29l-109 147h33l91 -123l90 123h33z" />
    <glyph glyph-name="ncaron" unicode="&#x148;" horiz-adv-x="537" 
d="M111 475v-91q44 101 161 101q87 0 138.5 -55.5t51.5 -143.5v-286h-30v286q0 75 -43.5 122t-117.5 47q-73 0 -115.5 -45t-44.5 -118v-292h-30v475h30zM282 549h-29l-109 147h33l91 -123l90 123h33z" />
    <glyph glyph-name="napostrophe" unicode="&#x149;" horiz-adv-x="537" 
d="M111 475v-91q44 101 161 101q87 0 138.5 -55.5t51.5 -143.5v-286h-30v286q0 75 -43.5 122t-117.5 47q-73 0 -115.5 -45t-44.5 -118v-292h-30v475h30zM48 537h-27l27 143h37z" />
    <glyph glyph-name="Eng" unicode="&#x14a;" horiz-adv-x="713" 
d="M581 -109v109l-446 582v-582h-30v611l-46 64v5h40l482 -631v631h30v-789q0 -54 -24 -80t-64 -26q-32 0 -52 14v33q25 -17 52 -17q58 0 58 76z" />
    <glyph glyph-name="eng" unicode="&#x14b;" horiz-adv-x="537" 
d="M432 -109v395q0 75 -43.5 122t-117.5 47q-73 0 -115.5 -45t-44.5 -118v-292h-30v475h30v-91q44 101 161 101q87 0 138.5 -55.5t51.5 -143.5v-395q0 -54 -24 -80t-64 -26q-32 0 -52 14v33q25 -17 52 -17q58 0 58 76z" />
    <glyph glyph-name="Omacron" unicode="&#x14c;" horiz-adv-x="804" 
d="M52 340q0 149 100.5 249.5t249.5 100.5t249.5 -100.5t100.5 -249.5t-100.5 -249.5t-249.5 -100.5t-249.5 100.5t-100.5 249.5zM84 340q0 -136 91.5 -228.5t226.5 -92.5t226.5 92.5t91.5 228.5t-91.5 228.5t-226.5 92.5t-226.5 -92.5t-91.5 -228.5zM271 820h262v-27h-262
v27z" />
    <glyph glyph-name="omacron" unicode="&#x14d;" horiz-adv-x="588" 
d="M47 238q0 104 71.5 175.5t175.5 71.5q105 0 176 -71.5t71 -175.5q0 -105 -71 -176.5t-176 -71.5q-104 0 -175.5 71.5t-71.5 176.5zM79 238q0 -92 62 -155t153 -63t153 63t62 155q0 91 -62 154t-153 63t-153 -63t-62 -154zM163 640h262v-27h-262v27z" />
    <glyph glyph-name="Obreve" unicode="&#x14e;" horiz-adv-x="804" 
d="M52 340q0 149 100.5 249.5t249.5 100.5t249.5 -100.5t100.5 -249.5t-100.5 -249.5t-249.5 -100.5t-249.5 100.5t-100.5 249.5zM84 340q0 -136 91.5 -228.5t226.5 -92.5t226.5 92.5t91.5 228.5t-91.5 228.5t-226.5 92.5t-226.5 -92.5t-91.5 -228.5zM493 859h30
q0 -55 -34 -90t-88 -35q-53 0 -87 35t-34 90h30q0 -43 23 -69.5t68 -26.5q46 0 69 26.5t23 69.5z" />
    <glyph glyph-name="obreve" unicode="&#x14f;" horiz-adv-x="588" 
d="M47 238q0 104 71.5 175.5t175.5 71.5q105 0 176 -71.5t71 -175.5q0 -105 -71 -176.5t-176 -71.5q-104 0 -175.5 71.5t-71.5 176.5zM79 238q0 -92 62 -155t153 -63t153 63t62 155q0 91 -62 154t-153 63t-153 -63t-62 -154zM386 679h30q0 -55 -34 -90t-88 -35q-53 0 -87 35
t-34 90h30q0 -43 23 -69.5t68 -26.5q46 0 69 26.5t23 69.5z" />
    <glyph glyph-name="Ohungarumlaut" unicode="&#x150;" horiz-adv-x="804" 
d="M52 340q0 149 100.5 249.5t249.5 100.5t249.5 -100.5t100.5 -249.5t-100.5 -249.5t-249.5 -100.5t-249.5 100.5t-100.5 249.5zM84 340q0 -136 91.5 -228.5t226.5 -92.5t226.5 92.5t91.5 228.5t-91.5 228.5t-226.5 92.5t-226.5 -92.5t-91.5 -228.5zM409 876h35l-83 -147
h-31zM539 876h35l-83 -147h-31z" />
    <glyph glyph-name="ohungarumlaut" unicode="&#x151;" horiz-adv-x="588" 
d="M47 238q0 104 71.5 175.5t175.5 71.5q105 0 176 -71.5t71 -175.5q0 -105 -71 -176.5t-176 -71.5q-104 0 -175.5 71.5t-71.5 176.5zM79 238q0 -92 62 -155t153 -63t153 63t62 155q0 91 -62 154t-153 63t-153 -63t-62 -154zM303 696h35l-83 -147h-31zM433 696h35l-83 -147
h-31z" />
    <glyph glyph-name="OE" unicode="&#x152;" horiz-adv-x="1143" 
d="M1068 0h-344v198q-40 -95 -126 -151.5t-196 -56.5q-149 0 -249.5 100.5t-100.5 249.5t100.5 249.5t249.5 100.5q109 0 195.5 -57t126.5 -151v198h344v-27h-314v-298h294v-27h-294v-301h314v-27zM84 340q0 -136 91.5 -228.5t226.5 -92.5t226.5 92.5t91.5 228.5
t-91.5 228.5t-226.5 92.5t-226.5 -92.5t-91.5 -228.5z" />
    <glyph glyph-name="oe" unicode="&#x153;" horiz-adv-x="1023" 
d="M985 219h-441q7 -86 65 -142.5t142 -56.5q51 0 100.5 22.5t80.5 52.5v-42q-83 -63 -181 -63q-79 0 -139.5 44t-85.5 117q-27 -72 -90 -116.5t-142 -44.5q-104 0 -175.5 71.5t-71.5 176.5q0 104 71.5 175.5t175.5 71.5q81 0 143.5 -44.5t88.5 -116.5q25 72 85.5 116.5
t138.5 44.5q101 0 169 -68.5t68 -171.5q0 -14 -2 -26zM79 238q0 -92 62 -155t153 -63t153 63t62 155q0 91 -62 154t-153 63t-153 -63t-62 -154zM750 455q-86 0 -144 -59t-62 -147h411q0 91 -59.5 148.5t-145.5 57.5z" />
    <glyph glyph-name="Racute" unicode="&#x154;" horiz-adv-x="554" 
d="M102 0v680h166q91 0 147 -50t56 -133q0 -72 -43 -117t-114 -60q63 -26 119.5 -110.5t79.5 -209.5h-30q-28 138 -100 226.5t-145 88.5h-106v-315h-30zM439 496q0 73 -48 115t-123 42h-136v-311h136q75 0 123 41t48 113zM309 876h35l-83 -147h-31z" />
    <glyph glyph-name="racute" unicode="&#x155;" horiz-adv-x="306" 
d="M111 475v-78q37 88 133 88q21 0 44 -5v-34q-20 9 -45 9q-66 0 -98 -44t-34 -119v-292h-30v475h30zM220 696h35l-83 -147h-31z" />
    <glyph glyph-name="Rcommaaccent" unicode="&#x156;" horiz-adv-x="554" 
d="M102 0v680h166q91 0 147 -50t56 -133q0 -72 -43 -117t-114 -60q63 -26 119.5 -110.5t79.5 -209.5h-30q-28 138 -100 226.5t-145 88.5h-106v-315h-30zM439 496q0 73 -48 115t-123 42h-136v-311h136q75 0 123 41t48 113zM272 -215h-27l27 143h37z" />
    <glyph glyph-name="rcommaaccent" unicode="&#x157;" horiz-adv-x="306" 
d="M111 475v-78q37 88 133 88q21 0 44 -5v-34q-20 9 -45 9q-66 0 -98 -44t-34 -119v-292h-30v475h30zM76 -215h-27l27 143h37z" />
    <glyph glyph-name="Rcaron" unicode="&#x158;" horiz-adv-x="554" 
d="M102 0v680h166q91 0 147 -50t56 -133q0 -72 -43 -117t-114 -60q63 -26 119.5 -110.5t79.5 -209.5h-30q-28 138 -100 226.5t-145 88.5h-106v-315h-30zM439 496q0 73 -48 115t-123 42h-136v-311h136q75 0 123 41t48 113zM281 729h-29l-109 147h33l91 -123l90 123h33z" />
    <glyph glyph-name="rcaron" unicode="&#x159;" horiz-adv-x="306" 
d="M111 475v-78q37 88 133 88q21 0 44 -5v-34q-20 9 -45 9q-66 0 -98 -44t-34 -119v-292h-30v475h30zM195 549h-29l-109 147h33l91 -123l90 123h33z" />
    <glyph glyph-name="Sacute" unicode="&#x15a;" horiz-adv-x="468" 
d="M395 646v-44q-65 58 -150 58q-68 0 -111 -35t-43 -94q0 -68 75 -117l145 -95q60 -39 84 -75.5t24 -86.5q0 -69 -53.5 -118t-146.5 -49q-87 0 -163 48v44q72 -62 163 -62q79 0 123.5 40.5t44.5 96.5q0 75 -92 134l-142 93q-94 60 -94 147q0 65 48.5 112t140.5 47
q86 0 147 -44zM309 876h35l-83 -147h-31z" />
    <glyph glyph-name="sacute" unicode="&#x15b;" horiz-adv-x="373" 
d="M309 454v-42q-51 43 -114 43q-51 0 -80 -24t-29 -63q0 -26 13.5 -43t44.5 -36l100 -61q83 -50 83 -117q0 -58 -42.5 -89.5t-109.5 -31.5q-66 0 -123 35v43q56 -48 125 -48q55 0 86.5 24.5t31.5 64.5q0 49 -67 89l-103 63q-71 43 -71 106q0 51 37.5 84.5t106.5 33.5
q63 0 111 -31zM249 696h35l-83 -147h-31z" />
    <glyph glyph-name="Scircumflex" unicode="&#x15c;" horiz-adv-x="469" 
d="M396 646v-44q-65 58 -150 58q-68 0 -111 -35t-43 -94q0 -68 75 -117l145 -95q60 -39 84 -75.5t24 -86.5q0 -69 -53.5 -118t-146.5 -49q-87 0 -163 48v44q72 -62 163 -62q79 0 123.5 40.5t44.5 96.5q0 75 -92 134l-142 93q-94 60 -94 147q0 65 48.5 112t140.5 47
q86 0 147 -44zM234 876h29l109 -147h-34l-89 121l-90 -121h-34z" />
    <glyph glyph-name="scircumflex" unicode="&#x15d;" horiz-adv-x="373" 
d="M309 454v-42q-51 43 -114 43q-51 0 -80 -24t-29 -63q0 -26 13.5 -43t44.5 -36l100 -61q83 -50 83 -117q0 -58 -42.5 -89.5t-109.5 -31.5q-66 0 -123 35v43q56 -48 125 -48q55 0 86.5 24.5t31.5 64.5q0 49 -67 89l-103 63q-71 43 -71 106q0 51 37.5 84.5t106.5 33.5
q63 0 111 -31zM178 696h29l109 -147h-34l-89 121l-90 -121h-34z" />
    <glyph glyph-name="Scedilla" unicode="&#x15e;" horiz-adv-x="468" 
d="M196 -152h-30l46 142q-86 2 -156 48v44q72 -62 163 -62q79 0 123.5 40.5t44.5 96.5q0 75 -92 134l-142 93q-94 60 -94 147q0 65 48.5 112t140.5 47q86 0 147 -44v-44q-65 58 -150 58q-68 0 -111 -35t-43 -94q0 -68 75 -117l145 -95q60 -39 84 -75.5t24 -86.5
q0 -65 -47 -112.5t-129 -53.5z" />
    <glyph glyph-name="scedilla" unicode="&#x15f;" horiz-adv-x="373" 
d="M149 -152h-30l46 142q-61 2 -113 35v43q56 -48 125 -48q55 0 86.5 24.5t31.5 64.5q0 49 -67 89l-103 63q-71 43 -71 106q0 51 37.5 84.5t106.5 33.5q63 0 111 -31v-42q-51 43 -114 43q-51 0 -80 -24t-29 -63q0 -26 13.5 -43t44.5 -36l100 -61q83 -50 83 -117
q0 -54 -36 -84.5t-95 -35.5z" />
    <glyph glyph-name="Scaron" unicode="&#x160;" horiz-adv-x="469" 
d="M396 646v-44q-65 58 -150 58q-68 0 -111 -35t-43 -94q0 -68 75 -117l145 -95q60 -39 84 -75.5t24 -86.5q0 -69 -53.5 -118t-146.5 -49q-87 0 -163 48v44q72 -62 163 -62q79 0 123.5 40.5t44.5 96.5q0 75 -92 134l-142 93q-94 60 -94 147q0 65 48.5 112t140.5 47
q86 0 147 -44zM262 729h-29l-109 147h33l91 -123l90 123h33z" />
    <glyph glyph-name="scaron" unicode="&#x161;" horiz-adv-x="373" 
d="M309 454v-42q-51 43 -114 43q-51 0 -80 -24t-29 -63q0 -26 13.5 -43t44.5 -36l100 -61q83 -50 83 -117q0 -58 -42.5 -89.5t-109.5 -31.5q-66 0 -123 35v43q56 -48 125 -48q55 0 86.5 24.5t31.5 64.5q0 49 -67 89l-103 63q-71 43 -71 106q0 51 37.5 84.5t106.5 33.5
q63 0 111 -31zM209 549h-29l-109 147h33l91 -123l90 123h33z" />
    <glyph glyph-name="Tcommaaccent" unicode="&#x162;" horiz-adv-x="456" 
d="M194 -151h-30l50 152v652h-198v27h424v-27h-196v-653h-1z" />
    <glyph glyph-name="tcommaaccent" unicode="&#x163;" horiz-adv-x="271" 
d="M100 -151h-30l50 152v447h-106v27h106v131l30 12v-143h107v-27h-107v-448h-1z" />
    <glyph glyph-name="Tcaron" unicode="&#x164;" horiz-adv-x="456" 
d="M214 0v653h-198v27h424v-27h-196v-653h-30zM243 729h-29l-109 147h33l91 -123l90 123h33z" />
    <glyph glyph-name="tcaron" unicode="&#x165;" horiz-adv-x="271" 
d="M150 0h-30v448h-106v27h106v131l30 12v-143h107v-27h-107v-448zM248 538h-27l27 143h37z" />
    <glyph glyph-name="Tbar" unicode="&#x166;" horiz-adv-x="468" 
d="M103 369h117v284h-198v27h424v-27h-196v-284h115v-27h-115v-342h-30v342h-117v27z" />
    <glyph glyph-name="tbar" unicode="&#x167;" horiz-adv-x="292" 
d="M24 270h107v178h-106v27h106v131l30 12v-143h107v-27h-107v-178h107v-27h-107v-243h-30v243h-107v27z" />
    <glyph glyph-name="Utilde" unicode="&#x168;" horiz-adv-x="655" 
d="M531 680h30v-450q0 -108 -63 -174t-170 -66t-170.5 66t-63.5 174v450h30v-450q0 -94 56.5 -152t148.5 -58q91 0 146.5 58t55.5 152v450zM457 800v-36q-11 12 -30 20t-34 8q-20 0 -61 -17t-70 -17q-42 0 -64 22v34q24 -26 64 -26q24 0 63.5 17t67.5 17q37 0 64 -22z" />
    <glyph glyph-name="utilde" unicode="&#x169;" horiz-adv-x="540" 
d="M427 0v90q-43 -100 -161 -100q-86 0 -137.5 55.5t-51.5 143.5v286h30v-286q0 -75 43 -122t117 -47q72 0 115 44.5t45 117.5v293h30v-475h-30zM401 620v-36q-11 12 -30 20t-34 8q-20 0 -61 -17t-70 -17q-42 0 -64 22v34q24 -26 64 -26q24 0 63.5 17t67.5 17q37 0 64 -22z
" />
    <glyph glyph-name="Umacron" unicode="&#x16a;" horiz-adv-x="655" 
d="M531 680h30v-450q0 -108 -63 -174t-170 -66t-170.5 66t-63.5 174v450h30v-450q0 -94 56.5 -152t148.5 -58q91 0 146.5 58t55.5 152v450zM196 820h262v-27h-262v27z" />
    <glyph glyph-name="umacron" unicode="&#x16b;" horiz-adv-x="540" 
d="M427 0v90q-43 -100 -161 -100q-86 0 -137.5 55.5t-51.5 143.5v286h30v-286q0 -75 43 -122t117 -47q72 0 115 44.5t45 117.5v293h30v-475h-30zM141 640h262v-27h-262v27z" />
    <glyph glyph-name="Ubreve" unicode="&#x16c;" horiz-adv-x="655" 
d="M531 680h30v-450q0 -108 -63 -174t-170 -66t-170.5 66t-63.5 174v450h30v-450q0 -94 56.5 -152t148.5 -58q91 0 146.5 58t55.5 152v450zM419 859h30q0 -55 -34 -90t-88 -35q-53 0 -87 35t-34 90h30q0 -43 23 -69.5t68 -26.5q46 0 69 26.5t23 69.5z" />
    <glyph glyph-name="ubreve" unicode="&#x16d;" horiz-adv-x="540" 
d="M427 0v90q-43 -100 -161 -100q-86 0 -137.5 55.5t-51.5 143.5v286h30v-286q0 -75 43 -122t117 -47q72 0 115 44.5t45 117.5v293h30v-475h-30zM363 679h30q0 -55 -34 -90t-88 -35q-53 0 -87 35t-34 90h30q0 -43 23 -69.5t68 -26.5q46 0 69 26.5t23 69.5z" />
    <glyph glyph-name="Uring" unicode="&#x16e;" horiz-adv-x="655" 
d="M531 680h30v-450q0 -108 -63 -174t-170 -66t-170.5 66t-63.5 174v450h30v-450q0 -94 56.5 -152t148.5 -58q91 0 146.5 58t55.5 152v450zM232 805q0 40 27 66t68 26t68.5 -26t27.5 -66t-27.5 -66.5t-68.5 -26.5t-68 26.5t-27 66.5zM262 805q0 -29 18 -47t47 -18t47.5 18
t18.5 47t-18.5 46.5t-47.5 17.5t-47 -17.5t-18 -46.5z" />
    <glyph glyph-name="uring" unicode="&#x16f;" horiz-adv-x="540" 
d="M427 0v90q-43 -100 -161 -100q-86 0 -137.5 55.5t-51.5 143.5v286h30v-286q0 -75 43 -122t117 -47q72 0 115 44.5t45 117.5v293h30v-475h-30zM176 625q0 40 27 66t68 26t68.5 -26t27.5 -66t-27.5 -66.5t-68.5 -26.5t-68 26.5t-27 66.5zM206 625q0 -29 18 -47t47 -18
t47.5 18t18.5 47t-18.5 46.5t-47.5 17.5t-47 -17.5t-18 -46.5z" />
    <glyph glyph-name="Uhungarumlaut" unicode="&#x170;" horiz-adv-x="655" 
d="M531 680h30v-450q0 -108 -63 -174t-170 -66t-170.5 66t-63.5 174v450h30v-450q0 -94 56.5 -152t148.5 -58q91 0 146.5 58t55.5 152v450zM319 876h35l-83 -147h-31zM449 876h35l-83 -147h-31z" />
    <glyph glyph-name="uhungarumlaut" unicode="&#x171;" horiz-adv-x="540" 
d="M427 0v90q-43 -100 -161 -100q-86 0 -137.5 55.5t-51.5 143.5v286h30v-286q0 -75 43 -122t117 -47q72 0 115 44.5t45 117.5v293h30v-475h-30zM264 696h35l-83 -147h-31zM394 696h35l-83 -147h-31z" />
    <glyph glyph-name="Uogonek" unicode="&#x172;" horiz-adv-x="655" 
d="M531 680h30v-450q0 -95 -49.5 -158t-134.5 -78l-62 -50q-39 -31 -39 -65q0 -44 44 -44q32 0 72 32v-39q-1 -1 -8 -4.5t-12.5 -6t-14 -6t-18 -5t-19.5 -1.5q-33 0 -54.5 19.5t-21.5 53.5q0 44 49 85l33 27q-107 1 -169.5 66.5t-62.5 173.5v450h30v-450q0 -94 56.5 -152
t148.5 -58q91 0 146.5 58t55.5 152v450z" />
    <glyph glyph-name="uogonek" unicode="&#x173;" horiz-adv-x="540" 
d="M457 475v-475l-69 -56q-39 -31 -39 -65q0 -44 44 -44q32 0 72 32v-39q-1 -1 -8 -4.5t-12.5 -6t-14 -6t-18 -5t-19.5 -1.5q-33 0 -54.5 19.5t-21.5 53.5q0 44 49 85l61 49v78q-43 -100 -161 -100q-86 0 -137.5 55.5t-51.5 143.5v286h30v-286q0 -75 43 -122t117 -47
q72 0 115 44.5t45 117.5v293h30z" />
    <glyph glyph-name="Wcircumflex" unicode="&#x174;" horiz-adv-x="979" 
d="M242 0l-212 680h34l195 -636l227 574l-23 62h34l223 -636l195 636h34l-211 -680h-34l-203 579l-225 -579h-34zM475 876h29l109 -147h-34l-89 121l-90 -121h-34z" />
    <glyph glyph-name="wcircumflex" unicode="&#x175;" horiz-adv-x="753" 
d="M31 475h33l137 -434l146 381l-23 53h34l192 -434l139 434h33l-153 -475h-33l-171 386l-148 -386h-34zM347 696h29l109 -147h-34l-89 121l-90 -121h-34z" />
    <glyph glyph-name="Ycircumflex" unicode="&#x176;" horiz-adv-x="554" 
d="M262 0v308l-233 372h37l211 -340l211 340h37l-233 -372v-308h-30zM262 876h29l109 -147h-34l-89 121l-90 -121h-34z" />
    <glyph glyph-name="ycircumflex" unicode="&#x177;" horiz-adv-x="472" 
d="M114 -205l105 242l-192 438h35l174 -401l175 401h36l-298 -680h-35zM223 696h29l109 -147h-34l-89 121l-90 -121h-34z" />
    <glyph glyph-name="Ydieresis" unicode="&#x178;" horiz-adv-x="554" 
d="M262 0v308l-233 372h37l211 -340l211 340h37l-233 -372v-308h-30zM163 807q0 13 8.5 21.5t20.5 8.5q13 0 21.5 -8.5t8.5 -21.5q0 -12 -8.5 -20.5t-21.5 -8.5q-12 0 -20.5 8.5t-8.5 20.5zM332 807q0 13 8.5 21.5t20.5 8.5q13 0 21.5 -8.5t8.5 -21.5q0 -12 -8.5 -20.5
t-21.5 -8.5q-12 0 -20.5 8.5t-8.5 20.5z" />
    <glyph glyph-name="Zacute" unicode="&#x179;" horiz-adv-x="458" 
d="M420 653l-352 -626h352v-27h-387v27l352 626h-342v27h377v-27zM289 876h35l-83 -147h-31z" />
    <glyph glyph-name="zacute" unicode="&#x17a;" horiz-adv-x="373" 
d="M333 445l-262 -418h262v-27h-297v30l262 418h-252v27h287v-30zM249 696h35l-83 -147h-31z" />
    <glyph glyph-name="Zdotaccent" unicode="&#x17b;" horiz-adv-x="458" 
d="M420 653l-352 -626h352v-27h-387v27l352 626h-342v27h377v-27zM207 807q0 13 8.5 21.5t20.5 8.5q13 0 21.5 -8.5t8.5 -21.5q0 -12 -8.5 -20.5t-21.5 -8.5q-12 0 -20.5 8.5t-8.5 20.5z" />
    <glyph glyph-name="zdotaccent" unicode="&#x17c;" horiz-adv-x="373" 
d="M333 445l-262 -418h262v-27h-297v30l262 418h-252v27h287v-30zM166 627q0 13 8.5 21.5t20.5 8.5q13 0 21.5 -8.5t8.5 -21.5q0 -12 -8.5 -20.5t-21.5 -8.5q-12 0 -20.5 8.5t-8.5 20.5z" />
    <glyph glyph-name="Zcaron" unicode="&#x17d;" horiz-adv-x="458" 
d="M420 653l-352 -626h352v-27h-387v27l352 626h-342v27h377v-27zM251 729h-29l-109 147h33l91 -123l90 123h33z" />
    <glyph glyph-name="zcaron" unicode="&#x17e;" horiz-adv-x="373" 
d="M333 445l-262 -418h262v-27h-297v30l262 418h-252v27h287v-30zM209 549h-29l-109 147h33l91 -123l90 123h33z" />
    <glyph glyph-name="florin" unicode="&#x192;" 
d="M257 117v232h-146v27h146v197q0 58 32.5 92.5t89.5 34.5q36 0 64 -10v-34q-28 14 -64 14q-92 0 -92 -97v-197h146v-27h-146v-232q0 -58 -32.5 -92.5t-89.5 -34.5q-36 0 -64 10v34q28 -14 64 -14q92 0 92 97z" />
    <glyph glyph-name="AEacute" unicode="&#x1fc;" horiz-adv-x="849" 
d="M774 0h-344v235h-269l-161 -235h-37l466 680h345v-27h-314v-298h294v-27h-294v-301h314v-27zM180 263h250v367zM648 876h35l-83 -147h-31z" />
    <glyph glyph-name="aeacute" unicode="&#x1fd;" horiz-adv-x="870" 
d="M832 221h-441q7 -91 64.5 -146t142.5 -55q51 0 100.5 22.5t80.5 52.5v-42q-83 -63 -181 -63q-78 0 -132.5 35t-80.5 93q-16 -56 -61.5 -92t-110.5 -36q-77 0 -126.5 46.5t-49.5 115.5t50.5 115t125.5 46q46 0 86.5 -23t58.5 -55v84q0 67 -40.5 101.5t-94.5 34.5
q-69 0 -134 -44v36q65 38 134 38q63 0 108 -32.5t54 -99.5q30 60 86.5 96t125.5 36q101 0 169 -68.5t68 -171.5q0 -12 -2 -24zM69 152q0 -55 43 -93.5t101 -38.5q59 0 102 38.5t43 93.5q0 53 -43.5 92t-101.5 39q-59 0 -101.5 -38.5t-42.5 -92.5zM597 455
q-85 0 -143.5 -59.5t-62.5 -147.5h411q0 91 -59.5 149t-145.5 58zM469 696h35l-83 -147h-31z" />
    <glyph glyph-name="Oslashacute" unicode="&#x1fe;" horiz-adv-x="804" 
d="M52 340q0 149 100.5 249.5t249.5 100.5q107 0 197 -58l43 59l25 -17l-44 -59q61 -48 95 -119.5t34 -155.5q0 -149 -100.5 -249.5t-249.5 -100.5q-109 0 -196 57l-40 -55l-23 18l39 53q-61 48 -95.5 120t-34.5 157zM84 340q0 -77 31 -142.5t86 -109.5l380 519
q-81 54 -179 54q-135 0 -226.5 -92.5t-91.5 -228.5zM720 340q0 75 -30.5 140.5t-84.5 109.5l-381 -519q79 -52 178 -52q135 0 226.5 92.5t91.5 228.5zM460 876h35l-83 -147h-31z" />
    <glyph glyph-name="oslashacute" unicode="&#x1ff;" horiz-adv-x="588" 
d="M47 238q0 104 71.5 175.5t175.5 71.5q74 0 136 -40l29 40l25 -17l-30 -40q87 -72 87 -190q0 -105 -71 -176.5t-176 -71.5q-74 0 -133 37l-25 -35l-23 18l24 34q-90 74 -90 194zM79 238q0 -105 77 -169l256 351q-54 35 -118 35q-91 0 -153 -63t-62 -154zM509 238
q0 101 -73 164l-256 -350q49 -32 114 -32q91 0 153 63t62 155zM361 696h35l-83 -147h-31z" />
    <glyph glyph-name="Scommaaccent" unicode="&#x218;" horiz-adv-x="468" 
d="M395 646v-44q-65 58 -150 58q-68 0 -111 -35t-43 -94q0 -68 75 -117l145 -95q60 -39 84 -75.5t24 -86.5q0 -69 -53.5 -118t-146.5 -49q-87 0 -163 48v44q72 -62 163 -62q79 0 123.5 40.5t44.5 96.5q0 75 -92 134l-142 93q-94 60 -94 147q0 65 48.5 112t140.5 47
q86 0 147 -44zM211 -215h-27l27 143h37z" />
    <glyph glyph-name="scommaaccent" unicode="&#x219;" horiz-adv-x="373" 
d="M309 454v-42q-51 43 -114 43q-51 0 -80 -24t-29 -63q0 -26 13.5 -43t44.5 -36l100 -61q83 -50 83 -117q0 -58 -42.5 -89.5t-109.5 -31.5q-66 0 -123 35v43q56 -48 125 -48q55 0 86.5 24.5t31.5 64.5q0 49 -67 89l-103 63q-71 43 -71 106q0 51 37.5 84.5t106.5 33.5
q63 0 111 -31zM155 -215h-27l27 143h37z" />
    <glyph glyph-name="uni021A" unicode="&#x21a;" horiz-adv-x="456" 
d="M214 0v653h-198v27h424v-27h-196v-653h-30zM211 -215h-27l27 143h37z" />
    <glyph glyph-name="uni021B" unicode="&#x21b;" horiz-adv-x="271" 
d="M150 0h-30v448h-106v27h106v131l30 12v-143h107v-27h-107v-448zM115 -215h-27l27 143h37z" />
    <glyph glyph-name="dotlessj" unicode="&#x237;" horiz-adv-x="192" 
d="M81 -109v584h30v-584q0 -54 -24 -80t-64 -26q-32 0 -52 14v33q25 -17 52 -17q58 0 58 76z" />
    <glyph glyph-name="circumflex" unicode="&#x2c6;" horiz-adv-x="580" 
d="M275 696h29l109 -147h-34l-89 121l-90 -121h-34z" />
    <glyph glyph-name="caron" unicode="&#x2c7;" horiz-adv-x="580" 
d="M304 549h-29l-109 147h33l91 -123l90 123h33z" />
    <glyph glyph-name="breve" unicode="&#x2d8;" horiz-adv-x="580" 
d="M381 679h30q0 -55 -34 -90t-88 -35q-53 0 -87 35t-34 90h30q0 -43 23 -69.5t68 -26.5q46 0 69 26.5t23 69.5z" />
    <glyph glyph-name="dotaccent" unicode="&#x2d9;" horiz-adv-x="580" 
d="M260 627q0 13 8.5 21.5t20.5 8.5q13 0 21.5 -8.5t8.5 -21.5q0 -12 -8.5 -20.5t-21.5 -8.5q-12 0 -20.5 8.5t-8.5 20.5z" />
    <glyph glyph-name="ring" unicode="&#x2da;" horiz-adv-x="580" 
d="M194 625q0 40 27 66t68 26t68.5 -26t27.5 -66t-27.5 -66.5t-68.5 -26.5t-68 26.5t-27 66.5zM224 625q0 -29 18 -47t47 -18t47.5 18t18.5 47t-18.5 46.5t-47.5 17.5t-47 -17.5t-18 -46.5z" />
    <glyph glyph-name="ogonek" unicode="&#x2db;" horiz-adv-x="580" 
d="M355 1l1 -1l-69 -56q-39 -31 -39 -65q0 -44 44 -44q32 0 72 32v-39q-1 -1 -8 -4.5t-12.5 -6t-14 -6t-18 -5t-19.5 -1.5q-33 0 -54.5 19.5t-21.5 53.5q0 44 49 85l70 56z" />
    <glyph glyph-name="tilde" unicode="&#x2dc;" horiz-adv-x="580" 
d="M419 620v-36q-11 12 -30 20t-34 8q-20 0 -61 -17t-70 -17q-42 0 -64 22v34q24 -26 64 -26q24 0 63.5 17t67.5 17q37 0 64 -22z" />
    <glyph glyph-name="hungarumlaut" unicode="&#x2dd;" horiz-adv-x="580" 
d="M247 696h35l-83 -147h-31zM377 696h35l-83 -147h-31z" />
    <glyph glyph-name="pi" unicode="&#x3c0;" horiz-adv-x="570" 
d="M449 0h-30v448h-269v-448h-30v448h-106v27h542v-27h-107v-448z" />
    <glyph glyph-name="Wgrave" unicode="&#x1e80;" horiz-adv-x="979" 
d="M242 0l-212 680h34l195 -636l227 574l-23 62h34l223 -636l195 636h34l-211 -680h-34l-203 579l-225 -579h-34zM392 876h35l79 -147h-31z" />
    <glyph glyph-name="wgrave" unicode="&#x1e81;" horiz-adv-x="753" 
d="M31 475h33l137 -434l146 381l-23 53h34l192 -434l139 434h33l-153 -475h-33l-171 386l-148 -386h-34zM263 696h35l79 -147h-31z" />
    <glyph glyph-name="Wacute" unicode="&#x1e82;" horiz-adv-x="979" 
d="M242 0l-212 680h34l195 -636l227 574l-23 62h34l223 -636l195 636h34l-211 -680h-34l-203 579l-225 -579h-34zM531 876h35l-83 -147h-31z" />
    <glyph glyph-name="wacute" unicode="&#x1e83;" horiz-adv-x="753" 
d="M31 475h33l137 -434l146 381l-23 53h34l192 -434l139 434h33l-153 -475h-33l-171 386l-148 -386h-34zM410 696h35l-83 -147h-31z" />
    <glyph glyph-name="Wdieresis" unicode="&#x1e84;" horiz-adv-x="979" 
d="M242 0l-212 680h34l195 -636l227 574l-23 62h34l223 -636l195 636h34l-211 -680h-34l-203 579l-225 -579h-34zM375 807q0 13 8.5 21.5t20.5 8.5q13 0 21.5 -8.5t8.5 -21.5q0 -12 -8.5 -20.5t-21.5 -8.5q-12 0 -20.5 8.5t-8.5 20.5zM544 807q0 13 8.5 21.5t20.5 8.5
q13 0 21.5 -8.5t8.5 -21.5q0 -12 -8.5 -20.5t-21.5 -8.5q-12 0 -20.5 8.5t-8.5 20.5z" />
    <glyph glyph-name="wdieresis" unicode="&#x1e85;" horiz-adv-x="753" 
d="M31 475h33l137 -434l146 381l-23 53h34l192 -434l139 434h33l-153 -475h-33l-171 386l-148 -386h-34zM247 627q0 13 8.5 21.5t20.5 8.5q13 0 21.5 -8.5t8.5 -21.5q0 -12 -8.5 -20.5t-21.5 -8.5q-12 0 -20.5 8.5t-8.5 20.5zM416 627q0 13 8.5 21.5t20.5 8.5
q13 0 21.5 -8.5t8.5 -21.5q0 -12 -8.5 -20.5t-21.5 -8.5q-12 0 -20.5 8.5t-8.5 20.5z" />
    <glyph glyph-name="Ygrave" unicode="&#x1ef2;" horiz-adv-x="554" 
d="M262 0v308l-233 372h37l211 -340l211 340h37l-233 -372v-308h-30zM181 876h35l79 -147h-31z" />
    <glyph glyph-name="ygrave" unicode="&#x1ef3;" horiz-adv-x="472" 
d="M114 -205l105 242l-192 438h35l174 -401l175 401h36l-298 -680h-35zM147 696h35l79 -147h-31z" />
    <glyph glyph-name="endash" unicode="&#x2013;" horiz-adv-x="574" 
d="M71 304h432v-40h-432v40z" />
    <glyph glyph-name="emdash" unicode="&#x2014;" horiz-adv-x="714" 
d="M71 304h572v-40h-572v40z" />
    <glyph glyph-name="quoteleft" unicode="&#x2018;" horiz-adv-x="182" 
d="M102 680h27l-35 -203h-37z" />
    <glyph glyph-name="quoteright" unicode="&#x2019;" horiz-adv-x="180" 
d="M87 477h-27l35 203h37z" />
    <glyph glyph-name="quotesinglbase" unicode="&#x201a;" horiz-adv-x="233" 
d="M103 -145h-27l35 203h37z" />
    <glyph glyph-name="quotedblleft" unicode="&#x201c;" horiz-adv-x="331" 
d="M102 680h27l-35 -203h-37zM251 680h27l-35 -203h-37z" />
    <glyph glyph-name="quotedblright" unicode="&#x201d;" horiz-adv-x="329" 
d="M87 477h-27l35 203h37zM236 477h-27l35 203h37z" />
    <glyph glyph-name="quotedblbase" unicode="&#x201e;" horiz-adv-x="382" 
d="M103 -145h-27l35 203h37zM252 -145h-27l35 203h37z" />
    <glyph glyph-name="dagger" unicode="&#x2020;" horiz-adv-x="416" 
d="M224 259v-464h-30v464h-162v30h162v401h30v-401h160v-30h-160z" />
    <glyph glyph-name="daggerdbl" unicode="&#x2021;" horiz-adv-x="478" 
d="M253 92h163v-30h-163v-267h-30v267h-159v30h159v320h-161v30h161v248h30v-248h161v-30h-161v-320z" />
    <glyph glyph-name="bullet" unicode="&#x2022;" horiz-adv-x="356" 
d="M178 198q-38 0 -63 24.5t-25 61.5t25 61.5t63 24.5q39 0 63.5 -24t24.5 -62t-24.5 -62t-63.5 -24z" />
    <glyph glyph-name="ellipsis" unicode="&#x2026;" horiz-adv-x="595" 
d="M70 24q0 15 10 25t24 10q15 0 25 -10t10 -25q0 -14 -10 -24t-25 -10q-14 0 -24 10t-10 24zM263 24q0 15 10 25t24 10q15 0 25 -10t10 -25q0 -14 -10 -24t-25 -10q-14 0 -24 10t-10 24zM456 24q0 15 10 25t24 10q15 0 25 -10t10 -25q0 -14 -10 -24t-25 -10q-14 0 -24 10
t-10 24z" />
    <glyph glyph-name="perthousand" unicode="&#x2030;" horiz-adv-x="1090" 
d="M223 0l302 680h30l-303 -680h-29zM179 661q-46 0 -73.5 -27.5t-27.5 -68.5v-141q0 -41 27.5 -68.5t73.5 -27.5t74 27.5t28 68.5v141q0 41 -28 68.5t-74 27.5zM179 690q57 0 94.5 -35.5t37.5 -88.5v-143q0 -53 -37.5 -89t-94.5 -36q-56 0 -93.5 36t-37.5 89v143
q0 53 37.5 88.5t93.5 35.5zM598 353q-46 0 -73.5 -27.5t-27.5 -68.5v-141q0 -41 27.5 -68.5t73.5 -27.5t74 27.5t28 68.5v141q0 41 -28 68.5t-74 27.5zM598 382q57 0 94.5 -35.5t37.5 -88.5v-143q0 -53 -37.5 -89t-94.5 -36q-56 0 -93.5 36t-37.5 89v143q0 53 37.5 88.5
t93.5 35.5zM911 353q-46 0 -73.5 -27.5t-27.5 -68.5v-141q0 -41 27.5 -68.5t73.5 -27.5t74 27.5t28 68.5v141q0 41 -28 68.5t-74 27.5zM911 382q57 0 94.5 -35.5t37.5 -88.5v-143q0 -53 -37.5 -89t-94.5 -36q-56 0 -93.5 36t-37.5 89v143q0 53 37.5 88.5t93.5 35.5z" />
    <glyph glyph-name="guilsinglleft" unicode="&#x2039;" horiz-adv-x="278" 
d="M47 285l160 200l19 -18l-141 -182l141 -182l-19 -18z" />
    <glyph glyph-name="guilsinglright" unicode="&#x203a;" horiz-adv-x="278" 
d="M231 285l-160 -200l-19 18l141 182l-141 182l19 18z" />
    <glyph glyph-name="fraction" unicode="&#x2044;" horiz-adv-x="120" 
d="M-106 0l302 680h30l-303 -680h-29z" />
    <glyph glyph-name="zerosuperior" unicode="&#x2070;" horiz-adv-x="356" 
d="M178 787q-46 0 -73.5 -27.5t-27.5 -68.5v-141q0 -41 27.5 -68.5t73.5 -27.5t74 27.5t28 68.5v141q0 41 -28 68.5t-74 27.5zM178 816q57 0 94.5 -35.5t37.5 -88.5v-143q0 -53 -37.5 -89t-94.5 -36q-56 0 -93.5 36t-37.5 89v143q0 53 37.5 88.5t93.5 35.5z" />
    <glyph glyph-name="foursuperior" unicode="&#x2074;" horiz-adv-x="329" 
d="M304 518h-59v-88h-30v88h-195v26l195 267h30v-265h59v-28zM53 546h162v218z" />
    <glyph glyph-name="fivesuperior" unicode="&#x2075;" horiz-adv-x="301" 
d="M261 783h-148l-17 -122h26q65 0 103.5 -31.5t38.5 -83.5q0 -56 -38.5 -89t-94.5 -33q-53 0 -103 33v40q49 -43 103 -43q42 0 72 25.5t30 66.5q0 42 -32 64.5t-83 22.5h-54l23 178h174v-28z" />
    <glyph glyph-name="sixsuperior" unicode="&#x2076;" horiz-adv-x="337" 
d="M223 811l-102 -138q26 12 52 12q63 0 101 -37.5t38 -92.5t-40 -93t-99 -38t-99.5 38t-40.5 93q0 41 28 81l127 175h35zM281 555q0 42 -31 71t-77 29t-77.5 -29t-31.5 -71t31.5 -71.5t77.5 -29.5t77 29.5t31 71.5z" />
    <glyph glyph-name="sevensuperior" unicode="&#x2077;" horiz-adv-x="234" 
d="M220 785l-141 -355h-35l145 353h-165v28h196v-26z" />
    <glyph glyph-name="eightsuperior" unicode="&#x2078;" horiz-adv-x="324" 
d="M49 718q0 41 33 69.5t80 28.5t80 -28.5t33 -69.5q0 -29 -16.5 -51.5t-44.5 -33.5q34 -12 54.5 -38.5t20.5 -60.5q0 -46 -37 -78t-90 -32t-89.5 32t-36.5 78q0 34 20 60.5t54 38.5q-28 11 -44.5 33.5t-16.5 51.5zM66 535q0 -35 28 -59t68 -24t68.5 24t28.5 59
q0 34 -28 58.5t-69 24.5q-40 0 -68 -24t-28 -59zM79 718q0 -30 23.5 -51t59.5 -21t60 21t24 51t-24 50t-60 20q-35 0 -59 -20t-24 -50z" />
    <glyph glyph-name="ninesuperior" unicode="&#x2079;" horiz-adv-x="336" 
d="M114 430l101 137q-22 -11 -51 -11q-63 0 -101 37.5t-38 92.5t40 93t99 38t99.5 -38t40.5 -93q0 -41 -28 -81l-127 -175h-35zM56 686q0 -42 31 -71t77 -29t77.5 29t31.5 71t-31.5 71.5t-77.5 29.5t-77 -29.5t-31 -71.5z" />
    <glyph glyph-name="zeroinferior" unicode="&#x2080;" horiz-adv-x="356" 
d="M178 227q-46 0 -73.5 -27.5t-27.5 -68.5v-141q0 -41 27.5 -68.5t73.5 -27.5t74 27.5t28 68.5v141q0 41 -28 68.5t-74 27.5zM178 256q57 0 94.5 -35.5t37.5 -88.5v-143q0 -53 -37.5 -89t-94.5 -36q-56 0 -93.5 36t-37.5 89v143q0 53 37.5 88.5t93.5 35.5z" />
    <glyph glyph-name="oneinferior" unicode="&#x2081;" horiz-adv-x="275" 
d="M29 -130v28h109v325h-101v28h131v-353h91v-28h-230z" />
    <glyph glyph-name="twoinferior" unicode="&#x2082;" horiz-adv-x="282" 
d="M31 -130v28l134 158q49 58 49 97q0 33 -23 53t-60 20q-52 0 -92 -40v36q41 34 93 34q51 0 81.5 -27.5t30.5 -72.5q0 -24 -9 -46.5t-18 -34.5t-27 -33l-122 -143h177v-29h-214z" />
    <glyph glyph-name="threeinferior" unicode="&#x2083;" horiz-adv-x="285" 
d="M68 56v29h61q33 0 55 20.5t22 50.5q0 32 -22.5 51t-60.5 19q-52 0 -81 -23v35q32 18 81 18t82 -28t33 -70q0 -31 -15.5 -54t-39.5 -33q29 -9 47.5 -36t18.5 -62q0 -49 -35.5 -79t-89.5 -30q-49 0 -86 21v36q39 -27 85 -27q41 0 68 22.5t27 58.5q0 35 -25.5 58t-62.5 23
h-62z" />
    <glyph glyph-name="fourinferior" unicode="&#x2084;" horiz-adv-x="329" 
d="M304 -42h-59v-88h-30v88h-195v26l195 267h30v-265h59v-28zM53 -14h162v218z" />
    <glyph glyph-name="fiveinferior" unicode="&#x2085;" horiz-adv-x="301" 
d="M261 223h-148l-17 -122h26q65 0 103.5 -31.5t38.5 -83.5q0 -56 -38.5 -89t-94.5 -33q-53 0 -103 33v40q49 -43 103 -43q42 0 72 25.5t30 66.5q0 42 -32 64.5t-83 22.5h-54l23 178h174v-28z" />
    <glyph glyph-name="sixinferior" unicode="&#x2086;" horiz-adv-x="337" 
d="M223 251l-102 -138q26 12 52 12q63 0 101 -37.5t38 -92.5t-40 -93t-99 -38t-99.5 38t-40.5 93q0 41 28 81l127 175h35zM281 -5q0 42 -31 71t-77 29t-77.5 -29t-31.5 -71t31.5 -71.5t77.5 -29.5t77 29.5t31 71.5z" />
    <glyph glyph-name="seveninferior" unicode="&#x2087;" horiz-adv-x="234" 
d="M220 225l-141 -355h-35l145 353h-165v28h196v-26z" />
    <glyph glyph-name="eightinferior" unicode="&#x2088;" horiz-adv-x="324" 
d="M49 158q0 41 33 69.5t80 28.5t80 -28.5t33 -69.5q0 -29 -16.5 -51.5t-44.5 -33.5q34 -12 54.5 -38.5t20.5 -60.5q0 -46 -37 -78t-90 -32t-89.5 32t-36.5 78q0 34 20 60.5t54 38.5q-28 11 -44.5 33.5t-16.5 51.5zM66 -25q0 -35 28 -59t68 -24t68.5 24t28.5 59
q0 34 -28 58.5t-69 24.5q-40 0 -68 -24t-28 -59zM79 158q0 -30 23.5 -51t59.5 -21t60 21t24 51t-24 50t-60 20q-35 0 -59 -20t-24 -50z" />
    <glyph glyph-name="nineinferior" unicode="&#x2089;" horiz-adv-x="336" 
d="M114 -130l101 137q-22 -11 -51 -11q-63 0 -101 37.5t-38 92.5t40 93t99 38t99.5 -38t40.5 -93q0 -41 -28 -81l-127 -175h-35zM56 126q0 -42 31 -71t77 -29t77.5 29t31.5 71t-31.5 71.5t-77.5 29.5t-77 -29.5t-31 -71.5z" />
    <glyph glyph-name="Euro" unicode="&#x20ac;" 
d="M32 423h67v54q0 92 59.5 152.5t151.5 60.5q105 0 168 -77l-11 -39q-21 40 -62 63t-95 23q-82 0 -131.5 -52t-49.5 -132v-53h282l-7 -27h-275v-117h239l-7 -27h-232v-48q0 -80 49.5 -132t131.5 -52q52 0 92 22.5t62 58.5l19 -25q-27 -40 -72.5 -63t-100.5 -23
q-92 0 -151.5 60.5t-59.5 152.5v49h-74l7 27h67v117h-74z" />
    <glyph glyph-name="afii61289" unicode="&#x2113;" horiz-adv-x="376" 
d="M343 38q-60 -48 -118 -48q-48 0 -70 29t-22 89v144q-35 -30 -90 -67l-14 25q66 45 104 77v235q0 84 27.5 126t73.5 42q93 0 93 -128q0 -132 -163 -288v-164q0 -91 61 -91q53 0 103 43zM296 567q0 93 -62 93q-70 0 -70 -127v-219q64 64 98 123t34 130z" />
    <glyph glyph-name="uni2117" unicode="&#x2117;" horiz-adv-x="806" 
d="M55 345q0 154 102 252t247 98q144 0 245.5 -98t101.5 -252t-101.5 -253.5t-245.5 -99.5t-246.5 99.5t-102.5 253.5zM86 345q0 -143 92.5 -233t225.5 -90q132 0 224 90t92 233t-91.5 231.5t-224.5 88.5t-225.5 -88.5t-92.5 -231.5zM334 159v374h105q54 0 87 -29t33 -80
q0 -50 -33 -79t-87 -29h-75v-157h-30zM527 424q0 40 -24.5 60.5t-64.5 20.5h-74v-161h74q40 0 64.5 20t24.5 60z" />
    <glyph glyph-name="trademark" unicode="&#x2122;" horiz-adv-x="735" 
d="M150 354v300h-91v26h210v-26h-91v-300h-28zM507 354h-26l-120 271v-271h-28v326h31l130 -291l130 291h30v-326h-28v270z" />
    <glyph glyph-name="Omega" unicode="&#x2126;" horiz-adv-x="812" 
d="M406 690q149 0 249.5 -100.5t100.5 -249.5q0 -114 -56 -196.5t-154 -116.5h160v-27h-274v27q127 0 209.5 91.5t82.5 221.5q0 136 -91.5 228.5t-226.5 92.5t-226.5 -92.5t-91.5 -228.5q0 -130 82.5 -221.5t209.5 -91.5v-27h-274v27h160q-98 34 -154 116.5t-56 196.5
q0 149 100.5 249.5t249.5 100.5z" />
    <glyph glyph-name="estimated" unicode="&#x212e;" horiz-adv-x="755" 
d="M711 338h-521v-244q74 -74 193 -74q172 0 264 156l26 -15q-59 -92 -125 -131.5t-165 -39.5q-147 0 -237 99t-90 249q0 151 90 250.5t237 99.5q146 0 236.5 -98t91.5 -252zM190 374h389v209q-81 75 -197 75q-117 0 -192 -75v-209z" />
    <glyph glyph-name="onethird" unicode="&#x2153;" horiz-adv-x="734" 
d="M221 0l302 680h30l-303 -680h-29zM48 299v28h109v325h-101v28h131v-353h91v-28h-230zM511 186v29h61q33 0 55 20.5t22 50.5q0 32 -22.5 51t-60.5 19q-52 0 -81 -23v35q32 18 81 18t82 -28t33 -70q0 -31 -15.5 -54t-39.5 -33q29 -9 47.5 -36t18.5 -62q0 -49 -35.5 -79
t-89.5 -30q-49 0 -86 21v36q39 -27 85 -27q41 0 68 22.5t27 58.5q0 35 -25.5 58t-62.5 23h-62z" />
    <glyph glyph-name="twothirds" unicode="&#x2154;" horiz-adv-x="721" 
d="M208 0l302 680h30l-303 -680h-29zM498 186v29h61q33 0 55 20.5t22 50.5q0 32 -22.5 51t-60.5 19q-52 0 -81 -23v35q32 18 81 18t82 -28t33 -70q0 -31 -15.5 -54t-39.5 -33q29 -9 47.5 -36t18.5 -62q0 -49 -35.5 -79t-89.5 -30q-49 0 -86 21v36q39 -27 85 -27
q41 0 68 22.5t27 58.5q0 35 -25.5 58t-62.5 23h-62zM48 299v28l134 158q49 58 49 97q0 33 -23 53t-60 20q-52 0 -92 -40v36q41 34 93 34q51 0 81.5 -27.5t30.5 -72.5q0 -24 -9 -46.5t-18 -34.5t-27 -33l-122 -143h177v-29h-214z" />
    <glyph glyph-name="oneeighth" unicode="&#x215b;" horiz-adv-x="769" 
d="M221 0l302 680h30l-303 -680h-29zM48 299v28h109v325h-101v28h131v-353h91v-28h-230zM489 287q0 41 33 69.5t80 28.5t80 -28.5t33 -69.5q0 -29 -16.5 -51.5t-44.5 -33.5q34 -12 54.5 -38.5t20.5 -60.5q0 -46 -37 -78t-90 -32t-89.5 32t-36.5 78q0 34 20 60.5t54 38.5
q-28 11 -44.5 33.5t-16.5 51.5zM506 104q0 -35 28 -59t68 -24t68.5 24t28.5 59q0 34 -28 58.5t-69 24.5q-40 0 -68 -24t-28 -59zM519 287q0 -30 23.5 -51t59.5 -21t60 21t24 51t-24 50t-60 20q-35 0 -59 -20t-24 -50z" />
    <glyph glyph-name="threeeighths" unicode="&#x215c;" horiz-adv-x="757" 
d="M209 0l302 680h30l-303 -680h-29zM83 485v29h61q33 0 55 20.5t22 50.5q0 32 -22.5 51t-60.5 19q-52 0 -81 -23v35q32 18 81 18t82 -28t33 -70q0 -31 -15.5 -54t-39.5 -33q29 -9 47.5 -36t18.5 -62q0 -49 -35.5 -79t-89.5 -30q-49 0 -86 21v36q39 -27 85 -27q41 0 68 22.5
t27 58.5q0 35 -25.5 58t-62.5 23h-62zM477 287q0 41 33 69.5t80 28.5t80 -28.5t33 -69.5q0 -29 -16.5 -51.5t-44.5 -33.5q34 -12 54.5 -38.5t20.5 -60.5q0 -46 -37 -78t-90 -32t-89.5 32t-36.5 78q0 34 20 60.5t54 38.5q-28 11 -44.5 33.5t-16.5 51.5zM494 104q0 -35 28 -59
t68 -24t68.5 24t28.5 59q0 34 -28 58.5t-69 24.5q-40 0 -68 -24t-28 -59zM507 287q0 -30 23.5 -51t59.5 -21t60 21t24 51t-24 50t-60 20q-35 0 -59 -20t-24 -50z" />
    <glyph glyph-name="fiveeighths" unicode="&#x215d;" horiz-adv-x="757" 
d="M209 0l302 680h30l-303 -680h-29zM477 287q0 41 33 69.5t80 28.5t80 -28.5t33 -69.5q0 -29 -16.5 -51.5t-44.5 -33.5q34 -12 54.5 -38.5t20.5 -60.5q0 -46 -37 -78t-90 -32t-89.5 32t-36.5 78q0 34 20 60.5t54 38.5q-28 11 -44.5 33.5t-16.5 51.5zM494 104q0 -35 28 -59
t68 -24t68.5 24t28.5 59q0 34 -28 58.5t-69 24.5q-40 0 -68 -24t-28 -59zM507 287q0 -30 23.5 -51t59.5 -21t60 21t24 51t-24 50t-60 20q-35 0 -59 -20t-24 -50zM273 652h-148l-17 -122h26q65 0 103.5 -31.5t38.5 -83.5q0 -56 -38.5 -89t-94.5 -33q-53 0 -103 33v40
q49 -43 103 -43q42 0 72 25.5t30 66.5q0 42 -32 64.5t-83 22.5h-54l23 178h174v-28z" />
    <glyph glyph-name="seveneighths" unicode="&#x215e;" horiz-adv-x="678" 
d="M130 0l302 680h30l-303 -680h-29zM398 287q0 41 33 69.5t80 28.5t80 -28.5t33 -69.5q0 -29 -16.5 -51.5t-44.5 -33.5q34 -12 54.5 -38.5t20.5 -60.5q0 -46 -37 -78t-90 -32t-89.5 32t-36.5 78q0 34 20 60.5t54 38.5q-28 11 -44.5 33.5t-16.5 51.5zM415 104q0 -35 28 -59
t68 -24t68.5 24t28.5 59q0 34 -28 58.5t-69 24.5q-40 0 -68 -24t-28 -59zM428 287q0 -30 23.5 -51t59.5 -21t60 21t24 51t-24 50t-60 20q-35 0 -59 -20t-24 -50zM236 654l-141 -355h-35l145 353h-165v28h196v-26z" />
    <glyph glyph-name="arrowleft" unicode="&#x2190;" horiz-adv-x="750" 
d="M69 285l237 241l20 -18l-207 -210h554v-27h-554l206 -209l-19 -18z" />
    <glyph glyph-name="arrowup" unicode="&#x2191;" horiz-adv-x="750" 
d="M371 587l241 -237l-18 -20l-210 207v-554h-27v554l-209 -206l-18 19z" />
    <glyph glyph-name="arrowright" unicode="&#x2192;" horiz-adv-x="750" 
d="M673 285l-237 -241l-20 18l207 210h-554v27h554l-206 209l19 18z" />
    <glyph glyph-name="arrowdown" unicode="&#x2193;" horiz-adv-x="750" 
d="M371 -17l-241 237l18 20l210 -207v554h27v-554l209 206l18 -19z" />
    <glyph glyph-name="uni2196" unicode="&#x2196;" horiz-adv-x="750" 
d="M155 501h342v-26h-297l394 -394l-19 -19l-394 394v-296h-26v341z" />
    <glyph glyph-name="uni2197" unicode="&#x2197;" horiz-adv-x="750" 
d="M594 501v-342h-26v297l-394 -394l-19 19l394 394h-296v26h341z" />
    <glyph glyph-name="uni2198" unicode="&#x2198;" horiz-adv-x="750" 
d="M594 62h-342v26h297l-394 394l19 19l394 -394v296h26v-341z" />
    <glyph glyph-name="uni2199" unicode="&#x2199;" horiz-adv-x="750" 
d="M155 62v342h26v-297l394 394l19 -19l-394 -394h296v-26h-341z" />
    <glyph glyph-name="partialdiff" unicode="&#x2202;" horiz-adv-x="556" 
d="M279 450q55 0 104 -22l-172 252h35l216 -315q47 -68 47 -145q0 -98 -66.5 -164t-163.5 -66t-163.5 66t-66.5 164t66.5 164t163.5 66zM81 220q0 -84 57 -142t141 -58t141 58t57 142t-57 142t-141 58t-141 -58t-57 -142z" />
    <glyph glyph-name="Delta" unicode="&#x2206;" horiz-adv-x="608" 
d="M27 0l260 680h34l260 -680h-554zM304 640l-232 -612h464z" />
    <glyph glyph-name="product" unicode="&#x220f;" horiz-adv-x="718" 
d="M592 0v653h-466v-653h-30v680h526v-680h-30z" />
    <glyph glyph-name="summation" unicode="&#x2211;" horiz-adv-x="439" 
d="M388 0h-344v27l212 313l-212 313v27h344v-27h-309l209 -304v-15l-209 -307h309v-27z" />
    <glyph glyph-name="minus" unicode="&#x2212;" 
d="M41 272v27h437v-27h-437z" />
    <glyph glyph-name="uni2215" unicode="&#x2215;" horiz-adv-x="120" 
d="M-106 0l302 680h30l-303 -680h-29z" />
    <glyph glyph-name="uni2219" unicode="&#x2219;" horiz-adv-x="211" 
d="M71 273q0 15 10 25t24 10q15 0 25 -10t10 -25q0 -14 -10 -24t-25 -10q-14 0 -24 10t-10 24z" />
    <glyph glyph-name="radical" unicode="&#x221a;" horiz-adv-x="584" 
d="M209 -206l-190 491h34l173 -452l320 847h34l-337 -886h-34z" />
    <glyph glyph-name="infinity" unicode="&#x221e;" horiz-adv-x="758" 
d="M698 285q0 -66 -41 -105t-105 -39q-96 0 -172 114q-72 -113 -176 -113q-62 0 -103 37.5t-41 104.5q0 66 40.5 105.5t103.5 39.5q55 0 96 -31.5t80 -87.5q76 119 172 119q63 0 104.5 -38.5t41.5 -105.5zM666 285q0 53 -32.5 83t-81.5 30q-27 0 -50 -9t-43.5 -30t-31 -34.5
t-30.5 -41.5q34 -53 69.5 -82.5t85.5 -29.5q49 0 81.5 31t32.5 83zM363 283q-79 115 -159 115q-46 0 -79 -31.5t-33 -82.5q0 -53 33 -83t79 -30q86 0 159 112z" />
    <glyph glyph-name="integral" unicode="&#x222b;" 
d="M245 117v456q0 58 32.5 92.5t89.5 34.5q36 0 64 -10v-34q-28 14 -64 14q-92 0 -92 -97v-456q0 -58 -32.5 -92.5t-89.5 -34.5q-36 0 -64 10v34q28 -14 64 -14q92 0 92 97z" />
    <glyph glyph-name="approxequal" unicode="&#x2248;" 
d="M478 210v-35q-35 -37 -102 -37q-37 0 -120.5 33.5t-114.5 33.5q-28 0 -56 -12.5t-43 -32.5v35q37 37 99 37q38 0 120 -33.5t115 -33.5q69 0 102 45zM479 400v-35q-35 -37 -102 -37q-37 0 -120.5 33.5t-114.5 33.5q-28 0 -56 -12.5t-43 -32.5v35q37 37 99 37
q38 0 120.5 -33.5t114.5 -33.5q69 0 102 45z" />
    <glyph glyph-name="notequal" unicode="&#x2260;" 
d="M41 418h237l34 135l26 -7l-33 -128h173v-27h-180l-54 -211h234v-27h-241l-36 -142l-25 7l34 135h-169v27h176l54 211h-230v27z" />
    <glyph glyph-name="lessequal" unicode="&#x2264;" 
d="M48 53v27h437v-27h-437zM485 428v-26l-437 -177v32l404 158l-404 159v31z" />
    <glyph glyph-name="greaterequal" unicode="&#x2265;" 
d="M472 80v-27h-437v27h437zM35 402v26l437 177v-31l-404 -159l404 -158v-32z" />
    <glyph glyph-name="lozenge" unicode="&#x25ca;" horiz-adv-x="515" 
d="M480 341l-207 -341h-30l-208 341l208 339h30zM71 340l187 -309l187 310l-187 308z" />
    <glyph glyph-name="commaaccent" unicode="&#xf6c3;" horiz-adv-x="580" 
d="M285 -215h-27l27 143h37z" />
    <glyph glyph-name="commaaccent.alt" horiz-adv-x="612" 
d="M316 694h27l-27 -143h-37z" />
    <glyph glyph-name="zero.tf" 
d="M260 660q-82 0 -130 -51.5t-48 -132.5v-272q0 -81 48 -132.5t130 -51.5t130 51.5t48 132.5v272q0 81 -48 132.5t-130 51.5zM260 690q92 0 150 -60t58 -153v-274q0 -93 -58 -153t-150 -60t-150 60t-58 153v274q0 93 58 153t150 60z" />
    <glyph glyph-name="one.tf" 
d="M84 0v27h187v626h-177v27h207v-653h157v-27h-374z" />
    <glyph glyph-name="two.tf" 
d="M69 0v30l245 296q31 38 47 60t30.5 57.5t14.5 72.5q0 65 -44 104.5t-115 39.5q-94 0 -163 -76v40q70 66 163 66q83 0 136 -47t53 -127q0 -33 -7.5 -62t-25.5 -58t-29 -43t-37 -45l-234 -281h336v-27h-370z" />
    <glyph glyph-name="three.tf" 
d="M132 346v28h109q64 0 106 41.5t42 102.5q0 65 -43.5 103.5t-116.5 38.5q-90 0 -142 -42v36q59 36 142 36q88 0 140 -46.5t52 -125.5q0 -55 -30 -97t-73 -60q54 -18 89 -66t35 -113q0 -87 -61 -139.5t-152 -52.5q-92 0 -149 39v38q64 -47 149 -47q78 0 129.5 45t51.5 117
q0 69 -48.5 116.5t-120.5 47.5h-109z" />
    <glyph glyph-name="four.tf" 
d="M490 163h-103v-163h-30v163h-332v28l332 489h30v-490h103v-27zM61 190h296v436z" />
    <glyph glyph-name="five.tf" 
d="M444 653h-256l-33 -249h57q107 0 171.5 -54.5t64.5 -147.5q0 -97 -63.5 -154.5t-153.5 -57.5q-91 0 -174 64v44q82 -78 174 -78q77 0 131 49.5t54 132.5q0 81 -56.5 128t-146.5 47h-91l40 303h282v-27z" />
    <glyph glyph-name="six.tf" 
d="M333 680l-173 -252q49 22 105 22q97 0 163.5 -66t66.5 -164t-66.5 -164t-163.5 -66t-163.5 66t-66.5 164q0 77 47 145l216 315h35zM463 220q0 84 -57 142t-141 58t-141 -58t-57 -142t57 -142t141 -58t141 58t57 142z" />
    <glyph glyph-name="seven.tf" 
d="M436 653l-262 -653h-35l268 653h-306v27h335v-27z" />
    <glyph glyph-name="eight.tf" 
d="M74 518q0 72 54 122t131 50q78 0 132 -50t54 -122q0 -52 -30 -94.5t-79 -62.5q59 -21 95 -69.5t36 -109.5q0 -81 -60 -136.5t-148 -55.5q-87 0 -147 55.5t-60 136.5q0 61 35.5 109.5t94.5 69.5q-49 20 -78.5 62t-29.5 95zM84 182q0 -68 50.5 -115t124.5 -47t125 47
t51 115q0 67 -50 115.5t-126 48.5q-73 0 -124 -48t-51 -116zM105 518q0 -60 43.5 -102t110.5 -42q66 0 110.5 41.5t44.5 102.5t-44.5 101.5t-110.5 40.5q-65 0 -109.5 -40.5t-44.5 -101.5z" />
    <glyph glyph-name="nine.tf" 
d="M186 0l172 252q-45 -22 -104 -22q-98 0 -164 66t-66 164t66 164t164 66t164 -66t66 -164q0 -77 -47 -145l-216 -315h-35zM56 460q0 -84 57 -142t141 -58t141 58t57 142t-57 142t-141 58t-141 -58t-57 -142z" />
    <glyph glyph-name="zero.tosf" 
d="M260 489q-82 0 -130 -51.5t-48 -132.5v-101q0 -81 48 -132.5t130 -51.5t130 51.5t48 132.5v101q0 81 -48 132.5t-130 51.5zM260 519q92 0 150 -60t58 -153v-103q0 -93 -58 -153t-150 -60t-150 60t-58 153v103q0 93 58 153t150 60z" />
    <glyph glyph-name="one.tosf" 
d="M94 0v27h177v463h-167v27h197v-490h147v-27h-354z" />
    <glyph glyph-name="two.tosf" 
d="M77 0v26l136 81q96 57 142.5 113.5t46.5 120.5q0 66 -47 106t-117 40q-99 0 -161 -71v41q24 24 68 42t93 18q81 0 137.5 -48.5t56.5 -127.5q0 -74 -51.5 -135.5t-150.5 -120.5l-98 -58h320v-27h-375z" />
    <glyph glyph-name="three.tosf" 
d="M140 183v28h104q60 0 100 41.5t40 102.5q0 64 -41.5 103t-110.5 39q-85 0 -135 -42v36q57 36 135 36q81 0 132.5 -48.5t51.5 -123.5q0 -57 -28 -99t-72 -59q53 -16 86.5 -64t33.5 -114q0 -87 -58 -139.5t-146 -52.5q-87 0 -142 39v38q62 -47 142 -47q74 0 123 45t49 117
q0 69 -46 116.5t-114 47.5h-104z" />
    <glyph glyph-name="four.tosf" 
d="M487 0h-103v-163h-30v163h-332v28l332 489h30v-490h103v-27zM58 27h296v436z" />
    <glyph glyph-name="five.tosf" 
d="M451 490h-266l-33 -249h57q107 0 171.5 -54.5t64.5 -147.5q0 -97 -63.5 -154.5t-153.5 -57.5q-91 0 -174 64v44q82 -78 174 -78q77 0 131 49.5t54 132.5q0 81 -56.5 128t-146.5 47h-91l40 303h292v-27z" />
    <glyph glyph-name="six.tosf" 
d="M333 680l-181 -263q57 33 113 33q97 0 163.5 -66t66.5 -164t-66.5 -164t-163.5 -66t-163.5 66t-66.5 164q0 77 47 145l216 315h35zM463 220q0 84 -57 142t-141 58t-141 -58t-57 -142t57 -142t141 -58t141 58t57 142z" />
    <glyph glyph-name="seven.tosf" 
d="M439 490l-262 -653h-35l268 653h-316v27h345v-27z" />
    <glyph glyph-name="eight.tosf" 
d="M70 518q0 72 55 122t135 50t135 -50t55 -122q0 -52 -31 -94.5t-81 -62.5q60 -21 97 -69.5t37 -109.5q0 -81 -61.5 -136.5t-150.5 -55.5t-150.5 55.5t-61.5 136.5q0 61 36.5 109.5t96.5 69.5q-50 20 -80.5 62.5t-30.5 94.5zM80 182q0 -68 52 -115t128 -47t128 47t52 115
q0 67 -51.5 115.5t-128.5 48.5q-76 0 -128 -48t-52 -116zM102 518q0 -60 44.5 -102t113.5 -42q67 0 113 41.5t46 102.5t-45.5 101.5t-113.5 40.5t-113 -40.5t-45 -101.5z" />
    <glyph glyph-name="nine.tosf" 
d="M188 -163l181 263q-56 -33 -113 -33q-98 0 -164 66.5t-66 163.5t66 163.5t164 66.5t164 -66.5t66 -163.5q0 -77 -47 -145l-216 -315h-35zM58 297q0 -84 57 -142t141 -58t141 58t57 142t-57 142t-141 58t-141 -58t-57 -142z" />
    <glyph glyph-name="zero.osf" horiz-adv-x="633" 
d="M52 254q0 112 76 188.5t188 76.5t188 -76.5t76 -188.5t-76 -188.5t-188 -76.5t-188 76.5t-76 188.5zM84 254q0 -98 67.5 -166.5t164.5 -68.5q99 0 165.5 68t66.5 167t-66.5 166.5t-165.5 67.5q-97 0 -164.5 -68t-67.5 -166z" />
    <glyph glyph-name="one.osf" horiz-adv-x="426" 
d="M47 0v27h177v463h-167v27h197v-490h147v-27h-354z" />
    <glyph glyph-name="two.osf" horiz-adv-x="481" 
d="M58 0v26l136 81q96 57 142.5 113.5t46.5 120.5q0 66 -47 106t-117 40q-99 0 -161 -71v41q24 24 68 42t93 18q81 0 137.5 -48.5t56.5 -127.5q0 -74 -51.5 -135.5t-150.5 -120.5l-98 -58h320v-27h-375z" />
    <glyph glyph-name="three.osf" horiz-adv-x="448" 
d="M104 183v28h104q60 0 100 41.5t40 102.5q0 64 -41.5 103t-110.5 39q-85 0 -135 -42v36q57 36 135 36q81 0 132.5 -48.5t51.5 -123.5q0 -57 -28 -99t-72 -59q53 -16 86.5 -64t33.5 -114q0 -87 -58 -139.5t-146 -52.5q-87 0 -142 39v38q62 -47 142 -47q74 0 123 45t49 117
q0 69 -46 116.5t-114 47.5h-104z" />
    <glyph glyph-name="four.osf" horiz-adv-x="511" 
d="M483 0h-103v-163h-30v163h-332v28l332 489h30v-490h103v-27zM54 27h296v436z" />
    <glyph glyph-name="five.osf" horiz-adv-x="483" 
d="M433 490h-266l-33 -249h57q107 0 171.5 -54.5t64.5 -147.5q0 -97 -63.5 -154.5t-153.5 -57.5q-91 0 -174 64v44q82 -78 174 -78q77 0 131 49.5t54 132.5q0 81 -56.5 128t-146.5 47h-91l40 303h292v-27z" />
    <glyph glyph-name="six.osf" horiz-adv-x="548" 
d="M347 680l-181 -263q57 33 113 33q97 0 163.5 -66t66.5 -164t-66.5 -164t-163.5 -66t-163.5 66t-66.5 164q0 77 47 145l216 315h35zM477 220q0 84 -57 142t-141 58t-141 -58t-57 -142t57 -142t141 -58t141 58t57 142z" />
    <glyph glyph-name="seven.osf" horiz-adv-x="387" 
d="M373 490l-262 -653h-35l268 653h-316v27h345v-27z" />
    <glyph glyph-name="eight.osf" horiz-adv-x="538" 
d="M79 518q0 72 55 122t135 50t135 -50t55 -122q0 -52 -31 -94.5t-81 -62.5q60 -21 97 -69.5t37 -109.5q0 -81 -61.5 -136.5t-150.5 -55.5t-150.5 55.5t-61.5 136.5q0 61 36.5 109.5t96.5 69.5q-50 20 -80.5 62.5t-30.5 94.5zM89 182q0 -68 52 -115t128 -47t128 47t52 115
q0 67 -51.5 115.5t-128.5 48.5q-76 0 -128 -48t-52 -116zM111 518q0 -60 44.5 -102t113.5 -42q67 0 113 41.5t46 102.5t-45.5 101.5t-113.5 40.5t-113 -40.5t-45 -101.5z" />
    <glyph glyph-name="nine.osf" horiz-adv-x="535" 
d="M196 -163l181 263q-56 -33 -113 -33q-98 0 -164 66.5t-66 163.5t66 163.5t164 66.5t164 -66.5t66 -163.5q0 -77 -47 -145l-216 -315h-35zM66 297q0 -84 57 -142t141 -58t141 58t57 142t-57 142t-141 58t-141 -58t-57 -142z" />
    <glyph glyph-name="zero.denom" horiz-adv-x="363" 
d="M181 357q-46 0 -73.5 -27.5t-27.5 -68.5v-141q0 -41 27.5 -68.5t73.5 -27.5t74 27.5t28 68.5v141q0 41 -28 68.5t-74 27.5zM181 386q57 0 94.5 -35.5t37.5 -88.5v-143q0 -53 -37.5 -89t-94.5 -36q-56 0 -93.5 36t-37.5 89v143q0 53 37.5 88.5t93.5 35.5z" />
    <glyph glyph-name="one.denom" horiz-adv-x="274" 
d="M28 0v28h109v325h-101v28h131v-353h91v-28h-230z" />
    <glyph glyph-name="two.denom" horiz-adv-x="282" 
d="M31 0v28l134 158q49 58 49 97q0 33 -23 53t-60 20q-52 0 -92 -40v36q41 34 93 34q51 0 81.5 -27.5t30.5 -72.5q0 -24 -9 -46.5t-18 -34.5t-27 -33l-122 -143h177v-29h-214z" />
    <glyph glyph-name="three.denom" horiz-adv-x="286" 
d="M68 186v29h61q33 0 55 20.5t22 50.5q0 32 -22.5 51t-60.5 19q-52 0 -81 -23v35q32 18 81 18t82 -28t33 -70q0 -31 -15.5 -54t-39.5 -33q29 -9 47.5 -36t18.5 -62q0 -49 -35.5 -79t-89.5 -30q-49 0 -86 21v36q39 -27 85 -27q41 0 68 22.5t27 58.5q0 35 -25.5 58t-62.5 23
h-62z" />
    <glyph glyph-name="four.denom" horiz-adv-x="329" 
d="M304 88h-59v-88h-30v88h-195v26l195 267h30v-265h59v-28zM53 116h162v218z" />
    <glyph glyph-name="five.denom" horiz-adv-x="301" 
d="M261 353h-148l-17 -122h26q65 0 103.5 -31.5t38.5 -83.5q0 -56 -38.5 -89t-94.5 -33q-53 0 -103 33v40q49 -43 103 -43q42 0 72 25.5t30 66.5q0 42 -32 64.5t-83 22.5h-54l23 178h174v-28z" />
    <glyph glyph-name="six.denom" horiz-adv-x="337" 
d="M223 381l-102 -138q26 12 52 12q63 0 101 -37.5t38 -92.5t-40 -93t-99 -38t-99.5 38t-40.5 93q0 41 28 81l127 175h35zM281 125q0 42 -31 71t-77 29t-77.5 -29t-31.5 -71t31.5 -71.5t77.5 -29.5t77 29.5t31 71.5z" />
    <glyph glyph-name="seven.denom" horiz-adv-x="233" 
d="M220 355l-141 -355h-35l145 353h-165v28h196v-26z" />
    <glyph glyph-name="eight.denom" horiz-adv-x="325" 
d="M49 288q0 41 33 69.5t80 28.5t80 -28.5t33 -69.5q0 -29 -16.5 -51.5t-44.5 -33.5q34 -12 54.5 -38.5t20.5 -60.5q0 -46 -37 -78t-90 -32t-89.5 32t-36.5 78q0 34 20 60.5t54 38.5q-28 11 -44.5 33.5t-16.5 51.5zM66 105q0 -35 28 -59t68 -24t68.5 24t28.5 59
q0 34 -28 58.5t-69 24.5q-40 0 -68 -24t-28 -59zM79 288q0 -30 23.5 -51t59.5 -21t60 21t24 51t-24 50t-60 20q-35 0 -59 -20t-24 -50z" />
    <glyph glyph-name="nine.denom" horiz-adv-x="337" 
d="M114 0l101 137q-22 -11 -51 -11q-63 0 -101 37.5t-38 92.5t40 93t99 38t99.5 -38t40.5 -93q0 -41 -28 -81l-127 -175h-35zM56 256q0 -42 31 -71t77 -29t77.5 29t31.5 71t-31.5 71.5t-77.5 29.5t-77 -29.5t-31 -71.5z" />
    <glyph glyph-name="zero.num" horiz-adv-x="363" 
d="M181 656q-46 0 -73.5 -27.5t-27.5 -68.5v-141q0 -41 27.5 -68.5t73.5 -27.5t74 27.5t28 68.5v141q0 41 -28 68.5t-74 27.5zM181 685q57 0 94.5 -35.5t37.5 -88.5v-143q0 -53 -37.5 -89t-94.5 -36q-56 0 -93.5 36t-37.5 89v143q0 53 37.5 88.5t93.5 35.5z" />
    <glyph glyph-name="one.num" horiz-adv-x="275" 
d="M29 299v28h109v325h-101v28h131v-353h91v-28h-230z" />
    <glyph glyph-name="two.num" horiz-adv-x="282" 
d="M31 299v28l134 158q49 58 49 97q0 33 -23 53t-60 20q-52 0 -92 -40v36q41 34 93 34q51 0 81.5 -27.5t30.5 -72.5q0 -24 -9 -46.5t-18 -34.5t-27 -33l-122 -143h177v-29h-214z" />
    <glyph glyph-name="three.num" horiz-adv-x="286" 
d="M68 485v29h61q33 0 55 20.5t22 50.5q0 32 -22.5 51t-60.5 19q-52 0 -81 -23v35q32 18 81 18t82 -28t33 -70q0 -31 -15.5 -54t-39.5 -33q29 -9 47.5 -36t18.5 -62q0 -49 -35.5 -79t-89.5 -30q-49 0 -86 21v36q39 -27 85 -27q41 0 68 22.5t27 58.5q0 35 -25.5 58t-62.5 23
h-62z" />
    <glyph glyph-name="four.num" horiz-adv-x="329" 
d="M304 387h-59v-88h-30v88h-195v26l195 267h30v-265h59v-28zM53 415h162v218z" />
    <glyph glyph-name="five.num" horiz-adv-x="301" 
d="M261 652h-148l-17 -122h26q65 0 103.5 -31.5t38.5 -83.5q0 -56 -38.5 -89t-94.5 -33q-53 0 -103 33v40q49 -43 103 -43q42 0 72 25.5t30 66.5q0 42 -32 64.5t-83 22.5h-54l23 178h174v-28z" />
    <glyph glyph-name="six.num" horiz-adv-x="337" 
d="M223 680l-102 -138q26 12 52 12q63 0 101 -37.5t38 -92.5t-40 -93t-99 -38t-99.5 38t-40.5 93q0 41 28 81l127 175h35zM281 424q0 42 -31 71t-77 29t-77.5 -29t-31.5 -71t31.5 -71.5t77.5 -29.5t77 29.5t31 71.5z" />
    <glyph glyph-name="seven.num" horiz-adv-x="234" 
d="M220 654l-141 -355h-35l145 353h-165v28h196v-26z" />
    <glyph glyph-name="eight.num" horiz-adv-x="325" 
d="M49 587q0 41 33 69.5t80 28.5t80 -28.5t33 -69.5q0 -29 -16.5 -51.5t-44.5 -33.5q34 -12 54.5 -38.5t20.5 -60.5q0 -46 -37 -78t-90 -32t-89.5 32t-36.5 78q0 34 20 60.5t54 38.5q-28 11 -44.5 33.5t-16.5 51.5zM66 404q0 -35 28 -59t68 -24t68.5 24t28.5 59
q0 34 -28 58.5t-69 24.5q-40 0 -68 -24t-28 -59zM79 587q0 -30 23.5 -51t59.5 -21t60 21t24 51t-24 50t-60 20q-35 0 -59 -20t-24 -50z" />
    <glyph glyph-name="nine.num" horiz-adv-x="337" 
d="M114 299l101 137q-22 -11 -51 -11q-63 0 -101 37.5t-38 92.5t40 93t99 38t99.5 -38t40.5 -93q0 -41 -28 -81l-127 -175h-35zM56 555q0 -42 31 -71t77 -29t77.5 29t31.5 71t-31.5 71.5t-77.5 29.5t-77 -29.5t-31 -71.5z" />
    <glyph glyph-name="parenleft.case" horiz-adv-x="256" 
d="M85 332q0 -122 36.5 -234t101.5 -196l-20 -18q-67 84 -108.5 203t-41.5 245q0 127 41.5 246t108.5 203l20 -18q-65 -84 -101.5 -196t-36.5 -235z" />
    <glyph glyph-name="parenright.case" horiz-adv-x="256" 
d="M171 333q0 122 -36.5 234t-101.5 196l20 18q67 -84 108.5 -203t41.5 -245q0 -127 -41.5 -246t-108.5 -203l-20 18q65 84 101.5 196t36.5 235z" />
    <glyph glyph-name="hyphen.case" horiz-adv-x="385" 
d="M311 328h-237v27h237v-27z" />
    <glyph glyph-name="bracketleft.case" horiz-adv-x="279" 
d="M93 780h148v-30h-118v-835h118v-30h-148v895z" />
    <glyph glyph-name="bracketright.case" horiz-adv-x="279" 
d="M186 -115h-148v30h118v835h-118v30h148v-895z" />
    <glyph glyph-name="braceleft.case" horiz-adv-x="310" 
d="M23 319v27h30q81 0 81 101v193q0 140 112 140h27v-27h-27q-39 0 -60.5 -24.5t-21.5 -89.5v-192q0 -97 -66 -115q66 -18 66 -115v-191q0 -65 21.5 -89.5t60.5 -24.5h27v-27h-27q-112 0 -112 140v192q0 102 -81 102h-30z" />
    <glyph glyph-name="bar.case" horiz-adv-x="216" 
d="M123 780v-895h-30v895h30z" />
    <glyph glyph-name="braceright.case" horiz-adv-x="310" 
d="M287 346v-27h-30q-81 0 -81 -101v-193q0 -140 -112 -140h-27v27h27q39 0 60.5 24.5t21.5 89.5v192q0 97 66 115q-66 18 -66 115v191q0 65 -21.5 89.5t-60.5 24.5h-27v27h27q112 0 112 -140v-192q0 -102 81 -102h30z" />
    <glyph glyph-name="guilsinglleft.case" horiz-adv-x="311" 
d="M61 341l160 200l19 -18l-141 -182l141 -182l-19 -18z" />
    <glyph glyph-name="guilsinglright.case" horiz-adv-x="311" 
d="M250 341l-160 -200l-19 18l141 182l-141 182l19 18z" />
    <glyph glyph-name="guillemotleft.case" horiz-adv-x="477" 
d="M61 341l160 200l19 -18l-141 -182l141 -182l-19 -18zM227 341l160 200l19 -18l-141 -182l141 -182l-19 -18z" />
    <glyph glyph-name="guillemotright.case" horiz-adv-x="476" 
d="M250 341l-160 -200l-19 18l141 182l-141 182l19 18zM415 341l-160 -200l-19 18l141 182l-141 182l19 18z" />
    <glyph glyph-name="endash.case" horiz-adv-x="580" 
d="M74 360h432v-40h-432v40z" />
    <glyph glyph-name="emdash.case" horiz-adv-x="720" 
d="M74 360h572v-40h-572v40z" />
    <glyph glyph-name="bullet.case" horiz-adv-x="352" 
d="M176 254q-38 0 -63 24.5t-25 61.5t25 61.5t63 24.5q39 0 63.5 -24t24.5 -62t-24.5 -62t-63.5 -24z" />
    <glyph glyph-name="periodcentered.case" horiz-adv-x="217" 
d="M74 329q0 15 10 25t24 10q15 0 25 -10t10 -25q0 -14 -10 -24t-25 -10q-14 0 -24 10t-10 24z" />
    <glyph glyph-name="a.alt" horiz-adv-x="622" 
d="M509 238q0 91 -62 154t-153 63t-153 -63t-62 -154q0 -92 62 -155t153 -63t153 63t62 155zM539 0h-30v130q-27 -64 -84 -102t-131 -38q-105 0 -176 71.5t-71 176.5q0 104 71 175.5t176 71.5q73 0 130 -38t85 -102v130h30v-475z" />
    <glyph glyph-name="R.alt" horiz-adv-x="542" 
d="M102 0v680h168q91 0 147 -50t56 -133q0 -74 -46 -122.5t-122 -57.5l196 -317h-36l-193 315h-140v-315h-30zM441 496q0 73 -48 115t-123 42h-138v-311h138q75 0 123 41t48 113z" />
    <glyph glyph-name="agrave.alt" horiz-adv-x="622" 
d="M509 238q0 91 -62 154t-153 63t-153 -63t-62 -154q0 -92 62 -155t153 -63t153 63t62 155zM539 0h-30v130q-27 -64 -84 -102t-131 -38q-105 0 -176 71.5t-71 176.5q0 104 71 175.5t176 71.5q73 0 130 -38t85 -102v130h30v-475zM213 696h35l79 -147h-31z" />
    <glyph glyph-name="aacute.alt" horiz-adv-x="622" 
d="M509 238q0 91 -62 154t-153 63t-153 -63t-62 -154q0 -92 62 -155t153 -63t153 63t62 155zM539 0h-30v130q-27 -64 -84 -102t-131 -38q-105 0 -176 71.5t-71 176.5q0 104 71 175.5t176 71.5q73 0 130 -38t85 -102v130h30v-475zM367 696h35l-83 -147h-31z" />
    <glyph glyph-name="acircumflex.alt" horiz-adv-x="622" 
d="M509 238q0 91 -62 154t-153 63t-153 -63t-62 -154q0 -92 62 -155t153 -63t153 63t62 155zM539 0h-30v130q-27 -64 -84 -102t-131 -38q-105 0 -176 71.5t-71 176.5q0 104 71 175.5t176 71.5q73 0 130 -38t85 -102v130h30v-475zM285 696h29l109 -147h-34l-89 121l-90 -121
h-34z" />
    <glyph glyph-name="atilde.alt" horiz-adv-x="622" 
d="M509 238q0 91 -62 154t-153 63t-153 -63t-62 -154q0 -92 62 -155t153 -63t153 63t62 155zM539 0h-30v130q-27 -64 -84 -102t-131 -38q-105 0 -176 71.5t-71 176.5q0 104 71 175.5t176 71.5q73 0 130 -38t85 -102v130h30v-475zM431 620v-36q-11 12 -30 20t-34 8
q-20 0 -61 -17t-70 -17q-42 0 -64 22v34q24 -26 64 -26q24 0 63.5 17t67.5 17q37 0 64 -22z" />
    <glyph glyph-name="adieresis.alt" horiz-adv-x="622" 
d="M509 238q0 91 -62 154t-153 63t-153 -63t-62 -154q0 -92 62 -155t153 -63t153 63t62 155zM539 0h-30v130q-27 -64 -84 -102t-131 -38q-105 0 -176 71.5t-71 176.5q0 104 71 175.5t176 71.5q73 0 130 -38t85 -102v130h30v-475zM188 627q0 13 8.5 21.5t20.5 8.5
q13 0 21.5 -8.5t8.5 -21.5q0 -12 -8.5 -20.5t-21.5 -8.5q-12 0 -20.5 8.5t-8.5 20.5zM357 627q0 13 8.5 21.5t20.5 8.5q13 0 21.5 -8.5t8.5 -21.5q0 -12 -8.5 -20.5t-21.5 -8.5q-12 0 -20.5 8.5t-8.5 20.5z" />
    <glyph glyph-name="amacron.alt" horiz-adv-x="622" 
d="M509 238q0 91 -62 154t-153 63t-153 -63t-62 -154q0 -92 62 -155t153 -63t153 63t62 155zM539 0h-30v130q-27 -64 -84 -102t-131 -38q-105 0 -176 71.5t-71 176.5q0 104 71 175.5t176 71.5q73 0 130 -38t85 -102v130h30v-475zM170 640h262v-27h-262v27z" />
    <glyph glyph-name="abreve.alt" horiz-adv-x="622" 
d="M509 238q0 91 -62 154t-153 63t-153 -63t-62 -154q0 -92 62 -155t153 -63t153 63t62 155zM539 0h-30v130q-27 -64 -84 -102t-131 -38q-105 0 -176 71.5t-71 176.5q0 104 71 175.5t176 71.5q73 0 130 -38t85 -102v130h30v-475zM394 679h30q0 -55 -34 -90t-88 -35
q-53 0 -87 35t-34 90h30q0 -43 23 -69.5t68 -26.5q46 0 69 26.5t23 69.5z" />
    <glyph glyph-name="aring.alt" horiz-adv-x="622" 
d="M509 238q0 91 -62 154t-153 63t-153 -63t-62 -154q0 -92 62 -155t153 -63t153 63t62 155zM539 0h-30v130q-27 -64 -84 -102t-131 -38q-105 0 -176 71.5t-71 176.5q0 104 71 175.5t176 71.5q73 0 130 -38t85 -102v130h30v-475zM207 625q0 40 27 66t68 26t68.5 -26
t27.5 -66t-27.5 -66.5t-68.5 -26.5t-68 26.5t-27 66.5zM237 625q0 -29 18 -47t47 -18t47.5 18t18.5 47t-18.5 46.5t-47.5 17.5t-47 -17.5t-18 -46.5z" />
    <glyph glyph-name="aogonek.alt" horiz-adv-x="622" 
d="M539 0l-69 -56q-39 -31 -39 -65q0 -44 44 -44q32 0 72 32v-39q-1 -1 -8 -4.5t-12.5 -6t-14 -6t-18 -5t-19.5 -1.5q-33 0 -54.5 19.5t-21.5 53.5q0 44 49 85l61 49v118q-27 -64 -84 -102t-131 -38q-105 0 -176 71.5t-71 176.5q0 104 71 175.5t176 71.5q73 0 130 -38
t85 -102v130h30v-475zM509 238q0 91 -62 154t-153 63t-153 -63t-62 -154q0 -92 62 -155t153 -63t153 63t62 155z" />
    <glyph glyph-name="Racute.alt" horiz-adv-x="542" 
d="M102 0v680h168q91 0 147 -50t56 -133q0 -74 -46 -122.5t-122 -57.5l196 -317h-36l-193 315h-140v-315h-30zM441 496q0 73 -48 115t-123 42h-138v-311h138q75 0 123 41t48 113zM309 876h35l-83 -147h-31z" />
    <glyph glyph-name="Rcaron.alt" horiz-adv-x="542" 
d="M102 0v680h168q91 0 147 -50t56 -133q0 -74 -46 -122.5t-122 -57.5l196 -317h-36l-193 315h-140v-315h-30zM441 496q0 73 -48 115t-123 42h-138v-311h138q75 0 123 41t48 113zM281 729h-29l-109 147h33l91 -123l90 123h33z" />
    <glyph glyph-name="Rcommaaccent.alt" horiz-adv-x="542" 
d="M102 0v680h168q91 0 147 -50t56 -133q0 -74 -46 -122.5t-122 -57.5l196 -317h-36l-193 315h-140v-315h-30zM441 496q0 73 -48 115t-123 42h-138v-311h138q75 0 123 41t48 113zM272 -215h-27l27 143h37z" />
    </font>
</defs>
</svg>
