<?xml version="1.0" encoding="utf-8"?>
<!-- Generator: Adobe Illustrator 19.1.0, SVG Export Plug-In . SVG Version: 6.00 Build 0)  -->
<svg version="1.1" xmlns="http://www.w3.org/2000/svg" xmlns:xlink="http://www.w3.org/1999/xlink" x="0px" y="0px"
	 viewBox="0 0 595.3 595.3" style="enable-background:new 0 0 595.3 595.3;" xml:space="preserve">
<style type="text/css">
	.st0{fill-rule:evenodd;clip-rule:evenodd;fill:#FFFFFF;stroke:#888787;stroke-width:1.0859;stroke-miterlimit:10;}
	.st1{fill:none;stroke:#888787;stroke-miterlimit:10;}
	.st2{fill-rule:evenodd;clip-rule:evenodd;fill:#FFFFFF;}
	.st3{fill:#458A51;}
	.st4{fill-rule:evenodd;clip-rule:evenodd;fill:#010101;}
	.st5{fill:#010101;}
	.st6{fill-rule:evenodd;clip-rule:evenodd;fill:#FFFFFF;stroke:#010101;stroke-width:2.4642;stroke-miterlimit:10;}
</style>
<g id="Layer_1">
</g>
<g id="Layer_2">
	<g>
		<polygon class="st0" points="142.9,225.2 294.6,137.6 446.2,225.2 446.2,400.3 294.6,487.9 142.9,400.3 		"/>
		<line class="st1" x1="293.6" y1="175.7" x2="293.6" y2="435.4"/>
		<line class="st1" x1="169.9" y1="239.9" x2="416.3" y2="377.2"/>
		<line class="st1" x1="416.3" y1="239.9" x2="169.9" y2="377.2"/>
	</g>
</g>
<g id="Layer_6">
	<circle class="st2" cx="153.9" cy="231.3" r="49.7"/>
	<circle class="st2" cx="432.4" cy="231.3" r="49.7"/>
	<circle class="st2" cx="432.4" cy="394.3" r="49.7"/>
	<circle class="st2" cx="153.9" cy="394.3" r="49.7"/>
	<circle class="st2" cx="292.6" cy="472.9" r="49.7"/>
	<ellipse class="st2" cx="292" cy="128.9" rx="83" ry="78.7"/>
	<ellipse class="st2" cx="293.4" cy="320.2" rx="74.6" ry="85.4"/>
</g>
<g id="Layer_7">
	<g>
		<path class="st3" d="M263.6,327.4h34.5v13.5h-51.7v-12l34-58.7h-32.8v-13.5h50.5v12L263.6,327.4z"/>
		<path class="st3" d="M321.3,287.4c2.8-5.1,7.8-8.7,15-8.7c1.6,0,3.6,0.1,5.1,0.4v14.5c-2.2-1-5.1-1.6-8.2-1.6
			c-7.4,0-11.6,5.2-11.9,13v35.9h-13.6V280h13.6V287.4z"/>
		<path class="st3" d="M266.1,379.2c-2.1,1-4.4,1.6-6.9,1.6c-8.9,0-15.6-6.8-15.6-15.7s6.7-15.7,15.6-15.7c2.5,0,4.9,0.6,6.9,1.6
			v7.3c-1.7-1.5-4.1-2.5-6.9-2.5c-5.2,0-9.1,4.2-9.1,9.3c0,5.2,3.9,9.3,9.1,9.3c2.8,0,5.3-1,6.9-2.5V379.2z"/>
		<path class="st3" d="M284.1,349.5c8.9,0,15.6,6.8,15.6,15.7s-6.7,15.7-15.6,15.7s-15.6-6.8-15.6-15.7S275.2,349.5,284.1,349.5z
			 M284.1,374.5c5.1,0,9.1-4.1,9.1-9.3c0-5.1-3.9-9.3-9.1-9.3c-5.2,0-9.1,4.2-9.1,9.3C275,370.3,278.9,374.5,284.1,374.5z"/>
		<path class="st3" d="M303.9,350h6.3v30.3h-6.3V350z"/>
		<path class="st3" d="M322.7,362.8v17.5h-6.3v-26.6l-2.1-3.3V350h7.5l13.3,19.3V350h6.3v30.3h-6.3L322.7,362.8z"/>
	</g>
</g>
<g id="Layer_5">
	<path class="st4" d="M425,221.3l4.4-7.6c-0.6-1-1-2.2-1-3.4c0-3.6,3-6.6,6.6-6.6c3.2,0,5.9,2.3,6.5,5.4h3.7h3.7
		c0.6-3.1,3.3-5.4,6.5-5.4c3.6,0,6.6,3,6.6,6.6c0,1.2-0.3,2.3-0.9,3.3l4.5,7.7l0,0c3.6,0,6.6,3,6.6,6.6c0,3.6-3,6.6-6.6,6.6
		c-0.8,0-1.5-0.1-2.2-0.4l-1.8,3.2l-1.8,3.2c1.4,1.2,2.3,3,2.3,5c0,3.6-2.9,6.6-6.6,6.6c-3.2,0-5.9-2.3-6.5-5.4h-3.7h-3.7
		c-0.6,3.1-3.3,5.4-6.5,5.4c-3.6,0-6.6-2.9-6.6-6.6c0-2,0.9-3.8,2.3-5l-1.8-3.2v0l-1.8-3.2c-0.7,0.2-1.4,0.4-2.2,0.4
		c-3.6,0-6.6-2.9-6.6-6.6c0-3.6,2.9-6.6,6.6-6.6L425,221.3L425,221.3z M431.1,215.6l-3.6,6.3c0.5,0.2,1,0.5,1.4,0.8l3.6-6.3
		C432,216.2,431.5,215.9,431.1,215.6L431.1,215.6z M430.6,224.7c0.5,1,0.9,2.1,0.9,3.3c0,2-0.9,3.8-2.3,5l1.8,3.2l0,0l1.8,3.2
		c0.7-0.2,1.4-0.4,2.2-0.4c3.2,0,5.9,2.3,6.5,5.4h3.7h3.7c0.6-3.1,3.3-5.4,6.5-5.4c0.8,0,1.5,0.1,2.2,0.4l1.8-3.2l1.8-3.2
		c-1.4-1.2-2.3-3-2.3-5c0-1.2,0.3-2.4,0.9-3.4l-4.4-7.6l-0.1,0c-3.2,0-5.9-2.3-6.5-5.4h-3.7h-3.7c-0.6,3-3.2,5.3-6.4,5.4
		L430.6,224.7L430.6,224.7z M424.8,224.6c-1.8,0-3.3,1.5-3.3,3.3c0,1.8,1.5,3.3,3.3,3.3c1.9,0,3.3-1.5,3.3-3.3
		C428.2,226.1,426.7,224.6,424.8,224.6L424.8,224.6z M435,207c-1.9,0-3.3,1.5-3.3,3.3c0,1.9,1.5,3.3,3.3,3.3c1.9,0,3.3-1.5,3.3-3.3
		C438.4,208.5,436.9,207,435,207L435,207z M459.3,215.5c-0.4,0.3-0.9,0.6-1.4,0.8l3.6,6.3c0.4-0.3,0.9-0.6,1.4-0.8L459.3,215.5
		L459.3,215.5z M455.3,207c-1.8,0-3.3,1.5-3.3,3.3c0,1.8,1.5,3.3,3.3,3.3c1.9,0,3.3-1.5,3.3-3.3C458.7,208.5,457.2,207,455.3,207
		L455.3,207z M465.5,224.6c-1.8,0-3.3,1.5-3.3,3.3c0,1.8,1.5,3.3,3.3,3.3c1.9,0,3.3-1.5,3.3-3.3
		C468.8,226.1,467.3,224.6,465.5,224.6L465.5,224.6z M455.3,242.2c-1.9,0-3.3,1.5-3.3,3.3c0,1.9,1.5,3.3,3.3,3.3
		c1.8,0,3.3-1.5,3.3-3.3C458.7,243.7,457.2,242.2,455.3,242.2L455.3,242.2z M435,242.2c-1.9,0-3.3,1.5-3.3,3.3
		c0,1.8,1.5,3.3,3.3,3.3c1.9,0,3.3-1.5,3.3-3.3C438.4,243.7,436.9,242.2,435,242.2z"/>
	<path class="st4" d="M286.7,444.5c6.5,0,11.7,5.3,11.7,11.7l0,0.2c0.9-0.5,2-0.9,3-1.2c1.5-4.8,5.9-8.3,11.2-8.3
		c6.5,0,11.7,5.3,11.7,11.7c0,5.1-3.3,9.4-7.8,11.1c-0.2,1.2-0.6,2.3-1.1,3.3c5.1,1.3,8.9,5.9,8.9,11.4c0,5-3.2,9.3-7.6,11
		c-0.5,6.4-5.9,11.4-12.4,11.4c-6.9,0-12.4-5.6-12.4-12.4c0-0.7,0.1-1.3,0.2-2c-0.8,0.4-1.7,0.8-2.6,1c-0.8,6.1-6,10.9-12.4,10.9
		c-6.9,0-12.4-5.6-12.4-12.4c0-6.2,4.6-11.4,10.5-12.3c0.2-0.8,0.4-1.5,0.7-2.3c-6.3-0.6-11.3-5.9-11.3-12.4
		c0-6.3,4.7-11.6,10.9-12.4C277.1,447.8,281.5,444.5,286.7,444.5L286.7,444.5z M292,468c-1.7,0.6-3.1,1.7-4.1,3.1
		c-0.1,0.2-0.3,0.5-0.4,0.7c-0.7,1.2-1.1,2.6-1.1,4.1c0,4.6,3.7,8.4,8.4,8.4c1.2,0,2.3-0.2,3.3-0.7c0.4-0.2,0.8-0.5,1.3-0.7
		c1.3-0.8,2.3-2,3-3.4C296.6,478.6,292.3,473.9,292,468L292,468z M306,479.7c-0.3,0.8-0.6,1.5-1,2.2c5.8,0.3,10.5,4.5,11.6,10
		c2.7-1.4,4.6-4.2,4.6-7.5c0-4.4-3.4-8.1-7.8-8.4C311.5,478,308.9,479.3,306,479.7L306,479.7z M289.4,489.9c1.3-0.5,2.5-1.2,3.4-2.2
		c-1.7-0.3-3.4-0.9-4.8-1.9C288.8,487.1,289.2,488.4,289.4,489.9L289.4,489.9z M284.2,481.5c-0.9-1.7-1.4-3.5-1.4-5.5l0-0.1
		c-0.9,0.5-1.9,0.8-2.9,1.1c-0.5,0.7-1,1.6-1.2,2.5C280.7,479.6,282.6,480.4,284.2,481.5L284.2,481.5z M289.6,464.1
		c3.3-1.2,5.6-4.3,5.6-7.9c0-4.7-3.8-8.5-8.5-8.5c-3.3,0-6.2,1.9-7.6,4.8C284.8,453.4,289.3,458.2,289.6,464.1L289.6,464.1z
		 M277.1,456.1c-4.8,0-8.7,3.9-8.7,8.7c0,4.8,3.9,8.7,8.7,8.7c4.8,0,8.7-3.9,8.7-8.7C285.8,460,281.9,456.1,277.1,456.1L277.1,456.1
		z M304.4,485.6c-4.8,0-8.7,3.9-8.7,8.7c0,4.8,3.9,8.7,8.7,8.7c4.8,0,8.7-3.9,8.7-8.7C313.1,489.5,309.2,485.6,304.4,485.6
		L304.4,485.6z M305.1,454.9c6.1,0.3,11,5.1,11.7,11.1c2.6-1.4,4.4-4.2,4.4-7.4c0-4.7-3.8-8.5-8.5-8.5
		C309.4,450.2,306.5,452.1,305.1,454.9L305.1,454.9z M304.4,458.6c-2.4,0-4.6,1-6.2,2.5c-1.6,1.6-2.5,3.7-2.5,6.2
		c0,4.8,3.9,8.7,8.7,8.7c4.8,0,8.7-3.9,8.7-8.7C313.1,462.5,309.2,458.6,304.4,458.6L304.4,458.6z M277.1,483
		c-4.8,0-8.7,3.9-8.7,8.7c0,4.8,3.9,8.7,8.7,8.7c4.8,0,8.7-3.9,8.7-8.7C285.8,486.9,281.9,483,277.1,483z"/>
	<g>
		<path class="st5" d="M250.1,118.7h24.1c0.7,0,1.3-0.6,1.3-1.3c0-4.2-3.4-7.6-7.6-7.6c-0.6,0-1.3,0.1-1.9,0.3
			c-1.9-1.8-4.4-2.8-7-2.8c-5.6,0-10.1,4.5-10.1,10.1C248.9,118.2,249.4,118.7,250.1,118.7z M259,109.8c2.2,0,4.2,0.9,5.7,2.5
			c0.3,0.4,0.9,0.5,1.4,0.3c3-1.2,6,0.7,6.7,3.5h-21.3C252.1,112.6,255.3,109.8,259,109.8z"/>
		<path class="st5" d="M324.9,139c-0.6,0-1.3,0.1-1.9,0.3c-1.9-1.8-4.4-2.8-7-2.8c-5.6,0-10.1,4.5-10.1,10.1c0,0.7,0.6,1.3,1.3,1.3
			h24.1c0.7,0,1.3-0.6,1.3-1.3C332.5,142.4,329.1,139,324.9,139z M308.5,145.3c0.6-3.6,3.7-6.3,7.5-6.3c2.2,0,4.2,0.9,5.7,2.5
			c0.3,0.4,0.9,0.5,1.4,0.3c3-1.2,6,0.7,6.7,3.5L308.5,145.3L308.5,145.3z"/>
		<path class="st5" d="M323,155.8c-0.4-0.4-0.9-0.5-1.4-0.3c-0.5,0.2-0.8,0.7-0.8,1.2v4.5l-5.4-5.4c-0.4-0.4-0.9-0.5-1.4-0.3
			c-0.5,0.2-0.8,0.7-0.8,1.2v4.5l-5.4-5.4c-0.4-0.4-0.9-0.5-1.4-0.3c-0.5,0.2-0.8,0.7-0.8,1.2v4.5l-5.4-5.4
			c-0.4-0.4-0.9-0.5-1.4-0.3c-0.5,0.2-0.8,0.7-0.8,1.2v4.5l-5.4-5.4c-0.4-0.4-0.9-0.5-1.4-0.3c-0.5,0.2-0.8,0.7-0.8,1.2v4.5
			l-5.4-5.4c-0.4-0.4-0.9-0.5-1.4-0.3c-0.5,0.2-0.8,0.7-0.8,1.2v15.2h-6.3v-25.3c0-0.7-0.6-1.3-1.3-1.3h-5.1c-0.7,0-1.3,0.6-1.3,1.3
			v7.6h-3.8c-0.7,0-1.3,0.6-1.3,1.3v22.8h-12.7c-0.7,0-1.3,0.6-1.3,1.3v5.1v1.3v1.3h1.3h13.9h5.1h5.1h8.9H331v-1.3v-1.3v-20.3
			c0-0.3-0.1-0.7-0.4-0.9L323,155.8z M252.4,180.8h11.4v3.8h-11.4V180.8z M266.4,179.5v-22.8h2.5v27.9h-2.5V179.5z M271.4,155.5
			v-7.6h2.5v25.3v11.4h-2.5V155.5z M276.5,174.5h6.3v10.1h-6.3V174.5z M285.4,184.6v-11.4v-13.4l5.4,5.4c0.4,0.4,0.9,0.5,1.4,0.3
			c0.5-0.2,0.8-0.7,0.8-1.2v-4.5l5.4,5.4c0.4,0.4,0.9,0.5,1.4,0.3c0.5-0.2,0.8-0.7,0.8-1.2v-4.5l5.4,5.4c0.4,0.4,0.9,0.5,1.4,0.3
			c0.5-0.2,0.8-0.7,0.8-1.2v-4.5l5.4,5.4c0.4,0.4,0.9,0.5,1.4,0.3c0.5-0.2,0.8-0.7,0.8-1.2v-4.5l5.4,5.4c0.4,0.4,0.9,0.5,1.4,0.3
			c0.5-0.2,0.8-0.7,0.8-1.2v-4.5l5.1,5.1v19.7H285.4z"/>
		<rect x="307.2" y="169.4" class="st5" width="2.5" height="2.5"/>
		<rect x="292" y="169.4" class="st5" width="2.5" height="2.5"/>
		<rect x="297" y="169.4" class="st5" width="2.5" height="2.5"/>
		<rect x="302.1" y="169.4" class="st5" width="2.5" height="2.5"/>
		<rect x="286.9" y="169.4" class="st5" width="2.5" height="2.5"/>
		<rect x="307.2" y="174.5" class="st5" width="2.5" height="2.5"/>
		<rect x="292" y="174.5" class="st5" width="2.5" height="2.5"/>
		<rect x="297" y="174.5" class="st5" width="2.5" height="2.5"/>
		<rect x="302.1" y="174.5" class="st5" width="2.5" height="2.5"/>
		<rect x="286.9" y="174.5" class="st5" width="2.5" height="2.5"/>
		<rect x="307.2" y="179.5" class="st5" width="2.5" height="2.5"/>
		<rect x="292" y="179.5" class="st5" width="2.5" height="2.5"/>
		<rect x="297" y="179.5" class="st5" width="2.5" height="2.5"/>
		<rect x="302.1" y="179.5" class="st5" width="2.5" height="2.5"/>
		<rect x="322.4" y="169.4" class="st5" width="2.5" height="2.5"/>
		<rect x="312.2" y="169.4" class="st5" width="2.5" height="2.5"/>
		<rect x="317.3" y="169.4" class="st5" width="2.5" height="2.5"/>
		<rect x="322.4" y="174.5" class="st5" width="2.5" height="2.5"/>
		<rect x="312.2" y="174.5" class="st5" width="2.5" height="2.5"/>
		<rect x="317.3" y="174.5" class="st5" width="2.5" height="2.5"/>
		<rect x="322.4" y="179.5" class="st5" width="2.5" height="2.5"/>
		<rect x="312.2" y="179.5" class="st5" width="2.5" height="2.5"/>
		<rect x="317.3" y="179.5" class="st5" width="2.5" height="2.5"/>
		<rect x="286.9" y="179.5" class="st5" width="2.5" height="2.5"/>
		<path class="st5" d="M275.5,141.5c0-1.4,1.1-2.5,2.5-2.5h12.7c2.8,0,5.1-2.3,5.1-5.1c0-1.4,1.1-2.5,2.5-2.5h22.8v-2.5h-22.8
			c-2.8,0-5.1,2.3-5.1,5.1c0,1.4-1.1,2.5-2.5,2.5H278c-2.8,0-5.1,2.3-5.1,5.1v2.5h2.5V141.5z"/>
		<path class="st5" d="M278,133.9c2.8,0,5.1-2.3,5.1-5.1v-1.3c0-1.4,1.1-2.5,2.5-2.5h22.8v-2.5h-22.8c-2.8,0-5.1,2.3-5.1,5.1v1.3
			c0,1.4-1.1,2.5-2.5,2.5h-5.1c-2.8,0-5.1,2.3-5.1,5.1v7.6h2.5v-7.6c0-1.4,1.1-2.5,2.5-2.5H278z"/>
		<path class="st5" d="M269.1,122.5v2.5h6.3c2.8,0,5.1-2.3,5.1-5.1c0-1.4,1.1-2.5,2.5-2.5h31.7c2.8,0,5.1-2.3,5.1-5.1v-2.5h-2.5v2.5
			c0,1.4-1.1,2.5-2.5,2.5h-31.7c-2.8,0-5.1,2.3-5.1,5.1c0,1.4-1.1,2.5-2.5,2.5H269.1z"/>
		<rect x="316" y="122.5" class="st5" width="2.5" height="2.5"/>
		<rect x="321.1" y="122.5" class="st5" width="2.5" height="2.5"/>
		<rect x="326.2" y="122.5" class="st5" width="2.5" height="2.5"/>
		<rect x="311" y="122.5" class="st5" width="2.5" height="2.5"/>
		<rect x="302.1" y="107.3" class="st5" width="2.5" height="2.5"/>
		<rect x="307.2" y="107.3" class="st5" width="2.5" height="2.5"/>
		<rect x="312.2" y="107.3" class="st5" width="2.5" height="2.5"/>
		<rect x="297" y="107.3" class="st5" width="2.5" height="2.5"/>
	</g>
	<path class="st4" d="M420.3,384.5c0.9,0.4,1.4,1.2,1.4,2l7.2,3l-0.9-2.4l1.8-0.6l1.9,5.3l-5.1,2.3l-0.8-1.7l2.3-1.1l-7.2-3
		c-0.6,0.6-1.6,0.8-2.4,0.4c-1.2-0.5-1.7-1.8-1.2-3C417.8,384.6,419.1,384,420.3,384.5L420.3,384.5z M436,401.7
		c0.3,0.9,1.1,1.4,2,1.5l2.8,7.3l-2.4-0.9l-0.7,1.8l5.2,2.1l2.5-5l-1.7-0.9l-1.1,2.3l-2.8-7.3c0.6-0.6,0.8-1.6,0.5-2.4
		c-0.5-1.2-1.8-1.8-3-1.3C436.2,399.2,435.6,400.5,436,401.7L436,401.7z M460.3,390.7c-0.2,0.9,0.1,1.8,0.8,2.4l-2,7.5l-1.4-2.1
		l-1.6,1l3,4.7l5-2.6l-0.9-1.7l-2.2,1.2l2-7.5c0.9-0.1,1.6-0.8,1.8-1.7c0.3-1.2-0.4-2.5-1.6-2.8
		C461.9,388.7,460.6,389.5,460.3,390.7L460.3,390.7z M433.1,375.6c-0.9,0-1.7-0.6-2-1.4l-7.8-0.4l1.6,2l-1.5,1.2l-3.6-4.3l4-3.9
		l1.3,1.4l-1.8,1.8l7.8,0.4c0.4-0.8,1.2-1.3,2.2-1.2c1.3,0.1,2.2,1.1,2.2,2.4C435.4,374.7,434.3,375.7,433.1,375.6L433.1,375.6z
		 M466.2,415.8c-0.9,0.2-1.8-0.2-2.3-0.9l-7.6,1.7l2.1,1.4l-1.1,1.6l-4.6-3.2l2.8-4.8l1.7,1l-1.3,2.2l7.6-1.7
		c0.2-0.9,0.8-1.6,1.8-1.8c1.2-0.3,2.5,0.5,2.7,1.7C468.2,414.3,467.5,415.5,466.2,415.8L466.2,415.8z M422.5,417
		c0.1-0.9,0.8-1.6,1.6-1.9l1-7.7l-2.1,1.5l-1.1-1.6l4.6-3.2l3.6,4.3l-1.5,1.2l-1.6-2l-1,7.7c0.7,0.5,1.2,1.3,1,2.2
		c-0.2,1.3-1.3,2.1-2.6,2C423.2,419.4,422.3,418.3,422.5,417L422.5,417z M440.7,387.8c0.8-0.5,1.7-0.6,2.5-0.1l6.4-4.5l-2.5-0.5
		l0.4-1.9l5.5,1.2l-0.7,5.6l-1.9-0.2l0.3-2.5l-6.3,4.5c0.2,0.9-0.2,1.8-0.9,2.3c-1,0.7-2.5,0.5-3.2-0.5
		C439.4,390,439.6,388.5,440.7,387.8L440.7,387.8z M455.5,369.2c0.7,0.6,1,1.5,0.8,2.3l6.1,4.8l-0.2-2.5l1.9-0.2l0.5,5.6l-5.5,0.9
		l-0.3-1.9l2.5-0.4l-6.1-4.8c-0.8,0.4-1.7,0.3-2.5-0.2c-1-0.8-1.2-2.2-0.4-3.2C453.1,368.6,454.5,368.4,455.5,369.2z"/>
	<path class="st4" d="M142.9,371.4c7.1,0,13.4,3.3,17.6,8.4c0.5-0.2,1-0.3,1.5-0.3c2.6,0,4.7,2.1,4.7,4.7c0,1.6-0.8,2.9-1.9,3.8
		c0.5,1.9,0.8,4,0.8,6.1c0,12.5-10.2,22.7-22.7,22.7s-22.7-10.2-22.7-22.7C120.2,381.6,130.4,371.4,142.9,371.4L142.9,371.4z
		 M143.7,403.8c1.1,0,2,0.6,2.6,1.4c4.8-1.4,8.3-5.9,8.3-11.1c0-6.4-5.2-11.6-11.6-11.6s-11.6,5.2-11.6,11.6
		c0,5.7,4.1,10.5,9.6,11.4C141.4,404.5,142.4,403.8,143.7,403.8L143.7,403.8z M146.6,407.6c5.9-1.6,10.2-7,10.2-13.4
		c0-7.7-6.2-13.9-13.9-13.9s-13.9,6.2-13.9,13.9c0,7,5.1,12.7,11.8,13.8c0.4,1.2,1.5,2,2.9,2C145.1,409.9,146.3,408.9,146.6,407.6
		L146.6,407.6z M121.1,369.8c-2.1,0-3.7,1.7-3.7,3.7c0,0.7,0.2,1.4,0.6,2c-3.9,5.2-6.1,11.6-6.1,18.6c0,17.2,13.9,31.1,31.1,31.1
		c17.2,0,31.1-13.9,31.1-31.1c0-17.2-13.9-31.1-31.1-31.1c-7.6,0-14.6,2.7-20,7.3C122.3,370,121.7,369.8,121.1,369.8L121.1,369.8z
		 M124.5,372c0.2,0.5,0.4,1,0.4,1.6c0,2.1-1.7,3.7-3.7,3.7c-0.5,0-1-0.1-1.4-0.3c-3.5,4.8-5.6,10.7-5.6,17.1
		c0,15.9,12.9,28.8,28.8,28.8c15.9,0,28.8-12.9,28.8-28.8c0-15.9-12.9-28.8-28.8-28.8C135.9,365.3,129.5,367.8,124.5,372L124.5,372z
		 M162.6,388.9c-0.2,0-0.4,0-0.6,0c-2.6,0-4.7-2.1-4.7-4.7c0-1.2,0.5-2.3,1.2-3.1c-3.7-4.5-9.4-7.3-15.6-7.3
		c-11.2,0-20.4,9.1-20.4,20.4c0,11.2,9.1,20.4,20.4,20.4c11.2,0,20.4-9.1,20.4-20.4C163.3,392.3,163,390.6,162.6,388.9L162.6,388.9z
		 M142.9,387.2c-3.8,0-7,3.1-7,7c0,3.9,3.1,7,7,7c3.8,0,7-3.1,7-7C149.9,390.3,146.8,387.2,142.9,387.2L142.9,387.2z M142.9,390.9
		c-1.8,0-3.2,1.4-3.2,3.2c0,1.8,1.4,3.2,3.2,3.2c1.8,0,3.2-1.4,3.2-3.2C146.1,392.4,144.7,390.9,142.9,390.9z"/>
	<circle class="st6" cx="152.9" cy="229.7" r="18.1"/>
	<circle class="st6" cx="141.8" cy="215.5" r="18.1"/>
	<circle class="st6" cx="131.7" cy="233.6" r="18.1"/>
	<g>
		<path d="M271.6,546.7h-3.6l-0.5,1.4h-1.9l3.1-8h2.1l3.1,8h-1.9L271.6,546.7z M268.5,545.2h2.7l-1.3-3.7L268.5,545.2z"/>
		<path d="M274.7,540.1h3.2c2.5,0,4.2,1.6,4.2,4c0,2.4-1.7,4-4.2,4h-3.2V540.1z M277.9,546.6c1.6,0,2.5-1.1,2.5-2.5
			c0-1.4-0.9-2.5-2.5-2.5h-1.5v5H277.9z"/>
		<path d="M282.3,540.1h1.9l2.2,6.2l2.2-6.2h1.9l-3.1,8h-2.1L282.3,540.1z"/>
		<path d="M295.9,546.7h-3.6l-0.5,1.4h-1.9l3.1-8h2.1l3.1,8h-1.9L295.9,546.7z M292.7,545.2h2.7l-1.3-3.7L292.7,545.2z"/>
		<path d="M300.7,542.7v5.4H299v-8h1.8l3.7,5.2v-5.2h1.7v8h-1.6L300.7,542.7z"/>
		<path d="M307.3,544.1c0-2.5,1.9-4.1,4.2-4.1c1.8,0,2.8,1,3.4,2l-1.5,0.7c-0.3-0.6-1.1-1.2-1.9-1.2c-1.4,0-2.4,1.1-2.4,2.6
			c0,1.5,1.1,2.6,2.4,2.6c0.9,0,1.6-0.5,1.9-1.2l1.5,0.7c-0.6,1-1.6,2-3.4,2C309.2,548.2,307.3,546.5,307.3,544.1z"/>
		<path d="M316,540.1h5.7v1.5h-4v1.7h3.9v1.5h-3.9v1.9h4v1.5H316V540.1z"/>
		<path d="M323,540.1h3.2c2.5,0,4.2,1.6,4.2,4c0,2.4-1.7,4-4.2,4H323V540.1z M326.1,546.6c1.6,0,2.5-1.1,2.5-2.5
			c0-1.4-0.9-2.5-2.5-2.5h-1.5v5H326.1z"/>
		<path d="M230.2,554.5h5.7v1.5h-4v1.7h3.9v1.5h-3.9v3.3h-1.7V554.5z"/>
		<path d="M240.9,554.3c2.4,0,4.2,1.7,4.2,4.1c0,2.4-1.8,4.1-4.2,4.1c-2.4,0-4.2-1.7-4.2-4.1C236.7,556.1,238.5,554.3,240.9,554.3z
			 M240.9,555.8c-1.5,0-2.4,1.1-2.4,2.6c0,1.5,0.9,2.6,2.4,2.6s2.4-1.1,2.4-2.6C243.3,557,242.4,555.8,240.9,555.8z"/>
		<path d="M249.2,559.6H248v2.9h-1.7v-8h3.7c1.7,0,2.7,1.1,2.7,2.6c0,1.4-0.9,2.2-1.8,2.4l1.8,3h-2L249.2,559.6z M249.8,555.9H248
			v2.2h1.8c0.7,0,1.2-0.4,1.2-1.1S250.5,555.9,249.8,555.9z"/>
		<path d="M261,556.7l-2.3,5.8H258l-2.3-5.8v5.8H254v-8h2.4l1.9,5l1.9-5h2.4v8H261V556.7z"/>
		<path d="M271.1,554.3c2.4,0,4.2,1.7,4.2,4.1c0,2.4-1.8,4.1-4.2,4.1c-2.4,0-4.2-1.7-4.2-4.1C266.9,556.1,268.7,554.3,271.1,554.3z
			 M271.1,555.8c-1.5,0-2.4,1.1-2.4,2.6c0,1.5,0.9,2.6,2.4,2.6s2.4-1.1,2.4-2.6C273.6,557,272.6,555.8,271.1,555.8z"/>
		<path d="M276.5,554.5h5.7v1.5h-4v1.7h3.9v1.5h-3.9v3.3h-1.7V554.5z"/>
		<path d="M286.4,554.5h1.7v8h-1.7V554.5z"/>
		<path d="M291.4,557.1v5.4h-1.7v-8h1.8l3.7,5.2v-5.2h1.7v8h-1.6L291.4,557.1z"/>
		<path d="M297.6,554.5h1.9l2.2,6.2l2.2-6.2h1.9l-3.1,8h-2.1L297.6,554.5z"/>
		<path d="M306.7,554.5h5.7v1.5h-4v1.7h3.9v1.5h-3.9v1.9h4v1.5h-5.7V554.5z"/>
		<path d="M314.1,560c0.6,0.6,1.4,1.1,2.5,1.1c0.9,0,1.4-0.4,1.4-0.9c0-0.6-0.7-0.8-1.6-1c-1.3-0.3-3-0.7-3-2.4c0-1.3,1.2-2.4,3-2.4
			c1.3,0,2.3,0.4,3.1,1.1l-0.9,1.2c-0.6-0.6-1.5-0.9-2.3-0.9c-0.8,0-1.2,0.3-1.2,0.8c0,0.5,0.7,0.7,1.6,0.9c1.3,0.3,3,0.7,3,2.5
			c0,1.5-1,2.6-3.2,2.6c-1.5,0-2.6-0.5-3.4-1.3L314.1,560z"/>
		<path d="M322.6,556h-2.3v-1.5h6.4v1.5h-2.3v6.5h-1.7V556z"/>
		<path d="M334.7,556.7l-2.3,5.8h-0.7l-2.3-5.8v5.8h-1.7v-8h2.4l1.9,5l1.9-5h2.4v8h-1.7V556.7z"/>
		<path d="M338,554.5h5.7v1.5h-4v1.7h3.9v1.5h-3.9v1.9h4v1.5H338V554.5z"/>
		<path d="M346.7,557.1v5.4H345v-8h1.8l3.7,5.2v-5.2h1.7v8h-1.6L346.7,557.1z"/>
		<path d="M355.6,556h-2.3v-1.5h6.4v1.5h-2.3v6.5h-1.7V556z"/>
		<path d="M361.1,560c0.6,0.6,1.4,1.1,2.5,1.1c0.9,0,1.4-0.4,1.4-0.9c0-0.6-0.7-0.8-1.6-1c-1.3-0.3-3-0.7-3-2.4c0-1.3,1.2-2.4,3-2.4
			c1.3,0,2.3,0.4,3.1,1.1l-0.9,1.2c-0.6-0.6-1.5-0.9-2.3-0.9c-0.8,0-1.2,0.3-1.2,0.8c0,0.5,0.7,0.7,1.6,0.9c1.3,0.3,3,0.7,3,2.5
			c0,1.5-1,2.6-3.2,2.6c-1.5,0-2.6-0.5-3.4-1.3L361.1,560z"/>
		<path d="M204.5,570.4h-2.3v-1.5h6.4v1.5h-2.3v6.5h-1.7V570.4z"/>
		<path d="M215.1,573.5h-3.8v3.4h-1.7v-8h1.7v3.1h3.8v-3.1h1.7v8h-1.7V573.5z"/>
		<path d="M221.4,574h-1.2v2.9h-1.7v-8h3.7c1.7,0,2.7,1.1,2.7,2.6c0,1.4-0.9,2.2-1.8,2.4l1.8,3h-2L221.4,574z M221.9,570.3h-1.8v2.2
			h1.8c0.7,0,1.2-0.4,1.2-1.1C223.1,570.8,222.6,570.3,221.9,570.3z"/>
		<path d="M229.9,568.7c2.4,0,4.2,1.7,4.2,4.1c0,2.4-1.8,4.1-4.2,4.1c-2.4,0-4.2-1.7-4.2-4.1C225.8,570.5,227.5,568.7,229.9,568.7z
			 M229.9,570.2c-1.5,0-2.4,1.1-2.4,2.6c0,1.5,0.9,2.6,2.4,2.6s2.4-1.1,2.4-2.6C232.4,571.4,231.4,570.2,229.9,570.2z"/>
		<path d="M235.3,568.9h1.7v4.8c0,1.1,0.6,1.9,1.9,1.9c1.2,0,1.8-0.8,1.8-1.9v-4.8h1.7v4.8c0,2-1.1,3.3-3.6,3.3
			c-2.4,0-3.6-1.4-3.6-3.3V568.9z"/>
		<path d="M247.9,568.7c1.7,0,2.7,0.8,3.3,1.8l-1.4,0.8c-0.4-0.6-1.1-1-1.9-1c-1.5,0-2.5,1.1-2.5,2.6c0,1.5,1.1,2.6,2.5,2.6
			c0.7,0,1.4-0.3,1.7-0.6v-1h-2.1v-1.5h3.8v3.1c-0.8,0.9-2,1.5-3.4,1.5c-2.3,0-4.3-1.6-4.3-4.1C243.7,570.3,245.6,568.7,247.9,568.7
			z"/>
		<path d="M258.2,573.5h-3.8v3.4h-1.7v-8h1.7v3.1h3.8v-3.1h1.7v8h-1.7V573.5z"/>
		<path d="M264.6,568.9h4.2c1.5,0,2.3,1,2.3,2c0,1-0.6,1.7-1.4,1.8c0.9,0.1,1.5,1,1.5,2c0,1.2-0.8,2.2-2.3,2.2h-4.3V568.9z
			 M268.4,572.1c0.6,0,0.9-0.4,0.9-0.9c0-0.5-0.4-0.9-0.9-0.9h-2.1v1.8H268.4z M268.5,575.4c0.6,0,1-0.4,1-0.9c0-0.5-0.4-0.9-1-0.9
			h-2.2v1.9H268.5z"/>
		<path d="M272.5,568.9h1.7v6.5h3.4v1.5h-5.1V568.9z"/>
		<path d="M282.3,568.7c2.4,0,4.2,1.7,4.2,4.1c0,2.4-1.8,4.1-4.2,4.1c-2.4,0-4.2-1.7-4.2-4.1C278.1,570.5,279.8,568.7,282.3,568.7z
			 M282.3,570.2c-1.5,0-2.4,1.1-2.4,2.6c0,1.5,0.9,2.6,2.4,2.6s2.4-1.1,2.4-2.6C284.7,571.4,283.7,570.2,282.3,570.2z"/>
		<path d="M287.3,572.9c0-2.5,1.9-4.1,4.2-4.1c1.8,0,2.8,1,3.4,2l-1.5,0.7c-0.3-0.6-1.1-1.2-1.9-1.2c-1.4,0-2.4,1.1-2.4,2.6
			c0,1.5,1.1,2.6,2.4,2.6c0.9,0,1.6-0.5,1.9-1.2l1.5,0.7c-0.6,1-1.6,2-3.4,2C289.1,577,287.3,575.3,287.3,572.9z"/>
		<path d="M298.2,573.7l-0.6,0.7v2.5h-1.7v-8h1.7v3.6l2.8-3.6h2.1l-3.2,3.8l3.4,4.2h-2.1L298.2,573.7z"/>
		<path d="M302.7,572.9c0-2.5,1.9-4.1,4.2-4.1c1.8,0,2.8,1,3.4,2l-1.5,0.7c-0.3-0.6-1.1-1.2-1.9-1.2c-1.4,0-2.4,1.1-2.4,2.6
			c0,1.5,1.1,2.6,2.4,2.6c0.9,0,1.6-0.5,1.9-1.2l1.5,0.7c-0.6,1-1.6,2-3.4,2C304.5,577,302.7,575.3,302.7,572.9z"/>
		<path d="M316.8,573.5H313v3.4h-1.7v-8h1.7v3.1h3.8v-3.1h1.7v8h-1.7V573.5z"/>
		<path d="M325.2,575.5h-3.6l-0.5,1.4h-1.9l3.1-8h2.1l3.1,8h-1.9L325.2,575.5z M322,574h2.7l-1.3-3.7L322,574z"/>
		<path d="M328.3,568.9h1.7v8h-1.7V568.9z"/>
		<path d="M333.3,571.5v5.4h-1.7v-8h1.8l3.7,5.2v-5.2h1.7v8h-1.6L333.3,571.5z"/>
		<path d="M347.2,568.7c2.4,0,4.2,1.7,4.2,4.1c0,2.4-1.8,4.1-4.2,4.1c-2.4,0-4.2-1.7-4.2-4.1C343,570.5,344.7,568.7,347.2,568.7z
			 M347.2,570.2c-1.5,0-2.4,1.1-2.4,2.6c0,1.5,0.9,2.6,2.4,2.6c1.5,0,2.4-1.1,2.4-2.6C349.6,571.4,348.6,570.2,347.2,570.2z"/>
		<path d="M352.5,568.9h3.7c1.7,0,2.7,1.2,2.7,2.6c0,1.4-1,2.6-2.7,2.6h-2v2.9h-1.7V568.9z M356.1,570.3h-1.8v2.2h1.8
			c0.7,0,1.2-0.4,1.2-1.1C357.2,570.8,356.7,570.3,356.1,570.3z"/>
		<path d="M361.9,570.4h-2.3v-1.5h6.4v1.5h-2.3v6.5h-1.7V570.4z"/>
		<path d="M367,568.9h1.7v8H367V568.9z"/>
		<path d="M374.1,568.7c2.4,0,4.2,1.7,4.2,4.1c0,2.4-1.8,4.1-4.2,4.1c-2.4,0-4.2-1.7-4.2-4.1C369.9,570.5,371.7,568.7,374.1,568.7z
			 M374.1,570.2c-1.5,0-2.4,1.1-2.4,2.6c0,1.5,0.9,2.6,2.4,2.6c1.5,0,2.4-1.1,2.4-2.6C376.5,571.4,375.6,570.2,374.1,570.2z"/>
		<path d="M381.2,571.5v5.4h-1.7v-8h1.8l3.7,5.2v-5.2h1.7v8H385L381.2,571.5z"/>
		<path d="M388.6,574.4c0.6,0.6,1.4,1.1,2.5,1.1c0.9,0,1.4-0.4,1.4-0.9c0-0.6-0.7-0.8-1.6-1c-1.3-0.3-3-0.7-3-2.4
			c0-1.3,1.2-2.4,3-2.4c1.3,0,2.3,0.4,3.1,1.1l-0.9,1.2c-0.6-0.6-1.5-0.9-2.3-0.9c-0.8,0-1.2,0.3-1.2,0.8c0,0.5,0.7,0.7,1.6,0.9
			c1.3,0.3,3,0.7,3,2.5c0,1.5-1,2.6-3.2,2.6c-1.5,0-2.6-0.5-3.4-1.3L388.6,574.4z"/>
	</g>
	<g>
		<path d="M90.7,143.4h3.2c2.5,0,4.2,1.6,4.2,4s-1.7,4-4.2,4h-3.2V143.4z M93.9,149.9c1.6,0,2.5-1.1,2.5-2.5c0-1.4-0.9-2.5-2.5-2.5
			h-1.5v5H93.9z"/>
		<path d="M99.3,143.4h5.7v1.5h-4v1.7h3.9v1.5H101v1.9h4v1.5h-5.7V143.4z"/>
		<path d="M105.9,147.4c0-2.5,1.9-4.1,4.2-4.1c1.8,0,2.8,1,3.4,2l-1.5,0.7c-0.3-0.6-1.1-1.2-1.9-1.2c-1.4,0-2.4,1.1-2.4,2.6
			s1.1,2.6,2.4,2.6c0.9,0,1.6-0.5,1.9-1.2l1.5,0.7c-0.6,1-1.6,2-3.4,2C107.8,151.5,105.9,149.9,105.9,147.4z"/>
		<path d="M114.6,143.4h5.7v1.5h-4v1.7h3.9v1.5h-3.9v1.9h4v1.5h-5.7V143.4z"/>
		<path d="M123.3,146v5.4h-1.7v-8h1.8l3.7,5.2v-5.2h1.7v8h-1.6L123.3,146z"/>
		<path d="M132.2,144.9h-2.3v-1.5h6.4v1.5h-2.3v6.5h-1.7V144.9z"/>
		<path d="M140.2,148.5H139v2.9h-1.7v-8h3.7c1.7,0,2.7,1.1,2.7,2.6c0,1.4-0.9,2.2-1.8,2.4l1.8,3h-2L140.2,148.5z M140.8,144.8H139
			v2.2h1.8c0.7,0,1.2-0.4,1.2-1.1C142,145.3,141.5,144.8,140.8,144.8z"/>
		<path d="M150.1,150h-3.6l-0.5,1.4h-1.9l3.1-8h2.1l3.1,8h-1.9L150.1,150z M147,148.5h2.7l-1.3-3.7L147,148.5z"/>
		<path d="M153.2,143.4h1.7v6.5h3.4v1.5h-5.1V143.4z"/>
		<path d="M159.5,143.4h1.7v8h-1.7V143.4z"/>
		<path d="M162.5,150l3.8-5.1h-3.8v-1.5h6v1.4l-3.8,5.1h3.9v1.5h-6.1V150z"/>
		<path d="M169.9,143.4h5.7v1.5h-4v1.7h3.9v1.5h-3.9v1.9h4v1.5h-5.7V143.4z"/>
		<path d="M176.9,143.4h3.2c2.5,0,4.2,1.6,4.2,4s-1.7,4-4.2,4h-3.2V143.4z M180,149.9c1.6,0,2.5-1.1,2.5-2.5c0-1.4-0.9-2.5-2.5-2.5
			h-1.5v5H180z"/>
		<path d="M71.7,159.3h-2.3v-1.5h6.4v1.5h-2.3v6.5h-1.7V159.3z"/>
		<path d="M79.8,162.9h-1.2v2.9h-1.7v-8h3.7c1.7,0,2.7,1.1,2.7,2.6c0,1.4-0.9,2.2-1.8,2.4l1.8,3h-2L79.8,162.9z M80.3,159.2h-1.8
			v2.2h1.8c0.7,0,1.2-0.4,1.2-1.1C81.5,159.7,81,159.2,80.3,159.2z"/>
		<path d="M89.6,164.4h-3.6l-0.5,1.4h-1.9l3.1-8h2.1l3.1,8h-1.9L89.6,164.4z M86.5,162.9h2.7l-1.3-3.7L86.5,162.9z"/>
		<path d="M92.8,157.8h3.2c2.5,0,4.2,1.6,4.2,4s-1.7,4-4.2,4h-3.2V157.8z M95.9,164.3c1.6,0,2.5-1.1,2.5-2.5c0-1.4-0.9-2.5-2.5-2.5
			h-1.5v5H95.9z"/>
		<path d="M101.4,157.8h1.7v8h-1.7V157.8z"/>
		<path d="M106.4,160.4v5.4h-1.7v-8h1.8l3.7,5.2v-5.2h1.7v8h-1.6L106.4,160.4z"/>
		<path d="M117.3,157.7c1.7,0,2.7,0.8,3.3,1.8l-1.4,0.8c-0.4-0.6-1.1-1-1.9-1c-1.5,0-2.5,1.1-2.5,2.6s1.1,2.6,2.5,2.6
			c0.7,0,1.4-0.3,1.7-0.6v-1h-2.1v-1.5h3.8v3.1c-0.8,0.9-2,1.5-3.4,1.5c-2.3,0-4.3-1.6-4.3-4.1C113,159.3,114.9,157.7,117.3,157.7z"
			/>
		<path d="M124.7,161.8c0-2.5,1.9-4.1,4.2-4.1c1.8,0,2.8,1,3.4,2l-1.5,0.7c-0.3-0.6-1.1-1.2-1.9-1.2c-1.4,0-2.4,1.1-2.4,2.6
			s1.1,2.6,2.4,2.6c0.9,0,1.6-0.5,1.9-1.2l1.5,0.7c-0.6,1-1.6,2-3.4,2C126.6,165.9,124.7,164.3,124.7,161.8z"/>
		<path d="M136.3,162.9h-1.2v2.9h-1.7v-8h3.7c1.7,0,2.7,1.1,2.7,2.6c0,1.4-0.9,2.2-1.8,2.4l1.8,3h-2L136.3,162.9z M136.9,159.2h-1.8
			v2.2h1.8c0.7,0,1.2-0.4,1.2-1.1C138,159.7,137.5,159.2,136.9,159.2z"/>
		<path d="M143.1,162.5l-3.1-4.7h1.9l2,3.2l2-3.2h1.9l-3.1,4.7v3.3h-1.7V162.5z"/>
		<path d="M148.6,157.8h3.7c1.7,0,2.7,1.2,2.7,2.6c0,1.4-1,2.6-2.7,2.6h-2v2.9h-1.7V157.8z M152.1,159.2h-1.8v2.2h1.8
			c0.7,0,1.2-0.4,1.2-1.1C153.3,159.7,152.8,159.2,152.1,159.2z"/>
		<path d="M157.9,159.3h-2.3v-1.5h6.4v1.5h-2.3v6.5h-1.7V159.3z"/>
		<path d="M166.6,157.7c2.4,0,4.2,1.7,4.2,4.1s-1.8,4.1-4.2,4.1c-2.4,0-4.2-1.7-4.2-4.1S164.2,157.7,166.6,157.7z M166.6,159.2
			c-1.5,0-2.4,1.1-2.4,2.6c0,1.5,0.9,2.6,2.4,2.6s2.4-1.1,2.4-2.6C169,160.3,168,159.2,166.6,159.2z"/>
		<path d="M176.9,159.3h-2.3v-1.5h6.4v1.5h-2.3v6.5h-1.7V159.3z"/>
		<path d="M185.5,157.7c2.4,0,4.2,1.7,4.2,4.1s-1.8,4.1-4.2,4.1c-2.4,0-4.2-1.7-4.2-4.1S183.1,157.7,185.5,157.7z M185.5,159.2
			c-1.5,0-2.4,1.1-2.4,2.6c0,1.5,0.9,2.6,2.4,2.6s2.4-1.1,2.4-2.6C188,160.3,187,159.2,185.5,159.2z"/>
		<path d="M194.7,157.7c2.4,0,4.2,1.7,4.2,4.1s-1.8,4.1-4.2,4.1c-2.4,0-4.2-1.7-4.2-4.1S192.3,157.7,194.7,157.7z M194.7,159.2
			c-1.5,0-2.4,1.1-2.4,2.6c0,1.5,0.9,2.6,2.4,2.6s2.4-1.1,2.4-2.6C197.1,160.3,196.2,159.2,194.7,159.2z"/>
		<path d="M200.1,157.8h1.7v6.5h3.4v1.5h-5.1V157.8z"/>
	</g>
	<g>
		<path d="M409,129.6h4.2c1.5,0,2.3,1,2.3,2c0,1-0.6,1.7-1.4,1.8c0.9,0.1,1.5,1,1.5,2c0,1.2-0.8,2.2-2.3,2.2H409V129.6z
			 M412.9,132.8c0.6,0,0.9-0.4,0.9-0.9c0-0.5-0.4-0.9-0.9-0.9h-2.1v1.8H412.9z M412.9,136.1c0.6,0,1-0.4,1-0.9c0-0.5-0.4-0.9-1-0.9
			h-2.2v1.9H412.9z"/>
		<path d="M422.1,136.2h-3.6l-0.5,1.4h-1.9l3.1-8h2.1l3.1,8h-1.9L422.1,136.2z M419,134.7h2.7l-1.3-3.7L419,134.7z"/>
		<path d="M425.5,135.1c0.6,0.6,1.4,1.1,2.5,1.1c0.9,0,1.4-0.4,1.4-0.9c0-0.6-0.7-0.8-1.6-1c-1.3-0.3-3-0.7-3-2.4
			c0-1.3,1.2-2.4,3-2.4c1.3,0,2.3,0.4,3.1,1.1l-0.9,1.2c-0.6-0.6-1.5-0.9-2.3-0.9c-0.8,0-1.2,0.3-1.2,0.8c0,0.5,0.7,0.7,1.6,0.9
			c1.3,0.3,3,0.7,3,2.5c0,1.5-1,2.6-3.2,2.6c-1.5,0-2.6-0.5-3.4-1.3L425.5,135.1z"/>
		<path d="M432.3,129.6h1.7v8h-1.7V129.6z"/>
		<path d="M435.2,133.6c0-2.5,1.9-4.1,4.2-4.1c1.8,0,2.8,1,3.4,2l-1.5,0.7c-0.3-0.6-1.1-1.2-1.9-1.2c-1.4,0-2.4,1.1-2.4,2.6
			s1.1,2.6,2.4,2.6c0.9,0,1.6-0.5,1.9-1.2l1.5,0.7c-0.6,1-1.6,2-3.4,2C437.1,137.7,435.2,136,435.2,133.6z"/>
		<path d="M452,136.2h-3.6l-0.5,1.4H446l3.1-8h2.1l3.1,8h-1.9L452,136.2z M448.9,134.7h2.7l-1.3-3.7L448.9,134.7z"/>
		<path d="M455.4,135.1c0.6,0.6,1.4,1.1,2.5,1.1c0.9,0,1.4-0.4,1.4-0.9c0-0.6-0.7-0.8-1.6-1c-1.3-0.3-3-0.7-3-2.4
			c0-1.3,1.2-2.4,3-2.4c1.3,0,2.3,0.4,3.1,1.1l-0.9,1.2c-0.6-0.6-1.5-0.9-2.3-0.9c-0.8,0-1.2,0.3-1.2,0.8c0,0.5,0.7,0.7,1.6,0.9
			c1.3,0.3,3,0.7,3,2.5c0,1.5-1,2.6-3.2,2.6c-1.5,0-2.6-0.5-3.4-1.3L455.4,135.1z"/>
		<path d="M462.6,135.1c0.6,0.6,1.4,1.1,2.5,1.1c0.9,0,1.4-0.4,1.4-0.9c0-0.6-0.7-0.8-1.6-1c-1.3-0.3-3-0.7-3-2.4
			c0-1.3,1.2-2.4,3-2.4c1.3,0,2.3,0.4,3.1,1.1l-0.9,1.2c-0.6-0.6-1.5-0.9-2.3-0.9c-0.8,0-1.2,0.3-1.2,0.8c0,0.5,0.7,0.7,1.6,0.9
			c1.3,0.3,3,0.7,3,2.5c0,1.5-1,2.6-3.2,2.6c-1.5,0-2.6-0.5-3.4-1.3L462.6,135.1z"/>
		<path d="M469.4,129.6h5.7v1.5h-4v1.7h3.9v1.5h-3.9v1.9h4v1.5h-5.7V129.6z"/>
		<path d="M478.3,131.1h-2.3v-1.5h6.4v1.5H480v6.5h-1.7V131.1z"/>
		<path d="M373.2,143.8c2.4,0,4.2,1.7,4.2,4.1s-1.8,4.1-4.2,4.1c-2.4,0-4.2-1.7-4.2-4.1S370.8,143.8,373.2,143.8z M373.2,145.3
			c-1.5,0-2.4,1.1-2.4,2.6c0,1.5,0.9,2.6,2.4,2.6c1.5,0,2.4-1.1,2.4-2.6C375.6,146.5,374.7,145.3,373.2,145.3z"/>
		<path d="M378.6,144h5.7v1.5h-4v1.7h3.9v1.5h-3.9v3.3h-1.7V144z"/>
		<path d="M388.9,149.5c0.6,0.6,1.4,1.1,2.5,1.1c0.9,0,1.4-0.4,1.4-0.9c0-0.6-0.7-0.8-1.6-1c-1.3-0.3-3-0.7-3-2.4
			c0-1.3,1.2-2.4,3-2.4c1.3,0,2.3,0.4,3.1,1.1l-0.9,1.2c-0.6-0.6-1.5-0.9-2.3-0.9c-0.8,0-1.2,0.3-1.2,0.8c0,0.5,0.7,0.7,1.6,0.9
			c1.3,0.3,3,0.7,3,2.5c0,1.5-1,2.6-3.2,2.6c-1.5,0-2.6-0.5-3.4-1.3L388.9,149.5z"/>
		<path d="M397.9,148.7l-3.1-4.7h1.9l2,3.2l2-3.2h1.9l-3.1,4.7v3.3h-1.7V148.7z"/>
		<path d="M405.1,146.6v5.4h-1.7v-8h1.8l3.7,5.2V144h1.7v8h-1.6L405.1,146.6z"/>
		<path d="M414,145.5h-2.3V144h6.4v1.5h-2.3v6.5H414V145.5z"/>
		<path d="M424.6,148.6h-3.8v3.4h-1.7v-8h1.7v3.1h3.8V144h1.7v8h-1.7V148.6z"/>
		<path d="M427.9,144h5.7v1.5h-4v1.7h3.9v1.5h-3.9v1.9h4v1.5h-5.7V144z"/>
		<path d="M436.7,145.5h-2.3V144h6.4v1.5h-2.3v6.5h-1.7V145.5z"/>
		<path d="M441.8,144h1.7v8h-1.7V144z"/>
		<path d="M444.8,148c0-2.5,1.9-4.1,4.2-4.1c1.8,0,2.8,1,3.4,2l-1.5,0.7c-0.3-0.6-1.1-1.2-1.9-1.2c-1.4,0-2.4,1.1-2.4,2.6
			s1.1,2.6,2.4,2.6c0.9,0,1.6-0.5,1.9-1.2l1.5,0.7c-0.6,1-1.6,2-3.4,2C446.6,152.1,444.8,150.4,444.8,148z"/>
		<path d="M456.2,150.6l3.8-5.1h-3.8V144h6v1.4l-3.8,5.1h3.9v1.5h-6.1V150.6z"/>
		<path d="M463.6,144h1.7v8h-1.7V144z"/>
		<path d="M469.8,149.1h-1.2v2.9h-1.7v-8h3.7c1.7,0,2.7,1.1,2.7,2.6c0,1.4-0.9,2.2-1.8,2.4l1.8,3h-2L469.8,149.1z M470.3,145.4h-1.8
			v2.2h1.8c0.7,0,1.2-0.4,1.2-1.1C471.5,145.9,471,145.4,470.3,145.4z"/>
		<path d="M474.2,148c0-2.5,1.9-4.1,4.2-4.1c1.8,0,2.8,1,3.4,2l-1.5,0.7c-0.3-0.6-1.1-1.2-1.9-1.2c-1.4,0-2.4,1.1-2.4,2.6
			s1.1,2.6,2.4,2.6c0.9,0,1.6-0.5,1.9-1.2l1.5,0.7c-0.6,1-1.6,2-3.4,2C476,152.1,474.2,150.4,474.2,148z"/>
		<path d="M486.6,143.8c2.4,0,4.2,1.7,4.2,4.1s-1.8,4.1-4.2,4.1c-2.4,0-4.2-1.7-4.2-4.1S484.2,143.8,486.6,143.8z M486.6,145.3
			c-1.5,0-2.4,1.1-2.4,2.6c0,1.5,0.9,2.6,2.4,2.6c1.5,0,2.4-1.1,2.4-2.6C489,146.5,488.1,145.3,486.6,145.3z"/>
		<path d="M493.7,146.6v5.4H492v-8h1.8l3.7,5.2V144h1.7v8h-1.6L493.7,146.6z"/>
		<path d="M500.7,144h1.7v8h-1.7V144z"/>
		<path d="M504,144h1.7v4.7c0,1.1,0.6,1.9,1.9,1.9c1.2,0,1.8-0.8,1.8-1.9V144h1.7v4.8c0,2-1.1,3.3-3.6,3.3c-2.4,0-3.6-1.4-3.6-3.3
			V144z"/>
		<path d="M519.7,146.2l-2.3,5.8h-0.7l-2.3-5.8v5.8h-1.7v-8h2.4l1.9,5l1.9-5h2.4v8h-1.7V146.2z"/>
		<path d="M376.2,158.4h3.2c2.5,0,4.2,1.6,4.2,4s-1.7,4-4.2,4h-3.2V158.4z M379.3,164.9c1.6,0,2.5-1.1,2.5-2.5
			c0-1.4-0.9-2.5-2.5-2.5h-1.5v5H379.3z"/>
		<path d="M384.8,158.4h1.7v8h-1.7V158.4z"/>
		<path d="M391.9,158.2c2.4,0,4.2,1.7,4.2,4.1s-1.8,4.1-4.2,4.1c-2.4,0-4.2-1.7-4.2-4.1S389.5,158.2,391.9,158.2z M391.9,159.7
			c-1.5,0-2.4,1.1-2.4,2.6c0,1.5,0.9,2.6,2.4,2.6c1.5,0,2.4-1.1,2.4-2.6C394.3,160.9,393.3,159.7,391.9,159.7z"/>
		<path d="M400.1,163.4l-2,2.9h-2l2.9-4.1l-2.7-3.9h2l1.8,2.7l1.8-2.7h2.1l-2.7,3.9l2.9,4.1h-2L400.1,163.4z"/>
		<path d="M404.9,158.4h1.7v8h-1.7V158.4z"/>
		<path d="M408.2,158.4h3.2c2.5,0,4.2,1.6,4.2,4s-1.7,4-4.2,4h-3.2V158.4z M411.4,164.9c1.6,0,2.5-1.1,2.5-2.5
			c0-1.4-0.9-2.5-2.5-2.5h-1.5v5H411.4z"/>
		<path d="M416.8,158.4h5.7v1.5h-4v1.7h3.9v1.5h-3.9v1.9h4v1.5h-5.7V158.4z"/>
		<path d="M426.5,162.4c0-2.5,1.9-4.1,4.2-4.1c1.8,0,2.8,1,3.4,2l-1.5,0.7c-0.3-0.6-1.1-1.2-1.9-1.2c-1.4,0-2.4,1.1-2.4,2.6
			s1.1,2.6,2.4,2.6c0.9,0,1.6-0.5,1.9-1.2l1.5,0.7c-0.6,1-1.6,2-3.4,2C428.4,166.5,426.5,164.8,426.5,162.4z"/>
		<path d="M438.9,158.2c2.4,0,4.2,1.7,4.2,4.1s-1.8,4.1-4.2,4.1c-2.4,0-4.2-1.7-4.2-4.1S436.5,158.2,438.9,158.2z M438.9,159.7
			c-1.5,0-2.4,1.1-2.4,2.6c0,1.5,0.9,2.6,2.4,2.6c1.5,0,2.4-1.1,2.4-2.6C441.4,160.9,440.4,159.7,438.9,159.7z"/>
		<path d="M446,161v5.4h-1.7v-8h1.8l3.7,5.2v-5.2h1.7v8h-1.6L446,161z"/>
		<path d="M452.7,162.4c0-2.5,1.9-4.1,4.2-4.1c1.8,0,2.8,1,3.4,2l-1.5,0.7c-0.3-0.6-1.1-1.2-1.9-1.2c-1.4,0-2.4,1.1-2.4,2.6
			s1.1,2.6,2.4,2.6c0.9,0,1.6-0.5,1.9-1.2l1.5,0.7c-0.6,1-1.6,2-3.4,2C454.5,166.5,452.7,164.8,452.7,162.4z"/>
		<path d="M461.3,158.4h5.7v1.5h-4v1.7h3.9v1.5H463v1.9h4v1.5h-5.7V158.4z"/>
		<path d="M470,161v5.4h-1.7v-8h1.8l3.7,5.2v-5.2h1.7v8h-1.6L470,161z"/>
		<path d="M478.9,159.9h-2.3v-1.5h6.4v1.5h-2.3v6.5h-1.7V159.9z"/>
		<path d="M487,163.5h-1.2v2.9H484v-8h3.7c1.7,0,2.7,1.1,2.7,2.6c0,1.4-0.9,2.2-1.8,2.4l1.8,3h-2L487,163.5z M487.5,159.8h-1.8v2.2
			h1.8c0.7,0,1.2-0.4,1.2-1.1C488.7,160.3,488.2,159.8,487.5,159.8z"/>
		<path d="M496.8,165h-3.6l-0.5,1.4h-1.9l3.1-8h2.1l3.1,8h-1.9L496.8,165z M493.7,163.5h2.7l-1.3-3.7L493.7,163.5z"/>
		<path d="M501,159.9h-2.3v-1.5h6.4v1.5h-2.3v6.5H501V159.9z"/>
		<path d="M506.2,158.4h5.7v1.5h-4v1.7h3.9v1.5h-3.9v1.9h4v1.5h-5.7V158.4z"/>
		<path d="M513.1,167.5c0.4-0.2,0.8-0.7,0.9-1.1c0,0-0.1,0-0.2,0c-0.5,0-0.8-0.4-0.8-0.9c0-0.5,0.4-1,0.9-1c0.6,0,1.1,0.4,1.1,1.2
			c0,0.9-0.5,1.7-1.2,2.2L513.1,167.5z"/>
		<path d="M414.1,179.4l3.8-5.1h-3.8v-1.5h6v1.4l-3.8,5.1h3.9v1.5h-6.1V179.4z"/>
		<path d="M421.4,175h1.5v0.8c0.4-0.5,1.1-0.9,1.8-0.9v1.5c-0.1,0-0.3,0-0.4,0c-0.5,0-1.2,0.3-1.4,0.7v3.8h-1.5V175z"/>
		<path d="M429.6,172.6c2.4,0,4.2,1.7,4.2,4.1s-1.8,4.1-4.2,4.1c-2.4,0-4.2-1.7-4.2-4.1S427.1,172.6,429.6,172.6z M429.6,174.1
			c-1.5,0-2.4,1.1-2.4,2.6c0,1.5,0.9,2.6,2.4,2.6c1.5,0,2.4-1.1,2.4-2.6C432,175.3,431,174.1,429.6,174.1z"/>
		<path d="M434.5,179c1.9-1.4,2.5-1.9,2.5-2.5c0-0.4-0.4-0.6-0.8-0.6c-0.5,0-0.9,0.2-1.2,0.5l-0.6-0.7c0.5-0.5,1.1-0.8,1.8-0.8
			c1,0,1.8,0.6,1.8,1.5c0,0.8-0.7,1.5-1.9,2.4h1.9v0.9h-3.5V179z"/>
		<path d="M441.8,178.6l4.3-1.8l-4.3-1.8v-1.1l5.3,2.4v1.1l-5.3,2.4V178.6z"/>
		<path d="M454.7,172.6c1,0,1.8,0.3,2.4,0.8l-0.8,1.3c-0.4-0.4-0.9-0.6-1.6-0.6c-1.2,0-2,1-2,2.3c0,0.1,0,0.1,0,0.2
			c0.4-0.5,1.2-1,2.1-1c1.4,0,2.7,0.9,2.7,2.6c0,1.6-1.2,2.7-3.1,2.7c-2.4,0-3.5-1.9-3.5-4.1C451,174.4,452.3,172.6,454.7,172.6z
			 M454.2,177c-0.6,0-1.2,0.3-1.6,0.8c0.1,0.8,0.5,1.7,1.6,1.7c0.9,0,1.4-0.6,1.4-1.2C455.7,177.4,455,177,454.2,177z"/>
		<path d="M462,172.6c1,0,1.8,0.3,2.4,0.8l-0.8,1.3c-0.4-0.4-0.9-0.6-1.6-0.6c-1.2,0-2,1-2,2.3c0,0.1,0,0.1,0,0.2
			c0.4-0.5,1.2-1,2.1-1c1.4,0,2.7,0.9,2.7,2.6c0,1.6-1.2,2.7-3.1,2.7c-2.4,0-3.5-1.9-3.5-4.1C458.2,174.4,459.6,172.6,462,172.6z
			 M461.5,177c-0.6,0-1.2,0.3-1.6,0.8c0.1,0.8,0.5,1.7,1.6,1.7c0.9,0,1.4-0.6,1.4-1.2C463,177.4,462.3,177,461.5,177z"/>
		<path d="M470.5,172.6c1.2,0,2,0.9,2,2c0,1.1-0.8,2-2,2c-1.2,0-2-0.9-2-2C468.5,173.5,469.3,172.6,470.5,172.6z M470.5,173.6
			c-0.5,0-0.9,0.4-0.9,1.1c0,0.6,0.4,1,0.9,1c0.6,0,0.9-0.4,0.9-1C471.5,174,471.1,173.6,470.5,173.6z M474.9,172.8h0.9l-5.1,8h-0.9
			L474.9,172.8z M474.9,176.9c1.2,0,2,0.9,2,2c0,1.1-0.8,2-2,2c-1.2,0-2-0.9-2-2C472.9,177.8,473.7,176.9,474.9,176.9z M474.9,177.9
			c-0.6,0-0.9,0.4-0.9,1.1c0,0.6,0.4,1,0.9,1s1-0.4,1-1C475.9,178.3,475.5,177.9,474.9,177.9z"/>
	</g>
	<g>
		<path d="M90.7,457.1c0.6,0.6,1.4,1.1,2.5,1.1c0.9,0,1.4-0.4,1.4-0.9c0-0.6-0.7-0.8-1.6-1c-1.3-0.3-3-0.7-3-2.4
			c0-1.3,1.2-2.4,3-2.4c1.3,0,2.3,0.4,3.1,1.1l-0.9,1.2c-0.6-0.6-1.5-0.9-2.3-0.9c-0.8,0-1.2,0.3-1.2,0.8c0,0.5,0.7,0.7,1.6,0.9
			c1.3,0.3,3,0.7,3,2.5c0,1.5-1,2.6-3.2,2.6c-1.5,0-2.6-0.5-3.4-1.3L90.7,457.1z"/>
		<path d="M99.3,453H97v-1.5h6.4v1.5H101v6.5h-1.7V453z"/>
		<path d="M108.8,458.2h-3.6l-0.5,1.4h-1.9l3.1-8h2.1l3.1,8h-1.9L108.8,458.2z M105.7,456.7h2.7L107,453L105.7,456.7z"/>
		<path d="M111.9,451.5h4.2c1.5,0,2.3,1,2.3,2c0,1-0.6,1.7-1.4,1.8c0.9,0.1,1.5,1,1.5,2c0,1.2-0.8,2.2-2.3,2.2h-4.3V451.5z
			 M115.7,454.8c0.6,0,0.9-0.4,0.9-0.9c0-0.5-0.4-0.9-0.9-0.9h-2.1v1.8H115.7z M115.8,458.1c0.6,0,1-0.4,1-0.9c0-0.5-0.4-0.9-1-0.9
			h-2.2v1.9H115.8z"/>
		<path d="M119.8,451.5h1.7v6.5h3.4v1.5h-5.1V451.5z"/>
		<path d="M126.1,451.5h5.7v1.5h-4v1.7h3.9v1.5h-3.9v1.9h4v1.5h-5.7V451.5z"/>
		<path d="M136.2,451.5h3.2c2.5,0,4.2,1.6,4.2,4c0,2.4-1.7,4-4.2,4h-3.2V451.5z M139.3,458c1.6,0,2.5-1.1,2.5-2.5
			c0-1.4-0.9-2.5-2.5-2.5h-1.5v5H139.3z"/>
		<path d="M144.8,451.5h5.7v1.5h-4v1.7h3.9v1.5h-3.9v1.9h4v1.5h-5.7V451.5z"/>
		<path d="M158.8,453.8l-2.3,5.8h-0.7l-2.3-5.8v5.8h-1.7v-8h2.4l1.9,5l1.9-5h2.4v8h-1.7V453.8z"/>
		<path d="M167.2,458.2h-3.6l-0.5,1.4h-1.9l3.1-8h2.1l3.1,8h-1.9L167.2,458.2z M164,456.7h2.7l-1.3-3.7L164,456.7z"/>
		<path d="M172,454.2v5.4h-1.7v-8h1.8l3.7,5.2v-5.2h1.7v8h-1.6L172,454.2z"/>
		<path d="M179,451.5h3.2c2.5,0,4.2,1.6,4.2,4c0,2.4-1.7,4-4.2,4H179V451.5z M182.2,458c1.6,0,2.5-1.1,2.5-2.5
			c0-1.4-0.9-2.5-2.5-2.5h-1.5v5H182.2z"/>
		<path d="M70.8,465.8c2.4,0,4.2,1.7,4.2,4.1c0,2.4-1.8,4.1-4.2,4.1c-2.4,0-4.2-1.7-4.2-4.1C66.7,467.5,68.4,465.8,70.8,465.8z
			 M70.8,467.3c-1.5,0-2.4,1.1-2.4,2.6c0,1.5,0.9,2.6,2.4,2.6s2.4-1.1,2.4-2.6C73.3,468.5,72.3,467.3,70.8,467.3z"/>
		<path d="M77.9,468.6v5.4h-1.7v-8H78l3.7,5.2v-5.2h1.7v8h-1.6L77.9,468.6z"/>
		<path d="M89.9,467.4h-2.3v-1.5h6.4v1.5h-2.3v6.5h-1.7V467.4z"/>
		<path d="M100.5,470.6h-3.8v3.4H95v-8h1.7v3.1h3.8v-3.1h1.7v8h-1.7V470.6z"/>
		<path d="M103.8,465.9h5.7v1.5h-4v1.7h3.9v1.5h-3.9v1.9h4v1.5h-5.7V465.9z"/>
		<path d="M117.7,465.8c1.7,0,2.7,0.8,3.3,1.8l-1.4,0.8c-0.4-0.6-1.1-1-1.9-1c-1.5,0-2.5,1.1-2.5,2.6c0,1.5,1.1,2.6,2.5,2.6
			c0.7,0,1.4-0.3,1.7-0.6v-1h-2.1v-1.5h3.8v3.1c-0.8,0.9-2,1.5-3.4,1.5c-2.3,0-4.3-1.6-4.3-4.1C113.5,467.4,115.4,465.8,117.7,465.8
			z"/>
		<path d="M122.5,465.9h1.7v6.5h3.4v1.5h-5.1V465.9z"/>
		<path d="M132.2,465.8c2.4,0,4.2,1.7,4.2,4.1c0,2.4-1.8,4.1-4.2,4.1c-2.4,0-4.2-1.7-4.2-4.1C128.1,467.5,129.8,465.8,132.2,465.8z
			 M132.2,467.3c-1.5,0-2.4,1.1-2.4,2.6c0,1.5,0.9,2.6,2.4,2.6s2.4-1.1,2.4-2.6C134.7,468.5,133.7,467.3,132.2,467.3z"/>
		<path d="M137.6,465.9h4.2c1.5,0,2.3,1,2.3,2c0,1-0.6,1.7-1.4,1.8c0.9,0.1,1.5,1,1.5,2c0,1.2-0.8,2.2-2.3,2.2h-4.3V465.9z
			 M141.5,469.2c0.6,0,0.9-0.4,0.9-0.9c0-0.5-0.4-0.9-0.9-0.9h-2.1v1.8H141.5z M141.5,472.5c0.6,0,1-0.4,1-0.9c0-0.5-0.4-0.9-1-0.9
			h-2.2v1.9H141.5z"/>
		<path d="M150.7,472.6h-3.6l-0.5,1.4h-1.9l3.1-8h2.1l3.1,8h-1.9L150.7,472.6z M147.6,471.1h2.7l-1.3-3.7L147.6,471.1z"/>
		<path d="M153.8,465.9h1.7v6.5h3.4v1.5h-5.1V465.9z"/>
		<path d="M170.1,468.2l-2.3,5.8h-0.7l-2.3-5.8v5.8h-1.7v-8h2.4l1.9,5l1.9-5h2.4v8h-1.7V468.2z"/>
		<path d="M178.5,472.6h-3.6l-0.5,1.4h-1.9l3.1-8h2.1l3.1,8H179L178.5,472.6z M175.4,471.1h2.7l-1.3-3.7L175.4,471.1z"/>
		<path d="M184.6,471.1h-1.2v2.9h-1.7v-8h3.7c1.7,0,2.7,1.1,2.7,2.6c0,1.4-0.9,2.2-1.8,2.4l1.8,3h-2L184.6,471.1z M185.1,467.4h-1.8
			v2.2h1.8c0.7,0,1.2-0.4,1.2-1.1S185.8,467.4,185.1,467.4z"/>
		<path d="M191.7,470.7l-0.6,0.7v2.5h-1.7v-8h1.7v3.6l2.8-3.6h2.1l-3.2,3.8l3.4,4.2h-2.1L191.7,470.7z"/>
		<path d="M197,465.9h5.7v1.5h-4v1.7h3.9v1.5h-3.9v1.9h4v1.5H197V465.9z"/>
		<path d="M205.8,467.4h-2.3v-1.5h6.4v1.5h-2.3v6.5h-1.7V467.4z"/>
		<path d="M61.3,480.2c2.4,0,4.2,1.7,4.2,4.1c0,2.4-1.8,4.1-4.2,4.1c-2.4,0-4.2-1.7-4.2-4.1C57.1,481.9,58.9,480.2,61.3,480.2z
			 M61.3,481.7c-1.5,0-2.4,1.1-2.4,2.6c0,1.5,0.9,2.6,2.4,2.6s2.4-1.1,2.4-2.6C63.7,482.9,62.8,481.7,61.3,481.7z"/>
		<path d="M66.7,480.3h5.7v1.5h-4v1.7h3.9v1.5h-3.9v3.3h-1.7V480.3z"/>
		<path d="M79.6,485.5h-1.2v2.9h-1.7v-8h3.7c1.7,0,2.7,1.1,2.7,2.6c0,1.4-0.9,2.2-1.8,2.4l1.8,3h-2L79.6,485.5z M80.1,481.8h-1.8
			v2.2h1.8c0.7,0,1.2-0.4,1.2-1.1C81.3,482.2,80.8,481.8,80.1,481.8z"/>
		<path d="M84.3,480.3H90v1.5h-4v1.7h3.9v1.5H86v1.9h4v1.5h-5.7V480.3z"/>
		<path d="M91.3,480.3H97v1.5h-4v1.7h3.9v1.5H93v3.3h-1.7V480.3z"/>
		<path d="M101.1,485.5h-1.2v2.9h-1.7v-8h3.7c1.7,0,2.7,1.1,2.7,2.6c0,1.4-0.9,2.2-1.8,2.4l1.8,3h-2L101.1,485.5z M101.7,481.8h-1.8
			v2.2h1.8c0.7,0,1.2-0.4,1.2-1.1C102.9,482.2,102.3,481.8,101.7,481.8z"/>
		<path d="M111,487h-3.6l-0.5,1.4H105l3.1-8h2.1l3.1,8h-1.9L111,487z M107.9,485.5h2.7l-1.3-3.7L107.9,485.5z"/>
		<path d="M113.3,484.4c0-2.5,1.9-4.1,4.2-4.1c1.8,0,2.8,1,3.4,2l-1.5,0.7c-0.3-0.6-1.1-1.2-1.9-1.2c-1.4,0-2.4,1.1-2.4,2.6
			c0,1.5,1.1,2.6,2.4,2.6c0.9,0,1.6-0.5,1.9-1.2l1.5,0.7c-0.6,1-1.6,2-3.4,2C115.2,488.5,113.3,486.8,113.3,484.4z"/>
		<path d="M123.8,481.8h-2.3v-1.5h6.4v1.5h-2.3v6.5h-1.7V481.8z"/>
		<path d="M132.4,480.2c2.4,0,4.2,1.7,4.2,4.1c0,2.4-1.8,4.1-4.2,4.1c-2.4,0-4.2-1.7-4.2-4.1C128.2,481.9,130,480.2,132.4,480.2z
			 M132.4,481.7c-1.5,0-2.4,1.1-2.4,2.6c0,1.5,0.9,2.6,2.4,2.6s2.4-1.1,2.4-2.6C134.8,482.9,133.9,481.7,132.4,481.7z"/>
		<path d="M140.8,485.5h-1.2v2.9h-1.7v-8h3.7c1.7,0,2.7,1.1,2.7,2.6c0,1.4-0.9,2.2-1.8,2.4l1.8,3h-2L140.8,485.5z M141.3,481.8h-1.8
			v2.2h1.8c0.7,0,1.2-0.4,1.2-1.1C142.5,482.2,142,481.8,141.3,481.8z"/>
		<path d="M147.5,485.1l-3.1-4.7h1.9l2,3.2l2-3.2h1.9l-3.1,4.7v3.3h-1.7V485.1z"/>
		<path d="M163.1,482.6l-2.3,5.8h-0.7l-2.3-5.8v5.8h-1.7v-8h2.4l1.9,5l1.9-5h2.4v8h-1.7V482.6z"/>
		<path d="M171.5,487h-3.6l-0.5,1.4h-1.9l3.1-8h2.1l3.1,8H172L171.5,487z M168.4,485.5h2.7l-1.3-3.7L168.4,485.5z"/>
		<path d="M175.7,481.8h-2.3v-1.5h6.4v1.5h-2.3v6.5h-1.7V481.8z"/>
		<path d="M180.8,480.3h5.7v1.5h-4v1.7h3.9v1.5h-3.9v1.9h4v1.5h-5.7V480.3z"/>
		<path d="M190.7,485.5h-1.2v2.9h-1.7v-8h3.7c1.7,0,2.7,1.1,2.7,2.6c0,1.4-0.9,2.2-1.8,2.4l1.8,3h-2L190.7,485.5z M191.3,481.8h-1.8
			v2.2h1.8c0.7,0,1.2-0.4,1.2-1.1C192.5,482.2,192,481.8,191.3,481.8z"/>
		<path d="M195.5,480.3h1.7v8h-1.7V480.3z"/>
		<path d="M203.9,487h-3.6l-0.5,1.4h-1.9l3.1-8h2.1l3.1,8h-1.9L203.9,487z M200.8,485.5h2.7l-1.3-3.7L200.8,485.5z"/>
		<path d="M207,480.3h1.7v6.5h3.4v1.5H207V480.3z"/>
		<path d="M213.7,485.9c0.6,0.6,1.4,1.1,2.5,1.1c0.9,0,1.4-0.4,1.4-0.9c0-0.6-0.7-0.8-1.6-1c-1.3-0.3-3-0.7-3-2.4
			c0-1.3,1.2-2.4,3-2.4c1.3,0,2.3,0.4,3.1,1.1l-0.9,1.2c-0.6-0.6-1.5-0.9-2.3-0.9c-0.8,0-1.2,0.3-1.2,0.8c0,0.5,0.7,0.7,1.6,0.9
			c1.3,0.3,3,0.7,3,2.5c0,1.5-1,2.6-3.2,2.6c-1.5,0-2.6-0.5-3.4-1.3L213.7,485.9z"/>
	</g>
	<g>
		<path d="M409.5,456.6h-3.8v3.4H404v-8h1.7v3.1h3.8V452h1.7v8h-1.7V456.6z"/>
		<path d="M415,456.7l-3.1-4.7h1.9l2,3.2l2-3.2h1.9l-3.1,4.7v3.3H415V456.7z"/>
		<path d="M420.5,452h3.7c1.7,0,2.7,1.2,2.7,2.6c0,1.4-1,2.6-2.7,2.6h-2v2.9h-1.7V452z M424,453.5h-1.8v2.2h1.8
			c0.7,0,1.2-0.4,1.2-1.1C425.2,453.9,424.7,453.5,424,453.5z"/>
		<path d="M428,452h5.7v1.5h-4v1.7h3.9v1.5h-3.9v1.9h4v1.5H428V452z"/>
		<path d="M438,457.1h-1.2v2.9H435v-8h3.7c1.7,0,2.7,1.1,2.7,2.6c0,1.4-0.9,2.2-1.8,2.4l1.8,3h-2L438,457.1z M438.5,453.5h-1.8v2.2
			h1.8c0.7,0,1.2-0.4,1.2-1.1S439.2,453.5,438.5,453.5z"/>
		<path d="M442.3,455.3h2.9v1.3h-2.9V455.3z"/>
		<path d="M446.3,452h3.2c2.5,0,4.2,1.6,4.2,4c0,2.4-1.7,4-4.2,4h-3.2V452z M449.5,458.5c1.6,0,2.5-1.1,2.5-2.5
			c0-1.4-0.9-2.5-2.5-2.5H448v5H449.5z"/>
		<path d="M454.9,452h5.7v1.5h-4v1.7h3.9v1.5h-3.9v1.9h4v1.5h-5.7V452z"/>
		<path d="M461.9,452h5.7v1.5h-4v1.7h3.9v1.5h-3.9v3.3h-1.7V452z"/>
		<path d="M468.8,452h1.7v8h-1.7V452z"/>
		<path d="M471.7,456c0-2.5,1.9-4.1,4.2-4.1c1.8,0,2.8,1,3.4,2l-1.5,0.7c-0.3-0.6-1.1-1.2-1.9-1.2c-1.4,0-2.4,1.1-2.4,2.6
			c0,1.5,1.1,2.6,2.4,2.6c0.9,0,1.6-0.5,1.9-1.2l1.5,0.7c-0.6,1-1.6,2-3.4,2C473.6,460.1,471.7,458.5,471.7,456z"/>
		<path d="M480.3,452h1.7v8h-1.7V452z"/>
		<path d="M485.5,453.5h-2.3V452h6.4v1.5h-2.3v6.5h-1.7V453.5z"/>
		<path d="M410.1,466.4h4.2c1.5,0,2.3,1,2.3,2c0,1-0.6,1.7-1.4,1.8c0.9,0.1,1.5,1,1.5,2c0,1.2-0.8,2.2-2.3,2.2h-4.3V466.4z
			 M414,469.6c0.6,0,0.9-0.4,0.9-0.9c0-0.5-0.4-0.9-0.9-0.9h-2.1v1.8H414z M414,472.9c0.6,0,1-0.4,1-0.9c0-0.5-0.4-0.9-1-0.9h-2.2
			v1.9H414z"/>
		<path d="M423.2,473h-3.6l-0.5,1.4h-1.9l3.1-8h2.1l3.1,8h-1.9L423.2,473z M420,471.5h2.7l-1.3-3.7L420,471.5z"/>
		<path d="M426.6,472c0.6,0.6,1.4,1.1,2.5,1.1c0.9,0,1.4-0.4,1.4-0.9c0-0.6-0.7-0.8-1.6-1c-1.3-0.3-3-0.7-3-2.4c0-1.3,1.2-2.4,3-2.4
			c1.3,0,2.3,0.4,3.1,1.1l-0.9,1.2c-0.6-0.6-1.5-0.9-2.3-0.9c-0.8,0-1.2,0.3-1.2,0.8c0,0.5,0.7,0.7,1.6,0.9c1.3,0.3,3,0.7,3,2.5
			c0,1.5-1,2.6-3.2,2.6c-1.5,0-2.6-0.5-3.4-1.3L426.6,472z"/>
		<path d="M433.4,466.4h1.7v8h-1.7V466.4z"/>
		<path d="M436.3,470.4c0-2.5,1.9-4.1,4.2-4.1c1.8,0,2.8,1,3.4,2l-1.5,0.7c-0.3-0.6-1.1-1.2-1.9-1.2c-1.4,0-2.4,1.1-2.4,2.6
			c0,1.5,1.1,2.6,2.4,2.6c0.9,0,1.6-0.5,1.9-1.2l1.5,0.7c-0.6,1-1.6,2-3.4,2C438.2,474.5,436.3,472.9,436.3,470.4z"/>
		<path d="M453.1,473h-3.6l-0.5,1.4h-1.9l3.1-8h2.1l3.1,8h-1.9L453.1,473z M450,471.5h2.7l-1.3-3.7L450,471.5z"/>
		<path d="M456.5,472c0.6,0.6,1.4,1.1,2.5,1.1c0.9,0,1.4-0.4,1.4-0.9c0-0.6-0.7-0.8-1.6-1c-1.3-0.3-3-0.7-3-2.4c0-1.3,1.2-2.4,3-2.4
			c1.3,0,2.3,0.4,3.1,1.1l-0.9,1.2c-0.6-0.6-1.5-0.9-2.3-0.9c-0.8,0-1.2,0.3-1.2,0.8c0,0.5,0.7,0.7,1.6,0.9c1.3,0.3,3,0.7,3,2.5
			c0,1.5-1,2.6-3.2,2.6c-1.5,0-2.6-0.5-3.4-1.3L456.5,472z"/>
		<path d="M463.7,472c0.6,0.6,1.4,1.1,2.5,1.1c0.9,0,1.4-0.4,1.4-0.9c0-0.6-0.7-0.8-1.6-1c-1.3-0.3-3-0.7-3-2.4c0-1.3,1.2-2.4,3-2.4
			c1.3,0,2.3,0.4,3.1,1.1l-0.9,1.2c-0.6-0.6-1.5-0.9-2.3-0.9c-0.8,0-1.2,0.3-1.2,0.8c0,0.5,0.7,0.7,1.6,0.9c1.3,0.3,3,0.7,3,2.5
			c0,1.5-1,2.6-3.2,2.6c-1.5,0-2.6-0.5-3.4-1.3L463.7,472z"/>
		<path d="M470.5,466.4h5.7v1.5h-4v1.7h3.9v1.5h-3.9v1.9h4v1.5h-5.7V466.4z"/>
		<path d="M479.4,467.9H477v-1.5h6.4v1.5h-2.3v6.5h-1.7V467.9z"/>
	</g>
	<g>
		<path d="M260.1,61.6h1.7v8h-1.7V61.6z"/>
		<path d="M265.1,64.2v5.4h-1.7v-8h1.8l3.7,5.2v-5.2h1.7v8h-1.6L265.1,64.2z"/>
		<path d="M273.9,64.2v5.4h-1.7v-8h1.8l3.7,5.2v-5.2h1.7v8h-1.6L273.9,64.2z"/>
		<path d="M284.7,61.5c2.4,0,4.2,1.7,4.2,4.1s-1.8,4.1-4.2,4.1c-2.4,0-4.2-1.7-4.2-4.1S282.3,61.5,284.7,61.5z M284.7,63
			c-1.5,0-2.4,1.1-2.4,2.6c0,1.5,0.9,2.6,2.4,2.6s2.4-1.1,2.4-2.6C287.1,64.1,286.2,63,284.7,63z"/>
		<path d="M289,61.6h1.9l2.2,6.2l2.2-6.2h1.9l-3.1,8h-2.1L289,61.6z"/>
		<path d="M302.6,68.2H299l-0.5,1.4h-1.9l3.1-8h2.1l3.1,8h-1.9L302.6,68.2z M299.5,66.7h2.7l-1.3-3.7L299.5,66.7z"/>
		<path d="M306.8,63.1h-2.3v-1.5h6.4v1.5h-2.3v6.5h-1.7V63.1z"/>
		<path d="M311.9,61.6h1.7v8h-1.7V61.6z"/>
		<path d="M314.4,61.6h1.9l2.2,6.2l2.2-6.2h1.9l-3.1,8h-2.1L314.4,61.6z"/>
		<path d="M323.4,61.6h5.7v1.5h-4v1.7h3.9v1.5h-3.9v1.9h4v1.5h-5.7V61.6z"/>
		<path d="M221.9,77.5h-2.3V76h6.4v1.5h-2.3V84h-1.7V77.5z"/>
		<path d="M231.8,78.5l-1.4,5.5h-1.8l-2.3-8h1.9l1.4,5.8l1.5-5.8h1.3l1.5,5.8l1.4-5.8h1.9l-2.3,8h-1.8L231.8,78.5z"/>
		<path d="M241.6,75.9c2.4,0,4.2,1.7,4.2,4.1s-1.8,4.1-4.2,4.1c-2.4,0-4.2-1.7-4.2-4.1S239.2,75.9,241.6,75.9z M241.6,77.4
			c-1.5,0-2.4,1.1-2.4,2.6c0,1.5,0.9,2.6,2.4,2.6s2.4-1.1,2.4-2.6C244.1,78.5,243.1,77.4,241.6,77.4z"/>
		<path d="M246.6,79.3h2.9v1.3h-2.9V79.3z"/>
		<path d="M250.6,76h3.7c1.7,0,2.7,1.2,2.7,2.6c0,1.4-1,2.6-2.7,2.6h-2V84h-1.7V76z M254.1,77.5h-1.8v2.2h1.8c0.7,0,1.2-0.4,1.2-1.1
			C255.3,77.9,254.8,77.5,254.1,77.5z"/>
		<path d="M263.6,80.6h-3.8V84h-1.7v-8h1.7v3.1h3.8V76h1.7v8h-1.7V80.6z"/>
		<path d="M272,82.6h-3.6l-0.5,1.4H266l3.1-8h2.1l3.1,8h-1.9L272,82.6z M268.9,81.1h2.7l-1.3-3.7L268.9,81.1z"/>
		<path d="M275.4,81.6c0.6,0.6,1.4,1.1,2.5,1.1c0.9,0,1.4-0.4,1.4-0.9c0-0.6-0.7-0.8-1.6-1c-1.3-0.3-3-0.7-3-2.4
			c0-1.3,1.2-2.4,3-2.4c1.3,0,2.3,0.4,3.1,1.1l-0.9,1.2c-0.6-0.6-1.5-0.9-2.3-0.9c-0.8,0-1.2,0.3-1.2,0.8c0,0.5,0.7,0.7,1.6,0.9
			c1.3,0.3,3,0.7,3,2.5c0,1.5-1,2.6-3.2,2.6c-1.5,0-2.6-0.5-3.4-1.3L275.4,81.6z"/>
		<path d="M282.2,76h5.7v1.5h-4v1.7h3.9v1.5h-3.9v1.9h4V84h-5.7V76z"/>
		<path d="M292.3,76h3.7c1.7,0,2.7,1.2,2.7,2.6c0,1.4-1,2.6-2.7,2.6h-2V84h-1.7V76z M295.8,77.5H294v2.2h1.8c0.7,0,1.2-0.4,1.2-1.1
			C297,77.9,296.5,77.5,295.8,77.5z"/>
		<path d="M302.7,81.1h-1.2V84h-1.7v-8h3.7c1.7,0,2.7,1.1,2.7,2.6c0,1.4-0.9,2.2-1.8,2.4l1.8,3h-2L302.7,81.1z M303.3,77.5h-1.8v2.2
			h1.8c0.7,0,1.2-0.4,1.2-1.1C304.5,77.9,303.9,77.5,303.3,77.5z"/>
		<path d="M311.3,75.9c2.4,0,4.2,1.7,4.2,4.1s-1.8,4.1-4.2,4.1c-2.4,0-4.2-1.7-4.2-4.1S308.9,75.9,311.3,75.9z M311.3,77.4
			c-1.5,0-2.4,1.1-2.4,2.6c0,1.5,0.9,2.6,2.4,2.6c1.5,0,2.4-1.1,2.4-2.6C313.7,78.5,312.8,77.4,311.3,77.4z"/>
		<path d="M316.7,76h3.2c2.5,0,4.2,1.6,4.2,4s-1.7,4-4.2,4h-3.2V76z M319.8,82.5c1.6,0,2.5-1.1,2.5-2.5c0-1.4-0.9-2.5-2.5-2.5h-1.5
			v5H319.8z"/>
		<path d="M325.3,76h1.7v4.7c0,1.1,0.6,1.9,1.9,1.9c1.2,0,1.8-0.8,1.8-1.9V76h1.7v4.8c0,2-1.1,3.3-3.6,3.3c-2.4,0-3.6-1.4-3.6-3.3
			V76z"/>
		<path d="M333.6,80c0-2.5,1.9-4.1,4.2-4.1c1.8,0,2.8,1,3.4,2l-1.5,0.7c-0.3-0.6-1.1-1.2-1.9-1.2c-1.4,0-2.4,1.1-2.4,2.6
			s1.1,2.6,2.4,2.6c0.9,0,1.6-0.5,1.9-1.2l1.5,0.7c-0.6,1-1.6,2-3.4,2C335.5,84.1,333.6,82.5,333.6,80z"/>
		<path d="M344.1,77.5h-2.3V76h6.4v1.5h-2.3V84h-1.7V77.5z"/>
		<path d="M349.2,76h1.7v8h-1.7V76z"/>
		<path d="M356.3,75.9c2.4,0,4.2,1.7,4.2,4.1s-1.8,4.1-4.2,4.1c-2.4,0-4.2-1.7-4.2-4.1S353.9,75.9,356.3,75.9z M356.3,77.4
			c-1.5,0-2.4,1.1-2.4,2.6c0,1.5,0.9,2.6,2.4,2.6c1.5,0,2.4-1.1,2.4-2.6C358.8,78.5,357.8,77.4,356.3,77.4z"/>
		<path d="M363.4,78.6V84h-1.7v-8h1.8l3.7,5.2V76h1.7v8h-1.6L363.4,78.6z"/>
	</g>
</g>
<g id="Layer_3">
</g>
<g id="Layer_4">
</g>
</svg>
