<?xml version="1.0" encoding="utf-8"?>
<!-- Generator: Adobe Illustrator 19.2.1, SVG Export Plug-In . SVG Version: 6.00 Build 0)  -->
<svg version="1.1" id="Objects" xmlns="http://www.w3.org/2000/svg" xmlns:xlink="http://www.w3.org/1999/xlink" x="0px" y="0px"
	 viewBox="0 0 744.8 384.3" style="enable-background:new 0 0 744.8 384.3;" xml:space="preserve">
<style type="text/css">
	.st0{fill:#FFFFFF;stroke:#d7d7d7;stroke-miterlimit:10;}
</style>
<g>
	<g>
		<path class="st0" d="M450.2,266.1c-0.3,0.7-0.1,2-0.4,2.4c-1.2,1.3-3.4,4.4-5.1,5.5c-2.1,1.4-4.8,1.1-4.8,5.1
			c0,1.3,1.1,3.3,1.1,4.2c0,0.2-1.5,3.7-1.5,3.7c-0.2,0-1.5,1.3-1.5,1.6c0,1.2,0,2.5,0.9,3.3c0.1,0.6-0.1,1-0.1,2
			c0,2.1,1.6,4.5,3.4,4.5c4.5,0,5.1-5.4,6.4-9.1c1.6-4.6,3.3-8.7,3.3-14.7c0.1,0,0.9,0.2,1.2,0.4v-1.2
			C452.5,271.7,452.7,266.4,450.2,266.1z"/>
		<path class="st0" d="M514.2,221c0,1.1,0.8,2.3,1.8,2.3c1.4,0,2.3-1.9,2.3-3.3c0-2.6-2.1-3.6-3.1-5.5
			C515.2,216.9,514.2,218.7,514.2,221z"/>
		<path class="st0" d="M568.4,249.4c0-0.8-0.4-2,0.4-2.3v-3.5c0-0.8-1-1.1-1.5-1.5c-0.8-0.9-1.7-1.4-1.7-3.1c-0.8,0-1.4-0.2-1.4-1.3
			l0.3-0.8c-0.1-0.3-0.4-0.7-0.7-0.7h-0.6c0-0.1,0.1-0.3,0.1-0.4c0-1.2-1.2-1.6-2.3-2c-2-0.7-2.8-1.8-4.2-3.3
			c-0.7-0.8-1.2-1.8-2.3-2.2c-0.3-0.1-0.7,0-0.8-0.4c-0.6-1.3-1.1-2.5-2.7-3.1h-2.4c-0.6-0.3-0.7-0.7-1.5-0.7h-0.4v0.7
			c0.2,0.8,1.4,3.1,2,3.3c0.7,0.2,1.4,0,1.7,0.7c0.4,1,0.7,1.5,1.1,2.4c0.5,1.1,2.2,0.8,2.7,2.7c0.1,0.7,0.7,2.6,1,2.9
			c0.2,0.2,1.1,0.2,1.2,0.4c0.1,0.2,0,0.7,0.2,0.7c0.2,0,1.1,1.6,1.2,2c0.8,1.9,1.4,3.3,2.9,5c1.3,1.5,2.6,2.1,4,3.7
			c0.1,0.1,1.4,2.2,1.8,2.2C566.9,250.5,568.4,250.3,568.4,249.4z"/>
		<path class="st0" d="M575.2,235.1c0,0.4,0.7,3.3,1.1,3.4c0.4,0.1,0.8,0.1,0.9,0.5c0,0.1-0.1,0.3-0.1,0.4c1,1.6-0.2,4.5,2.5,4.5
			c0.6,0,0.9-0.5,1.5-0.4c0.1,0.3,0,1.2,0.1,1.2c0.2,0,0.4,0.4,0.6,0.4c0.9,0,1.2-0.9,1.8-0.9c1.2,0,2,1,3.2,1.3
			c0,0.5,0.2,1.1,0.9,1.1c1,0,1.1-1,2.3-1.3c0-0.9,0.9-2.1,0.9-2.8c0-0.4-0.4-0.6-0.4-1.1c0-0.5,0.7-1.7,1.6-1.9
			c0-1.4,0.6-1.9,1-3.7l0.4-0.8c0.2-0.1,0.5-0.2,0.7-0.2c0.8,0,1.4,0.4,1.6-0.8c-1.3,0-3.3-4.1-3.3-5.3c0-0.2,0.3-0.5,0.5-0.6
			c-0.1-0.3-0.2-0.5-0.3-0.7c0,0,2-0.9,2.1-1.1c-0.1,0-0.3-0.2-0.3-0.4c0-0.7,1.6-0.2,1.6-1c0-1.6-3.1-0.7-3.1-2.4
			c0-1.2,0.1-2-1.1-2c-1.2,0-2.8,3.1-3.4,4.4c-0.3,0.7-2,0.3-2.6,1c-0.1,0.2-0.2,0.6-0.4,0.7c-0.4,0.2-0.3,0.3-0.7,0.6
			c0,0-0.8,0.7-0.5,1c-0.6,0.6-0.6,1.5-1.7,1.7c-0.8,0.2-1.5,0.2-2,0.7c-1,1.2-0.7,3.7-3,3.7C576.7,234.2,575.2,233.7,575.2,235.1z"
			/>
		<path class="st0" d="M600.9,236c1.2,0,1.8-0.3,2.8-0.3c0.9,0,1.6,0.6,2.6,0.6c1.5,0,2-1.4,2.2-2.6c0.2,0,0.3-0.4,0.4-0.7h-0.4
			c-0.9,0.7-1.9,1.4-2.3,1.9h-0.6l-5.1-1c-1.9,0-2.8,2.7-2.8,4.6c0,0.5-0.6,0.9-0.7,1.2c-0.5,1.9-1.3,2.6-1.3,4.4c0,1,1,1,1.5,1.1
			v3.9c0,0.5,0.6,1.1,1.2,1.1c0.8,0,1.1-2.9,1.1-3.3c0-1.1-0.6-1.6-0.6-2.7c0-0.6,0.6-1,1.1-1c0.2,0,0.4,0.1,0.6,0L600,245
			c0,1.1,1.2,1.5,1.2,2.5c0,0.2,0.1,0.5,0,0.7h0.9c0-0.9,1.6-0.8,1.6-1.7c-0.3-0.1-1-1-1-1.5c0-0.2,0.2-0.3,0.3-0.5
			c-0.4-0.2-1.8-3.2-1.8-3.4c2,0,2.2-1.8,3.9-2.4v-0.7c-0.4-0.1-4.3,1.2-4.4,1.5l0.2-0.3c-0.3,0.4-0.4,0.8-0.8,0.8
			c-1.1,0-1.5-1.6-1.5-2.8C598.5,235.7,599.7,236,600.9,236z"/>
		<path class="st0" d="M586.9,256.6c0.9,0,0.8,0.6,1.5,0.6c0.2,0,0.7-0.6,0.8-0.9c-0.5-0.2-0.5-0.5-1.2-0.7
			c-0.7-0.2-1.2,0.4-1.7-0.2c-0.1-0.2-0.1-0.7-0.6-0.7c-1.3,0-2.3-0.2-3.1-1.1c0.1,0.1,2.6-0.2,2.7-0.6h-0.6l-2.2,0.3
			c-1.3,0-1.8-1.5-3.3-1.5c-0.9,0-1.1,1.2-2.2,1.2c-2.4,0-3.4-2.6-5.6-2.6c-0.4,0-0.7,0.5-1.2,0.5c-0.2,0-0.4-0.3-0.6-0.3
			c-0.4,0-1.8,1.5-1.8,1.7c1.1,0,1.7,1,2.4,1.8c0.7,0.8,1.8,0,2.9,0.4c1.5,0.5,2.6,0.6,4,0.6c0.7,0,1,1.1,1.8,1.1
			c2.9,0,5.3,0.2,7.7,1.2C586.8,257.2,586.6,256.6,586.9,256.6z"/>
		<path class="st0" d="M602.2,257.7c0.9-0.3,1.6-0.6,2.1-1.6c-0.7,0.3-1,0.8-2.1,0.8c-1.1,0-1.6-0.6-2.9-0.6c-0.5,0-1.3-0.1-1.3,0.6
			c0,0.9,1.1,0.8,1.6,0.8H602.2z"/>
		<path class="st0" d="M594.3,256.4c0,0.2-0.1,0.4-0.1,0.7c-0.4-0.2-0.7-0.3-1.4-0.3c-0.7,0-1.2-0.1-1.2,0.8c0,0.3,0.9,0.6,1.5,0.6
			c0.7,0,1-0.5,1.8-0.8l0.6,0.3h0.7c-0.1-0.2,0-0.6,0-1.2H594.3z"/>
		<path class="st0" d="M598.5,258.7h-0.7c-0.5,0-1.4-0.2-1.4,0.5c0,0.8,1.2,0.9,1.9,0.9c0,0.2,0.1,1.1,0.4,1.1h0.3
			c0.2,0,0.6-0.3,0.6-0.6C599.6,259.6,598.5,259.8,598.5,258.7z"/>
		<path class="st0" d="M590.6,256.3h-0.7v0.8c0,0.2,0.4,0.6,0.6,0.6c0.4,0,0.7-0.3,0.7-0.8C591,256.7,591,256.3,590.6,256.3z"/>
		<path class="st0" d="M608.6,258.9c1.2,0,3.6-0.7,4.3-1.9c-0.7-0.5-3.9-0.2-4.6,0.7c-0.1,0.2-0.1,0.6-0.4,0.7
			c-1.1,0.4-2.5,0.4-2.5,2.2c0,0.3,0.2,0.7,0.5,0.7c0.8,0,2-1,2.4-1.4C608.6,259.7,608.3,258.9,608.6,258.9z"/>
		<path class="st0" d="M628.8,250.7c0-0.6-0.1-0.2-0.3-0.9c-0.5,0.1-0.4,0.8-0.4,1.4c0,0.5-0.7,0.6-0.7,1.4c0,0.2,0.2,0.7,0.4,0.7
			c0.6,0,0.4-0.9,0.4-1.7C628.6,251.5,628.8,251.2,628.8,250.7z"/>
		<path class="st0" d="M610.8,244.5c0,0.7,0.9,1.5,1.3,1.5c0.2,0,0.7-0.9,0.7-1.1C612.8,244.2,610.8,243.5,610.8,244.5z"/>
		<path class="st0" d="M614.6,244.5c0,0,1,0.3,1.3,0.3h1.7c1,0,1.5,0.8,2.6,0.8c0.1,0,0.4,0,0.4-0.2c0-0.7-0.8-0.8-0.9-1.5l-0.2,0.1
			c-0.4,0-0.9,0.2-1.1-0.3h-3.3C614.9,243.9,614.6,244.1,614.6,244.5z"/>
		<path class="st0" d="M616.2,233.7c-1.2-0.3-1.8-1-1.9-2.1c-0.6,0.3-0.7,1-0.7,1.6c0,1.1,0.6,1.4,0.6,2.3v1.1
			c0,0.5,0.2,1.5,0.9,1.5c-0.4-0.6-0.5-0.9-0.8-1.4v-0.6c0.6,0,1.4-0.1,1.7-0.2c-0.1-0.7-0.6-0.8-0.6-1.2
			C615.4,234.2,616.2,234.2,616.2,233.7z"/>
		<path class="st0" d="M659.9,249.8h-2.2c0.2,0.9,1.3,0.9,1.9,1.4c0,0,0,0,0,0c0.1,0,0.1,0.1,0.2,0.2l-0.1-0.1
			c0.3,0.3,0.9,0.6,1.1,0.6c1.5,0,2.2-0.9,3.5-1.2c0-1.5,1.5-1.1,1.5-2.9c0-0.5-0.2-1.2-0.7-1.2c-1,0-0.6,1.8-1.6,2.4
			c-0.7,0.3-1.8,0.2-2.9,0.7C660.7,249.6,660.1,249.9,659.9,249.8z"/>
		<path class="st0" d="M654.1,250.5c-1.8-1-1.7-3.2-4-4c-0.4-0.1-1-0.2-1-0.8c-0.9,0-1.3-1.1-2.2-1.1c-1.6,0-3.9-0.8-5-1.7v-0.1
			c0,0-0.1,0-0.1,0c-0.1-0.1-0.2-0.1-0.2-0.2l0.2,0.2c-0.4-0.1-1-0.3-1.3-0.7h-2c-0.4-0.2-1-1.2-1.9-1.5c-0.2-0.1-0.8,0-0.9-0.4
			c-0.9,0.2-1.8,1.6-2.4,1.9c-1,0.3-1.2,0.4-1.8,1.1c-0.1,0.2-0.8,1.4-1.3,1.4c-0.4,0-1.5-1.3-1.5-1.6c-0.7,0-1.1-0.3-1.1-0.7v-2.9
			c-1.3-0.3-2.3-1.6-3.5-1.6c-1.3,0-1.8,1.4-2.7,1.4c-0.4,0-1,0.2-1,0.7c0,1.1,1.8,0.7,2.3,1.8c0.1,0.2,0.2,0.7,0.4,0.7
			c0.4,0.1,0.7,0.2,1,0.2c0.8,0,1.3-0.1,2.1-0.3h0.5c-0.5,1-2.7,0.8-3.7,1.4c0.1,0.7,0.9,0.3,1.3,1c0.4,0.7,0,1,0.4,1.8
			c0.1,0.2,0.5,0.2,0.7,0.2c0.6,0,0.9-0.8,1.1-1.5v0.7c1.2-0.4,1.6,1.7,2.7,1.7c1.2,0,3.1,0.4,3.9,0.8c0.7,0.4,2.8,1.3,3.1,2.3
			c0.4,1.2-0.1,2.4,1,3.5c-0.4,0.2-1.8,0.7-1.8,1.6c0,0.7,0.7,0.7,1.2,0.7h1.5c0-0.4,0.8-0.5,1.1-0.5c1.9,0,2.4,2.5,4.3,2.5h2.8
			c0-0.6,0.7-0.9,0.4-2c1-0.6,0.9-2,2.7-2c2.4,0,3.7,2.3,5.2,3.9c0.1,0.2,0.7,0.3,0.7,0.7c0,0.9,1.7,1.8,2.8,2h1.9
			c0.1,0.2,1.2,1,1.4,1h0.4c0-0.6,0.5-1,1-1.3c-0.2-0.1-1.3,0.1-1.5-0.3c-0.2-0.3-0.3-0.8-0.7-1c-0.3-0.1-0.7,0.2-0.9-0.2
			c-0.2-0.3-0.4-0.9-0.6-0.9c-0.5,0-1.4-0.4-1.6-0.8c-0.6-1-0.4-1.5-1.2-2.4c-0.1-0.2-1.4-1.5-1.4-2c0-0.7,1.4-0.4,1.4-1.3
			C656.4,250,654.8,250.9,654.1,250.5z"/>
		<path class="st0" d="M666.3,245.2c-0.8-0.9-1.5-1.9-2.8-2.4c0.2,0.7,0.7,0.6,1.3,1c0.9,0.6,0.8,1.6,1.8,2
			c-0.1,0.8-0.1,1.4,0.7,1.6c0.1,0.2,0.3,0,0.4,0c-0.1-0.2,0-0.4,0-0.6C667.7,245.7,666.9,245.9,666.3,245.2z"/>
		<path class="st0" d="M671,249.6c-0.1,0.8,0.2,1.6,1,1.8v0.7c0,0.2,0.2,0.6,0.4,0.6c0.2,0,0.5-0.4,0.5-0.7
			C673,251.7,671.5,249.9,671,249.6z"/>
		<path class="st0" d="M685.1,260.5c-0.1,0.5,0.4,1.7,1.2,1.7c-0.1-0.2,0-0.3,0-0.5C686.3,261,685.7,260.9,685.1,260.5z"/>
		<path class="st0" d="M681.9,259.2c0,1,1.2,1.3,2,1.3c0.1,0,0.3-0.2,0.4-0.2C683.8,259.5,683.1,259.2,681.9,259.2z"/>
		<path class="st0" d="M682.3,256c0.1,0.6,1.4,2.6,2.1,2.6C684,257.4,683.3,256.6,682.3,256z"/>
		<path class="st0" d="M678.1,254l-0.1,0.2h-0.1c0,0.9,1.7,1.5,2.3,1.5c0.2,0,0.4-0.1,0.6-0.2C680.2,254.9,678.8,254.4,678.1,254z"
			/>
		<path class="st0" d="M674.9,252.3c0,0.1-0.3,0.1-0.4,0.1l1.1,0.8h0.7C675.9,252.5,675.5,252.6,674.9,252.3z"/>
		<path class="st0" d="M674.5,252c0.1,0.1,0.2,0.2,0.4,0.2c0,0,0,0,0,0L674.5,252z"/>
		<path class="st0" d="M653.4,338c-0.1,0-4-1.3-4,0c0,1.7,2.4,7.7,4.6,7.7c1.5,0,3.4-4.3,3.4-6.1c0-1-0.6-1.5-0.8-2.4
			C655.6,337.5,654.4,338,653.4,338z"/>
		<path class="st0" d="M657.1,336.3c0.1-0.4,0.2-0.6,0.2-1.4c-0.2,0.1-0.6,0.1-1,0C656.4,335.6,656.4,336.1,657.1,336.3z"/>
		<path class="st0" d="M632.6,324.4c0.7,0.7,1.8,0.6,2.6,0C634.1,323.8,634,323.6,632.6,324.4z"/>
		<path class="st0" d="M621.1,264.6h0.7v-1.2c-1.1-0.1-1.6,0.1-2.9,0.4C619.2,264.1,620.3,264.6,621.1,264.6z"/>
		<path class="st0" d="M666.3,296.3c-1.4-1.5-4.2-2.9-4.2-6.2c-0.9,0-2.1,0-2.4-1.1c-0.3-1.1-0.4-2.7-1.3-3.7
			c-1.2-1.4-4.4-2.1-5-4.1c-0.6-2-1.2-3.1-1.8-5.3c-0.4-1.3-0.4-3.9-1.2-4.6c-0.3-0.2-1.7-0.7-2.4-0.9c-0.8-0.7-0.4-2.1-0.7-3.3
			c-0.4-1.6-1.4-3-1.6-5.2c-1.2,0.7-0.9,1.8-2,2.8v7.3c-0.4,1.9-0.8,6.7-3.1,6.7c-1.4,0-1.8-1.8-2.8-2.2c-1.8-0.8-2.9-1.2-4.9-2
			c-0.3-0.1-0.3-1.3-0.7-1.6c-0.4-0.3-1.5-0.2-1.5-0.8l0.9-4.1c0.6-0.5,1.7-0.6,1.7-1.6c0-0.7-1-1.5-1.5-1.5c-0.8,0-1.1,0.7-2.1,0.7
			c-2.6,0-4.1-1.1-6.6-2.3c0.1,0.9,0.9,1.1,1.3,1.9c-0.2,0.1-0.8,0.6-1.3,0.6c-1.2,0-4.2,0.7-4.2,1.9c0,1.1-1.1,1.7-1.1,2.9
			c0,0.7,0.2,1.3-0.2,2c-0.1-0.1-0.7-0.6-1.1-0.6c-0.7,0-1.2,0.3-1.6,0.9c-0.2-1.5-0.9-3.1-2.2-3.1c-1.5,0-1.9,1.6-3.9,1.6
			c-0.2,1.9-1.6,2.2-1.6,4.5c-0.6,0-1-0.3-1.5-0.6c-0.4,0.9,0,2.1-0.8,2.7c-0.3-0.6-0.7-0.9-1.1-1.6c-0.7,0.4-0.9,1.2-0.9,2v1.4
			c0,2.8-6,5.1-8.6,5.5c-1.4,0.2-4,0.4-4.9,1.4c-0.8,0.9-2.5,2.9-3.9,3.1c0-0.2,0-0.6-0.1-0.8c-0.3,0.2-0.8,0.3-0.8,1v4.7
			c0,2,0.9,3,0.9,4.2c0,0.4,0.2,0.7,0,1.1c-0.2-0.2-0.5-0.6-0.7-1.1c-0.2,0.4-0.3,0.7-0.4,1.1c-0.4,1.2,1.1,1.6,1.5,2.9
			c1,3.2,1.2,4.3,2,7.9c0.4,1.5,1.5,2.8,1.5,5.1c0,1.9-1.7,2.4-1.7,3.7c0,1.1,3.5,2.8,4.7,2.8c3.3,0,4.4-2.7,6.9-2.7
			c0.9,0,0.9-0.7,2,0c1.6,0,2.9-0.4,4.4-0.6c0.6-4.2,5.2-2.7,8.9-4.1c1.6-0.6,2.1-1.9,4.7-1.9c2.4,0,6.7,0.8,7.9,2.4
			c0.6,0.9,2.2,4.9,2.7,4.9c0,0-0.3,1.5,0.6,1.5c1.5,0,3.4-4.2,4.7-5.7c0.1,1.2-0.3,5.5-2.1,5.9c0,0.4,0.4,0.8,0.7,0.8
			c1.1,0,1.2-1.5,1.8-1.8c0-0.3,0.1-0.6,0.1-0.8c0.3,0.3,0.7,0.6,0.7,1.6c0,0.8-0.3,1.3-0.5,1.8h0.9c0.6-0.2,1-0.2,1.5-0.6
			c0,0.1,0.1,0.4,0.1,0.4c0.1,1.1,1,2,1,3.3c0,3.3,4.7,5.5,7.5,5.5c1.8,0,1.3-1.6,2.9-1.8c0.1,0.5,3.1,2.4,3.7,2.5
			c0.6-3.9,6.6-2.2,7.4-5.9v0.2c0-2.8,1.5-5.4,2.1-7.3c0.7-2.6,2-3.4,3.4-5.7c0.4-0.6,0.1-1,0.5-1.6v-2.3c0.7-0.7,1.1-3.3,1.1-5.1
			c0-2.4-0.7-6.9-1.9-8.6L666.3,296.3z"/>
		<path class="st0" d="M710.3,338.7c-0.2,0-0.4-0.1-0.5-0.3c-0.4,0.2-0.7,0.7-1.2,0.7c-0.4,0-0.4-0.6-0.4-1.1
			c-0.2,0-0.5-0.2-0.5-0.8c-0.7,0.3-1.8,1.5-1.8,2.7c0,0.2-0.1,0.3-0.1,0.5c-0.6,0.1-1,0.2-1.3,0.9c-0.1,0.2-0.1,0.8-0.1,0.8
			s-1,1.8-1.4,2c-1.2,0.7-2.3,2.7-4.1,2.7c-0.5,0-0.9,0.5-1.2,1.1c-0.7,1.2-2.9,2.4-2.9,4.5c0,0.2,0.2,0.3,0.4,0.3
			c0,0.4,2.8,1.6,3.3,1.6c0.4,0,1.3,0.4,1.6,0.4c0.8,0,2.1-1.2,2.8-2c0,0,2-4.7,2.3-5.7c0.6,0,2.3-0.4,2.7-0.4c0.2-1-0.2-1.3,0-2.5
			c1.2,0,2.6-3,2.9-4.1C710.5,339.8,710.3,339.3,710.3,338.7z"/>
		<path class="st0" d="M719.2,328.8c-1.2,0-1.1,0.8-2.5,0.8c-1.8,0-2.7-1.2-2.7-3.3h-0.4c-0.4,0-0.7,0.3-0.7,0.8h-0.4
			c-0.4-0.4-1.2-2.2-1.2-2.6c0-0.2,0.2-0.3,0.3-0.6c-0.4-0.2-0.4-0.8-0.9-1.3c-0.7-0.8-2-0.9-2.8-2.3c0.4,2,1.5,4.6,3.1,5
			c-0.1,0.2-0.2,0.6-0.2,0.8c0,0.7,0.6,0.9,0.8,1.5v-0.1c0.1,0.4,0.3,1.1,0.3,1.6c0,1.2-0.1,2.4-0.9,3.2c-0.4,0.4-1,0.5-1,1.3
			c0,1.5,2.7,0.8,2.7,2.4c0,1-0.9,1.4-0.9,2.4c0,0.7,0.4,1.1,1.1,1.1c1.5,0,2-1.6,2.7-2.9c0.1-0.2,1-1,1-1.6c0-0.2-0.3-0.6-0.3-0.8
			c0-0.7,0.7-0.9,1.5-1.1c0.1,0,0.1-0.2,0.2-0.2l0.3,0.4c0.7-1.2,0.4-2.9,1.5-4.1C719.6,329.1,719.4,328.8,719.2,328.8z"/>
		<path class="st0" d="M719.4,279.3v-1c-0.4-0.1-0.7-0.3-0.9-0.7c-0.7,0.2-1.7,0.5-1.7,1.5c0,0.3,0.9,0.5,1.5,0.5
			C719,279.6,719,279.8,719.4,279.3z"/>
		<path class="st0" d="M719.8,276.3c0,0.2,0.2,0.7,0.4,0.7c0.7,0,0.9-0.8,1.8-1.1v-0.7C721.6,275.2,719.8,275.3,719.8,276.3z"/>
		<path class="st0" d="M609.5,214c-0.1,0.2,0,1.2-0.2,1.7c-0.2,0.4-1.4,0.1-1.4,1.1c-0.4,0.1-0.6,0.4-0.6,0.9c-0.1,0-0.3,0-0.4,0
			c-0.5,0-0.3-1.1-1.2-1.2c-1.2,0-0.9,1.5-2.3,1.5c-0.1,0.7-0.4,1.1-0.4,1.8c0,0.2,0.3,0.5,0.2,0.7c0,0.3-0.6,1.6,0,1.6
			c0.7,0,0.6-2.3,1.3-3c0,0,0.5,0.6,0.7,0.7c0.1-0.1,0.2-0.4,0.2-0.4c0.1,0.1,0.3,0.4,0.7,0.4c-0.1-0.2,0-0.4,0-0.6l0.9,0
			c0.1,0.2,0.2,0.5,0.3,0.7c-0.2,0.1-0.3,0.3-0.3,0.8c0,1.4,0.8,2.5,1.7,2.5c0.2,0,0.5,0.1,0.7,0c0,0.2,0.1,0.6,0.3,0.6
			c0.5,0,0.7-0.4,0.7-1c0-0.8-0.8-1-0.8-1.5c0-0.4,0.3-0.6,0.6-1c0.1,0.2,0.3,0.4,0.4,0.6l0-0.2c0.1,0.4,0.6,1.6,0.8,1.7
			c0-1.2,0.8-1.6,0.8-2.4c0-0.6-1.1-4.8-1.6-5.4C610.3,214.3,610,214,609.5,214z"/>
		<path class="st0" d="M593.9,216.8l0.5,0c0.8-0.6,2.1-1.4,2.4-3.1c0.5,0,1-0.1,1.1-0.8c0.3,0,0.4-0.2,0.7-0.4
			c-0.3-0.3-0.6-0.4-0.6-1.1c-0.2,0.2-0.2,0.6-0.3,0.9C596.9,213.9,594.6,214.7,593.9,216.8z"/>
		<path class="st0" d="M597.6,201.8c0,0.4,1.2,1.3,1.4,1.3c0.2,0,0.3-0.3,0.5-0.5l0.4,0l0,0.7c-0.1,0.1-0.4,0.3-0.4,0.8
			c0,0.4,0.5,1,1,1c0.4,0,0.7-0.4,1.1-0.4c0.9,0,1,1.6,1.9,1.6c-0.2-0.6-0.4-0.9,0-1.4c0.4,0.6,2,1.3,2.4,2.2
			c0.1,0.2,0.1,0.6,0.3,0.6c0.1,0,0.3-0.3,0.3-0.4c0-0.2,0-0.3,0-0.6c-0.5,0-0.9-0.3-0.9-0.9c-0.1,0.1-0.5,0.1-0.5,0
			c0-0.4,0.3-0.4,0.4-0.8c-0.1,0-0.3-0.2-0.4-0.2c-0.3,0-0.3,0.5-0.6,0.5c-0.4,0-0.6-1.6-1.4-1.7c-0.4,0-0.7,0.3-0.7,0.6
			c0,0.1,0,0.3,0,0.3c-0.7-0.4-1.6-2.2-1.6-3.2c0-1.5,1.2-1.6,1.2-3.2c0-1.2-0.8-2.3-0.8-3.2c0-0.1-0.1-0.4-0.1-0.5
			c0-0.1-0.1-0.3-0.1-0.4c-0.3,0.1-0.5,0.7-0.9,0.7c-0.6,0-0.4-1.3-1.2-1.3c-0.5,0-0.7,0.7-0.7,1.4c0,0.9,0.3,1.4,0.3,2.3
			c0,0.6-0.2,1.6-0.4,2.1C597.4,199.2,597.7,200.7,597.6,201.8z"/>
		<path class="st0" d="M608.8,208.2c-0.5,0-0.9-0.3-1.5-0.3c-0.2,0-0.4,0.2-0.6,0.3c0.1,0.6,1.6,1.1,1.6,2.1c0,0.2-0.2,0.4-0.3,0.4
			c-0.1,0-0.5,0-0.9,0l0,0.4c0.1,0.2,0.5,0.9,1,0.9l0,0.4c-0.3,0.4-0.2,1,0.3,1c0.2,0,0.4,0,0.6,0l0-0.4c-0.3-0.1-0.5-0.9-0.6-1.4
			l1,0c0.1-0.3,0.2-0.5,0.3-0.9c-0.1,0-0.5-0.7-0.5-0.7s0.1-0.7,0-1.1c-0.1,0-0.3,0-0.4,0C608.9,208.7,608.8,208.4,608.8,208.2z"/>
		<path class="st0" d="M603.1,209.6c-0.1-0.1-0.2-0.2-0.3-0.2c-0.1,0-0.4,0.2-0.4,0.3c0,0.6,0.2,2,0.2,3.2c0.6-0.4,2.2-1,2.2-2.2
			C604.8,210.2,603.6,209.9,603.1,209.6z"/>
		<path class="st0" d="M605.1,211.7c-0.3,0.1-0.7,1.8-0.7,2c-0.2,0-0.6,0.2-0.6,0.4c0,0.5,1.2,1.9,1.4,1.9c0.1,0,0.4-0.2,0.4-0.3
			c0-0.4-0.3-0.3-0.3-0.9c0-0.9,0.8-1.4,0.8-2.2C606.1,212.1,605.8,211.5,605.1,211.7z"/>
		<path class="st0" d="M605.7,214.5h0.3c0-1.1,0.9-1.4,0.9-2.7c-0.2,0-0.4,0-0.6,0C606.3,213.1,605.9,213.6,605.7,214.5z"/>
		<path class="st0" d="M607.8,213.6c-0.2,0.3-0.5,0.1-0.8,0c-0.2,0.4-0.6,0.6-0.6,1c0,0.1,0.3,0.4,0.4,0.4
			C607.3,215,607.8,214.4,607.8,213.6z"/>
		<path class="st0" d="M606.4,209.7c0-0.9-0.9-1.1-1-1.8l-0.6,0c0,0.3,0,0.6,0,1.1c0.3,0,0.6-0.1,0.9,0
			C605.7,209.3,606.4,210,606.4,209.7z"/>
		<path class="st0" d="M601.1,208.4c0.3,0,0.6-0.8,0.5-1.4c-0.2-0.9-0.9-0.7-1.7-1.3l-0.7,0C599.2,205.6,600.7,208.4,601.1,208.4z"
			/>
		<path class="st0" d="M601.8,206.1c0.1,0.1,0.5,0.1,0.7,0C602.3,206,601.9,206,601.8,206.1z"/>
		<path class="st0" d="M599.4,183.8c1.7,0,3.3-7.2,1.5-7.2c-1,0-2.6,3.2-2.6,4.9C598.3,182.7,598,183.8,599.4,183.8z"/>
		<path class="st0" d="M578.4,189.3c-0.9,0-3.4,2-4,2c-0.4,0,0,0.7,0,1.2c0,1.1,0.5,1.6,1.6,1.6c1.1,0,3.3-2.5,3.3-3.7
			C579.3,190,578.8,189.3,578.4,189.3z"/>
		<path class="st0" d="M568.9,242.1c0.1,0.2,0.4,1.1,0.5,1.1c0.3,0,0.5,0.5,1,0.5h0.5c-0.1-0.2-0.1-0.6-0.1-0.8
			c-1,0-1.5-1.5-1.8-2.8c-0.5,0.1-1.5,0.6-1.5,1.1C567.4,241.9,568.6,241.5,568.9,242.1z"/>
		<path class="st0" d="M573.3,244.3c0.4,0,0.7-0.5,0.8-1c-0.2-0.1-0.4-0.4-0.7-0.4h-0.7c-0.1,0,0,0.3,0,0.4
			C572.7,243.7,572.8,244.3,573.3,244.3z"/>
		<path class="st0" d="M554.7,239.3h-0.6v0.3c0,0.6,1,1.9,1.3,2c0.1-0.8-0.3-1.3-0.7-1.9V239.3z"/>
		<path class="st0" d="M551.9,234.3l-0.4,0.2h0.1c0.1,0.5,1,1.8,1.3,1.8C553.5,236.3,552.3,234.6,551.9,234.3z"/>
		<path class="st0" d="M618.2,156.8c0,0.4,0.4,0.9,0.7,0.9c0.2,0,0.5-0.3,0.9-0.3c-0.1-0.2,0-0.5,0-0.7c0.1,0.4,0.1,0.9,0.6,1.1
			l-0.3,1.1c0,0-0.7,1.1-0.7,1.3c0,0.3,0.4,1.3,1,1.3V161c0,0.2,0,0.7,0.2,0.7c1,0,1.6-2.5,1.8-4c0.2,0.2,0.4,0,0.7,0
			c-0.1-0.3,0-0.6,0-0.8l-0.7-0.7c-0.2,0-0.1-0.6-0.1-0.8c-0.9,0-1.3-0.7-1.9-0.7C620.3,154.8,618.2,156.3,618.2,156.8z"/>
		<path class="st0" d="M624.9,157.5c0.9,0,1.1-1.3,1.7-2c0.2,0.1,0.5,0.6,1.1,0.6c0.7,0,1.6-2.9,0-2.9c-1,0-1.2,1.4-2.5,1
			c0,0.1-1.4,1.2-1.4,1.2c0,0.4,0.1,0.6,0.6,0.9C624.4,156.7,624.6,157.5,624.9,157.5z"/>
		<path class="st0" d="M632.8,147.5c-0.7,0-1.1,2.5-2.3,2.5H626c-1.9,0-2.6,2-4.1,3.2c-0.3,0.2-0.9,0.3-0.9,0.6c0,0.3,0.5,0.3,1,0.3
			c1.5,0,2.8-0.6,3.8-1.1c0.6-0.3,1,0.1,1.6-0.2c0.2-0.1,0.3-0.7,0.7-0.7c0.9,0,1.3,0.5,2.2,0.7c0,0.3-0.2,0.9-0.2,1.4
			c0,0.2-0.2,0.7,0,0.7c0.5,0,0.4,0.6,1,0.8c0.4-0.8,1.2-2.1,1.8-2.1c0.2,0,0.5,0,0.7-0.1c-0.1,0-0.7-1-0.7-1.3
			c0-0.2,0.2-0.7,0.4-0.7c0.7,0,0.6,1.4,2.1,1.4c0.6,0,1-0.5,1.5-1h0.7c0,0.2,0.2,0.4,0.4,0.4c0.3-1.1,1-1.2,2-2
			c-0.1,0.6-0.4,0.7-0.1,1.3c0.9-0.3,0.9-1.1,1.8-1.6c-0.2-0.5-0.4-0.8-0.4-1.5c0-1,0.8-1.5,0.8-2.3c0-0.9-0.2-3.4,0.5-3.7
			c0.2-0.1,0.4,0.1,0.7-0.2v-0.5c0-1.1,1-1.2,1-2.5c0-1.1-1-1.7-1-2.9c0-0.6,0.1-1.1-0.2-1.6c-0.1-0.3-0.4-0.4-0.9-0.4
			c-0.2,0-0.1,0.7,0.1,0.7c0.1,0,0.1,0.1,0.2,0.1c-0.9,0.8-0.8-0.2-0.9-0.2c-1,0-1.7,2-1.7,3c0,0.4,0.3,0.4,0.3,1c0,2.6-2.5,6-4,6.6
			c-0.9,0.3-1,1.1-2.1,1.1c-0.1,0-0.4-0.2-0.4-0.4c0-0.3,0.2-0.6,0.4-0.9C633.9,145.6,632.9,147.5,632.8,147.5z"/>
		<path class="st0" d="M641.1,129.4c-0.1,0.6-1.3,1.1-1.3,2c0,0.3,0.4,0.5,0.4,0.8v1.9h0.4c0.6-0.6,1.2-0.3,1.8-1.2
			c-0.3-0.3-1.4-0.3-1.4-1.1c0-1.4,1.2-0.6,2.2-0.6c0-0.3,0.3-0.6,0.5-0.7c1.3,0.9,2,1.1,3.1,1.9c0.6-1,1.1-2.8,2.6-2.8
			c1.1,0,1.6-0.2,2.3-0.7c-0.3-0.1-0.9-0.6-0.9-1.1c0-0.4,0.3-0.6,0.4-1c-0.4-0.3-1,0.2-1.5,0.2c-2.8,0-3.7-2.6-5.7-4.1
			c-0.1,0.2-0.4,0.5-0.4,1.1c0,0.3,0.4,0.5,0.4,0.8c0,1.1-0.5,4.2-1.8,4.2c-0.2,0-0.5,0.1-0.7,0l0.2,0.2c-0.2-0.2-0.4-0.2-0.5-0.4
			V129.4z"/>
		<path class="st0" d="M651.6,126.9c-0.2,0.2-0.2,0.7,0,0.7c0.7,0,1.5-1.2,1.8-1.7l-0.2-0.2C652.6,125.8,651.9,126.5,651.6,126.9z"
			/>
		<path class="st0" d="M653.1,125.6l0.1,0.1c0,0,0.1,0,0.1,0L653.1,125.6z"/>
		<path class="st0" d="M657.2,122.7c-0.9,0-1.6,1.8-1.6,1.8c0,0.1-0.1,0.4,0,0.4c1,0,1-1.6,2.7-1.6v-0.6
			C658,122.8,657.6,122.7,657.2,122.7z"/>
		<path class="st0" d="M660.6,122c0.6,0,1.2-1.1,1.2-1.6c-0.2,0-1,0-1.2,0.5c-0.1,0.2,0.1,0.7-0.1,0.7
			C660.4,121.5,660.4,122,660.6,122z"/>
		<path class="st0" d="M646.7,99.2c-0.3-1.1-0.9-2.1-0.9-3.7h-0.5v1.7c0,0.4-0.3,0.6-0.3,1.1c-1.1,0.2-1.5,2.4-1.5,4.2
			c0,1.2,1.1,1.7,1.1,2.9v4.8c0,1-0.4,1.3-0.4,2.5c0,1,0.4,1.1,0.4,2.3c0,1.2-0.3,2.2-0.3,3.7c0,0.4-0.2,2.4,0,2.4
			c0.9,0,0.9-1.8,1.8-1.8h0.7c0.1,0.3,0.4,0.9,0.7,0.8c0.1,0,0.2-0.1,0.2-0.1c-0.6-1.4-2.1-2.3-2.1-4.2c0-2.1,0.2-4.7,2.2-4.7
			c0.6,0,1.2,0.5,1.5,1.1c-0.4-2-1.4-3.6-2-5.6c-0.1-0.5-0.7-1.4-0.5-2.2v-2C646.4,101.2,647,100.4,646.7,99.2z"/>
		<path class="st0" d="M456.7,33.5c0,0,2-0.1,2.2,0c1.2,0.4,0.6,1.7,1.1,2.9c0.1,0.4,1.3,0,1.8,0c0.2,0,0.4,0.5,0.5,0.6h5.7
			c-0.1-0.2-0.2-0.3-0.2-0.4c-1.6-1.6-4-2.4-4-5.3c0-5.2,5-10.7,8.8-11.8c1.3-0.4,1.7-2.2,3.5-2.2c0.9,0,1.2-1.6,1.6-1.9
			c2.4-1.3,4.2-0.6,6.8-2c1.8-1,7.5-1.5,7.5-4.2c0-0.9-2-2-2.9-2c-3.7,0-7.1,4.6-11,4.6c-0.9,0-1.3-1-2.2-1c-1.4,0-1.4,1-2.3,1
			c-2.7,0-4.7,3.9-6.6,3.9c-1.1,0-1.8,0.6-2.9,0.6c-0.5,0-0.7,0.5-0.7,0.8c0,0.5,0.5,0.8,0.5,1.5c0,2.3-3.8,3.5-3.8,4.9
			c0,0.7,1,0.8,1.1,1.8c-1.2,0.3-3.5,0.9-3.5,2.3v1.2c0,1.5-2.2,1.3-2.2,3.3C455.4,32.8,456.7,33.5,456.7,33.5z"/>
		<path class="st0" d="M467.8,36.4C467.8,36.4,467.8,36.5,467.8,36.4c0.1,0.2,0.2,0.2,0.3,0.3L467.8,36.4z"/>
		<path class="st0" d="M728.7,46.1c-5.8-3.8-13.4-7.7-21.9-7.7c-2.3,0-4,0.5-3.7,1.6c2.3,7.9-3.4-0.1-4.8,0l-16.8-0.4
			c-1-4.2-3.4-5.7-8.4-5.7c-2.7,0-6.8,1.1-8.4-0.4c-1.5-1.4-1.5-3.3-3.7-4.1c-4.5-1.6-9.3-2.8-15-2.8c-5.7,0-6.5,3.3-6.9,6.5h-11.7
			c-2,0-2.3-1.9-4.7-2c-0.2,1.1-0.7,3.7-1.8,3.7c-3.1,0-4.4-4.2-4.4-6.5c0-0.6,5.9-4.7-9.1-6.1c-1.9-0.2-2.9,0.7-2.9,3.3h-8
			c-2.4-0.7-15.1-2.4-16.7-5.3c-9.6,8.7-7.5,3.3-7.5,3.3c2.3-3.2,24.3-9.8,6.2-14.7h-7.7c-0.7-2.3-2.3-4.5-5.5-4.5
			c-3.8,0-5.3,3.2-7.3,4.9c-1.5,1.2-10.9,5.5-10.1,1.6c-2.4,0.8-12.7,1.6-18,6.9c-1.1,1.1-1.5,4.5-3.1,4.5c-2.4,0-11.5-1-11.5,3.7
			c0,1,0.8,1.9,1.1,3.3c-1.6,1.1-2.2,0-7.3,0c-4.3,6.5-3.9-1-5-2.4c-0.4,2.6-1.9,3.7-3.8,4.9c0.6,2.3,3.7,4.7,1.5,7.3
			c-1.5,1.8,3,7.9,0.6,7.9c-3.1,0-3.9-12.3-3.9-14.8c0-2.8,4.1-3.9-2.2-5.3c-3.1-0.7-9.1,5-9.1,8.1c0,3.7,1.5,6.2,3.3,8.1
			c4.1,7.1-5.7-0.8-9.3-1.9c-10-2.9-6.8,0.9-6.8,1.5c-0.3,6.3-2.7,1.2-4,1.2c-2.3,0-6.9,3.4-10.2,1.6c-1.7-4.8-12.6,6.1-15.3,6.1
			c-0.9,0-2.1-0.7-1.8-1.6c1.1-3.3-0.5-10.4-3.7,0.4c-0.2,0.7,1.1,1,1.1,2.4c0,2.9-3.8,0.9-5.8,1.6c-2,0.7-1,8.5-9.5,4.5V62
			c-4.2-0.4-3.7-5.4-5.1-7.7c3.1,0,4.9-0.1,7.9,0.8c4.1,1.2,12.2-4.5-0.2-8.9c-3.6-1.3-11.5-5.7-13.9-5.7c-0.2,0-0.3-0.3-2-0.1
			c-0.2,0-1.8-0.2-2.4-0.3c0-0.5-0.5-0.6-1.2-1.2c1.7-0.7,2.3,0,2.9-2c-0.6-0.3-2.2-1.3-2.6-1.3c-0.6,0-0.9,0.6-1.1,1.2
			c-0.8-0.1-0.7-0.8-0.7-1.9c-1.2,0.8-1.7,1.1-2.8,2.3c-0.1-0.5-0.1-0.9-0.4-1.5c-1.2,0.7-1.7,2.6-3.1,2.4c0.3-1.1,1.5-1.5,1.5-2.6
			c0-1.1-2.8,1-3.9,1c-0.7,0-1.1-0.6-1.5-1.2c-0.2,0.5-1.5,0.8-1.5,1.2c0,0.6,0.5,0.7,1.1,1c-1.3,0.8-2.6,0.3-3.5,2.3v-1.4
			c-1.5,0.1-1.8,2-2.7,2.2v-1c-1.1,0.2-2.4,0.2-3.1,1c0.3,0.3,0.2,0.2,0.6,0.7c-0.5,0.3-0.9,0.2-1.5,0.2c-0.7,0-1.3,0.7-1.7,1.3
			c0.7-0.1,0.7,0,1.2,0.2c-0.1,0.1-1,2-1.3,2c-0.9,0-1.2-0.8-2.4-0.8c0.2-0.6,0.1-1-0.2-1.5c-0.2,0.2-0.4,0.6-0.7,1.1
			c-0.2,0-0.4-0.2-0.6-0.2c-0.6,0-1,0.5-1.1,1.3c0,0,0.7,0.2,1.1,0.2c-0.3,0.2-1.1,0.6-1.5,1.1c1.8,0,2.5-1.1,4.3-1.5
			c-0.4,1.7-2.4,4.5-3.9,5.1c-1.5,0.7-2.6,1.8-3.4,3.4c0,0.1-0.7,1.9-0.7,1.9c-0.6,0-0.4,2.5-1.3,3.3c-2.2,2-3.4,4.8-6.6,5.7
			c0.7,0.2,0.9,0.3,1.8,0.6c-2.6-0.3-2.9,1.6-4.2,2c-1.6,0.5-2.4,1.5-3.3,2.9c-0.4,0.7-1.6,0.7-1.6,1.9c0,2.3,0.1,4.3,1.2,5.8
			c-0.4,0.6-1.2,1.5-1.2,2.1c0.9-0.4,0.9-0.4,1.9-0.4v1.2c-0.3,0.2-1.2,0.6-1.2,1.2c0,0.3,2.9,2.3,3.3,2.3c3.1,0,5.4-3.1,6.9-5.5
			c0.5,0.8,0.7,1.4,1.5,1.9c-0.2,0.3-0.4,0.8-0.4,1.2c0,1.5,1.1,1.8,1.5,3c0.5,1.8,0.4,2.9,1.6,4.3c0,0.2-0.1,0.6-0.1,0.8
			c0,0.4,1,3.8,1.6,3.8c1.8,0,2.3-2.6,3.5-2.6h2c0.2-1.5,2-1.7,2.2-3.9c-0.4-0.1-1.1-0.4-1.1-1.4c0-1.7,0.6-4.1,2-4.1
			c0.7,0,2.9-2,2.9-3.3c0-1.5-2-3-3.3-3.3c0-0.6-0.2-1.1-0.6-1.5v-1.6c1.1-0.6,0.4-2.1,0.9-3.3c0.7-1.5,2-1.8,3.3-2.6
			c1.5-1,4.9-2.6,4.9-4.5c0.2-0.5,0-0.9,0-1.9c0-2.3,2-3.3,4.4-3.3c1.8,0,4.2,0.4,4.2,2.4c0,1.4-1.7,1.8-2.8,2.4
			c-1.9,1.2-3.5,5.7-6.6,5.7c0.1,0.6,0,1.1,0,1.6c0,0.9,0.7,2.8,1.4,3.1c-0.2,0.4-1,1-1,1.8c0,1.7,1.6,2.8,3.1,2.8
			c0,0.9,0.7,1.1,1.6,1.1c1.2,0,2.9-0.7,4.4-1.2c1.4,0.2,4.7,0,5.5-1.6c0.6,0.9,1.3,1.3,1.8,2.9c-0.9,0.7-3.1,1.8-4,1.8
			c-1.2,0-2.1-0.6-3.7-0.6c-1.6,0-5.3,1.7-4.2,2.8c3.7,3.8,1.8,5.3,0.9,5.3c-1.5,0-1.7-2-2.9-2c-1.3,0-2.9,3.7-2.9,5.7
			c0,3.2-2.3,2.7-2.5,5.6c-0.8,0.1-1.7,0.2-2.6,0.2c0-0.2,0.1-0.6,0.3-0.9c-0.5-0.2-1.5-0.3-2.5-0.3c-0.9,0-2,1.2-2.7,1.5
			c-1.1,0.6-2,0.3-3.3,1c-0.4,0.2-0.4,0.7-1.2,0.7c0,0-1.2-1-1.2-1.1c0-0.2,0.4-0.5,0.4-0.9c-1.7-0.2-3.1,1.6-5,1.6
			c-0.2,0-0.4-0.6-0.5-1c-0.7,0-0.9-0.3-1.8-0.3c0.1-0.2,0-0.4,0-0.9c-0.4-0.1-0.8-0.6-0.8-1.5c0-1.5,0.9-2.2,1.6-3
			c0.2-0.2,0.9-0.4,0.9-0.8v-0.7c-0.6,0-1.4-0.1-1.4-0.9c0-0.8,0.1-1.3,0.4-2.1v-1c-1.8,1.5-4.7,1.7-4.7,5.1c0,2,1.2,2.6,1.5,4.8
			c0,0.1,0.5,1.6,0.5,2c0,0.6-1.2,1.4-1.6,1.4c-0.7,0-1.3-0.5-1.8,0.1c-0.1,0.2-0.4,0.8-0.6,0.6c-0.5,0.2-0.1,0-1,0
			c-1.7,0-2.7,1.3-3.7,2.4c-0.1,0.1-0.7,0.6-0.7,0.9c0,1,0.2,2-0.4,2.6c-0.3,0.3-3.2,1.6-3.6,1.8c-0.4,0.1-0.6,0.2-1,0.2
			c-0.4,2-1,3.8-3.2,3.8c-0.1,0.6-0.7,1.2-1.2,1.2c-0.9,0-1.6-0.4-2.2-1.1h-0.7v0.7c0.1,0.2-0.1,1.5,0.4,1.6v0.6
			c-0.3,0.1-1.1,0.4-1.7,0.4c-0.6,0-1.8-0.3-2-0.8c-0.7,0.2-2.8,0.7-2.8,1.5c0,0.1,0,0.3,0.1,0.3c0,1.2,3.2,1.9,4.4,2.3
			c0.4,0.1,0.4,0.5,0.9,0.6c0,1.3,0.4,2.8,1.9,2.8c0,0.7,0.4,0.5,0.4,1.2c0,0.3-0.1,0.9-0.3,1.2l0.1-0.1c0,0.5,0.1,1.9,0.1,2.2
			c0,1.5-0.9,2-0.9,3.7c-0.2,0-1.3,0.4-1.8,0.4c-0.7,0-1.2-0.6-2-0.3h-3.5c-0.4-0.1-0.9-0.2-1.2-0.5h-3.3c-0.4,0.2-0.8-0.3-1.1-0.3
			c-0.4,0-2.9,1.7-2.9,2.2c0,0.7,0.8,1.9,0.8,3.1c0,2.1-0.7,4.2-0.7,6.3c0,0.6-0.8,0.8-0.8,1.9c0,0.7,0.6,1.1,1.2,1.1v3.3
			c0,0.2,0.1,0.7,0.6,0.7c1.1,0,1.9-0.6,3.1-0.6c1.7,0,1.8,3,2.8,3c1.6,0,2.6-1.6,4.3-1.6c0.4,0,1.6-0.4,2.3-0.2v-0.1
			c1.5,0.5,1.6-1.6,2.5-2c1.5-0.8,2-1.8,2.9-3.4c-0.4-0.2-0.7-0.4-0.7-1.1c0-1.8,2.1-5.1,3.4-5.5c1.5-0.4,3.1-1,3.6-2.6l-0.4-1.8
			c0-1.2,1.2-2,2.3-2c1.5,0,2.5,0.9,4.1,0.9c1.6,0,2.6-1.5,3.9-2.2c0.7-0.3,0.7-1.4,2-1.4c2.8,0,3.2,3.3,4.5,5.2
			c0.2,0.6,1.2,0.9,1.8,1.5c1.2,1.4,1.7,2.1,4,2.7c0,0.5,1.1,0.8,1.4,0.8c0.1,0.5,1.8,2.4,2,2.4c0.2,0.7,0.7,1.1,0.7,2.3
			c0,1-0.4,2.2-1.2,2.2c0,0.3,0.3,0.6,0.8,0.6c1,0,0.9-1.7,1.5-2.4c0,0,1,0,1-0.4c0-1.1-1.3-1.3-1.3-2.4c0-0.8,0.7-1.3,1.6-1.3
			c1.2,0,1.6,1.1,2.3,1.2c0.2-1.7-1.5-2.4-3-3.2c-0.4-0.2-2.2-0.6-1.9-1.6c0.1-0.2,0.1-0.4,0.1-0.6c-1.1,0-1.8,0.4-2.9-0.2
			c-0.6-0.3-1.1-1.6-1.4-2.8c-0.2-0.7-0.8-2.1-1.9-2.5c-0.9-0.3-1.5-0.8-1.5-2c0-0.5,0.1-1,0.3-1.5c-0.1,0-0.4-0.3-0.4-0.5
			c0-0.9,1.6-0.9,2.4-1.5c0.4,0.5,0,2.2,1,2.2h2.2c0,1.9,1.8,4.6,3.4,4.6h1c0,1.1,1.2,1.2,2.2,1.8c1,0.6,2.6,2.3,2.6,3.4v2.1
			c0,1.7,1.2,2.4,2,3.4c0.7,0.7,1.2,1.5,1.5,2.6c0,0.2,0.1,0.9,0.4,0.9h1.2c-0.2,0.4-0.9,0.7-0.9,1.2c0,1.4,1,2.7,2.2,2.7h1
			c-0.7-0.4,0-1.4,0-1.9c0-0.7-0.2-0.9-0.4-1.4v-0.7c0.4,0.4,1.1,1.1,1.9,1.2h0.1c0.1-0.6,0.9-0.2,1.2-0.5c-0.1-0.2-0.3-0.5-0.3-0.7
			c-0.6,0-2.6-2-2.6-2.3c0-0.2,0.2-0.5,0.3-1l-1.4-1.8c0-0.4,0.4-0.9,0.8-0.9c0.7,0,0.8,1.2,1.9,1.2c0.1-0.7,0.1-1.1,0-1.8
			c1-0.3,1.2-1.1,2.4-1.1c1.3,0,2,1.6,3.1,1.6c0.9,0,1.2-1.1,2.1-1.5c0.7-0.3,1.2,0,1.8-0.2c0.4-0.1,0.7,0,1-0.3
			c-0.4-0.7-2.4-1.9-2.4-3.5c0-1.1,1.3-2.8,2-3.6v-2.1c0.2-0.5,0.2,0.2,0.5-1.1c0-0.8,0.8-1.2,1.5-1.4c-0.1-0.4,0-0.8-0.1-1.2
			c1.6-0.5,1.8-2.6,3.4-2.6c1.3,0,4.7,6.1,5.7,6.1c1,0,4.5-1.7,5.1-2.5c-0.1,0-2-0.3-2-0.3c-0.3,0-1.2-0.2-1.2-1.2
			c0-0.6,5.3-2.8,7.3-3.7c0,0-0.9,1.2-1.3,1.4c0.1,0.5,2.1,2.7-2.2,3.9c1.8,4.8,10.2,4,10.2,10.4l0.3,0c0,0,0.1,0,0.1,0
			c-1.3,0.6-2.2,1.9-3.7,1.9h-4.2c-0.8-0.1-3.7-0.6-3.7-1.6c-1.7,0-1.6-1.2-3.6-1.2c-1.2,0-3.3,0.1-4.2,0.7c-0.8,0.6-2.1,1.6-3,1.6
			h-2.3c-0.4,0-1.8-0.3-1.8,0.4c0,0.6,0.4,0.3,0.6,1c-1.3,0.7-6.6,0.2-6.6,2.8c0,0.5,0.7,0.4,1.2,0.4c-0.1,0.4,0,0.4,0,1
			c0,1.5-0.8,1.4-1.5,2.2c1,0.6,1.8,0.5,2.5,1.5c-0.7,0.8,1.4,2,1.8,2.5c-0.1,0.2-0.4,0.4-0.6,0.5h0.8c1.4-0.7,2.1,1.5,3.5,1.5
			c1.3,0,1-1.9,2.6-1.9c1.5,0,2.1,2,3.7,2c2.1,0,2.5-1.1,3.7-2c0.3,0.3,0.7,0.6,1.5,0.6c0.6,0,0.8-0.5,1.4-0.7v0.8
			c-0.1,0.2-0.5,0.3-0.5,0.8c0,1,0.4,2.1,0.4,3.5c0,1.9-1.5,2.3-1.9,3.9c-0.4,1.6-0.7,2.5-1.2,4.3c-0.1,0.3-0.6,0.3-0.6,0.9l0.4,1.1
			c-0.1-0.2-0.2-0.4-0.2-0.6c-1,0.2-1,0.6-2,0.6c-1.6,0-2.4-1.1-3.8-1.1c-2.3,0-3,1.2-5.3,1.2c-2.6,0-5.9-1.2-8.2-2.2
			c-1.2-0.5-2.9,0.2-3.5-0.8c-0.3-0.5-1.1-0.7-1.1-1.9h-1.6l-0.2-0.2c-2.3,0.8-4,0.8-4,3.4v1.6c0,0.4-0.8,1.2-1.5,1.2
			c-5.4,0-7.1-6.5-11.8-6.5h-2.1c-1.4,0-3.3-1.8-3.3-3.8c0-1.2,1-1.9,1-3.1c0-0.7-1-1.1-1-1.8c0-1.1,1-0.9,1.1-2.1
			c-0.4,0.1-0.7,0.5-1.1,0.5c-1.2,0-0.8-1.5-2.2-1.5c-1.4,0-1.5,1.2-2.9,1.2c-0.8,0-1.2-0.6-2.2-0.6c-1.1,0-2.3,1.2-3.1,1.2
			c-0.6,0-1.5-0.8-2.6-0.8c-3.3,0-8.7,2.3-11.5,3.8c-0.9,0.5-1.2,1.5-2.7,1.5c-2.5,0-4.4-0.6-6.2-2c-0.7,0.6-0.9,1.4-1.5,2.2h0.2
			c-1.8,2.5-4.3,5.1-6.2,7.7c-1.5,2-0.4,3.3-1.2,6.4c-0.4,1.3-2.2,2.9-3.3,3.7c-1.3,0.8-3.2,0.7-4.2,2.2c-1.8,2.7-3.9,7-4.9,10.2
			c-0.4,1.3-2,2.3-2,3.9c0,3.2,1.5,5.5,1.5,9.1c0,2-1.5,6.4-3.1,7.3c0.5,1.1,1.1,1.5,1.1,2.7c0,0.7,0.4,1.4,0.4,2.6h-0.2
			c0.4,0.5,0.6,0.6,1,1.1c0,0.3,3.9,4.1,4.4,4.6c1.8,1.6,2.3,3.6,3.6,5.9c1.5,2.6,5.8,5.4,7.8,7.1c0.3,0.2,1.3,0.6,2.2,0.6
			c2.9,0,4.1-1.6,6.9-1.6c1.5,0,3.3,1.2,4.4,1.2c1.1,0,1.5-1.1,2.6-1.5c2.8-1,5.5-2.8,9.1-2.8c3,0,3.5,4.7,5.7,4.7h3.1
			c2.5,0,3.8,1.6,4.6,3.4c-0.7,0.7-0.7,3.1-0.7,4.1c0,0.3-0.3,0.5,0,1.2c-0.5,0.3-1.7,2.4-1.7,3.3c0,3.8,4.2,6.7,6.1,9.4
			c0.9,1.4,0.7,3.3,1.2,4.9c0.7,2,1.3,3.3,1.8,6.8c0.2,1.8,1,2.6,1,4.6c0,4.3-4.6,5.7-4.6,11.4c0,5.3,2.2,8.4,4.2,12.2
			c0.6,1.1,1.5,1.5,1.5,2.7v2.2c0,7.2,3.4,12,6,16.9c0.4,0.7,2.4,3.2,2.4,4.5c0,0.9-0.4,1.6-1,2.2c0.6,0.7,1.3,2.4,1.3,4.1
			c0.2-0.1,0.3-0.3,0.7-0.4c0.4,0.9,1.1,1.6,2.3,1.6c2.8,0,4.6-2.5,7.7-2.5c0.8,0,1.2,0.8,2,0.8c0.7,0,1.2-0.5,2.2-0.6
			c0.2-1.5,2.1-0.8,3.3-1.5c3-1.6,3.8-3.9,5.6-6.5c1.2-1.6,1.3-3.5,2.9-5.3c0.9-1,2.9-2.8,2.9-5.1c0-0.7-0.4-1.3-1.1-1.7
			c0.9-2,1.9-2.9,3.6-3.8c0.5-0.2,1.8,0.1,2.2-0.6c0.4-0.7,0.6-3.4,0.6-4.7c0-2.4-2-3.7-2-5.5c0-0.9,1.2-2.3,2.2-2.4
			c0.8-5.4,10.4-4.6,10.4-11c0-0.7-0.1-1.2-0.6-1.6c0-2.3,0.2-3.8,0.2-5.1v-2c0.1-0.2,0.5-0.7,0.5-1.2c0-1.5-2.7-2.9-2.7-5.7
			c0-2.4-0.6-3.6-0.6-6.1c0-2.3,1.9-2.9,2.4-4.9c1.8-7.3,7-8.6,11.8-12.8c2.7-2.4,3.6-5.3,5.8-8.6c1.8-2.8,5.1-8.8,5.1-13.4
			c0-0.5-0.3-0.7-0.5-1.2c-2.6,0.7-5.3,2-8,2.4c-1.1,0.2-1.8-0.4-2.9,0c-0.9,0.3-1,1.4-2.2,1.4c-1.2,0-2.2-2.6-3.1-3.4
			c0.7-1,0-1.2,0-2.6c-2.4,0-3-3.4-4.2-4.4c-1.3-1.1-2.1-1.1-3.3-2.4c-1.3-1.5-0.5-3.6-1.8-5.5c-1.1-1.6-2.6-1.6-3.3-3.8v-4.3
			c-1.1-1-3.3-4.6-2.9-6.3l-6.9-13.7v-1.4c1.2,1.4,2.5,5,4,5.3c0.2-0.8,1-2.9,1.3-4.1c-0.2,1-0.4,2-0.4,2.6c0,0.2,1,1.5,1.2,1.9
			c0.8,1.4,1.5,2.6,2.4,4.1c0.3,0.5,0.8,1.1,1,2c0.2,0.5,0,1.7,0.4,2.2c0.2,0.2,1.2,0.1,1.5,0.4c0.2,0.2,0.6,0.7,1,1.1
			c0.3,1.5,1.2,2,1.2,3.8c0,3.1,0.6,4.8,3.2,5.4c0,2,2,4.8,2.9,5.7c0.8,0.9,2,1.6,1.7,3.4c-0.2,0.7-0.7,2.3,0.1,2.3
			c0,1.6,0.5,2.9,1.3,4.2c0.5,0.8-0.1,0.8,0.1,0.9c0.2,0.1,2.1,1.1,2.3,1.1l0.5-0.3c1.5,0,1.7-0.7,3-1.6h2.3c1-0.5,3.9-2.8,4.7-3
			c1.8-0.5,4-1.1,5.7-2c-0.1-0.2-0.3-0.5-0.3-0.7c0-1.8,4.5-2.7,6.4-3.1c0-1,1.4-2.4,2-2.4c1.1,0,1-2.4,2.1-2.4
			c0.9,0,0.8-1.4,1.1-2.4c0.3-1,1-1.3,2.1-1.3c0-2,2.1-2.6,2.1-4.5c0-0.7-1-0.6-1.4-1.3v0.1c-0.5-0.3-0.6-1.7-1.4-2
			c-2.1-0.7-3.5-1.1-4.5-3.5v-3c-2.6,2.2-3,5.5-7.9,5.5c-1.1,0-3-0.6-3-1.7c0-1,0.5-1.6,0.5-2.6c0-0.3,0-0.6-0.1-0.9
			c-0.7,0.2-0.6,1.2-1.5,1.5c-0.1-0.7-0.5-1-0.5-1.9c-1.7-0.4-3.7-3.9-4.2-5.9c-0.2-0.7-0.2-1.1-0.2-1.9c0-1.1,0.4-2.6,1.5-2.6
			c2,0,3.7,2.5,4.5,4.3c0.1,0.3-0.1,1,0.4,1.5c0.8,0.9,2,0.4,2.8,1.4c0.7,0.8,1.3,1.9,2.5,2.3h3.7c0.4-0.5,0.7-1.2,1.5-1.2
			c1.5,0,1.5,2.4,2.3,3.3c0.1,0.1,2.2,0.7,2.6,0.7c2,0,5.2,1,6.6,1c0.1,0,0.4,0.1,0.4,0l2.6-0.2c0.1-0.2,0.4-0.4,0.6-0.6l1.9,0.6
			c0.7,0,1-0.6,1.8-0.6c0.8,0,1.4-0.2,2.2,0.1c0.9,0.3,1.3,2.2,1.9,3.3c0.7,1.2,2.8,2.8,4.3,2.8c0.6,0,1.1,0,1.7,0.2
			c-0.3,0.3-0.4,1.1-1,1.2c-0.7,0.3-1.2-0.2-1.8,0.3c1.1,1.2,2,3.7,4.2,3.7c1.9,0,2-2.8,2.9-3.8h0.6c0,0.3-0.4,0.9-0.4,1.1
			c0,1.1,0.7,2,0.7,3.3c0,1-0.3,1.2-0.4,2.3l-0.1-0.1c0,0.2,0.1,0.9,0.1,1.2c0,1.5,0.8,3.1,1.2,4.7c0.5,1.8,1.8,4.5,2.2,5.7
			c0.3,1,0.3,1.5,0.9,2.6c0.6,1,0.2,2,0.8,3.3c0.3,0.7,1.3,1.5,1.6,2.6c0.5,1.7,1.3,3.3,1.9,5.3c0.1,0.2,0.3,0.8,0.7,0.8
			c0.1,0.6,0.5,0.9,1.1,0.8c0.6,0,0.7-1,0.9-1.6c0.4-0.8,0.5-0.5,1.4-1c0.6-0.3,0.4-2.4,1.4-2.8c0.2-0.1,0.7-0.1,0.7-0.3l0.4-0.1
			l-0.4-2.1c0-1.5,0.9-2.9,0.9-4.9c0-1.3-0.5-2.1-0.5-3.6c0-1.7,1.5-2,2.8-2.4c0.5-0.2,1.3-1.1,1.9-1.8c1.4-1.5,2.7-3.2,4.2-4.8
			c1.2-1.3,3.3-1.7,4.6-3.2c0.7-0.7,0.6-1.6,0.9-2.8c0.2-0.7,1.8-0.8,2.3-2c0.6,0.4,0.6,0.8,1.8,0.8c1.9,0,3.9-0.5,3.9-2.9
			c1.1,0.2,2.3,0.7,2.6,1.9c0.3,1,0.1,2.3,0.7,3.3c0.6,1.1,1.4,1.7,2.4,2.6c0.7,1.3,1.6,2.6,2.1,4.3c0.1,0.4,0.4,0.7,0.4,1.1
			c0,0.9-0.4,1.4-0.4,2.4c0,1.1,0.1,2,1.2,2c2.1,0,2.6-2.4,3.8-3.7c0.4,0.5,0.2,0.8,0.7,1.3c0.1,0.2,0.7,0,1,0.4
			c0.7,1.2-0.5,3.7,0.4,3.7c0,2.6,1.9,4.7,1.9,8.3c0,0.9-0.6,2.8,0,3.1h-0.2h-0.2c-0.2,1.1-0.4,2-0.4,3.1c0,0.2-0.1,0.5,0,0.5
			c0.7,0.5,0.2,0,0.9,0c1.2,0,1.7,2.9,2.2,4.1c0.8,1.9,1,3.6,1.6,5.9c0.8,2.7,2.9,5.1,5.1,5.9c0.4,0.2,0.5,0.7,1.2,0.7
			c0.2,0,0.3-0.3,0.5-0.3c0.3,0,0.4,0,0.9-0.1c-0.4-0.9-0.4-1.3-0.7-2.4c-0.3-1-1.4-1.5-1.4-2.9c0-0.7,0.3-0.7,0.3-1.6
			c0-4.1-4.3-4.6-6.3-6.8c-0.5-0.6-0.6-2-0.9-2.6h0.1c0-2.4-2.5-1.4-2.5-3.9c0-2.2,2.1-2.8,2.1-5.3c0-0.7-0.3-0.8-0.3-1.6
			c0-0.4-0.1-0.9,0.4-0.9c0.8,0,1.7,0.2,1.9,1.1c0,0,0.2,1.1,0.4,1.1c1.2,0.4,2.2,0.5,3.2,1.6c0.9,1,0.1,2.2,1.7,2.2
			c0,1.2,1.5,1.6,2.6,1.6c0.1,0.4,0.2,1.1,0.5,1.2c-0.3,0.2-0.3,0.5-0.3,1.1c0,0.5,0.3,1.6,0.6,1.6c0.3,0,1.7-1.2,1.7-2v-0.9
			c0,0.2,0,0.7,0.2,0.7c0.9,0,0.7-1.3,1.6-1.8c1.9-1.1,2.1-1.9,4.5-2.6c0-1.5,0.9-2.2,0.9-4.1c0-2.7-1.2-6.3-2.9-7.6
			c-1.8-1.3-2.6-3.4-4.2-5.3c-0.3-0.3-0.7-0.5-0.7-1.2c0-3.5,3.6-4.1,5-6.6c1.2,0.7,2.1,0.2,3.5,0.9c-0.1,0.4-0.3,2,0.4,2
			c0.8,0,0.4-1.1,1-1.7c0.5-0.6,2-0.8,2.6-1.1c1.4-0.7,2.8-0.4,3.7-1.4c0,0,0.7-1.5,0.9-1.5c0.7,0,1.1,0.7,1.8,0.7
			c3.4,0,4.2-2.3,6.2-3.6c0.6-0.3,1-0.6,1.1-1.5c1.7,0,2.3-3,2.9-4.6c0.4-1,2.4-4.2,3.5-4.5c0-1.8,1.1-2.6,1.1-5c0-3.5-0.7-4.8-2-7
			c-0.2-0.4-0.2-1.4-0.9-1.8l0.1-0.1h-0.2c0,0-0.1-1.3-0.1-1.6c-0.6-0.1-2-0.9-2-2c0-1,1.2-1.1,1.5-2c0.7-2.2,3.8-2.2,5.3-3.8
			c-0.6-0.9-1.7,0-2.7-0.7c-0.5-0.3-0.8-1-1.6-1c-0.6,0-0.6,1.8-1,1.8c-0.6,0-1.3,0.2-1.9-0.2c-0.9-0.7-0.6-1.5-1.5-2.2
			c-0.3-0.3-1.5-0.6-1.5-1.4c0-1.7,2.1-1.1,3.1-2c0.9-0.7,2.6-2,3.1-3c0.2-0.3,0.4-1.1,1.2-1.1c0.6,0,1.4,1.1,1.4,1.5
			c0,1.3-1.4,1.9-1.4,3.3c2,0,3.7-2.4,6.1-2.4c0.9,0,1.2,0.9,2.3,0.9c-0.4,0.8,0,0.8,0,1.8c0,0.8-0.8,0.7-0.8,1.7
			c0,0.4,0.2,1.4,0.7,1.4c0.2,0,0.5-0.4,1-0.4c0.9,0,2,0.6,2,1.6c0,0.6-0.6,1.1-1.2,1.1v0.8c0.2,0.2,0.3,0.5,0.7,0.6
			c0,0.5,0.4,0.9,0.4,1.4c0,0.2-0.7,1.3-0.7,1.9c0,0.3,0,0.7,0.4,0.8c-0.1,0.4-0.4,0.7-0.4,1.1h1.1c0.4-0.5,0.6-0.5,1.5-0.7
			c0-0.7,1.8-0.8,2.3-1c1-0.3,1.5-1.2,1.5-3.1c0-3.2-1.1-5.1-2.7-6.8c-0.7-0.7-1.4-1.5-1.2-2.8c0.9,0,1.6-0.6,2.2-1.2
			c0.5-0.6,1.8-1.4,2.1-2c1-2.2,1.5-3.5,3.3-5.1l0,0c0,0,2.9,0.8,5.1,0.8c4.2,0,8.1-9.8,11-13.1c1.2-1.3,2.8-4,3.2-6.1
			c0.5-2.4-0.3-3.9,0.8-6.1c0.4-0.8,1.3-2.7,1.3-4.5c0-2.2-3.2-6.5-4.6-5.3c-4.3,3.6-6.6-1.9-6.6-2.4c0-2.3,3.9-4.8,5.5-6.5
			c2.3-2.5,5.3-6.8,8.4-7.7c2.8-0.8,11.5-1.6,13.9-1.6c3,0,4.4,1.6,6.2,1.6h4c1.2-5.4,3.4-8.6,8.4-8.6c1.3,0,1.9-0.4,4.4,0
			c-1.2,1.1-1.8,8.1,6.2-2.8c0.8-0.2,4.6,1.6-1.1,5.7c-2,1.4-3.8,0.7-5.1,2.8c-1.5,2.4-2.9,5.5-5.1,6.9c-1.8,1.1-4.4,3-4.4,6.5
			c0,3,0.9,12.9,2.9,14.7c1.5-2.5,2.5-6.9,5.5-7.7c-0.4-2.3,2.9-2.8,2.9-4.5c0-2.7,2.6-3.4,2.6-4.9c0-1-0.7-2,0-3.7
			c5.9-14.1,11.3-6.5,13.5-6.5c6.5,0,11.1-9.3,16.8-9.4c10.8-0.2,2.2-4.8,2.2-6.1c0-3.5,4.2-2.9,5.1-4.9c0.4-0.8-0.4-2.9,1.1-2.9
			c4.6,0,8.4,6.9,11.7,6.9c1.5,0,1.8-3,2.6-4.1c1.3-1.6,2.4-1.5,4.4-2.2C741.4,51,732.8,48.8,728.7,46.1z"/>
		<path class="st0" d="M720.9,35.1c0.8,0,6.6-0.4,6.6-1.5c0-1.2-2.8-2-3.9-2c-1.2,0-3.4,1.5-3.4,2.7
			C720.1,34.7,720.4,35.1,720.9,35.1z"/>
		<path class="st0" d="M700.2,40.1c0.4,0,0.7-0.4,0.7-0.8c0-0.5-0.4-0.7-0.5-1H698C698.4,39.3,699.2,40.1,700.2,40.1z"/>
		<path class="st0" d="M630.6,14.3c0.5,0,0.6-0.6,0.7-1.1l0,0l0,0c0,0,0-0.1,0-0.1h-0.1l-0.6-0.7c-0.3,0.4-0.6,0.7-0.6,1.2
			C630,14.1,630.3,14.3,630.6,14.3z"/>
		<path class="st0" d="M582.6,18.4c-0.7,0-1.6,0.4-1.6,1.2c0,0.7,0.8,1,1.6,1c0.6,0,1.1-0.2,1.5-0.5c0.1-0.1,0.2-0.3,0.2-0.5
			C584.2,18.6,583.6,18.4,582.6,18.4z"/>
		<path class="st0" d="M584.2,20c0,0-0.1,0.1-0.2,0.1c-0.1,0.2-0.3,0.3-0.4,0.5L584.2,20z"/>
		<path class="st0" d="M547.3,8c0.9,0,1.3-0.5,1.5-1.6h-1.1c-0.3,0.2-0.7,0.6-1.1,0.8C546.7,7.5,547,8,547.3,8z"/>
		<path class="st0" d="M571.6,2.1c0.5,0,0.9-0.6,0.9-1.2c-0.7,0.3-0.9-0.1-2.4,0.2C570.3,1.5,570.7,2.1,571.6,2.1z"/>
		<path class="st0" d="M330.1,105.6c0.4,0,1-0.1,1.4-0.3c0.6-0.4,1.5-1.8,2.6-1.8c0.7,0,1.5,0.1,1.9-0.4c0.6-0.7,0.1-1.6,0.1-2.3V98
			c0-0.7,1.3-0.6,1.3-1.2c0-1.4-0.8-3.3-2.5-3.3h-1.2c-0.7,0-2.2,1-2.2,1.5c0,0.4,0.1,0.6,0.4,1.1c-0.4,0.5-1.7,0.9-2.1,0.9
			c-0.2,0-0.8-0.2-0.8,0.9c0,0.8,0.7,1.3,1.4,1.7c-0.3,2-2.1,2.1-2.1,4.2C328.2,104.7,329.2,105.6,330.1,105.6z"/>
		<path class="st0" d="M334.8,85c0.8,0,1.4-1,1.4-1.9c-0.6,0-1.8,0.4-1.8,0.9C334.4,84.3,334.6,85,334.8,85z"/>
		<path class="st0" d="M337.1,87.3V88c0,0.1-0.5,0.7-0.5,1.1c0,0.3,0.7,0.6,1.1,0.7v0.7c-0.2,0.2-0.3,0.3-0.3,0.6v1.3h0.6
			c-0.1-0.3-0.4-0.6,0-1.2c0.2,0.2,0.7,0.4,1.2,0.4c-0.2,0.7,0,0.8,0,1.6c0,0.6-0.7,1.1-0.7,1.7c0,0.6,0.5,0.6,1.2,0.6
			c0.6,0,1-0.4,1.7-0.4c0.2,0,0.4,0.1,0.7,0.1c-0.1,0.3-0.5,0.5-0.5,1.1c0,0.8,1,1,1.8,0.9v1.2c-0.4,0.8-2,1.5-3.3,1.5
			c0,0.9,0.6,1.3,0.6,2.4c0,1.2-2,1.3-2,2.5c0,0.2,0.2,0.4,0.4,0.4c0.4,0,0.3-0.4,0.7-0.4c0.8,0,1.1,1,2,1c0.5,0,1-0.3,1.3-0.8
			c0,0.2,0.1,0.4,0.1,0.6c0,1.1-1.5,0.7-2.5,1.1c-0.2,0.1-2.4,2.7-2.6,3v0.5h0.5c0.3-0.3,0.5-0.6,1-0.6h1c0-0.7,0.4-1.4,1.2-1.4
			c0.5,0,0.8,0.5,1.3,0.5c1.1,0,3.1-0.7,3.8-0.7h2.9c0.9,0,1.4-0.5,2-1.2V106c-0.4,0-0.7-0.1-1.5-0.3c0.6-1.1,2.3-1.8,2.3-3.3
			c0-0.8-0.7-1.5-1.5-1.5c-0.6,0-0.4-0.1-1,0.3l0.4-0.3c-0.3,0.2-0.4,0.4-0.9,0.6v-0.6c0.2-0.1,0.4-0.3,0.4-0.6
			c0-0.6-0.8-1.1-0.8-1.7c0-2-1.9-2.5-3.1-3.8c-0.9-1-0.7-2.9-2-3.4c-0.6-0.2-0.9,0.2-1.7-0.1c0.1-0.3,0.3-0.6,0.6-0.7
			c0-1.7,2.3-2.7,2-5h-4.3c-0.1-0.2-0.2-0.4-0.2-0.7c0.2-1.1,1.8-1,1.8-2.1c0-0.2-0.4-0.7-0.7-0.7h-2.1c-0.4,0-1.2,0.6-1.2,1.1
			c0,0.4-0.3,0.7-0.3,1.4c-0.5,0-1,0.3-1,1c0,0.2,0.2,0.4,0.4,0.5c0,0.2-0.1,0.5-0.3,0.5c-0.1,0-0.5-0.2-0.5-0.7h-1.2
			C335.5,86.8,336.1,87.1,337.1,87.3z"/>
		<path class="st0" d="M339.6,96.5c-0.4,0.2-0.5,0.6-0.5,1h0.8c0-0.4,0.1-0.7,0.1-1H339.6z"/>
		<path class="st0" d="M320.7,59.2l0.1-0.2c0-2.3-2.7-1.7-2.7-4.1c0-0.2,0.2-0.6,0.4-0.7c-0.7,0-1.1,0.4-1.8,0.4
			c-0.7,0-1.3-0.1-1.3-1.1c-0.3,0.2-0.3,0.2-0.8,0c-0.1,0.3-0.3,0.6-0.3,1.2c-0.7-0.7-1.5,0.2-2.5,0.2c-0.7,0-1.2-0.2-2.3-0.2
			c0,0.2-0.1,0.6,0,0.8c-0.3-0.2-0.4-0.4-1-0.6l-1.8,0.5c-0.4,0-0.7-0.4-1-0.7c-0.2,0.3-0.1,0.5,0,1.1c-0.4,0.1-0.8,0.5-1.3,0.5
			c-0.5,0-1.2-1.1-1.1-1.6c-0.1-0.5-0.4-0.7-0.4-1.2h-0.6c-0.6,0-0.7,0.9-1.3,0.9V55c-0.4-0.2-0.8-0.4-1.5-0.2
			c0.1,0.9,2.8,1.8,3.7,1.8c0,0.2,0.1,0.5,0.3,0.7c-0.8,0.3-2.7,0.7-3.8,0.7c0.7,0.8,2,0,3.1,0.3c-0.1,0.9-0.4,1.4-0.4,2.4
			c-0.2,0-0.4,0.2-0.7,0.4c1.6,0,2.2,1.1,3.2,1.5c2,0.7,3.9,1.5,6.6,1.5c2.5,0,3.9-1.4,5.6-2C318.4,61.8,320.1,60.4,320.7,59.2z"/>
		<path class="st0" d="M194.7,190.5c-0.5-0.2-0.9-1.4-1.7-1.6l-1.1-0.1c-0.1-0.2,0-0.4,0-0.6c-1.7,0-3.5-0.9-4.5-2
			c-0.1-0.2-0.7-1-1.2-1c-2.4,0-3.9-2-7.2-2c-3.3,0-4.8,1.4-6,3.6h0.7c0.7-0.8,2.7-2,4.1-2c0.4,0,0.7-0.1,1,0.3
			c-0.2,0.2-0.3,0.6,0.1,0.9h2.1c1,0,1.5,1.2,2.6,1.2c0.6,0,1-0.2,1.5,0.1c0.3,0.2,0.2,0.7,0.8,0.7c0.2,1.2,1.4,1.1,2.5,1.7
			c-0.1,0.4-0.4,0.7-0.7,0.7v0.5c1.4,0,2.6,0.6,4.2,0.6C192.8,191.5,194.2,191.5,194.7,190.5z"/>
		<path class="st0" d="M176.6,186.3v0.6c-0.2,0-0.7,0.2-0.7,0.7c0,0.2,1,0,1,0c0.2-0.4,0.1-0.8,0-1.2l-0.2-0.1H176.6z"/>
		<path class="st0" d="M186.9,195c0,0.7,0.6,1.2,1.2,1.2c0.9,0,1.5-0.3,2.4-0.5c-0.1-0.3-0.2-0.6-0.7-0.7l0.1,0.2
			c-0.4-0.2-1.5-0.7-2.3-0.7C187.3,194.5,186.9,194.6,186.9,195z"/>
		<path class="st0" d="M210.7,194.3c-0.2,0-0.8,0.1-0.8,0.5c0,0.8,0.9,0.9,1.8,0.9c0.4,0,0.9,0,1.2-0.5
			C212.6,194.7,210.9,194.3,210.7,194.3z"/>
		<path class="st0" d="M194.8,194.5c0,0.5,0.4,1.2,0.9,1.3c0-0.2,0.1-0.4,0.1-0.7c0.4,0.3,0.4,0,0.9,0c0.9,0,2.6-0.2,3.3,0.3
			c0.4,0.2,0.2,1.1,0.9,1.1c0.8,0,0.7-1.5,1.7-1.5c0.4,0,0.3,0.4,0.7,0.4c0.5,0,0.8-0.3,1.3-0.7h2.7c-0.5-0.8-1.2-1.1-2-1.8l0.4,0.3
			c-1.3-0.7-1.8-2.1-4.1-2.1c-0.8,0-1.2,0.3-2.2,0.3c-0.7,0-1.1-0.6-1.8-0.6c-0.2,0-0.6,0.3-0.6,0.6c0,0.5,0.5,0.9,1,0.9
			c0,0.6,0.1,1.2,0.5,1.7c-0.9,0.5-1.6,0.1-3.3,0.1C195.1,194.2,195,194.5,194.8,194.5z"/>
		<path class="st0" d="M221.2,214.8c0,0.2,0.4,0,0.7,0c0.4,0,0.7-0.7,0.9-1.1v-0.6h-0.7C221.6,213.1,221.2,213.9,221.2,214.8z"/>
		<path class="st0" d="M245.4,237.7c-0.9,0-1.5,0.8-1.5,2c0,0.7,1.9,2.2,3,2.2c0.9,0,2-1.9,2-2.6c0-0.2-0.2-0.7-0.5-0.7
			c-0.4,0-1,0.9-1.2-0.2c-0.6,0-1.1-0.4-1.5-0.7C245.7,237.8,245.5,237.7,245.4,237.7z"/>
		<path class="st0" d="M196.1,347.3h0.7v-2.4c0.1-0.2,0.3-0.4,0.3-0.9c0-0.6-0.2-1.3-0.9-1.3c-0.4,0-0.9,2.4-0.9,2.4v1.1
			C195.3,346.4,195.6,347.2,196.1,347.3z"/>
		<path class="st0" d="M275.6,249.9c-1-0.3-1.7,0.2-2.7-0.2c-1.2-0.4-3.4-2.7-4.1-3.9c-0.8-0.4-2-1-3.4-1.3l-2.8,0.4
			c-1.5,0-1.8-1.3-3.3-1.3c-0.7,0-1,0.6-1.6,0.9h-0.5c0-0.7,0.1-1.3-0.1-2c-0.1-0.7-0.8-0.5-1.4-0.9c-0.9-0.6-3.6-2.2-4.9-2.2
			c-1.2,0-2.1,1.7-2.8,3c-0.2,0.4-0.5,1-0.8,1c-0.2,0-0.4-0.6-0.4-0.9H245c-0.1-0.8-0.5-1.5-1.2-1.9c-0.4-0.2-1-0.1-1-0.9
			c0-2.4,2.1-3.3,3.3-4.9c0-0.8-0.9-0.8-1.3-1.6c-0.4-0.9-1.3-3.5-1.3-4.5c-1.2-0.3-2.8-3-3.9-3H239v-0.2c-0.7,0-1.9-0.7-2.4-0.9
			h-1.9c-2-0.4-5-0.2-5.6-2.4c-0.4,0-0.9-0.2-1.1-0.5c-0.9-2-1.5-1.8-2.9-3.3h-2c-0.3-1.1-0.1-2.3-1-2.6c-1.1-0.4-2.6-0.7-3.1-1.8
			v-0.7c0.2,0.2,0.8,0.1,1.1-0.2c0,0-1.3-0.3-2-0.3c-0.2,0.2-1.8,0.2-1.8,0.4c-0.4,1-1.2,1-2.3,1.1c-0.6,0-1.5-0.2-1.5-0.9h-3.9
			c-0.4-0.1-0.9-0.7-0.9-1.5c-1.1-0.3-2.7-0.7-3-2l-1.3,0c0,1,1.1,0.6,1.4,1.5h-1.7c-0.7,0.5-1.8,0.3-1.8,1.5c0,1,0.9,1.6,0.9,2.5
			c0,0.3-0.4,1.3-0.7,1.3c-0.8,0-1.2-1.6-1.2-2.5c0-0.7,0.4-2.1,0.7-3.3c0.3,0,0.7-0.3,0.7-1c0-0.1-0.3-1-0.7-1
			c-0.9,0-1.2,1.2-2.1,1.5c-1.8,0.7-3,1-4.8,1.6c-1,0.3-1.6,0.6-2,1.9c-0.1,0.7-0.2,1.7-0.7,2c-0.4,0.3-1.2,0.6-1.2,1.4
			c-0.1,0-0.4,0.2-0.4,0.4v0.5c-0.5,0.2-0.3,0.2-0.9,0c-0.1,0.2-0.3,0.4-0.5,0.6c0.3-0.3,0.5-0.6,0.5-0.6c-1.2-1-2.1-2.6-4.1-2.6
			c-1.8,0-2.7,1.6-4.6,1.6c-1.2,0-1.2-1.5-2-2c-1.2-0.6-2.7-1.4-2.7-3.2v-5c0.4-0.8,0.5-2.8,0.5-3.6v-1.2c-1.3-0.3-1.7-1.7-3.5-1.7
			c-2.6,0-4.5,0.5-6.9,0.5c-0.4,0-0.9-0.3-0.9-0.9v-0.4c0.4-0.5,1.3-0.8,1.3-1.6v-3.9h0.6v0.6c0.4-0.8,0.9-1.4,0.9-2.7
			c0-1.5,1.2-3,1.2-4.2v-0.7c-0.4,0-1.4-0.1-1.7-0.2c-0.3-0.2-0.8-0.2-1.5-0.2c-2,0-4.4,0.8-4.4,3.2c0,1.2-1.2,2.3-1.5,3.3
			c-0.1,0.3-0.4,1.3-1,1.3c-0.3,0-0.6-0.5-1.4-0.5c-1.5,0-2.6,1.2-4,1.2c-0.6,0-0.6-0.7-1.2-1c-1.9-0.6-1.9-2-3.2-3.5
			c-0.5-0.6-1.5-1.7-1.8-2.4c-0.3-0.7,0.1-1.2-0.2-1.9c-0.1-0.3-0.7-1-0.6-1.6v-4.6c0.2-1.2,0.7-1.8,0.7-3.3c0-0.5-0.1-0.8-0.3-1.3
			l0-0.2c0.1,0,0.1,0,0.2,0c0-0.2-0.4-0.6-0.4-0.8c0-2.5,0.9-4.7,2.6-5.3c0.7-0.3,1.4,0.2,2-0.4c0.9-1,1.9-3,4-3
			c0.8,0,1.2,0.8,2,0.8c0.4,0,0.7-0.6,1.1-0.6c1.5,0,3.2,2.8,5.3,1.6c-0.9-0.7-0.2-1.4-0.1-2.6c-0.4,0.2-0.3,0.2-1,0
			c1.2-0.5,2.8-0.3,3.9-0.7c0,0.3,0.3,0.7,0.5,0.7c0.6,0,0.8-0.7,1.8-0.7c1.8,0,2.6,1.9,3.9,1.9c0.7,0,1-1.1,1.6-1.1
			c3.2,0,2.3,5,3.5,7.6c0.6,1.3,1.3,1.7,2.2,3c0.4,0.7,0.4,2,1.5,2c1.2,0,1.6-1.5,1.6-3.3c0-1.5-0.7-2.3-0.9-3.3v-0.4
			c0-2.6-2-3.4-2-6.1c0-5.9,4.4-7.5,7.8-9.6l-0.2-0.2c0.4-0.5,0.4-0.7,1.2-1.1c0.6-0.2,1-0.8,1.8-1c0.4-0.1,0.6-0.6,0.9-0.9
			l-0.9-0.6v-0.7c0.7,0,1,0.1,1.1-0.8c-0.4-0.1-0.7-0.1-1-0.7c0.4,0,1-0.3,1-1v-0.8h-0.5c-0.4-0.5,0-0.4,0-1.2
			c0-0.8-0.4-2.3-0.4-2.9c0,0-0.1-0.6,0.1-1.1c0.2,0.8,0.8,2.1,0.8,2.7v0.9c0,0.2,0.2,0.5,0.3,0.5c0.2,0,1.7-2.9,1.7-3.3
			c0-0.7-0.5-0.9-0.7-1.6l0.4-0.4c0.1,0.2,0.3,0.6,0.5,0.6c0.5,0,1.9-2.9,2-3.5c0,0-0.7-0.6-0.7-1c0-0.2,0.2-0.5,0.4-0.6
			c0.2,0,0.4,0.1,0.7,0.1c1,0,1.8,0,2.8-0.4c-0.5-0.4-1.2,0-1.8,0h-0.7c1.5-1.1,3.9-0.6,5.4-1.8c0.3,0.3,1.5,0,2.4-0.2v-0.6
			c0,0-0.7,0.6-0.8,0.6c-0.4,0-0.7-1.1-0.7-1.5c-0.2-0.1-0.3-0.5-0.3-0.7c0-3.1,2.5-4,3.7-5.3c0.7-0.4,0.8,0,1.7,0
			c1,0,1.8-0.5,2.3-1.4c-0.1-0.2-0.2-0.4-0.3-0.6l0-0.2v-0.2c0.1,0.1,0.5,0,0.7,0c0.4,0,2.3,0.3,2.9-0.2c0.7-0.5,0.7-1.5,1.8-1.6
			c0,1.1-0.1,1.2,1.1,1.2c-1.7,0.2-4.3,1.5-4.3,3.3c0,0.7,1,2,1.5,2c0.6,0,1.9-2.2,3.4-2.7c0.4-0.1,5.4-2.2,5.4-2.9
			c0-0.9-1.9-1-2.3-1c-2.1,0-5.5-2.3-5.5-4.3c0-0.5,0.6-1.1,0.7-2c-0.4,0-1.2-0.2-1.8-0.2c0.4-0.6,3.1-1.1,3.1-2.7
			c0-1.5-2.3-1.2-3.8-1.2c-3.2,0-4.7,2.5-6.9,2.8c0.9-2.2,2.5-1.5,4.1-3.3c1-1.1,0.3-1.9,1.8-2.4c2.8-1,4.4-0.4,7.2-0.4
			c3.7,0,5.7,1.3,7.8-1.8c1.1-1.5,6.9-1.9,6.9-4.5c0-1.9-0.6-2.7-1.2-3.9c-0.6,0,0.3-0.8-0.6-1.2v-1c-1.7,1.1-5.2,2.4-6.9,2.4
			c-0.2,0-0.7-0.2-0.7-0.3c1.5-0.9,5.5-1.5,6-3.1c0.1-0.4-0.5-0.5-0.6-0.9c-1.8,0.2-5.5-0.7-5.5-3.4v-0.3c-1.6,0-2.6-1.1-3.5-2
			c0.4-0.2,1.1-0.5,1.1-1.5c0-0.8-0.7-1.5-0.5-2.3c-0.7-0.2-3-1.9-2.4-3.4c0.8-1.8-2.3-2.3-2.6-4.5c-0.2,0-0.9-0.7-1.2-1.1
			c-0.5,0.4-1.7,1.1-1.7,2.3c0,1.2-2.3,4.2-4.2,4.2c-1.3,0-1.5-1.8-2.4-1.8c-1.2,0-1.8-4-2-5.7c-0.3-2.3-4.2-0.7-4.2-3.7
			c-2-0.3-2.5-3.1-4.5-3.1c-0.9,0-0.9,0.8-2,0.8c-2.1,0-3.4-1.4-5.5-1.4c-1.1,0-2.2,0.6-2.2,2c0,0.8,2.6,2,0.2,3.7
			c-0.9,0.7,1.3,2.5,1.5,3.7c0.3,2.4-1.8,3-2.8,3.4c1.7,3.2,4.2,4.2,4.2,9.6c0,1.5-4.4,5.1-5.8,5.5c2.5,1.4,1.5,5.9,2.6,7.3
			c-0.3,0.5-1.2,1.1-1.3,2c-0.9,0-1.5,1.6-2.2,1c-1.8-1.6-4.4-4.2-4.4-6.5c0-2.6,0.4-4.6-1.6-6.1h-4.7c-2.7-2.2-5.8-3.5-9-4.9
			c-0.6-0.2-2.3-1.6-3.3-1.6c-1.1,0-1.6,1.2-2.7,1.2c0-2-1.2-6.5-2.8-6.5c-0.7,0-1.1,0.6-1.8,0.8c0.3-1,0-1.3,0-3.7
			c0-3.3,0.9-5.2,2.6-7.1c0.6-0.6,1.8-3.8,2.4-4.1c1.2-0.5,3.4,0.3,3.4-1.6c0-1.2-2.8-1.3-3.8-2c0.7,0.2-1.6-1.4,4.4,0.6
			c1.5,0.5,0.6-1.7,1.5-1.7h1.6c1.8,0,2.7-2,3.9-3v-1.2c-2.5-0.6-5-0.2-6.1-2.7h1.3c0.9,0.7,1.9,1.9,3.3,1.9c1.2,0,3.3-1.7,3.3-2.7
			c0-0.3-1.1-1.8-0.5-1.8c1.6,0,2.2,1.6,3.2,1.6c0.7,0,1.1-0.7,2.4-0.7c-0.4-0.5,0-1.9,0.9-0.4c0.5,0.8,4.2-2.8,4.2-3.8
			c0-0.7-1.7-1.5-1.7-2c0-0.6-1-1.9,1.3-3.1c0.3-0.7,0-0.6,0-2c-2.3,0-1.8-2-4.8-2c-0.7-0.1-1.2-0.6-1.8-0.6c-0.9,0-1.8,0.7-1.8,1.6
			c0,1.1,1.1,1.5,1.1,2.2c0,0.8-1.7,0.8-2.1,1.6c-0.6,1.4-0.4,2.5-1.4,4c-1.6,2.3-3.8-1.5-3.8-2.4c0-1.1,1.2-0.8,1.2-2
			c0-0.6-2.1-2.9-2.7-2.9c-2.1,0-0.7,3.5-2.9,3.5c0-1.4-0.1-2.4-1.7-3.2c0.2-0.4,0.4-0.7,0.7-1c-1.2-0.8-2.8,0-3.7-1.2
			c0.5-0.3,1.8-0.9,1.8-2c0-1.5-2.2-1.5-2.2-2.7c-0.1-2.5-1.7-4.2-4.5-4.2c-1.4,0-0.8,1-0.7,1.8c-0.9,0.2-2,0-2,1.2
			c0,0.8,0.6,1.2,0.6,2c0,0.8-0.9,0.7-0.9,1.9c0,2.7,5,1.1,5,3.8c0,0.5-0.6,2.4-0.6,2.4c0.5-0.3,1-0.5,1.5-0.8
			c0.9,3.3-3.9,1.7-3.9,5.7c-2.4,0.7-0.5-2-1.1-2.8c-0.2-0.4-2.2-1-3.3-1c-1.3,0-1.8,0.9-1.8,2.6c-1.2-0.2-2,0-6.2,0
			c-3.9,0-8.5-1.6-9.5-4.9c-1.3,0.4-5.7,0.5-5.7,2.3c0,0.6,0.3,0.9,0.9,0.9c1.2,0,3.1-0.6,4-1.3c0.3,2.7-3.4,0.5-3.4,3.3
			c0,0.6,0.8,2.4,0.4,2.4c-1.5,0-1.8-2-3-2.7l-1.1-0.6h-4.7c-1.5,0-2.4,0.7-4,0.7c-2.9,0.2-2.9-1-2.9-1.3c0-0.7,2.2-0.4,2.7-0.9
			c-2-3.2-1.7-2.6-5.8-2.3c-4.4,0.4-6.7-3.7-11.1-3.7c-1.4,0-2,1.1-3.1,1.1c-0.8,0-1.6-1.5-1.8-2.2c-1.4,0.3-1.4,2.1-2.9,2.1
			c-1.4,0-3.4-3.7-3.8-3.7c-1.5,0-0.9,2.4-2.5,2.4c-0.6,0-1.1-0.5-1.3-1.1c-2.3,0.6-3.1,0.7-5.1,1.6C73,41.4,71,43,70.4,42.3
			c-1.9-2-1.6,0.5-2.3,0.6C63.4,43.1,66.7,45,66,45c-1.8,0-5.1-0.4-8.1-2.4c-0.1-0.1-1-0.8-1-1.1c-0.5,0.3-0.1,0.2-0.9,0l0,0.1
			C54.2,41,53.5,40,51.4,40c-1.3,0-2.1,0.6-3.4,0.6c-2.3,0-6.8-0.4-8.3-2h-5.6c-1-0.6-1.3-1-2.2-1.6h-3.6c-0.7-0.2-0.9-0.5-1.7-0.8
			c-0.4,0.7-1.1,1.2-1.8,1.1c0.2-0.4,0.3-0.6,0.7-1.1c-0.9-0.3-1.3-1.2-2.3-1.2c-1.2,0-2,1.8-3.1,2.3c-1,0.4-1.7-0.2-2.7,0.2
			c-3.9,1.4-7.2,4.5-9.3,7.7h-4c-0.1,0.2-1.1,2.3-1.1,2.3c0,0.6,3,1.2,3.9,1.8c0.7,0.5,1.6,2.9,2.2,3.2c2.1,1.1,3.7,1.3,4.4,3.9
			c-0.9,0.2-1,0-2,0c-1.5,0-2.7,0.7-2.7-1.9H7.2c-1.8,1.3-4.8,2.4-6.6,3.6c0.4,0.8,1,1.3,2.2,1.3c-0.1,0.2-0.2,0.6-0.2,0.8
			c0,0.7,0.9,1.1,0.9,2.3h3.9C8.5,62.1,9,63,10.5,63c1.5,0,2-1.4,3.1-1.4c0.4,0,0.4-0.1,1.1,0v1.2c-0.5-0.3-0.4-0.4-1.1,0.1
			c0.1,0.2,1.2,1.4,1.2,2c0,1.1-5,3.3-5.6,3.3c-1.5,0-5.5,2-5.5,4.5c0,1.3,2.3,1.7,2.9,3.5c-0.4,0-0.7,0.2-1.1,0.2
			c0.5,0.7,3.9,3.7,4.9,3.7c0.3,0,0.9-1.4,1.5-1.4c0.7,0,0.6,1,0.6,1.2v1.6c0,0.6,0.3,2,0.7,2c0.3,0,0.7-0.7,1.1-0.7h0.9
			c0-0.3-0.1-0.7,0.1-1.2c1.2,1.1,1.8,1.5,3.5,2.3c0.1-0.6,0.3-0.8,0.5-1.5c0.7,0.2,1.1,0.7,2,0.7c1.1,0,1.6-0.6,2.7-1.1h1.1
			c-1.8,1.2-1.8,3.7-3.4,4.9c-1.8,1.3-4.6,2.7-5.8,4.5c-0.9,1.2-2.3,0.4-3.5,1.2c-0.8,0.5-1.5,2.1-2.3,2.7c-1.2,0.8-2.6,0.2-3.5,1.7
			c3.1,1,4.5-2.4,7.2-2.9c2.1-0.3,4.7-1.2,5.8-2.4c1.2-1.3,3.7-2.1,4.8-3.7c0.6-0.8,0.9-1.6,1.8-2c1.7-0.7,3.3-1.4,3.3-3.3v-1.2
			c0-2.7,4.8-7.2,6.6-7.2h0.9c0,0.2-0.1,0.6-0.1,0.8c-2.1,0.7-3.2,2.1-3.2,3.9c0,0.4-0.3,0.4,0.1,1c-0.1,0.1-0.6,0.2-0.6,0.7
			c0,0.3,0.4,0.6,0.7,0.6c1.7,0,6.4-2.9,7.3-4.6c-0.4-0.3-0.5-0.6-0.7-1.1c0.7-0.4,2.1-0.8,3-1.2c1.2,2.9,4.5,3.2,6.9,4.1h4
			c2.2,1.4,4.7,1.3,6.6,2.9c0.9,0.7,1.9,3.1,3.4,3.1c0.6,0,0.9-0.8,1.1-1.5c0.6,0.7,1.1,1.2,2.2,1.2c0.3-0.6,0.9,0.2,1.3,0.6
			c-0.2,0.4-0.7,0.7-0.7,1.7c0,0.5,0.8,1.2,1.1,1.2c1,0,0.6-1,2-1.1v1.1c0,0.7-1.1,0.7-1.1,1.4c0,0.5,0.3,1.2,1.3,1.2
			c1.3,0,2.2,0,2.2,1.2v1.2c0,0.9,1.8,2.4,3.1,2.4c0.4,0,0.4-0.1,0.7-0.1c0-0.6,1-0.7,1-1.6c0-1.6-1-2-1.7-2.7
			c0.7,0.6,1.7,1.1,1.7,2.7c0,0.9-1,1.1-1,1.6c0,0.4,0.4,0.7,0.4,1.1c0,1.1-0.3,3.3,0.7,3.6c0.6,0.2,1.2,0.2,1.6,0.6
			c0.7,0.7-0.1,1.8,0.7,2.4c0,0,1.9,1.3,2,1.5c0.5,1.9,0.7,4.1,3.1,4.1c0.4,1.6,2.9,0.6,3.5,2.7c0.2,0.8,2.1,1,2.8,1.8
			c0.1,0.2,0.5,0.3,0.8,0.5v0v0c0.3,0.8,1,1.1,1,1.9c0,0.7-0.7,1.7-1,2.2c-0.4-0.7-1-1.4-2.1-1.4c-0.3,0-1.1,0.1-1.1,0.6
			c0,1.8,1.8,2.5,1.8,4.3c0,2.5-1.9,7.2-1.2,9.1c0.7,2.1-0.1,5.1,0.7,6.8c-0.4,0.3-1.1,0.8-0.7,1.5c1.3,2.4,2.9,6,4.4,6.3
			c-0.4,3.3,1.7,4.3,2.7,7.2c0.2,0.6,0,1.6,0.6,1.8c2.6,1.1,6.4,2.9,7.5,5.3h-0.1v0.6c0.5,1.9,1.2,2.4,1.8,3.8
			c0.4,1,0.4,3.3,1.3,3.9c1.3,0.9,2.5,2.7,3.6,4.4c0.6,1-1.1,0.7-1.5,0.7c0.7,1.2,2.3,1,3.4,2.1c0.7,0.8,1.3,1.7,2.1,2.6v2.1
			c0.2,0.4,0.3,0.4,0.7,0.7c0.8,0.6,1.5,2.5,2.8,2.5c0.1,0.3,1,1.7,1.2,1.7c0.2,0,0.5-0.8,0.5-1.2c0-0.6-0.9-2-1.5-1.4
			c-1.3-1-1.8-3.1-2.3-5.1c-0.5-1.7-2-2.6-2.5-4.5c-0.4-1.4-0.5-2.2-1.5-3.3c-0.7-0.8-1.7-0.8-2.2-2c-0.6-1.4-1.3-2.4-1.3-4.1
			c0-0.2-0.1-0.7,0.1-1.1c1,1.1,2.1,1,3.4,1.6c0.6,0.3,0.4,2.1,1.1,2.9c0.7,0.7,0.4,2.1,1.1,2.9c0.8,0.9,1.5,1.8,2.5,2.8
			c0.2-0.2,0.1-0.2,0.8,0c0,2,2.3,2.1,2.9,3.6c0.4,0.9-0.1,1.7,0.4,2.4c0.7,0.8,1.9,1.1,2.6,2c1.6,1.8,4.1,4.2,5,7.1
			c0.1,0.6,0.7,0.8,0.7,1.9c0,0.9-0.7,1.4-0.7,2.3c0,0.7,0.4,1.6,1.1,1.6c0.2,1.1,2.5,1.6,3.4,2.6c0.2,0.2,0.4,0.3,0.8,0.6
			c0.9,0.5,1.5,0.3,2.4,0.8c1,0.6,1.2,1.5,2.3,1.9c0.8,0.2,1.3-0.2,2.1,0.2c0.7,0.4,3.2,2.4,4.1,2.4c0.6,0,1.1-0.2,1.7,0.2
			c0.3,0.2,0.9,0.7,1.5,0.7c1.2,0,1.5-1.6,2.8-1.6c0.6,0,1,0.3,1.6,0.7h0.4c2,1.1,2.3,2.9,4.5,4.2c1.5,0.8,2.5,0.4,3.9,1.1
			c0.9,0.5,1.7,1.4,3.1,1.4c0.5,0,0.9-0.4,1.4-0.4h0.4c0.4,2,1.7,2.7,2.8,4c0.4,0.4,0.7,0.6,0.9,1.4c0.4,1.2-0.4,2.4,0.7,3.2h0.7
			c-0.1-0.2-0.1-0.5,0-0.7c0.1,0,2.5,1.7,2.8,2.2c0.3,0.7,0.3,1.5,1.3,1.7c0,0.2,0.2,0.5,0.4,0.5c0.5,0,1.7-0.5,2.2,0.1
			c0.6,0.6,1.3,2.2,2.5,2.2c0.6,0,0.9-0.4,1.1-1.2c-0.2-0.1-0.6-0.4-0.6-0.7c0-0.5,2-2.1,2.6-2.1c0.8,0,1,1.1,1.8,1.5
			c-0.1,0.3-0.4,0.5-0.4,0.8c0,0.2,0.7,0.5,0.8,0.6c0,0,0.1,0,0.2-0.1c-0.1,0.2-0.1,0.3-0.1,0.5c0,1.5,1.3,1.2,1.3,2.9
			c0,0.8-0.4,1.1-0.4,2.1c0,0.7,0.4,1.2,0.4,1.8v0.4l-0.3,0.6c0,0.2,0.4,0.7,0.7,0.8c-0.4,2.2-2.3,1.6-3.1,3.4
			c-0.6,1.3-1.1,3.5-3.1,3.5c0.3,3.6-1.5,3.3-1.5,5.1c0,1.1,0.1,2.8,1.2,2.8c0.5,0,0.4-0.4,1.1,0.1c-0.3,1.3-1.6,1.6-2.3,2.9
			c-0.3,0.3-0.8,1.5-0.8,2.5c0,1.5,1,3.1,1.8,4c0.3,0.3,0.9,0.2,1.1,0.6c0.2,0.6,0.4,1.7,0.9,2.3c0.2,0.2,0.7,0.1,0.9,0.6
			c0.7,1.6,1.1,2.6,1.6,4.5c0.5,1.8,2,3.3,2.6,5.2c0.3,1.1,1.4,1.8,1.4,3.1c0,1-0.3,1.9,0.3,2.5c1.3,1.5,2.3,2.6,4.4,3.3
			c1,0.3,1.5,0.7,2.3,1.6c0.8,0.9,1.6,0.7,2.7,1.3c1.3,0.7,2.5,2,3.1,3.9c0.2,0.9,0.6,5.7,0.6,6.5c0,1.3-0.7,3.5-0.7,4.7v3.6
			c-0.1,0.8-0.5,2.3-0.5,2.9v0.7c0,2.8-1.7,4.8-1.7,7.9c0,1.3-0.8,2.4-0.4,3.9l0.1,6.1c-0.4,2-0.4,3.3-0.9,5.2
			c-0.1,0.3-0.4,0.3-0.7,0.6c-0.4,0.6-0.5,1.7-0.8,2.3c-0.7,1.1-1.7,3-1.7,4.9c0,0.6,0.1,2.9,0.4,2.9c0,0,0.4,0.4,0.4,0.9
			c0,0.2-0.2,0.5-0.7,0.5c-0.2,1.5-0.7,2.1-0.7,3.7c0,0.9,0.4,2.8,1,2.8c0.5,0,0.6-0.7,1.1-0.9c0.2-0.1,0.4,0,0.7,0v1.2l-2.4,12.1
			c-1.1,0-0.6-1.5-1.9-1.5c-0.4,0-0.7,0.4-0.7,0.9h-0.1v0.8c0.1,0.9,1,2.2,1,2.8c0,1.3-1.7,1.9-1.7,3.3c0,1.4,1.1,4.2,1.1,6v1.1
			c0,1.7,2,1.4,2,3.4c0,0.5-0.3,1-0.5,1.4c0.2,0.2,0.4,0.3,0.6,0.4c-0.1,0.7-1.4,0.7-1.4,1.4c0,0.2,0.4,0.6,0.7,0.8
			c0.9,1.1,1.5,2.2,3.6,2.2c0.1,0.4,0.2,1.1,0.8,1.1h1.4c0,1.5,1.6,1.5,2.7,1.9c1.2,0.4,0.6,2.6,2.3,2.6h2c0.2,0,0.5-0.3,0.7-0.3
			h0.8c0.7,0,2.5-1.5,3.6-1.5c0.4,0,0.9,0.2,1.2-0.2c-2-1.1-3.9-1.8-5.6-3.6c-0.9-1-0.9-4.8-2.2-5.6c-0.4-0.1-1.1-1.1-1.1-1.9
			c0-1.5,0.4-2.7,1.2-3.7c0.7-0.7,1.8-0.2,2.3-1.4c0.4-1.1,0.2-2.1,0.8-2.8c1-1.1,2.8-1.4,2.8-3.7c0-2.5-3.3-1.4-3.3-4.6
			c0-1.4,1-2.5,2.2-2.9c0.5-0.1,1.8-0.2,2-1.1c0.4-2,0.4-3.5,1.8-5c-0.4-0.2-0.8-0.3-0.8-1.2c0.7,0,1,0.7,1.9,0.7
			c0.2,0,0.7-0.6,0.7-1.1c0-0.4-0.4-0.5-0.7-0.8c-0.2,0.1-0.7,0.6-1,0.6c-0.7,0-1.5-2.1-1.5-3.3c0-0.4,0.2-1,0.7-1
			c1.5,0,1.8,1.1,3.3,1.1c0.5,0,1.7-0.6,1.7-1v-0.8c0.5-1.1-0.2-3.6,0.7-4.6c0.7-0.7,3.1,0.1,4.2-0.2c1.8-0.7,3.3-0.3,4.5-1.6
			c0.7-0.8,1.2-1.3,1.9-2.5c0.4-0.6,0.4-1.2,0.4-2.2c0-0.9-1.2-0.9-1.4-1.8c-0.3-1-0.3-1.9-0.9-2.5c-0.2-0.2-1.3-0.6-1.3-1.4
			c0-0.3,0.4-0.4,0.6-0.4c1.1,0,2,1,3.1,1c0.5,0,2.1,0.9,3.3,0.9c3.4,0,3.9-4.1,5.4-6.5c1.2-2.1,2.7-2.4,4-4.6
			c0.6-1.1,0.5-1.6,1-2.7v0.1c0.7-1.7,1.5-3.1,2.9-3.9v-3.8c0-1.5-0.1-2.7,0.8-3.8c0.6-0.6,1.5-0.6,2.1-1.7c1.3-2.3,3.1-1.1,4.9-3.1
			c0.2-0.2,0.3-0.6,0.7-0.9c1.1-0.6,2.2-0.5,3.6-0.5c1.2,0,2.8-1.1,3.2-2.1c0.1-0.3,0.1-1.3,0.4-1.8c1.1-1.6,1.5-2.4,2.6-4.3
			c0.1-0.3,0.4-2,0.4-2.8c0-0.7,0.7-1.5,0.9-1.9c0.1-0.2,0.4-0.6,0.4-1c0-1.1,0.5-2.4,0.5-3.9c0-2-1.1-4.6,0-5.8
			c0.7-0.8,1.5-1,2.3-2.2c0.4-0.7,0.8-0.9,1.2-1.7c2-3.3,4.9-4.9,4.9-11C277.4,252.1,277,250.4,275.6,249.9z"/>
		<path class="st0" d="M186.2,178.7c0,0.7,0,1.5,0.7,1.5c0.1,0,0.4-0.2,0.4-0.4c0-0.6-0.2-1.1-0.8-1.1
			C186.4,178.7,186.2,178.6,186.2,178.7z"/>
		<path class="st0" d="M186.1,174c-0.4,0-0.9,0.3-1,0.7c0.4,0,1.2,0.1,1.9,0C186.9,174.4,186.6,174,186.1,174z"/>
		<path class="st0" d="M188.8,175.6l-0.4-0.6C188.3,175.2,188.5,175.7,188.8,175.6z"/>
		<path class="st0" d="M197.2,188v-0.7c-0.3,0.5-0.9,0.9-1.5,0.7v0.5c0,0.1,0.2,0,0.3,0C196.4,188.4,196.9,188.3,197.2,188z"/>
		<path class="st0" d="M73.7,96c0.4,0,0.6-0.2,0.6-0.8c0-1.8-2-2-1.8-4.2c-1.5-0.3-1.9-0.3-1.9,1.6c0.9-0.7,0.4-0.2,1.6,0
			c-0.2,0.4,0,1.1,0,1.6C72.2,94.2,73,96,73.7,96z"/>
		<path class="st0" d="M68.4,87.8c-0.1,0.1-0.7,0.2-0.7,0c-0.4-1.3,0-1.3,0-3.4c-1,0.7-0.4,0-1.7,0c-0.3,0-0.9,0.2-0.9,0.8
			c0,1.2,0.9,2.3,2,2.4c0,1.3,0.3,2.3,1.2,3.3C69,90.1,68.3,89,68.4,87.8z"/>
		<path class="st0" d="M143.5,43.4c-0.3,0.1-1.6-0.2-1.6,0.4c0,0.2,5.4,2.4,6.4,2.4c0.8,0,1.1-0.8,1.8-1.3c-0.4-1.1-3.4-4.2-4.5-4.2
			C144,40.8,144.3,43.1,143.5,43.4z"/>
		<path class="st0" d="M178.9,62.8c-0.4-0.3-0.1-0.9-0.5-1.5c-1.3-2-3.7-1.1-5.2-3.3c-0.2,0.2-0.4,0.3-0.7,0.7
			c-0.4-0.8-0.7-1.1-1.1-2.3c-2,0.2-2.4,3.5-2.4,4.9v1.2c0,0.5-0.4,0.7-0.7,1.1c-0.1,0.4-1,0.2-1.1,1.6c0.6-0.1,2-0.3,3.1,0
			c-0.1,0.8-0.4,1.6,0.5,1.6c0.4,0,0.4-0.2,0.6-0.6c1,0.5,3.4-1.2,3.4-3c0.4,0.2,2.8,2,2.8,2h2c1,0,1.6-0.3,2.4-0.9
			C181.4,63.4,180.1,63.8,178.9,62.8z"/>
		<path class="st0" d="M176.3,67.4c-0.1,0.5-1,1.2-1.6,2v1.1c1.2-0.2,3-1.8,3.7-2.8C177.5,67.4,177.8,67.4,176.3,67.4z"/>
		<path class="st0" d="M182.5,72.2c0.7,0,0.9-1.1,1.3-1.8c-0.7-1-2.4-0.9-2.4,0.6C181.5,70.9,182.4,72.2,182.5,72.2z"/>
		<path class="st0" d="M185.8,66c0.7,0.7,0.9,0.7,1.7,0C186.6,65.5,186.6,64.9,185.8,66z"/>
		<path class="st0" d="M175.1,57.3c-0.5-0.7-0.5-1.8-1.5-1.3C173.6,56.6,174.1,57.2,175.1,57.3z"/>
		<path class="st0" d="M233.4,106.3c0-0.3-0.2-0.8-0.5-0.8c-1.2,0-1.6,1.4-2.2,2.4c-1.1,1.9-1.9,5.5-3.9,6.7
			c0.1,0.2,0.4,0.4,0.6,0.4v0.5c0,0.1-1.3,1.2-1.3,1.5c0,0.2,0.4,0.8,0.7,0.8c0.9,0,1.2-0.5,2.3-0.5c0.8,0,1.2,0.6,2.2,0.6
			c0.5,0,0.9-0.2,1.5-0.4c0.4,0.8,1.3,0.3,2,0.3c-0.2,0.5-0.8,0.5-0.8,1.3c0,0.2,0.3,0,0.4,0c0.9,0,1.5-1.2,2.1-2.2
			c0.6,0.7,0.1,2.2,0.7,2.2c0.2,0,0.4,0.2,0.6,0.2c0,0.3,0.2,1,0.7,1c0.7,0,1.2-1,1.2-2c0-0.8-0.5-0.7-0.5-1.7
			c-0.4,0.3-0.2,0.5-1,0.5c0-0.6-0.5-0.9-0.5-1.3c0-0.3,0.7-0.5,0.7-1.2c-0.3,0-0.7,0.1-0.8,0.2c0-1.2,0.1-2,0.1-2.7
			c-0.4,0.2-1.3,0.2-2.1,0l-0.9,0.3v-0.4h-1.3v-0.7l0.4-0.4c-0.3-0.3-0.7-0.4-1.2-0.4c-0.5,0-0.5,0.5-1.1,0.6v-0.7
			C231.9,109,233.4,108.1,233.4,106.3z"/>
		<path class="st0" d="M637.6,17.6c0.7,0,1.1-0.7,1.6-1.2c0.4,0.5,0.7,0.8,1.3,0.8c0.7,0,1.2-0.6,1.6-0.6c0.6,0,0.9-0.6,1.5-0.6
			c0.5,0,0.8,0.8,1.3,0.8c0.9,0,1.2-0.8,1.8-0.8h2c0-0.6,1-1.5,1.3-2.7c-1.5-0.5-5.8-2.2-7.2-2.2c-0.9,0-1.2,1-1.2,2.2
			c-2,0-2.1-2.6-4.4-2.6c-1.5,0-3.3,1.4-3.3,3.3C633.9,15.9,635.7,17.6,637.6,17.6z"/>
		<path class="st0" d="M180.7,102.2c0.1,0,0.4,0.1,0.4,0c0-1.1-1.2-1.4-2.5-1.4c0.1,0.2,0.1,0.4,0,0.6
			C179,101.9,180.1,102.2,180.7,102.2z"/>
		<path class="st0" d="M85.8,112.7c1.2,0.8,3.7,3,5.4,3h0.7v-0.7c-1.9-2.1-3.7-4.1-6.8-5.2c-0.5-0.2-1.2-1.1-2-1.1
			c-0.4,0-0.7,0.2-1,0.4h0.3c0,0,0.7,0.2,1.1,0.3c-0.1,0.2-0.4,0.6-0.7,0.7c0.3,1,2.3,1.8,3.8,1.8C86.3,112.1,86,112.1,85.8,112.7z"
			/>
		<path class="st0" d="M74.9,101.6c0-0.4-0.4-0.6-0.4-1c0-0.8,0.2-1.3,0-1.8c-0.1,0.4-0.4,1.1-0.9,1.1c-0.4,0,0.4-0.9,0.4-1
			c-0.7-0.1-1-0.6-1.7-0.6V99c0.3,0.5,0.6,1.5,0.9,1.5c0.4,0,0.6,0.9,1.2,1.1c0,0.2-0.3,0.4-0.3,0.9c0,0.7,0.4,1.5,1,1.5
			c0.7,0-0.6-1.2-0.6-1.5C74.5,102.1,74.9,101.9,74.9,101.6z"/>
		<path class="st0" d="M27.7,87.2v1c0.5,0.4,0.9,0.5,1.5,1.1c1.1-1,1.5-1.6,2.9-2.3v-1h-0.9C29.9,86,28.9,86.8,27.7,87.2z"/>
		<path class="st0" d="M380.4,144.2c-1.1-0.2-1.5,0.5-2.5,0.5c-1,0-1.7-1.1-3.2-0.3v0.6c0.2,0.4,0.8,0.3,1,0.4
			c1.2,0.4,2.1,1.8,3.4,2.1c0,0.2,0.4,0.3,0.6,0.3c0.2,0,0.4-0.3,0.4-0.6c0-0.6-0.4-0.7-0.4-1.3c0-0.3,0.4-0.9,0.4-0.9L380.4,144.2z
			"/>
		<path class="st0" d="M368.1,135.1c0.2-0.5,0.4-2.3,0.7-3.3c-0.2-0.1-0.3-0.5-0.3-0.9c-0.4,0.1-0.7,0.8-1.2,0.8
			c-0.1,0-0.4,0.2-0.5,0.2C367.1,132.5,367.3,134.9,368.1,135.1z"/>
		<path class="st0" d="M366.2,136.7c0.1,0.6,0.7,1,0.7,1.7c0,0.6-0.4,1-0.4,1.6c0,0.7,0,1.7,0.7,1.7c0.6,0,1.9-1.1,1.9-2.3
			c0-1.3,0.2-2-0.5-3.3c-0.2,0-0.4-0.5-0.9-0.5C367.1,135.6,367,136.5,366.2,136.7z"/>
		<path class="st0" d="M356,140.2c0-0.2-0.4-0.7-0.4-0.9c-0.4,0.1-0.7,0.3-1.2,0.6c0.1,0.1,0.7,0.7,0.9,0.7
			C355.6,140.6,356,140.4,356,140.2z"/>
		<path class="st0" d="M371.5,94.1c0-0.8-0.5-0.7-0.5-1.6h-1.4v0.8c0,0.8,0.8,1.1,1.7,1.1V95C371.3,94.6,371.5,94.7,371.5,94.1z"/>
		<path class="st0" d="M372.4,94.9l-0.1-0.3c-0.1,0.1-0.3,0.2-0.4,0.4c0.1,0.1,0.5,0.5,1,0.5c1.6,0,1-2.9,2.3-3.3
			c-0.4-1.4-0.4-2.1-1.9-2.1c-0.5,0-1.4,2.1-1.4,2.4c0,0.5,0.8,1.1,1.5,1.3C373.4,94.2,372.9,94.8,372.4,94.9z"/>
		<path class="st0" d="M388.1,84.1c-1.3,0.1-1.7,1.5-1.7,2c0,0.4-0.2,0.7,0,1.1c0.5-0.7,1.1-1.1,1.1-2
			C387.5,84.8,387.9,84.5,388.1,84.1z"/>
		<path class="st0" d="M394.6,83.7c0.3,0,1.2-0.6,1.2-0.8v-1c0.1-0.1,0.5-0.6,0.6-1.1c-0.3-0.2-0.4-0.3-0.8-0.8c0,0-0.6,0.4-0.6,0.8
			c0,0.4,0.3,0.7,0.5,1c-0.6,0.1-1,0.6-1.6,0.7C393.9,83,394,83.7,394.6,83.7z"/>
		<path class="st0" d="M403,152c-1.2-0.4-3-0.8-4.6-0.5c0.8,0.5,2.2,0.7,2.8,0.7C401.7,152.2,402.1,152.6,403,152z"/>
		<path class="st0" d="M420.3,150.6c-1.2,0.2-3.1,1.1-4.2,1.6c0,0.2,0.2,0.4,0.4,0.4c0,0.2,0.3,0.4,0.5,0.4c0.7,0,2-0.4,2.3-0.9
			c0.1-0.3-0.1-0.7,0.1-0.8C419.8,151,420.1,151.4,420.3,150.6z"/>
		<path class="st0" d="M460.2,209c0.6,0,1.2-0.7,1.3-1c-0.9,0-1.5,0.2-2.1,0.4C459.5,208.8,460,209,460.2,209z"/>
		<path class="st0" d="M449.1,41.8c-0.2,0-1,1.5-1,1.9c0,0.8,0.4,1,1.3,1c1.2,0,2.1-0.8,3.1-1.4v-1.1c-1-0.2-1.5-1.2-2.6-1.2
			C449.6,41,449.4,41.8,449.1,41.8z"/>
		<path class="st0" d="M470,38.4c0,1,1.6,2,2.6,2c0,0,0.9,0.2,0.9-0.4C473.6,38.4,470,36.7,470,38.4z"/>
		<path class="st0" d="M494,26.1c0.9,0,2.6-0.6,2.9-0.9c-0.7-0.7-0.9-1.6-1.8-1.6c-0.7,0-1.1,0.9-1.1,1.6
			C494,25.6,493.8,26.1,494,26.1z"/>
		<path class="st0" d="M645,24.5h2.2c-0.1-1.9-1.5-3.3-3.4-3.3c-1.7,0-2.6,1.2-3.5,2.4l0.4-0.4C642,23.8,643.7,23.7,645,24.5z"/>
		<path class="st0" d="M659.5,17.3c1.2,0,3.3-0.3,3.3-1.2c0-0.4-0.3-0.8-0.7-0.8c-0.3,0-8-1.1-8.6-1.6l0.7,0.6
			C654.2,16.3,657.6,17.3,659.5,17.3z"/>
		<path class="st0" d="M642.1,20.2c0-1.1-2-1.3-2,0c0,0.7,0.1,1.1,0.9,1.1C641.5,21.2,642.1,20.8,642.1,20.2z"/>
		<path class="st0" d="M220.5,112.9c-1.5-1-2.9-2.5-5.2-1.9c0.9,0.7,3,2.4,4.2,2.4C220.1,113.4,220.3,113.3,220.5,112.9z"/>
		<path class="st0" d="M216,119.8c-0.1,0.1-0.3,0.3-0.3,0.6c0,0.6,2.7,2.1,3.2,2.1c0.1,0,0.9-0.4,0.9-0.9V121h-2.2
			C216.9,120.9,216.4,120.6,216,119.8z"/>
		<path class="st0" d="M224.4,122.4v-0.6c-1.7,0-0.6-0.5-0.6-1.2c0-0.3-0.4-0.5-0.5-0.8c-0.7,0.2-1.7,2.3-1.7,2.8
			c0,0.5,0.4,0.9,1.2,0.9C223.6,123.5,224.4,123,224.4,122.4z"/>
		<path class="st0" d="M3.8,77.5c-0.6,0-0.8-0.2-1.1,0.6H1.6c0.1,0.3,0.6,0.6,0.9,0.8h2.4C4.7,78,4.6,77.5,3.8,77.5z"/>
	</g>
</g>
</svg>
